<?xml version="1.0" encoding="utf-8"?>
<!-- Generator: Adobe Illustrator 23.0.1, SVG Export Plug-In . SVG Version: 6.00 Build 0)  -->
<svg version="1.1" id="Layer_1" xmlns="http://www.w3.org/2000/svg" xmlns:xlink="http://www.w3.org/1999/xlink" x="0px" y="0px"
	 viewBox="0 0 85.3 19.5" style="enable-background:new 0 0 85.3 19.5;" xml:space="preserve">
<style type="text/css">
	.st0{fill:#999999;}
	.st1{fill:#FFFFFF;}
	.st2{fill:url(#SVGID_1_);}
	.st3{opacity:0.2;fill:url(#SVGID_2_);}
	.st4{clip-path:url(#SVGID_4_);}
	.st5{opacity:0.64;}
	.st6{opacity:0;fill:#FFFFFF;}
	.st7{opacity:1.470588e-02;fill:#FEFEFE;}
	.st8{opacity:2.941176e-02;fill:#FDFDFD;}
	.st9{opacity:4.411765e-02;fill:#FCFCFC;}
	.st10{opacity:5.882353e-02;fill:#FBFBFB;}
	.st11{opacity:7.352941e-02;fill:#FAFAFA;}
	.st12{opacity:8.823530e-02;fill:#F9F9F9;}
	.st13{opacity:0.1029;fill:#F8F8F9;}
	.st14{opacity:0.1176;fill:#F7F7F8;}
	.st15{opacity:0.1324;fill:#F6F6F7;}
	.st16{opacity:0.1471;fill:#F5F5F6;}
	.st17{opacity:0.1618;fill:#F4F4F5;}
	.st18{opacity:0.1765;fill:#F3F4F4;}
	.st19{opacity:0.1912;fill:#F2F3F3;}
	.st20{opacity:0.2059;fill:#F1F2F2;}
	.st21{opacity:0.2206;fill:#F0F1F1;}
	.st22{opacity:0.2353;fill:#EFF0F0;}
	.st23{opacity:0.25;fill:#EEEFEF;}
	.st24{opacity:0.2647;fill:#EDEEEE;}
	.st25{opacity:0.2794;fill:#ECEDED;}
	.st26{opacity:0.2941;fill:#EBECEC;}
	.st27{opacity:0.3088;fill:#EAEBEC;}
	.st28{opacity:0.3235;fill:#E9EAEB;}
	.st29{opacity:0.3382;fill:#E8E9EA;}
	.st30{opacity:0.3529;fill:#E7E8E9;}
	.st31{opacity:0.3676;fill:#E6E7E8;}
	.st32{opacity:0.3824;fill:#E5E6E7;}
	.st33{opacity:0.3971;fill:#E4E5E6;}
	.st34{opacity:0.4118;fill:#E3E4E5;}
	.st35{opacity:0.4265;fill:#E2E3E4;}
	.st36{opacity:0.4412;fill:#E1E2E3;}
	.st37{opacity:0.4559;fill:#E0E1E2;}
	.st38{opacity:0.4706;fill:#DFE0E1;}
	.st39{opacity:0.4853;fill:#DEDFE0;}
	.st40{opacity:0.5;fill:#DDDEE0;}
	.st41{opacity:0.5147;fill:#DCDDDF;}
	.st42{opacity:0.5294;fill:#DBDDDE;}
	.st43{opacity:0.5441;fill:#DBDCDD;}
	.st44{opacity:0.5588;fill:#DADBDC;}
	.st45{opacity:0.5735;fill:#D9DADB;}
	.st46{opacity:0.5882;fill:#D8D9DA;}
	.st47{opacity:0.6029;fill:#D7D8D9;}
	.st48{opacity:0.6176;fill:#D6D7D8;}
	.st49{opacity:0.6324;fill:#D5D6D7;}
	.st50{opacity:0.6471;fill:#D4D5D6;}
	.st51{opacity:0.6618;fill:#D3D4D5;}
	.st52{opacity:0.6765;fill:#D2D3D4;}
	.st53{opacity:0.6912;fill:#D1D2D3;}
	.st54{opacity:0.7059;fill:#D0D1D3;}
	.st55{opacity:0.7206;fill:#CFD0D2;}
	.st56{opacity:0.7353;fill:#CECFD1;}
	.st57{opacity:0.75;fill:#CDCED0;}
	.st58{opacity:0.7647;fill:#CCCDCF;}
	.st59{opacity:0.7794;fill:#CBCCCE;}
	.st60{opacity:0.7941;fill:#CACBCD;}
	.st61{opacity:0.8088;fill:#C9CACC;}
	.st62{opacity:0.8235;fill:#C8C9CB;}
	.st63{opacity:0.8382;fill:#C7C8CA;}
	.st64{opacity:0.8529;fill:#C6C7C9;}
	.st65{opacity:0.8676;fill:#C5C6C8;}
	.st66{opacity:0.8824;fill:#C4C6C7;}
	.st67{opacity:0.8971;fill:#C3C5C7;}
	.st68{opacity:0.9118;fill:#C2C4C6;}
	.st69{opacity:0.9265;fill:#C1C3C5;}
	.st70{opacity:0.9412;fill:#C0C2C4;}
	.st71{opacity:0.9559;fill:#BFC1C3;}
	.st72{opacity:0.9706;fill:#BEC0C2;}
	.st73{opacity:0.9853;fill:#BDBFC1;}
	.st74{fill:#B3B3B3;}
	.st75{fill:#FAFAFA;}
	.st76{fill:#E6E6E6;}
	.st77{opacity:0.24;}
	.st78{opacity:0.41;}
	.st79{opacity:0.2;}
	.st80{opacity:0.38;}
	.st81{fill:url(#SVGID_5_);}
	.st82{opacity:0.28;}
</style>
<g>
	<path class="st0" d="M8.3,8.1c0-4.2,3.3-7.6,7.4-7.6h53.9c4.1,0,7.4,3.4,7.4,7.6l0,0c0,4.2-3.3,7.6-7.4,7.6H15.7
		C11.7,15.7,8.3,12.3,8.3,8.1L8.3,8.1z"/>
</g>
<rect y="0.5" class="st1" width="85.3" height="19"/>
<radialGradient id="SVGID_1_" cx="102.6872" cy="25.4834" r="88.5974" gradientTransform="matrix(-1 0 0 -1 143.0204 30.7826)" gradientUnits="userSpaceOnUse">
	<stop  offset="0" style="stop-color:#FFFFFF"/>
	<stop  offset="0.6081" style="stop-color:#F8F8F8"/>
	<stop  offset="1" style="stop-color:#F0F0F0"/>
</radialGradient>
<rect class="st2" width="85.3" height="19"/>
<radialGradient id="SVGID_2_" cx="100.3954" cy="21.9818" r="30.7762" gradientTransform="matrix(-1 0 0 -1 143.0204 30.7826)" gradientUnits="userSpaceOnUse">
	<stop  offset="0.2312" style="stop-color:#FFFFFF"/>
	<stop  offset="0.3845" style="stop-color:#F8F8F8"/>
	<stop  offset="0.6153" style="stop-color:#E3E3E3"/>
	<stop  offset="0.8938" style="stop-color:#C1C1C1"/>
	<stop  offset="1" style="stop-color:#B3B3B3"/>
</radialGradient>
<path class="st3" d="M85.3,15.8V0L0,0l0,3.3l84.7,14.3C85,17.1,85.3,16.4,85.3,15.8z"/>
<g>
	<defs>
		<path id="SVGID_3_" d="M0,3.3C0,1.5,1.5,0,3.3,0h82v19H0V3.3z"/>
	</defs>
	<clipPath id="SVGID_4_">
		<use xlink:href="#SVGID_3_"  style="overflow:visible;"/>
	</clipPath>
	<g class="st4">
		<g>
			<g class="st5">
				<g>
					<path class="st6" d="M79.1-9.3c2,1.2,1.8,2.3,0.1,5.1L74.4,7.3c-1.7,2.8-5.4,3.5-7.3,2.3l-17-6.5c-2-1.2-1,1.8,0.8-1l7.8-18.8
						c1.7-2.8,10.1-0.4,12.1,0.8L79.1-9.3z"/>
					<path class="st7" d="M78.9-9.2c2,1.2,1.8,2.3,0.1,5.1L74.3,7.2c-1.7,2.8-5.3,3.5-7.3,2.3L50.2,3c-2-1.2-1,1.8,0.7-1l7.7-18.7
						c1.7-2.8,10-0.5,12,0.7L78.9-9.2z"/>
					<path class="st8" d="M78.7-9.2c2,1.2,1.8,2.3,0.1,5L74.1,7.1c-1.7,2.8-5.3,3.5-7.2,2.3L50.3,3c-2-1.2-1,1.7,0.7-1l7.6-18.5
						c1.7-2.8,9.9-0.6,11.8,0.6L78.7-9.2z"/>
					<path class="st9" d="M78.5-9.2c1.9,1.2,1.7,2.3,0.1,5L73.9,7c-1.7,2.7-5.2,3.5-7.2,2.3L50.4,2.9c-1.9-1.2-1,1.7,0.7-1.1
						l7.5-18.3c1.7-2.7,9.8-0.7,11.7,0.6L78.5-9.2z"/>
					<path class="st10" d="M78.3-9.1c1.9,1.2,1.7,2.3,0.1,4.9L73.7,6.9c-1.7,2.7-5.2,3.5-7.1,2.3L50.5,2.9c-1.9-1.2-1.1,1.6,0.6-1.1
						l7.5-18.2c1.7-2.7,9.6-0.7,11.6,0.5L78.3-9.1z"/>
					<path class="st11" d="M78.1-9.1c1.9,1.2,1.7,2.3,0.1,4.9l-4.6,11c-1.7,2.7-5.1,3.5-7,2.3L50.5,2.8c-1.9-1.2-1.1,1.6,0.6-1.1
						l7.4-18c1.7-2.7,9.5-0.8,11.4,0.4L78.1-9.1z"/>
					<path class="st12" d="M77.9-9c1.9,1.2,1.7,2.3,0.1,4.9L73.3,6.8c-1.7,2.7-5.1,3.5-7,2.3L50.6,2.8c-1.9-1.2-1.1,1.6,0.6-1.1
						l7.3-17.8c1.7-2.7,9.4-0.9,11.3,0.3L77.9-9z"/>
					<path class="st13" d="M77.7-9c1.9,1.2,1.7,2.3,0.1,4.8L73.1,6.7c-1.7,2.7-5,3.5-6.9,2.3L50.7,2.7c-1.9-1.2-1.1,1.5,0.6-1.2
						l7.2-17.6c1.7-2.7,9.3-1,11.2,0.2L77.7-9z"/>
					<path class="st14" d="M77.5-8.9c1.9,1.2,1.7,2.3,0.1,4.8L73,6.6c-1.6,2.6-5,3.5-6.9,2.4L50.8,2.7c-1.9-1.2-1.1,1.5,0.5-1.2
						L58.5-16c1.6-2.6,9.2-1,11.1,0.1L77.5-8.9z"/>
					<path class="st15" d="M77.3-8.9c1.9,1.2,1.6,2.3,0.1,4.7L72.8,6.5C71.1,9.1,67.8,10,66,8.9L50.9,2.6C49,1.5,49.7,4,51.4,1.4
						l7.1-17.3c1.6-2.6,9.1-1.1,10.9,0.1L77.3-8.9z"/>
					<path class="st16" d="M77-8.9c1.9,1.2,1.6,2.2,0.1,4.7L72.6,6.4C71,9,67.7,9.9,65.9,8.8L51,2.6c-1.9-1.2-1.2,1.4,0.5-1.2
						l7-17.1c1.6-2.6,8.9-1.2,10.8,0L77-8.9z"/>
					<path class="st17" d="M76.8-8.8c1.8,1.1,1.6,2.2,0.1,4.7L72.4,6.3c-1.6,2.6-4.8,3.5-6.7,2.4L51.1,2.5c-1.8-1.1-1.2,1.3,0.4-1.3
						l6.9-16.9c1.6-2.6,8.8-1.3,10.7-0.1L76.8-8.8z"/>
					<path class="st18" d="M76.6-8.8c1.8,1.1,1.6,2.2,0.1,4.6L72.2,6.2c-1.6,2.6-4.8,3.5-6.6,2.4L51.1,2.5c-1.8-1.1-1.2,1.3,0.4-1.3
						l6.9-16.8c1.6-2.6,8.7-1.3,10.5-0.2L76.6-8.8z"/>
					<path class="st19" d="M76.4-8.7c1.8,1.1,1.6,2.2,0.1,4.6L72,6.1c-1.6,2.6-4.7,3.5-6.5,2.4L51.2,2.4c-1.8-1.1-1.2,1.3,0.4-1.3
						l6.8-16.6c1.6-2.6,8.6-1.4,10.4-0.3L76.4-8.7z"/>
					<path class="st20" d="M76.2-8.7c1.8,1.1,1.6,2.2,0.1,4.5L71.8,6c-1.6,2.5-4.7,3.5-6.5,2.4l-14-6.1c-1.8-1.1-1.2,1.2,0.4-1.3
						l6.7-16.4c1.6-2.5,8.5-1.5,10.3-0.4L76.2-8.7z"/>
					<path class="st21" d="M76-8.7c1.8,1.1,1.5,2.2,0.1,4.5L71.7,6c-1.6,2.5-4.6,3.5-6.4,2.4L51.4,2.3c-1.8-1.1-1.3,1.2,0.3-1.4
						l6.6-16.3c1.6-2.5,8.3-1.6,10.1-0.4L76-8.7z"/>
					<path class="st22" d="M75.8-8.6c1.8,1.1,1.5,2.2,0.1,4.4l-4.4,10c-1.6,2.5-4.6,3.6-6.4,2.4L51.5,2.2c-1.8-1.1-1.3,1.1,0.3-1.4
						l6.6-16.1c1.6-2.5,8.2-1.6,10-0.5L75.8-8.6z"/>
					<path class="st23" d="M75.6-8.6c1.8,1.1,1.5,2.2,0.1,4.4l-4.4,10c-1.6,2.5-4.5,3.6-6.3,2.5l-13.4-6c-1.8-1.1-1.3,1.1,0.3-1.4
						l6.5-15.9c1.6-2.5,8.1-1.7,9.9-0.6L75.6-8.6z"/>
					<path class="st24" d="M75.4-8.5c1.8,1.1,1.5,2.2,0.1,4.4l-4.4,9.9c-1.5,2.5-4.5,3.6-6.2,2.5l-13.2-6c-1.8-1.1-1.3,1,0.2-1.4
						L58.3-15c1.5-2.5,8-1.8,9.7-0.7L75.4-8.5z"/>
					<path class="st25" d="M75.2-8.5c1.7,1.1,1.5,2.2,0.1,4.3l-4.4,9.8c-1.5,2.5-4.4,3.6-6.2,2.5l-13-6C50,1,50.4,3.1,52,0.6
						l6.3-15.6c1.5-2.5,7.9-1.9,9.6-0.8L75.2-8.5z"/>
					<path class="st26" d="M75-8.5c1.7,1.1,1.5,2.2,0.1,4.3l-4.3,9.7c-1.5,2.4-4.4,3.6-6.1,2.5L51.8,2C50.1,1,50.5,3,52,0.6
						l6.3-15.4c1.5-2.4,7.8-1.9,9.5-0.9L75-8.5z"/>
					<path class="st27" d="M74.8-8.4c1.7,1.1,1.4,2.2,0.1,4.2l-4.3,9.6C69,7.8,66.2,9,64.5,7.9L51.9,2c-1.7-1.1-1.4,0.9,0.2-1.5
						l6.2-15.2c1.5-2.4,7.6-2,9.4-0.9L74.8-8.4z"/>
					<path class="st28" d="M74.6-8.4c1.7,1.1,1.4,2.2,0.1,4.2l-4.3,9.5c-1.5,2.4-4.3,3.6-6,2.5L52,1.9c-1.7-1.1-1.4,0.9,0.1-1.5
						l6.1-15c1.5-2.4,7.5-2.1,9.2-1L74.6-8.4z"/>
					<path class="st29" d="M74.4-8.3c1.7,1.1,1.4,2.2,0.1,4.1l-4.3,9.4c-1.5,2.4-4.3,3.6-5.9,2.5L52.1,1.9c-1.7-1.1-1.4,0.8,0.1-1.6
						l6-14.9c1.5-2.4,7.4-2.2,9.1-1.1L74.4-8.3z"/>
					<path class="st30" d="M74.1-8.3c1.7,1,1.4,2.1,0.1,4.1L70,5.1c-1.5,2.4-4.2,3.6-5.9,2.5L52.2,1.8c-1.7-1-1.4,0.8,0.1-1.6
						l6-14.7c1.5-2.4,7.3-2.2,9-1.2L74.1-8.3z"/>
					<path class="st31" d="M73.9-8.3c1.7,1,1.4,2.1,0.1,4.1l-4.2,9.2c-1.5,2.4-4.2,3.6-5.8,2.5L52.3,1.8c-1.7-1-1.4,0.7,0-1.6
						l5.9-14.5c1.5-2.4,7.2-2.3,8.8-1.3L73.9-8.3z"/>
					<path class="st32" d="M73.7-8.2c1.7,1,1.4,2.1,0.1,4L69.6,5c-1.5,2.3-4.1,3.6-5.8,2.6L52.4,1.7c-1.7-1-1.4,0.7,0-1.6l5.8-14.3
						c1.5-2.3,7-2.4,8.7-1.3L73.7-8.2z"/>
					<path class="st33" d="M73.5-8.2c1.6,1,1.3,2.1,0.1,4l-4.2,9.1c-1.4,2.3-4.1,3.6-5.7,2.6L52.4,1.7c-1.6-1-1.5,0.7,0-1.7
						l5.7-14.2c1.4-2.3,6.9-2.5,8.6-1.4L73.5-8.2z"/>
					<path class="st34" d="M73.3-8.1c1.6,1,1.3,2.1,0.1,3.9l-4.2,9c-1.4,2.3-4,3.6-5.6,2.6L52.5,1.6c-1.6-1-1.5,0.6,0-1.7l5.6-14
						c1.4-2.3,6.8-2.5,8.4-1.5L73.3-8.1z"/>
					<path class="st35" d="M73.1-8.1c1.6,1,1.3,2.1,0.1,3.9l-4.2,8.9c-1.4,2.3-4,3.6-5.6,2.6L52.6,1.6c-1.6-1-1.5,0.6-0.1-1.7
						L58.1-14c1.4-2.3,6.7-2.6,8.3-1.6L73.1-8.1z"/>
					<path class="st36" d="M72.9-8C74.5-7,74.2-6,73-4.2l-4.1,8.8c-1.4,2.3-3.9,3.6-5.5,2.6L52.7,1.5c-1.6-1-1.5,0.5-0.1-1.7
						l5.5-13.7c1.4-2.3,6.6-2.7,8.2-1.7L72.9-8z"/>
					<path class="st37" d="M72.7-8c1.6,1,1.3,2.1,0.1,3.8l-4.1,8.7c-1.4,2.2-3.9,3.6-5.5,2.6L52.8,1.5c-1.6-1-1.5,0.5-0.1-1.8
						l5.4-13.5c1.4-2.2,6.5-2.8,8-1.8L72.7-8z"/>
					<path class="st38" d="M72.5-8c1.6,1,1.3,2.1,0.1,3.8l-4.1,8.6C67.1,6.7,64.7,8,63.1,7L52.9,1.4c-1.6-1-1.6,0.4-0.2-1.8
						l5.3-13.3c1.4-2.2,6.3-2.8,7.9-1.8L72.5-8z"/>
					<path class="st39" d="M72.3-7.9c1.6,1,1.2,2.1,0.1,3.7l-4.1,8.5C66.9,6.6,64.5,7.9,63,7L53,1.3c-1.6-1-1.6,0.4-0.2-1.8L58-13.6
						c1.4-2.2,6.2-2.9,7.8-1.9L72.3-7.9z"/>
					<path class="st40" d="M72.1-7.9c1.6,1,1.2,2.1,0.1,3.7l-4.1,8.5c-1.4,2.2-3.7,3.6-5.3,2.6L53,1.3c-1.6-1-1.6,0.4-0.2-1.8
						l5.2-13c1.4-2.2,6.1-3,7.7-2L72.1-7.9z"/>
					<path class="st41" d="M71.9-7.8c1.5,1,1.2,2.1,0.1,3.6l-4,8.4c-1.4,2.2-3.7,3.6-5.2,2.6l-9.6-5.6c-1.5-1-1.6,0.3-0.3-1.9
						L58-13.4c1.4-2.2,6-3,7.5-2.1L71.9-7.8z"/>
					<path class="st42" d="M71.7-7.8c1.5,1,1.2,2.1,0.1,3.6l-4,8.3c-1.3,2.2-3.6,3.6-5.2,2.7l-9.4-5.5c-1.5-1-1.6,0.3-0.3-1.9
						l5-12.6c1.3-2.2,5.9-3.1,7.4-2.2L71.7-7.8z"/>
					<path class="st43" d="M71.4-7.8c1.5,0.9,1.2,2,0.1,3.6l-4,8.2c-1.3,2.1-3.6,3.6-5.1,2.7l-9.2-5.5c-1.5-0.9-1.6,0.2-0.3-1.9
						l5-12.4c1.3-2.1,5.7-3.2,7.3-2.3L71.4-7.8z"/>
					<path class="st44" d="M71.2-7.7c1.5,0.9,1.2,2,0.1,3.5l-4,8.1c-1.3,2.1-3.5,3.6-5,2.7l-9-5.5c-1.5-0.9-1.7,0.2-0.3-1.9
						l4.9-12.3c1.3-2.1,5.6-3.3,7.1-2.3L71.2-7.7z"/>
					<path class="st45" d="M71-7.7c1.5,0.9,1.1,2,0.1,3.5l-4,8c-1.3,2.1-3.5,3.6-5,2.7L53.5,1c-1.5-0.9-1.7,0.1-0.4-2L57.9-13
						c1.3-2.1,5.5-3.3,7-2.4L71-7.7z"/>
					<path class="st46" d="M70.8-7.6c1.5,0.9,1.1,2,0.1,3.4L67,3.7c-1.3,2.1-3.4,3.6-4.9,2.7L53.6,1c-1.5-0.9-1.7,0.1-0.4-2
						l4.7-11.9c1.3-2.1,5.4-3.4,6.9-2.5L70.8-7.6z"/>
					<path class="st47" d="M70.6-7.6c1.5,0.9,1.1,2,0.1,3.4l-3.9,7.8c-1.3,2.1-3.4,3.6-4.9,2.7l-8.3-5.4c-1.5-0.9-1.7,0.1-0.4-2
						l4.7-11.7c1.3-2.1,5.3-3.5,6.7-2.6L70.6-7.6z"/>
					<path class="st48" d="M70.4-7.6c1.5,0.9,1.1,2,0.1,3.4l-3.9,7.7c-1.3,2.1-3.3,3.6-4.8,2.7l-8.1-5.4c-1.5-0.9-1.7,0-0.5-2
						l4.6-11.6c1.3-2.1,5.1-3.6,6.6-2.7L70.4-7.6z"/>
					<path class="st49" d="M70.2-7.5c1.4,0.9,1.1,2,0.1,3.3l-3.9,7.7c-1.3,2-3.3,3.6-4.7,2.7l-7.9-5.4c-1.4-0.9-1.7,0-0.5-2.1
						l4.5-11.4c1.3-2,5-3.6,6.5-2.7L70.2-7.5z"/>
					<path class="st50" d="M70-7.5c1.4,0.9,1.1,2,0.1,3.3l-3.9,7.6C65,5.4,63,7,61.6,6.1l-7.7-5.3c-1.4-0.9-1.8-0.1-0.5-2.1
						l4.4-11.2c1.3-2,4.9-3.7,6.3-2.8L70-7.5z"/>
					<path class="st51" d="M69.8-7.4c1.4,0.9,1,2,0.2,3.2l-3.8,7.5c-1.2,2-3.2,3.6-4.6,2.8L54,0.7c-1.4-0.9-1.8-0.1-0.5-2.1
						l4.4-11.1c1.2-2,4.8-3.8,6.2-2.9L69.8-7.4z"/>
					<path class="st52" d="M69.6-7.4c1.4,0.9,1,2,0.2,3.2l-3.8,7.4c-1.2,2-3.1,3.6-4.6,2.8l-7.3-5.3c-1.4-0.9-1.8-0.1-0.6-2.1
						l4.3-10.9c1.2-2,4.7-3.9,6.1-3L69.6-7.4z"/>
					<path class="st53" d="M69.4-7.4c1.4,0.9,1,2,0.2,3.1l-3.8,7.3c-1.2,2-3.1,3.6-4.5,2.8l-7.1-5.3c-1.4-0.9-1.8-0.2-0.6-2.2
						l4.2-10.7c1.2-2,4.6-3.9,6-3.1L69.4-7.4z"/>
					<path class="st54" d="M69.2-7.3c1.4,0.9,1,2,0.2,3.1L65.5,3c-1.2,1.9-3.1,3.6-4.4,2.8l-6.8-5.2c-1.4-0.9-1.8-0.2-0.6-2.2
						l4.1-10.5c1.2-1.9,4.4-4,5.8-3.2L69.2-7.3z"/>
					<path class="st55" d="M69-7.3c1.4,0.9,1,2,0.2,3.1l-3.8,7.1c-1.2,1.9-3,3.7-4.4,2.8l-6.6-5.2c-1.4-0.9-1.9-0.3-0.7-2.2
						l4.1-10.4c1.2-1.9,4.3-4.1,5.7-3.2L69-7.3z"/>
					<path class="st56" d="M68.8-7.2c1.4,0.8,1,2,0.2,3l-3.7,7c-1.2,1.9-3,3.7-4.3,2.8l-6.4-5.2c-1.4-0.8-1.9-0.3-0.7-2.2l4-10.2
						c1.2-1.9,4.2-4.2,5.6-3.3L68.8-7.2z"/>
					<path class="st57" d="M68.5-7.2c1.3,0.8,0.9,1.9,0.2,3L65,2.7c-1.2,1.9-2.9,3.7-4.3,2.8l-6.2-5.2c-1.3-0.8-1.9-0.4-0.7-2.3
						l3.9-10c1.2-1.9,4.1-4.2,5.4-3.4L68.5-7.2z"/>
					<path class="st58" d="M68.3-7.1c1.3,0.8,0.9,1.9,0.2,2.9l-3.7,6.9c-1.2,1.9-2.9,3.7-4.2,2.8l-6-5.1c-1.3-0.8-1.9-0.4-0.7-2.3
						l3.8-9.8c1.2-1.9,4-4.3,5.3-3.5L68.3-7.1z"/>
					<path class="st59" d="M68.1-7.1c1.3,0.8,0.9,1.9,0.2,2.9l-3.7,6.8c-1.2,1.9-2.8,3.7-4.1,2.8l-5.8-5.1c-1.3-0.8-1.9-0.4-0.8-2.3
						l3.8-9.7c1.2-1.9,3.8-4.4,5.2-3.6L68.1-7.1z"/>
					<path class="st60" d="M67.9-7.1c1.3,0.8,0.9,1.9,0.2,2.9l-3.7,6.7c-1.1,1.8-2.8,3.7-4.1,2.9l-5.6-5.1c-1.3-0.8-1.9-0.5-0.8-2.3
						l3.7-9.5c1.1-1.8,3.7-4.5,5-3.7L67.9-7.1z"/>
					<path class="st61" d="M67.7-7c1.3,0.8,0.9,1.9,0.2,2.8l-3.6,6.6c-1.1,1.8-2.7,3.7-4,2.9l-5.4-5c-1.3-0.8-2-0.5-0.8-2.4l3.6-9.3
						c1.1-1.8,3.6-4.5,4.9-3.7L67.7-7z"/>
					<path class="st62" d="M67.5-7c1.3,0.8,0.9,1.9,0.2,2.8l-3.6,6.5c-1.1,1.8-2.7,3.7-3.9,2.9l-5.2-5c-1.3-0.8-2-0.6-0.9-2.4
						l3.5-9.1c1.1-1.8,3.5-4.6,4.8-3.8L67.5-7z"/>
					<path class="st63" d="M67.3-6.9c1.3,0.8,0.8,1.9,0.2,2.7l-3.6,6.4C62.8,4,61.3,5.9,60,5.1l-4.9-5c-1.3-0.8-2-0.6-0.9-2.4l3.5-9
						c1.1-1.8,3.4-4.7,4.6-3.9L67.3-6.9z"/>
					<path class="st64" d="M67.1-6.9c1.3,0.8,0.8,1.9,0.2,2.7l-3.6,6.3c-1.1,1.8-2.6,3.7-3.8,2.9l-4.7-5c-1.3-0.8-2-0.7-0.9-2.4
						l3.4-8.8c1.1-1.8,3.3-4.8,4.5-4L67.1-6.9z"/>
					<path class="st65" d="M66.9-6.9c1.2,0.8,0.8,1.9,0.2,2.6L63.5,2c-1.1,1.8-2.5,3.7-3.8,2.9L55.2,0c-1.2-0.8-2-0.7-0.9-2.5
						l3.3-8.6c1.1-1.8,3.1-4.8,4.4-4.1L66.9-6.9z"/>
					<path class="st66" d="M66.7-6.8c1.2,0.8,0.8,1.9,0.2,2.6l-3.6,6.1c-1.1,1.7-2.5,3.7-3.7,2.9l-4.3-4.9c-1.2-0.8-2-0.7-1-2.5
						l3.2-8.5c1.1-1.7,3-4.9,4.3-4.1L66.7-6.8z"/>
					<path class="st67" d="M66.5-6.8c1.2,0.8,0.8,1.9,0.2,2.6l-3.5,6.1c-1.1,1.7-2.4,3.7-3.6,2.9l-4.1-4.9c-1.2-0.8-2.1-0.8-1-2.5
						l3.2-8.3c1.1-1.7,2.9-5,4.1-4.2L66.5-6.8z"/>
					<path class="st68" d="M66.3-6.7C67.5-6,67-4.9,66.5-4.2l-3.5,6c-1.1,1.7-2.4,3.7-3.6,2.9l-3.9-4.9c-1.2-0.8-2.1-0.8-1-2.5
						l3.1-8.1c1.1-1.7,2.8-5.1,4-4.3L66.3-6.7z"/>
					<path class="st69" d="M66.1-6.7c1.2,0.7,0.7,1.9,0.2,2.5l-3.5,5.9c-1,1.7-2.3,3.7-3.5,3l-3.7-4.8c-1.2-0.7-2.1-0.9-1.1-2.6
						l3-7.9c1-1.7,2.7-5.1,3.9-4.4L66.1-6.7z"/>
					<path class="st70" d="M65.8-6.7C67-5.9,66.6-4.8,66-4.2l-3.5,5.8c-1,1.7-2.3,3.7-3.5,3l-3.5-4.8c-1.2-0.7-2.1-0.9-1.1-2.6
						l2.9-7.8c1-1.7,2.5-5.2,3.7-4.5L65.8-6.7z"/>
					<path class="st71" d="M65.6-6.6c1.2,0.7,0.7,1.8,0.2,2.4l-3.5,5.7c-1,1.7-2.2,3.7-3.4,3l-3.3-4.8c-1.2-0.7-2.1-1-1.1-2.6
						l2.9-7.6c1-1.7,2.4-5.3,3.6-4.6L65.6-6.6z"/>
					<path class="st72" d="M65.4-6.6c1.2,0.7,0.7,1.8,0.2,2.3l-3.4,5.6c-1,1.6-2.2,3.7-3.3,3l-3-4.8c-1.2-0.7-2.2-1-1.1-2.6l2.8-7.4
						c1-1.6,2.3-5.4,3.5-4.6L65.4-6.6z"/>
					<path class="st73" d="M65.2-6.5c1.1,0.7,0.7,1.8,0.2,2.3L62,1.3c-1,1.6-2.1,3.7-3.3,3l-2.8-4.7c-1.1-0.7-2.2-1-1.2-2.7l2.7-7.2
						c1-1.6,2.2-5.4,3.3-4.7L65.2-6.5z"/>
					<path class="st74" d="M65-6.5c1.1,0.7,0.7,1.8,0.2,2.3l-3.4,5.4c-1,1.6-2.1,3.7-3.2,3L56-0.5c-1.1-0.7-2.2-1.1-1.2-2.7l2.6-7.1
						c1-1.6,2.1-5.5,3.2-4.8L65-6.5z"/>
				</g>
				<g>
					<polygon class="st75" points="48.8,-15.3 42.8,-5 48.8,5.4 54.8,-4.9 					"/>
					<polygon class="st76" points="48.8,5.4 60.7,5.4 66.7,-4.9 54.8,-4.9 					"/>
				</g>
			</g>
			<g class="st77">
				<g>
					<path class="st6" d="M102,7.7c3.3,2,2.9,3.8,0.1,8.4L94.3,35c-2.9,4.6-8.8,5.8-12.1,3.7l-28-10.7c-3.3-2-1.6,3,1.2-1.6l12.8-31
						c2.9-4.6,16.7-0.7,19.9,1.3L102,7.7z"/>
					<path class="st7" d="M101.6,7.8c3.2,2,2.9,3.8,0.1,8.3L94,34.9c-2.8,4.6-8.7,5.8-12,3.8L54.4,28c-3.2-2-1.7,2.9,1.2-1.7
						L68.2-4.4C71.1-9,84.7-5.2,87.9-3.2L101.6,7.8z"/>
					<path class="st8" d="M101.3,7.9c3.2,2,2.9,3.8,0.1,8.3l-7.7,18.6c-2.8,4.5-8.7,5.8-11.9,3.8L54.5,27.9c-3.2-2-1.7,2.8,1.1-1.7
						L68.2-4.2c2.8-4.5,16.3-1,19.5,1L101.3,7.9z"/>
					<path class="st9" d="M101,7.9c3.2,2,2.9,3.8,0.1,8.2l-7.7,18.4c-2.8,4.5-8.6,5.8-11.8,3.8L54.6,27.8c-3.2-2-1.7,2.8,1.1-1.7
						L68.2-4.1C71-8.6,84.2-5.2,87.4-3.2L101,7.9z"/>
					<path class="st10" d="M100.6,8c3.2,2,2.8,3.8,0.1,8.1l-7.7,18.3c-2.8,4.5-8.5,5.8-11.7,3.8L54.8,27.8c-3.2-2-1.7,2.7,1-1.8
						L68.1-3.9C70.9-8.4,84-5.1,87.2-3.2L100.6,8z"/>
					<path class="st11" d="M100.3,8.1c3.2,2,2.8,3.8,0.1,8.1l-7.6,18.2c-2.8,4.4-8.4,5.8-11.6,3.8L54.9,27.7c-3.2-2-1.8,2.6,1-1.8
						L68.1-3.8c2.8-4.4,15.7-1.3,18.8,0.6L100.3,8.1z"/>
					<path class="st12" d="M99.9,8.1c3.1,2,2.8,3.7,0.1,8l-7.6,18c-2.8,4.4-8.3,5.8-11.5,3.8L55.1,27.6c-3.1-2-1.8,2.6,1-1.9
						l12-29.3C70.8-8,83.6-5.1,86.7-3.1L99.9,8.1z"/>
					<path class="st13" d="M99.6,8.2c3.1,1.9,2.8,3.7,0.1,7.9L92.1,34c-2.7,4.4-8.3,5.8-11.4,3.9L55.2,27.5
						c-3.1-1.9-1.8,2.5,0.9-1.9L68-3.5C70.8-7.8,83.3-5,86.5-3.1L99.6,8.2z"/>
					<path class="st14" d="M99.3,8.3c3.1,1.9,2.7,3.7,0.1,7.9l-7.5,17.7c-2.7,4.4-8.2,5.8-11.3,3.9L55.4,27.4
						c-3.1-1.9-1.9,2.4,0.9-1.9L68-3.3C70.7-7.7,83.1-5,86.2-3.1L99.3,8.3z"/>
					<path class="st15" d="M98.9,8.3c3.1,1.9,2.7,3.7,0.1,7.8l-7.5,17.6c-2.7,4.3-8.1,5.8-11.2,3.9L55.5,27.3
						c-3.1-1.9-1.9,2.3,0.8-2L68-3.1C70.7-7.5,82.9-5,86-3L98.9,8.3z"/>
					<path class="st16" d="M98.6,8.4c3.1,1.9,2.7,3.7,0.1,7.7l-7.5,17.4c-2.7,4.3-8,5.8-11.1,3.9L55.6,27.2c-3.1-1.9-1.9,2.3,0.8-2
						L68-3c2.7-4.3,14.7-1.9,17.8,0L98.6,8.4z"/>
					<path class="st17" d="M98.2,8.5c3,1.9,2.6,3.7,0.1,7.7l-7.4,17.3c-2.7,4.3-8,5.8-11,3.9L55.8,27.1c-3-1.9-1.9,2.2,0.7-2.1
						L67.9-2.8C70.6-7.1,82.4-4.9,85.5-3L98.2,8.5z"/>
					<path class="st18" d="M97.9,8.5c3,1.9,2.6,3.7,0.1,7.6l-7.4,17.1c-2.6,4.2-7.9,5.8-10.9,3.9L55.9,27.1c-3-1.9-2,2.1,0.7-2.1
						L67.9-2.7C70.5-6.9,82.2-4.9,85.2-3L97.9,8.5z"/>
					<path class="st19" d="M97.5,8.6c3,1.9,2.6,3.7,0.1,7.5l-7.4,17c-2.6,4.2-7.8,5.8-10.8,4L56.1,27c-3-1.9-2,2.1,0.6-2.2L67.9-2.5
						C70.5-6.7,82-4.8,85-3L97.5,8.6z"/>
					<path class="st20" d="M97.2,8.7c3,1.9,2.6,3.7,0.1,7.4L90,33c-2.6,4.2-7.7,5.8-10.7,4L56.2,26.9c-3-1.9-2,2,0.6-2.2l11-27
						c2.6-4.2,13.9-2.4,16.9-0.6L97.2,8.7z"/>
					<path class="st21" d="M96.9,8.7c3,1.8,2.5,3.6,0.1,7.4l-7.3,16.7c-2.6,4.2-7.6,5.8-10.6,4l-22.8-10c-3-1.8-2.1,1.9,0.5-2.2
						L67.8-2.2c2.6-4.2,13.7-2.6,16.7-0.7L96.9,8.7z"/>
					<path class="st22" d="M96.5,8.8c2.9,1.8,2.5,3.6,0.1,7.3l-7.3,16.5c-2.6,4.1-7.6,5.8-10.5,4l-22.4-10c-2.9-1.8-2.1,1.9,0.5-2.3
						L67.8-2c2.6-4.1,13.5-2.7,16.5-0.9L96.5,8.8z"/>
					<path class="st23" d="M96.2,8.9c2.9,1.8,2.5,3.6,0.1,7.2l-7.2,16.4c-2.6,4.1-7.5,5.9-10.4,4l-22.1-9.9
						c-2.9-1.8-2.1,1.8,0.4-2.3L67.7-1.9C70.3-6,81.1-4.7,84-2.9L96.2,8.9z"/>
					<path class="st24" d="M95.8,8.9c2.9,1.8,2.5,3.6,0.2,7.2l-7.2,16.3c-2.5,4.1-7.4,5.9-10.3,4.1l-21.7-9.9
						c-2.9-1.8-2.1,1.7,0.4-2.4L67.7-1.7c2.5-4.1,13.2-2.9,16-1.1L95.8,8.9z"/>
					<path class="st25" d="M95.5,9c2.9,1.8,2.4,3.6,0.2,7.1l-7.2,16.1c-2.5,4-7.3,5.9-10.2,4.1l-21.4-9.9c-2.9-1.8-2.2,1.6,0.3-2.4
						L67.7-1.6c2.5-4,13-3.1,15.8-1.3L95.5,9z"/>
					<path class="st26" d="M95.2,9.1c2.8,1.8,2.4,3.6,0.2,7l-7.1,16c-2.5,4-7.2,5.9-10.1,4.1l-21-9.8c-2.8-1.8-2.2,1.6,0.3-2.4
						L67.7-1.4c2.5-4,12.8-3.2,15.6-1.4L95.2,9.1z"/>
					<path class="st27" d="M94.8,9.1c2.8,1.8,2.4,3.6,0.2,7l-7.1,15.8c-2.5,4-7.2,5.9-10,4.1l-20.7-9.8c-2.8-1.8-2.2,1.5,0.2-2.5
						l10.2-25c2.5-4,12.6-3.3,15.4-1.5L94.8,9.1z"/>
					<path class="st28" d="M94.5,9.2c2.8,1.7,2.3,3.6,0.2,6.9l-7.1,15.7c-2.5,4-7.1,5.9-9.9,4.1l-20.3-9.7c-2.8-1.8-2.3,1.4,0.2-2.5
						l10-24.8c2.5-4,12.4-3.4,15.2-1.7L94.5,9.2z"/>
					<path class="st29" d="M94.1,9.3c2.8,1.7,2.3,3.5,0.2,6.8l-7.1,15.5c-2.4,3.9-7,5.9-9.8,4.1l-20-9.7c-2.8-1.7-2.3,1.4,0.2-2.6
						l9.9-24.5c2.4-3.9,12.2-3.5,15-1.8L94.1,9.3z"/>
					<path class="st30" d="M93.8,9.3c2.8,1.7,2.3,3.5,0.2,6.8l-7,15.4c-2.4,3.9-6.9,5.9-9.7,4.2L57.6,26c-2.8-1.7-2.3,1.3,0.1-2.6
						l9.8-24.2c2.4-3.9,12-3.7,14.8-1.9L93.8,9.3z"/>
					<path class="st31" d="M93.5,9.4c2.7,1.7,2.3,3.5,0.2,6.7l-7,15.2c-2.4,3.9-6.8,5.9-9.6,4.2l-19.3-9.6c-2.7-1.7-2.4,1.2,0.1-2.6
						l9.7-23.9C69.9-4.5,79.3-4.4,82-2.7L93.5,9.4z"/>
					<path class="st32" d="M93.1,9.5c2.7,1.7,2.2,3.5,0.2,6.6l-7,15.1c-2.4,3.8-6.8,5.9-9.5,4.2l-18.9-9.6c-2.7-1.7-2.4,1.2,0-2.7
						l9.6-23.6c2.4-3.8,11.6-3.9,14.3-2.2L93.1,9.5z"/>
					<path class="st33" d="M92.8,9.6c2.7,1.7,2.2,3.5,0.2,6.6L86,31c-2.4,3.8-6.7,5.9-9.4,4.2l-18.6-9.5c-2.7-1.7-2.4,1.1,0-2.7
						l9.4-23.3c2.4-3.8,11.4-4,14.1-2.4L92.8,9.6z"/>
					<path class="st34" d="M92.4,9.6c2.7,1.7,2.2,3.5,0.2,6.5l-6.9,14.8c-2.4,3.8-6.6,5.9-9.3,4.2l-18.2-9.5c-2.7-1.7-2.4,1-0.1-2.8
						l9.3-23c2.4-3.8,11.2-4.2,13.9-2.5L92.4,9.6z"/>
					<path class="st35" d="M92.1,9.7c2.7,1.7,2.1,3.5,0.2,6.4l-6.9,14.6c-2.3,3.8-6.5,5.9-9.2,4.3l-17.9-9.4
						c-2.7-1.7-2.5,0.9-0.1-2.8L67.4,0c2.3-3.8,11-4.3,13.7-2.6L92.1,9.7z"/>
					<path class="st36" d="M91.7,9.8c2.6,1.6,2.1,3.5,0.2,6.3l-6.8,14.5c-2.3,3.7-6.4,5.9-9.1,4.3l-17.5-9.4
						c-2.6-1.6-2.5,0.9-0.2-2.9l9.1-22.5c2.3-3.7,10.8-4.4,13.5-2.8L91.7,9.8z"/>
					<path class="st37" d="M91.4,9.8c2.6,1.6,2.1,3.4,0.2,6.3l-6.8,14.4c-2.3,3.7-6.4,5.9-9,4.3l-17.2-9.3c-2.6-1.6-2.5,0.8-0.2-2.9
						l8.9-22.2C69.6-3.4,78-4.2,80.6-2.6L91.4,9.8z"/>
					<path class="st38" d="M91.1,9.9c2.6,1.6,2.1,3.4,0.2,6.2l-6.8,14.2c-2.3,3.7-6.3,5.9-8.9,4.3l-16.8-9.3
						c-2.6-1.6-2.6,0.7-0.3-2.9l8.8-21.9c2.3-3.7,10.4-4.7,13-3L91.1,9.9z"/>
					<path class="st39" d="M90.7,10c2.6,1.6,2,3.4,0.2,6.1l-6.7,14.1c-2.3,3.6-6.2,5.9-8.8,4.3l-16.5-9.3c-2.6-1.6-2.6,0.7-0.3-3
						l8.7-21.6C69.5-3,77.5-4.1,80.1-2.5L90.7,10z"/>
					<path class="st40" d="M90.4,10c2.6,1.6,2,3.4,0.2,6.1L83.9,30c-2.2,3.6-6.1,5.9-8.7,4.3l-16.1-9.2c-2.6-1.6-2.6,0.6-0.4-3
						l8.6-21.3c2.3-3.6,10-4.9,12.6-3.3L90.4,10z"/>
					<path class="st41" d="M90,10.1c2.5,1.6,2,3.4,0.2,6l-6.7,13.8c-2.2,3.6-6.1,5.9-8.6,4.4l-15.8-9.2c-2.5-1.6-2.6,0.5-0.4-3.1
						l8.4-21.1c2.2-3.6,9.8-5,12.4-3.4L90,10.1z"/>
					<path class="st42" d="M89.7,10.2c2.5,1.6,2,3.4,0.2,5.9l-6.6,13.6c-2.2,3.6-6,5.9-8.5,4.4L59.3,25c-2.5-1.6-2.7,0.5-0.5-3.1
						l8.3-20.8c2.2-3.6,9.6-5.1,12.2-3.6L89.7,10.2z"/>
					<path class="st43" d="M89.4,10.2c2.5,1.6,1.9,3.4,0.2,5.9L83,29.6c-2.2,3.5-5.9,6-8.4,4.4l-15.1-9.1c-2.5-1.6-2.7,0.4-0.5-3.1
						l8.2-20.5c2.2-3.5,9.5-5.3,12-3.7L89.4,10.2z"/>
					<path class="st44" d="M89,10.3c2.5,1.5,1.9,3.4,0.2,5.8l-6.6,13.3c-2.2,3.5-5.8,6-8.3,4.4l-14.8-9c-2.5-1.5-2.7,0.3-0.6-3.2
						l8.1-20.2c2.2-3.5,9.3-5.4,11.7-3.8L89,10.3z"/>
					<path class="st45" d="M88.7,10.4c2.5,1.5,1.9,3.3,0.2,5.7l-6.5,13.2c-2.2,3.5-5.7,6-8.2,4.4l-14.4-9c-2.5-1.5-2.8,0.2-0.6-3.2
						l7.9-19.9c2.2-3.5,9.1-5.5,11.5-4L88.7,10.4z"/>
					<path class="st46" d="M88.3,10.4c2.4,1.5,1.8,3.3,0.2,5.7l-6.5,13c-2.1,3.4-5.7,6-8.1,4.4l-14.1-9c-2.4-1.5-2.8,0.2-0.6-3.3
						l7.8-19.6c2.1-3.4,8.9-5.6,11.3-4.1L88.3,10.4z"/>
					<path class="st47" d="M88,10.5c2.4,1.5,1.8,3.3,0.2,5.6L81.8,29c-2.1,3.4-5.6,6-8,4.5L60,24.5c-2.4-1.5-2.8,0.1-0.7-3.3L67,1.9
						c2.1-3.4,8.7-5.8,11.1-4.3L88,10.5z"/>
					<path class="st48" d="M87.6,10.6c2.4,1.5,1.8,3.3,0.2,5.5l-6.4,12.7c-2.1,3.4-5.5,6-7.9,4.5l-13.4-8.9c-2.4-1.5-2.8,0-0.7-3.3
						L67,2c2.1-3.4,8.5-5.9,10.9-4.4L87.6,10.6z"/>
					<path class="st49" d="M87.3,10.6c2.4,1.5,1.8,3.3,0.2,5.5l-6.4,12.6c-2.1,3.4-5.4,6-7.8,4.5l-13-8.8c-2.4-1.5-2.9,0-0.8-3.4
						L67,2.2c2.1-3.4,8.3-6,10.7-4.5L87.3,10.6z"/>
					<path class="st50" d="M87,10.7c2.4,1.5,1.7,3.3,0.2,5.4l-6.4,12.5c-2.1,3.3-5.3,6-7.7,4.5l-12.7-8.8c-2.4-1.5-2.9-0.1-0.8-3.4
						l7.3-18.5C69-1,75-3.8,77.4-2.3L87,10.7z"/>
					<path class="st51" d="M86.6,10.8c2.3,1.5,1.7,3.3,0.2,5.3l-6.3,12.3c-2.1,3.3-5.3,6-7.6,4.5l-12.3-8.7
						c-2.3-1.5-2.9-0.2-0.9-3.5l7.2-18.2c2.1-3.3,7.9-6.3,10.2-4.8L86.6,10.8z"/>
					<path class="st52" d="M86.3,10.8c2.3,1.4,1.7,3.3,0.3,5.2l-6.3,12.2c-2,3.3-5.2,6-7.5,4.6l-12-8.7c-2.3-1.4-3-0.2-0.9-3.5
						l7.1-17.9c2-3.3,7.7-6.4,10-4.9L86.3,10.8z"/>
					<path class="st53" d="M85.9,10.9c2.3,1.4,1.7,3.2,0.3,5.2l-6.3,12c-2,3.2-5.1,6-7.4,4.6L60.9,24c-2.3-1.4-3-0.3-1-3.6l6.9-17.6
						c2-3.2,7.5-6.5,9.8-5.1L85.9,10.9z"/>
					<path class="st54" d="M85.6,11c2.3,1.4,1.6,3.2,0.3,5.1l-6.2,11.9c-2,3.2-5,6-7.3,4.6L61,23.9c-2.3-1.4-3-0.4-1-3.6L66.8,3
						c2-3.2,7.3-6.6,9.6-5.2L85.6,11z"/>
					<path class="st55" d="M85.3,11c2.3,1.4,1.6,3.2,0.3,5l-6.2,11.7c-2,3.2-4.9,6-7.2,4.6l-10.9-8.6c-2.3-1.4-3.1-0.5-1.1-3.6
						l6.7-17.1c2-3.2,7.1-6.7,9.4-5.3L85.3,11z"/>
					<path class="st56" d="M84.9,11.1c2.2,1.4,1.6,3.2,0.3,5L79,27.7c-2,3.2-4.9,6-7.1,4.6l-10.6-8.5c-2.2-1.4-3.1-0.5-1.1-3.7
						l6.6-16.8c2-3.2,6.9-6.9,9.2-5.5L84.9,11.1z"/>
					<path class="st57" d="M84.6,11.2c2.2,1.4,1.5,3.2,0.3,4.9l-6.1,11.4c-1.9,3.1-4.8,6-7,4.6l-10.2-8.5c-2.2-1.4-3.1-0.6-1.2-3.7
						l6.4-16.5c1.9-3.1,6.7-7,8.9-5.6L84.6,11.2z"/>
					<path class="st58" d="M84.2,11.2c2.2,1.4,1.5,3.2,0.3,4.8l-6.1,11.3c-1.9,3.1-4.7,6-6.9,4.7l-9.9-8.4c-2.2-1.4-3.1-0.7-1.2-3.8
						l6.3-16.2c1.9-3.1,6.5-7.1,8.7-5.7L84.2,11.2z"/>
					<path class="st59" d="M83.9,11.3c2.2,1.4,1.5,3.2,0.3,4.8l-6.1,11.1c-1.9,3.1-4.6,6-6.8,4.7l-9.5-8.4c-2.2-1.4-3.2-0.7-1.3-3.8
						l6.2-15.9c1.9-3.1,6.3-7.2,8.5-5.9L83.9,11.3z"/>
					<path class="st60" d="M83.5,11.4c2.2,1.3,1.5,3.2,0.3,4.7l-6,11c-1.9,3-4.5,6-6.7,4.7l-9.2-8.4c-2.2-1.3-3.2-0.8-1.3-3.8
						l6.1-15.6c1.9-3,6.1-7.4,8.3-6L83.5,11.4z"/>
					<path class="st61" d="M83.2,11.4c2.1,1.3,1.4,3.2,0.3,4.6l-6,10.9c-1.9,3-4.5,6-6.6,4.7L62,23.3c-2.1-1.3-3.2-0.9-1.4-3.9
						l5.9-15.3c1.9-3,5.9-7.5,8.1-6.2L83.2,11.4z"/>
					<path class="st62" d="M82.9,11.5c2.1,1.3,1.4,3.1,0.3,4.6l-6,10.7c-1.9,3-4.4,6.1-6.5,4.7l-8.5-8.3c-2.1-1.3-3.3-0.9-1.4-3.9
						l5.8-15.1c1.9-3,5.7-7.6,7.9-6.3L82.9,11.5z"/>
					<path class="st63" d="M82.5,11.6c2.1,1.3,1.4,3.1,0.3,4.5l-5.9,10.6c-1.8,2.9-4.3,6.1-6.4,4.8l-8.1-8.2c-2.1-1.3-3.3-1-1.4-4
						l5.7-14.8c1.8-2.9,5.6-7.7,7.6-6.4L82.5,11.6z"/>
					<path class="st64" d="M82.2,11.6c2.1,1.3,1.4,3.1,0.3,4.4l-5.9,10.4c-1.8,2.9-4.2,6.1-6.3,4.8l-7.8-8.2c-2.1-1.3-3.3-1.1-1.5-4
						l5.6-14.5C68.4,1.6,71.9-3.3,74-2L82.2,11.6z"/>
					<path class="st65" d="M81.8,11.7c2.1,1.3,1.3,3.1,0.3,4.3l-5.9,10.3c-1.8,2.9-4.2,6.1-6.2,4.8L62.6,23c-2.1-1.3-3.3-1.2-1.5-4
						l5.4-14.2c1.8-2.9,5.2-8,7.2-6.7L81.8,11.7z"/>
					<path class="st66" d="M81.5,11.8c2,1.3,1.3,3.1,0.3,4.3L76,26.2c-1.8,2.9-4.1,6.1-6.1,4.8l-7.1-8.1c-2-1.3-3.4-1.2-1.6-4.1
						l5.3-13.9c1.8-2.9,5-8.1,7-6.8L81.5,11.8z"/>
					<path class="st67" d="M81.2,11.8c2,1.3,1.3,3.1,0.3,4.2l-5.8,10c-1.8,2.8-4,6.1-6,4.8l-6.8-8.1c-2-1.3-3.4-1.3-1.6-4.1L66.4,5
						c1.8-2.8,4.8-8.2,6.8-7L81.2,11.8z"/>
					<path class="st68" d="M80.8,11.9c2,1.2,1.2,3.1,0.3,4.1l-5.8,9.8c-1.7,2.8-3.9,6.1-5.9,4.8l-6.4-8c-2-1.2-3.4-1.4-1.7-4.2
						l5.1-13.3C68.2,2.4,71-3.1,73-1.9L80.8,11.9z"/>
					<path class="st69" d="M80.5,12c2,1.2,1.2,3.1,0.3,4.1L75,25.7c-1.7,2.8-3.8,6.1-5.8,4.9l-6.1-8c-2-1.2-3.5-1.4-1.7-4.2
						l4.9-13.1c1.7-2.8,4.4-8.5,6.4-7.2L80.5,12z"/>
					<path class="st70" d="M80.1,12c1.9,1.2,1.2,3,0.3,4l-5.7,9.5C73,28.3,71,31.7,69,30.5l-5.7-7.9c-2-1.2-3.5-1.5-1.8-4.3
						l4.8-12.8c1.7-2.7,4.2-8.6,6.1-7.4L80.1,12z"/>
					<path class="st71" d="M79.8,12.1c1.9,1.2,1.2,3,0.3,3.9l-5.7,9.4c-1.7,2.7-3.7,6.1-5.6,4.9l-5.4-7.9c-1.9-1.2-3.5-1.6-1.8-4.3
						l4.7-12.5c1.7-2.7,4-8.7,5.9-7.5L79.8,12.1z"/>
					<path class="st72" d="M79.5,12.2c1.9,1.2,1.1,3,0.3,3.9l-5.7,9.2c-1.7,2.7-3.6,6.1-5.5,4.9l-5-7.8c-1.9-1.2-3.5-1.6-1.9-4.3
						l4.6-12.2C68,3.1,70.1-3,72-1.8L79.5,12.2z"/>
					<path class="st73" d="M79.1,12.2c1.9,1.2,1.1,3,0.3,3.8l-5.6,9.1c-1.7,2.7-3.5,6.1-5.4,4.9l-4.7-7.8c-1.9-1.2-3.6-1.7-1.9-4.4
						L66.3,6c1.7-2.7,3.6-9,5.5-7.8L79.1,12.2z"/>
					<path class="st74" d="M78.8,12.3c1.9,1.2,1.1,3,0.3,3.7l-5.6,9c-1.6,2.6-3.4,6.1-5.3,4.9l-4.3-7.8c-1.9-1.2-3.6-1.8-2-4.4
						l4.3-11.6c1.6-2.6,3.4-9.1,5.3-7.9L78.8,12.3z"/>
				</g>
				<g>
					<polygon class="st75" points="52.1,-2.1 42.3,14.8 52,31.9 61.9,14.9 					"/>
					<polygon class="st74" points="61.9,14.9 81.5,14.9 71.8,-2.1 52.1,-2.1 					"/>
					<polygon class="st76" points="52,31.9 71.7,31.9 81.5,14.9 61.9,14.9 					"/>
				</g>
			</g>
			<g class="st78">
				<g>
					<path class="st6" d="M129.6-12.7c4.1,2.5,3.7,4.8,0.1,10.5L120,21.4c-3.6,5.7-11,7.2-15.1,4.7L70.1,12.7c-4.1-2.5-2,3.7,1.5-2
						l16-38.7c3.6-5.7,20.8-0.9,24.8,1.6L129.6-12.7z"/>
					<path class="st7" d="M129.2-12.6c4,2.5,3.6,4.8,0.1,10.4l-9.7,23.4c-3.5,5.7-10.9,7.2-14.9,4.7L70.3,12.6
						c-4-2.5-2.1,3.6,1.5-2.1l15.8-38.4c3.5-5.7,20.5-1,24.6,1.5L129.2-12.6z"/>
					<path class="st8" d="M128.8-12.5c4,2.5,3.6,4.7,0.1,10.3L119.3,21c-3.5,5.7-10.8,7.2-14.8,4.7l-34-13.2c-4-2.5-2.1,3.5,1.4-2.1
						l15.6-38c3.5-5.7,20.3-1.2,24.3,1.3L128.8-12.5z"/>
					<path class="st9" d="M128.4-12.4c4,2.5,3.6,4.7,0.1,10.2l-9.6,23c-3.5,5.6-10.7,7.2-14.7,4.7L70.6,12.4c-4-2.5-2.1,3.4,1.4-2.2
						l15.5-37.6c3.5-5.6,20.1-1.4,24,1.1L128.4-12.4z"/>
					<path class="st10" d="M127.9-12.3c4,2.5,3.5,4.7,0.1,10.2l-9.6,22.8c-3.5,5.6-10.6,7.2-14.6,4.7L70.8,12.3
						c-4-2.5-2.2,3.4,1.3-2.2l15.3-37.3c3.5-5.6,19.8-1.5,23.8,1L127.9-12.3z"/>
					<path class="st11" d="M127.5-12.3c3.9,2.5,3.5,4.7,0.1,10.1l-9.5,22.6c-3.5,5.5-10.5,7.2-14.4,4.8L71,12.2
						c-3.9-2.5-2.2,3.3,1.2-2.3L87.4-27c3.5-5.5,19.6-1.7,23.5,0.8L127.5-12.3z"/>
					<path class="st12" d="M127.1-12.2c3.9,2.4,3.5,4.7,0.1,10l-9.5,22.5c-3.4,5.5-10.4,7.2-14.3,4.8l-32.3-13
						c-3.9-2.4-2.2,3.2,1.2-2.3l15-36.6c3.4-5.5,19.3-1.8,23.2,0.6L127.1-12.2z"/>
					<path class="st13" d="M126.7-12.1c3.9,2.4,3.4,4.7,0.1,9.9l-9.4,22.3c-3.4,5.5-10.3,7.2-14.2,4.8L71.3,12
						c-3.9-2.4-2.3,3.1,1.1-2.4l14.9-36.2c3.4-5.5,19.1-2,23,0.5L126.7-12.1z"/>
					<path class="st14" d="M126.2-12c3.9,2.4,3.4,4.6,0.1,9.8L117,19.9c-3.4,5.4-10.2,7.2-14.1,4.8L71.5,11.8
						c-3.9-2.4-2.3,3,1.1-2.4l14.7-35.9c3.4-5.4,18.8-2.1,22.7,0.3L126.2-12z"/>
					<path class="st15" d="M125.8-11.9c3.8,2.4,3.4,4.6,0.1,9.7l-9.4,21.9c-3.4,5.4-10.1,7.2-13.9,4.9l-31-12.8
						c-3.8-2.4-2.4,2.9,1-2.5l14.6-35.5c3.4-5.4,18.6-2.3,22.4,0.1L125.8-11.9z"/>
					<path class="st16" d="M125.4-11.8c3.8,2.4,3.3,4.6,0.2,9.6l-9.3,21.7c-3.3,5.4-10,7.3-13.8,4.9L71.8,11.6
						c-3.8-2.4-2.4,2.8,1-2.5l14.4-35.2c3.3-5.4,18.4-2.4,22.2-0.1L125.4-11.8z"/>
					<path class="st17" d="M125-11.8c3.8,2.4,3.3,4.6,0.2,9.5l-9.3,21.5c-3.3,5.3-9.9,7.3-13.7,4.9L72,11.5
						c-3.8-2.4-2.4,2.8,0.9-2.6l14.2-34.8c3.3-5.3,18.1-2.6,21.9-0.2L125-11.8z"/>
					<path class="st18" d="M124.5-11.7c3.8,2.3,3.3,4.6,0.2,9.5l-9.2,21.4c-3.3,5.3-9.8,7.3-13.6,4.9L72.2,11.4
						c-3.8-2.3-2.5,2.7,0.8-2.6l14.1-34.4c3.3-5.3,17.9-2.7,21.6-0.4L124.5-11.7z"/>
					<path class="st19" d="M124.1-11.6c3.7,2.3,3.2,4.6,0.2,9.4L115.1,19c-3.3,5.3-9.7,7.3-13.5,4.9L72.4,11.3
						c-3.7-2.3-2.5,2.6,0.8-2.7l13.9-34.1c3.3-5.3,17.6-2.9,21.4-0.6L124.1-11.6z"/>
					<path class="st20" d="M123.7-11.5c3.7,2.3,3.2,4.6,0.2,9.3l-9.2,21c-3.3,5.2-9.6,7.3-13.3,5L72.6,11.2
						c-3.7-2.3-2.5,2.5,0.7-2.7l13.8-33.7c3.3-5.2,17.4-3,21.1-0.7L123.7-11.5z"/>
					<path class="st21" d="M123.3-11.4c3.7,2.3,3.2,4.5,0.2,9.2l-9.1,20.8c-3.2,5.2-9.5,7.3-13.2,5L72.7,11.1
						c-3.7-2.3-2.6,2.4,0.7-2.8L87-25.1c3.2-5.2,17.1-3.2,20.8-0.9L123.3-11.4z"/>
					<path class="st22" d="M122.8-11.3c3.7,2.3,3.1,4.5,0.2,9.1l-9.1,20.6c-3.2,5.2-9.4,7.3-13.1,5L72.9,11
						c-3.7-2.3-2.6,2.3,0.6-2.8l13.5-33c3.2-5.2,16.9-3.3,20.5-1.1L122.8-11.3z"/>
					<path class="st23" d="M122.4-11.3c3.6,2.3,3.1,4.5,0.2,9l-9,20.5c-3.2,5.1-9.3,7.3-13,5L73.1,10.9c-3.6-2.3-2.6,2.2,0.5-2.9
						l13.3-32.7c3.2-5.1,16.6-3.5,20.3-1.2L122.4-11.3z"/>
					<path class="st24" d="M122-11.2c3.6,2.2,3.1,4.5,0.2,8.9l-9,20.3c-3.2,5.1-9.2,7.3-12.8,5.1L73.3,10.8
						c-3.6-2.2-2.7,2.1,0.5-2.9l13.2-32.3c3.2-5.1,16.4-3.7,20-1.4L122-11.2z"/>
					<path class="st25" d="M121.6-11.1c3.6,2.2,3,4.5,0.2,8.9l-9,20.1c-3.1,5-9.1,7.3-12.7,5.1L73.4,10.7c-3.6-2.2-2.7,2.1,0.4-3
						l13-31.9c3.1-5,16.2-3.8,19.7-1.6L121.6-11.1z"/>
					<path class="st26" d="M121.1-11c3.6,2.2,3,4.5,0.2,8.8l-8.9,19.9c-3.1,5-9,7.3-12.6,5.1L73.6,10.5c-3.6-2.2-2.8,2,0.4-3
						l12.8-31.6c3.1-5,15.9-4,19.5-1.7L121.1-11z"/>
					<path class="st27" d="M120.7-10.9c3.5,2.2,3,4.4,0.2,8.7L112,17.5c-3.1,5-8.9,7.3-12.5,5.1L73.8,10.4c-3.5-2.2-2.8,1.9,0.3-3.1
						l12.7-31.2c3.1-5,15.7-4.1,19.2-1.9L120.7-10.9z"/>
					<path class="st28" d="M120.3-10.8c3.5,2.2,2.9,4.4,0.2,8.6l-8.8,19.5c-3.1,4.9-8.8,7.3-12.3,5.1L74,10.3
						c-3.5-2.2-2.8,1.8,0.2-3.1l12.5-30.9c3.1-4.9,15.4-4.3,18.9-2.1L120.3-10.8z"/>
					<path class="st29" d="M119.9-10.8c3.5,2.2,2.9,4.4,0.2,8.5l-8.8,19.4c-3.1,4.9-8.7,7.3-12.2,5.2L74.2,10.2
						c-3.5-2.2-2.9,1.7,0.2-3.2l12.4-30.5c3.1-4.9,15.2-4.4,18.7-2.3L119.9-10.8z"/>
					<path class="st30" d="M119.4-10.7c3.5,2.1,2.9,4.4,0.2,8.4l-8.8,19.2c-3,4.9-8.6,7.3-12.1,5.2l-24.5-12
						c-3.5-2.1-2.9,1.6,0.1-3.2l12.2-30.2c3-4.9,14.9-4.6,18.4-2.4L119.4-10.7z"/>
					<path class="st31" d="M119-10.6c3.4,2.1,2.8,4.4,0.2,8.3l-8.7,19c-3,4.8-8.5,7.3-12,5.2l-24-12c-3.4-2.1-2.9,1.5,0.1-3.3
						l12.1-29.8c3-4.8,14.7-4.7,18.1-2.6L119-10.6z"/>
					<path class="st32" d="M118.6-10.5c3.4,2.1,2.8,4.4,0.2,8.3l-8.7,18.8c-3,4.8-8.4,7.4-11.8,5.2L74.7,9.9c-3.4-2.1-3,1.4,0-3.4
						l11.9-29.5c3-4.8,14.5-4.9,17.9-2.8L118.6-10.5z"/>
					<path class="st33" d="M118.2-10.4c3.4,2.1,2.7,4.4,0.2,8.2l-8.6,18.6c-3,4.8-8.3,7.4-11.7,5.3L74.9,9.8c-3.4-2.1-3,1.4,0-3.4
						l11.8-29.1c3-4.8,14.2-5,17.6-2.9L118.2-10.4z"/>
					<path class="st34" d="M117.7-10.3c3.4,2.1,2.7,4.3,0.2,8.1l-8.6,18.4c-2.9,4.7-8.2,7.4-11.6,5.3L75,9.7c-3.3-2.1-3,1.3-0.1-3.5
						l11.6-28.7c2.9-4.7,14-5.2,17.3-3.1L117.7-10.3z"/>
					<path class="st35" d="M117.3-10.2c3.3,2.1,2.7,4.3,0.2,8L109,16c-2.9,4.7-8.1,7.4-11.5,5.3L75.2,9.6c-3.3-2.1-3.1,1.2-0.2-3.5
						l11.4-28.4c2.9-4.7,13.7-5.3,17.1-3.3L117.3-10.2z"/>
					<path class="st36" d="M116.9-10.2c3.3,2.1,2.6,4.3,0.2,7.9l-8.5,18.1c-2.9,4.6-8,7.4-11.3,5.3L75.4,9.5
						c-3.3-2.1-3.1,1.1-0.2-3.6l11.3-28c2.9-4.6,13.5-5.5,16.8-3.4L116.9-10.2z"/>
					<path class="st37" d="M116.4-10.1c3.3,2,2.6,4.3,0.2,7.8l-8.5,17.9c-2.9,4.6-7.9,7.4-11.2,5.3L75.6,9.4c-3.3-2-3.2,1-0.3-3.6
						l11.1-27.7c2.9-4.6,13.2-5.6,16.5-3.6L116.4-10.1z"/>
					<path class="st38" d="M116-10c3.2,2,2.6,4.3,0.3,7.7l-8.4,17.7c-2.8,4.6-7.8,7.4-11.1,5.4l-21-11.6c-3.2-2-3.2,0.9-0.3-3.7
						l11-27.3c2.9-4.6,13-5.8,16.2-3.8L116-10z"/>
					<path class="st39" d="M115.6-9.9c3.2,2,2.5,4.3,0.3,7.7l-8.4,17.5c-2.8,4.5-7.7,7.4-11,5.4L75.9,9.1c-3.2-2-3.2,0.8-0.4-3.7
						l10.8-27c2.8-4.5,12.8-6,16-3.9L115.6-9.9z"/>
					<path class="st40" d="M115.2-9.8c3.2,2,2.5,4.3,0.3,7.6l-8.3,17.4c-2.8,4.5-7.6,7.4-10.8,5.4L76.1,9c-3.2-2-3.3,0.7-0.5-3.8
						l10.7-26.6c2.8-4.5,12.5-6.1,15.7-4.1L115.2-9.8z"/>
					<path class="st41" d="M114.7-9.7c3.2,2,2.5,4.2,0.3,7.5l-8.3,17.2c-2.8,4.5-7.5,7.4-10.7,5.4L76.3,8.9c-3.2-2-3.3,0.7-0.5-3.8
						l10.5-26.3c2.8-4.5,12.3-6.3,15.4-4.3L114.7-9.7z"/>
					<path class="st42" d="M114.3-9.7c3.1,2,2.4,4.2,0.3,7.4l-8.3,17c-2.8,4.4-7.4,7.4-10.6,5.5L76.5,8.8c-3.1-2-3.3,0.6-0.6-3.9
						L86.2-21c2.8-4.4,12-6.4,15.2-4.5L114.3-9.7z"/>
					<path class="st43" d="M113.9-9.6c3.1,1.9,2.4,4.2,0.3,7.3l-8.2,16.8c-2.7,4.4-7.3,7.4-10.5,5.5L76.6,8.7
						c-3.1-1.9-3.4,0.5-0.6-3.9l10.2-25.5c2.7-4.4,11.8-6.6,14.9-4.6L113.9-9.6z"/>
					<path class="st44" d="M113.5-9.5c3.1,1.9,2.4,4.2,0.3,7.2l-8.2,16.6c-2.7,4.4-7.3,7.4-10.3,5.5L76.8,8.6
						c-3.1-1.9-3.4,0.4-0.7-4l10-25.2c2.7-4.4,11.5-6.7,14.6-4.8L113.5-9.5z"/>
					<path class="st45" d="M113-9.4c3.1,1.9,2.3,4.2,0.3,7.1l-8.1,16.4c-2.7,4.3-7.2,7.4-10.2,5.5L77,8.5c-3.1-1.9-3.4,0.3-0.7-4
						l9.9-24.8c2.7-4.3,11.3-6.9,14.4-5L113-9.4z"/>
					<path class="st46" d="M112.6-9.3c3,1.9,2.3,4.2,0.3,7.1L104.8,14c-2.7,4.3-7.1,7.4-10.1,5.5L77.2,8.4c-3-1.9-3.5,0.2-0.8-4.1
						l9.7-24.5c2.7-4.3,11.1-7,14.1-5.1L112.6-9.3z"/>
					<path class="st47" d="M112.2-9.2c3,1.9,2.3,4.1,0.3,7l-8.1,16.1c-2.6,4.3-7,7.5-10,5.6L77.3,8.3c-3-1.9-3.5,0.1-0.9-4.1
						L86.1-20c2.6-4.3,10.8-7.2,13.8-5.3L112.2-9.2z"/>
					<path class="st48" d="M111.8-9.2c3,1.9,2.2,4.1,0.3,6.9l-8,15.9c-2.6,4.2-6.9,7.5-9.8,5.6L77.5,8.2c-3-1.9-3.6,0-0.9-4.2
						L86-19.8c2.6-4.2,10.6-7.3,13.6-5.5L111.8-9.2z"/>
					<path class="st49" d="M111.3-9.1c3,1.8,2.2,4.1,0.3,6.8l-8,15.7c-2.6,4.2-6.8,7.5-9.7,5.6l-16.2-11c-3-1.8-3.6,0-1-4.2L86-19.6
						c2.6-4.2,10.3-7.5,13.3-5.6L111.3-9.1z"/>
					<path class="st50" d="M110.9-9c2.9,1.8,2.2,4.1,0.3,6.7l-7.9,15.5c-2.6,4.1-6.7,7.5-9.6,5.6l-15.8-11c-2.9-1.8-3.6-0.1-1-4.3
						l9.1-23.1c2.6-4.1,10.1-7.6,13-5.8L110.9-9z"/>
					<path class="st51" d="M110.5-8.9c2.9,1.8,2.1,4.1,0.3,6.6l-7.9,15.4c-2.6,4.1-6.6,7.5-9.5,5.7L78.1,7.8
						c-2.9-1.8-3.7-0.2-1.1-4.3l9-22.7c2.6-4.1,9.8-7.8,12.8-6L110.5-8.9z"/>
					<path class="st52" d="M110.1-8.8c2.9,1.8,2.1,4.1,0.3,6.5l-7.9,15.2c-2.5,4.1-6.5,7.5-9.4,5.7L78.2,7.7
						c-2.9-1.8-3.7-0.3-1.2-4.4L85.9-19c2.5-4.1,9.6-7.9,12.5-6.1L110.1-8.8z"/>
					<path class="st53" d="M109.6-8.7c2.9,1.8,2.1,4.1,0.3,6.5l-7.8,15c-2.5,4-6.4,7.5-9.2,5.7L78.4,7.6c-2.9-1.8-3.7-0.4-1.2-4.4
						l8.7-22c2.5-4,9.4-8.1,12.2-6.3L109.6-8.7z"/>
					<path class="st54" d="M109.2-8.7c2.8,1.8,2,4,0.3,6.4l-7.8,14.8c-2.5,4-6.3,7.5-9.1,5.7L78.6,7.5C75.7,5.7,74.8,7,77.3,3
						l8.5-21.6c2.5-4,9.1-8.3,12-6.5L109.2-8.7z"/>
					<path class="st55" d="M108.8-8.6c2.8,1.8,2,4,0.3,6.3l-7.7,14.6c-2.5,4-6.2,7.5-9,5.7L78.8,7.4c-2.8-1.8-3.8-0.6-1.3-4.5
						l8.3-21.3c2.5-4,8.9-8.4,11.7-6.7L108.8-8.6z"/>
					<path class="st56" d="M108.4-8.5c2.8,1.7,2,4,0.3,6.2L101,12.2c-2.4,3.9-6.1,7.5-8.9,5.8L78.9,7.3c-2.8-1.7-3.8-0.7-1.4-4.6
						l8.2-20.9c2.4-3.9,8.6-8.6,11.4-6.8L108.4-8.5z"/>
					<path class="st57" d="M107.9-8.4c2.8,1.7,1.9,4,0.3,6.1L100.6,12c-2.4,3.9-6,7.5-8.7,5.8L79.1,7.2c-2.8-1.7-3.9-0.7-1.5-4.6
						l8-20.6c2.4-3.9,8.4-8.7,11.1-7L107.9-8.4z"/>
					<path class="st58" d="M107.5-8.3c2.7,1.7,1.9,4,0.3,6l-7.6,14.1c-2.4,3.9-5.9,7.5-8.6,5.8L79.3,7.1c-2.7-1.7-3.9-0.8-1.5-4.7
						l7.9-20.2c2.4-3.9,8.1-8.9,10.9-7.2L107.5-8.3z"/>
					<path class="st59" d="M107.1-8.2c2.7,1.7,1.9,4,0.3,5.9l-7.6,13.9c-2.4,3.8-5.8,7.5-8.5,5.8L79.5,7c-2.7-1.7-4-0.9-1.6-4.7
						l7.7-19.9c2.4-3.8,7.9-9,10.6-7.3L107.1-8.2z"/>
					<path class="st60" d="M106.7-8.1c2.7,1.7,1.8,3.9,0.3,5.9l-7.5,13.7c-2.4,3.8-5.7,7.5-8.4,5.9L79.6,6.9c-2.7-1.7-4-1-1.6-4.8
						l7.6-19.5c2.4-3.8,7.7-9.2,10.3-7.5L106.7-8.1z"/>
					<path class="st61" d="M106.2-8.1c2.7,1.7,1.8,3.9,0.4,5.8l-7.5,13.5c-2.3,3.7-5.6,7.5-8.2,5.9l-11-10.4c-2.7-1.7-4-1.1-1.7-4.8
						l7.4-19.1c2.3-3.7,7.4-9.3,10.1-7.7L106.2-8.1z"/>
					<path class="st62" d="M105.8-8c2.6,1.6,1.8,3.9,0.4,5.7l-7.5,13.4c-2.3,3.7-5.5,7.5-8.1,5.9L80,6.6c-2.6-1.6-4.1-1.2-1.7-4.9
						L85.5-17c2.3-3.7,7.2-9.5,9.8-7.8L105.8-8z"/>
					<path class="st63" d="M105.4-7.9c2.6,1.6,1.7,3.9,0.4,5.6l-7.4,13.2c-2.3,3.7-5.4,7.6-8,5.9L80.2,6.5c-2.6-1.6-4.1-1.3-1.8-4.9
						l7.1-18.4c2.3-3.7,6.9-9.6,9.5-8L105.4-7.9z"/>
					<path class="st64" d="M104.9-7.8c2.6,1.6,1.7,3.9,0.4,5.5l-7.4,13c-2.3,3.6-5.3,7.6-7.9,6L80.4,6.4c-2.6-1.6-4.1-1.4-1.9-5
						l6.9-18.1c2.3-3.6,6.7-9.8,9.3-8.2L104.9-7.8z"/>
					<path class="st65" d="M104.5-7.7c2.6,1.6,1.7,3.9,0.4,5.4l-7.3,12.8c-2.2,3.6-5.2,7.6-7.7,6L80.5,6.3c-2.6-1.6-4.2-1.4-1.9-5
						l6.8-17.7c2.2-3.6,6.4-9.9,9-8.3L104.5-7.7z"/>
					<path class="st66" d="M104.1-7.6c2.5,1.6,1.6,3.9,0.4,5.3l-7.3,12.6c-2.2,3.6-5.1,7.6-7.6,6L80.7,6.2c-2.5-1.6-4.2-1.5-2-5.1
						l6.6-17.4c2.2-3.6,6.2-10.1,8.7-8.5L104.1-7.6z"/>
					<path class="st67" d="M103.7-7.6c2.5,1.6,1.6,3.8,0.4,5.3l-7.3,12.4c-2.2,3.5-5,7.6-7.5,6l-8.4-10c-2.5-1.6-4.2-1.6-2-5.1
						l6.5-17c2.2-3.5,6-10.2,8.5-8.7L103.7-7.6z"/>
					<path class="st68" d="M103.2-7.5c2.5,1.5,1.5,3.8,0.4,5.2L96.4,9.9c-2.2,3.5-4.9,7.6-7.4,6l-8-10c-2.5-1.5-4.3-1.7-2.1-5.2
						l6.3-16.6c2.2-3.5,5.7-10.4,8.2-8.9L103.2-7.5z"/>
					<path class="st69" d="M102.8-7.4c2.5,1.5,1.5,3.8,0.4,5.1L96,9.8c-2.2,3.5-4.8,7.6-7.2,6.1l-7.6-9.9c-2.5-1.5-4.3-1.8-2.2-5.3
						l6.2-16.3c2.2-3.5,5.5-10.6,7.9-9L102.8-7.4z"/>
					<path class="st70" d="M102.4-7.3c2.4,1.5,1.5,3.8,0.4,5L95.7,9.6c-2.1,3.4-4.7,7.6-7.1,6.1l-7.1-9.9c-2.4-1.5-4.4-1.9-2.2-5.3
						l6-15.9c2.1-3.4,5.2-10.7,7.7-9.2L102.4-7.3z"/>
					<path class="st71" d="M102-7.2c2.4,1.5,1.4,3.8,0.4,4.9L95.3,9.4c-2.1,3.4-4.6,7.6-7,6.1l-6.7-9.8c-2.4-1.5-4.4-2-2.3-5.4
						l5.9-15.6c2.1-3.4,5-10.9,7.4-9.4L102-7.2z"/>
					<path class="st72" d="M101.5-7.1c2.4,1.5,1.4,3.8,0.4,4.8l-7,11.5c-2.1,3.4-4.5,7.6-6.9,6.1l-6.3-9.8c-2.4-1.5-4.4-2.1-2.3-5.4
						l5.7-15.2c2.1-3.4,4.7-11,7.1-9.5L101.5-7.1z"/>
					<path class="st73" d="M101.1-7.1c2.4,1.5,1.4,3.7,0.4,4.7L94.5,9c-2.1,3.3-4.4,7.6-6.7,6.2l-5.8-9.7C79.6,4,77.5,3.3,79.6,0
						l5.5-14.9c2.1-3.3,4.5-11.2,6.8-9.7L101.1-7.1z"/>
					<path class="st74" d="M100.7-7c2.3,1.5,1.3,3.7,0.4,4.7l-7,11.2c-2,3.3-4.3,7.6-6.6,6.2l-5.4-9.7c-2.3-1.4-4.5-2.2-2.5-5.5
						l5.4-14.5c2-3.3,4.3-11.3,6.6-9.9L100.7-7z"/>
				</g>
				<g>
					<polygon class="st75" points="67.4,-25 55.1,-3.8 67.3,17.4 79.6,-3.8 					"/>
					<polygon class="st76" points="67.3,17.4 91.8,17.5 104.1,-3.7 79.6,-3.8 					"/>
				</g>
			</g>
			<g class="st79">
				<g>
					<path class="st6" d="M138.7,2.9c6,3.7,5.4,7,0.2,15.4l-14.3,34.6c-5.2,8.4-16.2,10.6-22.1,6.8L51.2,40.2c-6-3.7-3,5.5,2.3-3
						l23.4-56.9c5.2-8.4,30.5-1.3,36.5,2.4L138.7,2.9z"/>
					<path class="st7" d="M138.1,3c5.9,3.7,5.3,7,0.2,15.3L124,52.6c-5.2,8.4-16,10.6-22,6.9L51.5,40c-5.9-3.7-3,5.3,2.2-3
						l23.2-56.4c5.2-8.4,30.2-1.5,36.1,2.2L138.1,3z"/>
					<path class="st8" d="M137.5,3.1c5.9,3.7,5.3,7,0.2,15.2l-14.2,34.1c-5.2,8.3-15.9,10.6-21.8,6.9l-50-19.4
						c-5.9-3.7-3.1,5.2,2.1-3.1l23-55.8c5.2-8.3,29.8-1.8,35.7,1.9L137.5,3.1z"/>
					<path class="st9" d="M136.9,3.2c5.9,3.6,5.2,6.9,0.2,15l-14.1,33.8c-5.1,8.3-15.7,10.6-21.6,6.9L52,39.7
						c-5.9-3.6-3.1,5.1,2-3.2l22.8-55.3c5.1-8.3,29.5-2,35.3,1.7L136.9,3.2z"/>
					<path class="st10" d="M136.2,3.3c5.8,3.6,5.2,6.9,0.2,14.9l-14.1,33.5c-5.1,8.2-15.6,10.6-21.4,7L52.2,39.5
						c-5.8-3.6-3.2,4.9,1.9-3.3l22.5-54.8c5.1-8.2,29.1-2.2,34.9,1.4L136.2,3.3z"/>
					<path class="st11" d="M135.6,3.5c5.8,3.6,5.1,6.9,0.2,14.8l-14,33.3c-5.1,8.2-15.4,10.6-21.2,7L52.5,39.4
						c-5.8-3.6-3.2,4.8,1.8-3.3l22.3-54.3c5.1-8.1,28.8-2.4,34.5,1.2L135.6,3.5z"/>
					<path class="st12" d="M135,3.6c5.7,3.6,5.1,6.9,0.2,14.7l-13.9,33c-5,8.1-15.3,10.6-21,7L52.8,39.2c-5.7-3.6-3.3,4.7,1.7-3.4
						l22.1-53.7c5-8.1,28.4-2.7,34.1,0.9L135,3.6z"/>
					<path class="st13" d="M134.4,3.7c5.7,3.6,5,6.8,0.2,14.5L120.7,51c-5,8-15.2,10.6-20.9,7.1L53,39.1c-5.7-3.6-3.3,4.6,1.7-3.5
						l21.8-53.2c5-8,28-2.9,33.7,0.7L134.4,3.7z"/>
					<path class="st14" d="M133.7,3.8c5.7,3.5,5,6.8,0.2,14.4l-13.8,32.5c-5,8-15,10.6-20.7,7.1L53.3,38.9c-5.7-3.5-3.4,4.4,1.6-3.6
						l21.6-52.7c5-8,27.7-3.1,33.4,0.4L133.7,3.8z"/>
					<path class="st15" d="M133.1,4c5.6,3.5,4.9,6.8,0.2,14.3l-13.8,32.2c-4.9,7.9-14.9,10.7-20.5,7.1L53.5,38.7
						c-5.6-3.5-3.5,4.3,1.5-3.6l21.4-52.2c4.9-7.9,27.3-3.3,33,0.2L133.1,4z"/>
					<path class="st16" d="M132.5,4.1c5.6,3.5,4.9,6.8,0.2,14.2L119,50.2c-4.9,7.9-14.7,10.7-20.3,7.2L53.8,38.6
						c-5.6-3.5-3.5,4.2,1.4-3.7l21.2-51.7c4.9-7.9,27-3.6,32.6-0.1L132.5,4.1z"/>
					<path class="st17" d="M131.9,4.2c5.6,3.5,4.8,6.8,0.2,14l-13.6,31.7c-4.9,7.8-14.6,10.7-20.1,7.2L54.1,38.4
						c-5.6-3.5-3.6,4,1.3-3.8l20.9-51.1c4.9-7.8,26.6-3.8,32.2-0.3L131.9,4.2z"/>
					<path class="st18" d="M131.2,4.3c5.5,3.4,4.8,6.7,0.2,13.9l-13.6,31.4c-4.8,7.8-14.4,10.7-19.9,7.2L54.3,38.3
						c-5.5-3.4-3.6,3.9,1.2-3.9l20.7-50.6c4.8-7.8,26.3-4,31.8-0.6L131.2,4.3z"/>
					<path class="st19" d="M130.6,4.5c5.5,3.4,4.7,6.7,0.2,13.8l-13.5,31.1c-4.8,7.7-14.3,10.7-19.8,7.3l-43-18.5
						c-5.5-3.4-3.7,3.8,1.1-3.9l20.5-50.1c4.8-7.7,25.9-4.2,31.4-0.8L130.6,4.5z"/>
					<path class="st20" d="M130,4.6c5.4,3.4,4.7,6.7,0.2,13.7l-13.5,30.9c-4.8,7.7-14.1,10.7-19.6,7.3L54.8,37.9
						c-5.4-3.4-3.7,3.7,1.1-4l20.2-49.6c4.8-7.7,25.5-4.5,31-1.1L130,4.6z"/>
					<path class="st21" d="M129.3,4.7c5.4,3.4,4.6,6.7,0.3,13.5l-13.4,30.6c-4.7,7.6-14,10.7-19.4,7.3L55.1,37.8
						c-5.4-3.4-3.8,3.5,1-4.1l20-49c4.7-7.6,25.2-4.7,30.6-1.3L129.3,4.7z"/>
					<path class="st22" d="M128.7,4.8c5.4,3.3,4.6,6.6,0.3,13.4l-13.3,30.3c-4.7,7.6-13.8,10.7-19.2,7.4L55.4,37.6
						c-5.4-3.3-3.8,3.4,0.9-4.2L76-15.1c4.7-7.6,24.8-4.9,30.2-1.6L128.7,4.8z"/>
					<path class="st23" d="M128.1,4.9c5.3,3.3,4.5,6.6,0.3,13.3l-13.3,30.1c-4.7,7.5-13.7,10.7-19,7.4L55.6,37.5
						c-5.3-3.3-3.9,3.3,0.8-4.2l19.6-48c4.7-7.5,24.5-5.1,29.8-1.8L128.1,4.9z"/>
					<path class="st24" d="M127.5,5.1c5.3,3.3,4.5,6.6,0.3,13.1L114.5,48c-4.6,7.5-13.6,10.7-18.9,7.4L55.9,37.3
						c-5.3-3.3-3.9,3.1,0.7-4.3l19.3-47.5c4.6-7.5,24.1-5.4,29.4-2.1L127.5,5.1z"/>
					<path class="st25" d="M126.8,5.2c5.3,3.3,4.4,6.6,0.3,13L114,47.7c-4.6,7.4-13.4,10.7-18.7,7.5L56.1,37.1c-5.3-3.3-4,3,0.6-4.4
						l19.1-47c4.6-7.4,23.8-5.6,29-2.3L126.8,5.2z"/>
					<path class="st26" d="M126.2,5.3c5.2,3.3,4.4,6.6,0.3,12.9l-13.1,29.3c-4.6,7.4-13.3,10.8-18.5,7.5L56.4,37
						c-5.2-3.3-4,2.9,0.5-4.5l18.9-46.4c4.6-7.4,23.4-5.8,28.6-2.6L126.2,5.3z"/>
					<path class="st27" d="M125.6,5.4c5.2,3.2,4.3,6.5,0.3,12.8l-13,29c-4.5,7.3-13.1,10.8-18.3,7.5L56.7,36.8
						c-5.2-3.2-4.1,2.8,0.5-4.5l18.6-45.9c4.6-7.3,23-6,28.2-2.8L125.6,5.4z"/>
					<path class="st28" d="M125,5.6c5.1,3.2,4.3,6.5,0.3,12.6l-13,28.7c-4.5,7.3-13,10.8-18.1,7.6L56.9,36.7
						c-5.1-3.2-4.2,2.6,0.4-4.6l18.4-45.4c4.5-7.3,22.7-6.3,27.8-3.1L125,5.6z"/>
					<path class="st29" d="M124.3,5.7c5.1,3.2,4.2,6.5,0.3,12.5l-12.9,28.4c-4.5,7.2-12.8,10.8-17.9,7.6L57.2,36.5
						c-5.1-3.2-4.2,2.5,0.3-4.7L75.7-13c4.5-7.2,22.3-6.5,27.4-3.3L124.3,5.7z"/>
					<path class="st30" d="M123.7,5.8c5.1,3.2,4.2,6.5,0.3,12.4l-12.9,28.2c-4.5,7.1-12.7,10.8-17.8,7.6l-36-17.7
						c-5.1-3.2-4.3,2.4,0.2-4.8l18-44.3c4.5-7.1,22-6.7,27-3.6L123.7,5.8z"/>
					<path class="st31" d="M123.1,5.9c5,3.1,4.1,6.4,0.3,12.3l-12.8,27.9c-4.4,7.1-12.5,10.8-17.6,7.7L57.7,36.2
						c-5-3.1-4.3,2.2,0.1-4.8l17.7-43.8c4.4-7.1,21.6-6.9,26.6-3.8L123.1,5.9z"/>
					<path class="st32" d="M122.5,6.1c5,3.1,4.1,6.4,0.3,12.1l-12.7,27.6c-4.4,7-12.4,10.8-17.4,7.7L58,36c-5-3.1-4.4,2.1,0-4.9
						l17.5-43.3c4.4-7,21.3-7.2,26.2-4.1L122.5,6.1z"/>
					<path class="st33" d="M121.8,6.2c5,3.1,4,6.4,0.3,12l-12.7,27.4c-4.4,7-12.3,10.8-17.2,7.7L58.2,35.9c-5-3.1-4.4,2-0.1-5
						l17.3-42.8c4.4-7,20.9-7.4,25.9-4.3L121.8,6.2z"/>
					<path class="st34" d="M121.2,6.3c4.9,3.1,4,6.4,0.3,11.9l-12.6,27.1c-4.3,6.9-12.1,10.8-17,7.8L58.5,35.7
						c-4.9-3.1-4.5,1.9-0.2-5.1l17.1-42.2c4.3-6.9,20.5-7.6,25.5-4.6L121.2,6.3z"/>
					<path class="st35" d="M120.6,6.4c4.9,3,3.9,6.4,0.3,11.8L108.4,45c-4.3,6.9-12,10.8-16.8,7.8L58.7,35.6c-4.9-3-4.5,1.7-0.2-5.2
						l16.8-41.7c4.3-6.9,20.2-7.8,25.1-4.8L120.6,6.4z"/>
					<path class="st36" d="M120,6.6c4.8,3,3.9,6.3,0.4,11.6l-12.5,26.6c-4.3,6.8-11.8,10.8-16.7,7.8L59,35.4c-4.8-3-4.6,1.6-0.3-5.2
						L75.3-11c4.3-6.8,19.8-8.1,24.7-5.1L120,6.6z"/>
					<path class="st37" d="M119.3,6.7c4.8,3,3.8,6.3,0.4,11.5l-12.4,26.3c-4.2,6.8-11.7,10.9-16.5,7.9L59.3,35.2
						c-4.8-3-4.6,1.5-0.4-5.3l16.4-40.7c4.2-6.8,19.5-8.3,24.3-5.3L119.3,6.7z"/>
					<path class="st38" d="M118.7,6.8c4.8,3,3.8,6.3,0.4,11.4l-12.4,26c-4.2,6.7-11.5,10.9-16.3,7.9l-30.9-17
						c-4.8-3-4.7,1.3-0.5-5.4l16.1-40.2C79.4-17.2,94.3-19,99-16L118.7,6.8z"/>
					<path class="st39" d="M118.1,6.9c4.7,2.9,3.7,6.3,0.4,11.3L106.1,44C102,50.6,94.8,54.8,90,51.9l-30.2-17
						c-4.7-2.9-4.7,1.2-0.6-5.5l15.9-39.6c4.2-6.7,18.8-8.7,23.5-5.8L118.1,6.9z"/>
					<path class="st40" d="M117.5,7c4.7,2.9,3.7,6.2,0.4,11.1l-12.3,25.5c-4.1,6.6-11.2,10.9-15.9,8L60,34.8
						c-4.7-2.9-4.8,1.1-0.7-5.5L75.1-9.9c4.1-6.6,18.4-9,23.1-6L117.5,7z"/>
					<path class="st41" d="M116.8,7.2c4.7,2.9,3.6,6.2,0.4,11L105,43.4c-4.1,6.6-11.1,10.9-15.7,8l-29-16.8c-4.7-2.9-4.8,1-0.8-5.6
						L75-9.6c4.1-6.6,18-9.2,22.7-6.3L116.8,7.2z"/>
					<path class="st42" d="M116.2,7.3c4.6,2.9,3.6,6.2,0.4,10.9l-12.1,25c-4.1,6.5-10.9,10.9-15.6,8L60.6,34.4
						c-4.6-2.9-4.9,0.8-0.8-5.7L74.9-9.3c4.1-6.5,17.7-9.4,22.3-6.5L116.2,7.3z"/>
					<path class="st43" d="M115.6,7.4c4.6,2.9,3.5,6.2,0.4,10.8l-12.1,24.7c-4,6.5-10.8,10.9-15.4,8.1L60.8,34.3
						c-4.6-2.9-5,0.7-0.9-5.8L74.9-9c4-6.5,17.3-9.7,21.9-6.8L115.6,7.4z"/>
					<path class="st44" d="M115,7.5c4.5,2.8,3.5,6.2,0.4,10.6l-12,24.4c-4,6.4-10.7,10.9-15.2,8.1l-27-16.6c-4.5-2.8-5,0.6-1-5.8
						l14.8-37c4-6.4,17-9.9,21.5-7L115,7.5z"/>
					<path class="st45" d="M114.3,7.7c4.5,2.8,3.4,6.1,0.4,10.5l-12,24.2c-4,6.4-10.5,10.9-15,8.1L61.3,34c-4.5-2.8-5.1,0.4-1.1-5.9
						L74.8-8.4c4-6.4,16.6-10.1,21.1-7.3L114.3,7.7z"/>
					<path class="st46" d="M113.7,7.8c4.5,2.8,3.4,6.1,0.4,10.4l-11.9,23.9c-3.9,6.3-10.4,10.9-14.8,8.2L61.6,33.8
						c-4.5-2.8-5.1,0.3-1.2-6l14.3-36c3.9-6.3,16.3-10.3,20.7-7.5L113.7,7.8z"/>
					<path class="st47" d="M113.1,7.9c4.4,2.8,3.3,6.1,0.4,10.2l-11.8,23.6C97.8,48,91.4,52.7,87,50L61.9,33.6
						c-4.4-2.8-5.2,0.2-1.3-6.1L74.7-7.9c3.9-6.2,15.9-10.6,20.3-7.8L113.1,7.9z"/>
					<path class="st48" d="M112.5,8c4.4,2.7,3.3,6.1,0.4,10.1l-11.8,23.4c-3.9,6.2-10.1,11-14.5,8.2L62.1,33.5
						c-4.4-2.7-5.2,0.1-1.4-6.1L74.6-7.6c3.9-6.2,15.5-10.8,19.9-8L112.5,8z"/>
					<path class="st49" d="M111.8,8.2c4.4,2.7,3.2,6,0.4,10l-11.7,23.1c-3.8,6.1-9.9,11-14.3,8.3L62.4,33.3
						c-4.4-2.7-5.3-0.1-1.4-6.2L74.6-7.3c3.8-6.1,15.2-11,19.5-8.3L111.8,8.2z"/>
					<path class="st50" d="M111.2,8.3c4.3,2.7,3.2,6,0.4,9.9L100,41c-3.8,6.1-9.8,11-14.1,8.3L62.7,33.2c-4.3-2.7-5.3-0.2-1.5-6.3
						L74.5-7c3.8-6.1,14.8-11.2,19.1-8.5L111.2,8.3z"/>
					<path class="st51" d="M110.6,8.4c4.3,2.7,3.1,6,0.5,9.7L99.4,40.7c-3.8,6-9.6,11-13.9,8.3L62.9,33c-4.3-2.7-5.4-0.3-1.6-6.4
						L74.5-6.7c3.8-6,14.5-11.5,18.7-8.8L110.6,8.4z"/>
					<path class="st52" d="M110,8.5c4.2,2.6,3.1,6,0.5,9.6L98.9,40.4c-3.7,6-9.5,11-13.7,8.4L63.2,32.8c-4.2-2.6-5.4-0.4-1.7-6.4
						L74.4-6.4c3.7-6,14.1-11.7,18.4-9L110,8.5z"/>
					<path class="st53" d="M109.3,8.6c4.2,2.6,3,6,0.5,9.5l-11.5,22c-3.7,5.9-9.4,11-13.6,8.4L63.4,32.7c-4.2-2.6-5.5-0.6-1.8-6.5
						L74.4-6.1c3.7-5.9,13.8-11.9,18-9.3L109.3,8.6z"/>
					<path class="st54" d="M108.7,8.8c4.2,2.6,3,5.9,0.5,9.4L97.7,39.9c-3.7,5.9-9.2,11-13.4,8.4L63.7,32.5
						c-4.2-2.6-5.5-0.7-1.9-6.6L74.3-5.8C78-11.7,87.7-18,91.9-15.4L108.7,8.8z"/>
					<path class="st55" d="M108.1,8.9c4.1,2.6,2.9,5.9,0.5,9.2L97.2,39.6c-3.6,5.8-9.1,11-13.2,8.5L64,32.4c-4.1-2.6-5.6-0.8-2-6.7
						L74.2-5.6c3.6-5.8,13-12.4,17.2-9.8L108.1,8.9z"/>
					<path class="st56" d="M107.4,9c4.1,2.6,2.9,5.9,0.5,9.1L96.6,39.4c-3.6,5.8-8.9,11-13,8.5L64.2,32.2c-4.1-2.6-5.6-1-2.1-6.7
						l12-30.7c3.6-5.8,12.7-12.6,16.8-10L107.4,9z"/>
					<path class="st57" d="M106.8,9.1c4.1,2.5,2.8,5.9,0.5,9l-11.3,21c-3.6,5.7-8.8,11-12.8,8.5L64.5,32c-4.1-2.5-5.7-1.1-2.1-6.8
						L74.1-5c3.6-5.7,12.3-12.8,16.4-10.3L106.8,9.1z"/>
					<path class="st58" d="M106.2,9.3c4,2.5,2.8,5.8,0.5,8.9L95.5,38.8c-3.5,5.7-8.6,11.1-12.6,8.5L64.7,31.9
						c-4-2.5-5.8-1.2-2.2-6.9L74.1-4.7c3.5-5.7,12-13,16-10.5L106.2,9.3z"/>
					<path class="st59" d="M105.6,9.4c4,2.5,2.7,5.8,0.5,8.7L94.9,38.5c-3.5,5.6-8.5,11.1-12.5,8.6L65,31.7c-4-2.5-5.8-1.3-2.3-7
						L74-4.4c3.5-5.6,11.6-13.3,15.6-10.8L105.6,9.4z"/>
					<path class="st60" d="M104.9,9.5c3.9,2.5,2.7,5.8,0.5,8.6L94.4,38.3c-3.5,5.6-8.3,11.1-12.3,8.6L65.3,31.6
						c-3.9-2.5-5.9-1.5-2.4-7L74-4.1c3.5-5.6,11.2-13.5,15.2-11L104.9,9.5z"/>
					<path class="st61" d="M104.3,9.6c3.9,2.4,2.6,5.8,0.5,8.5L93.8,38c-3.4,5.5-8.2,11.1-12.1,8.6L65.5,31.4
						c-3.9-2.4-5.9-1.6-2.5-7.1L73.9-3.8c3.4-5.5,10.9-13.7,14.8-11.3L104.3,9.6z"/>
					<path class="st62" d="M103.7,9.8c3.9,2.4,2.6,5.8,0.5,8.4l-11,19.6c-3.4,5.5-8,11.1-11.9,8.7L65.8,31.3c-3.9-2.4-6-1.7-2.6-7.2
						L73.9-3.5C77.3-9,84.4-17.5,88.3-15.1L103.7,9.8z"/>
					<path class="st63" d="M103.1,9.9c3.8,2.4,2.5,5.7,0.5,8.2L92.7,37.5c-3.4,5.4-7.9,11.1-11.7,8.7L66,31.1
						c-3.8-2.4-6-1.9-2.7-7.3L73.8-3.3C77.2-8.7,84-17.4,87.8-15L103.1,9.9z"/>
					<path class="st64" d="M102.4,10c3.8,2.4,2.5,5.7,0.5,8.1L92.1,37.2c-3.3,5.4-7.8,11.1-11.6,8.7l-14.3-15
						c-3.8-2.4-6.1-2-2.7-7.3L73.8-3c3.3-5.4,9.8-14.4,13.6-12L102.4,10z"/>
					<path class="st65" d="M101.8,10.1c3.8,2.3,2.4,5.7,0.5,8L91.6,36.9C88.3,42.2,84,48,80.2,45.7L66.6,30.8
						c-3.8-2.3-6.1-2.1-2.8-7.4l10-26C77-8,83.2-17.3,86.9-14.9L101.8,10.1z"/>
					<path class="st66" d="M101.2,10.3c3.7,2.3,2.4,5.7,0.6,7.8L91,36.6c-3.3,5.2-7.5,11.1-11.2,8.8l-13-14.8
						c-3.7-2.3-6.2-2.2-2.9-7.5l9.7-25.5c3.3-5.2,9.1-14.8,12.8-12.5L101.2,10.3z"/>
					<path class="st67" d="M100.6,10.4c3.7,2.3,2.3,5.6,0.6,7.7L90.5,36.4c-3.2,5.2-7.3,11.1-11,8.8L67.1,30.5
						c-3.7-2.3-6.2-2.4-3-7.6l9.5-25c3.2-5.2,8.7-15.1,12.4-12.8L100.6,10.4z"/>
					<path class="st68" d="M99.9,10.5c3.6,2.3,2.3,5.6,0.6,7.6l-10.6,18c-3.2,5.1-7.2,11.1-10.8,8.9L67.3,30.3
						c-3.6-2.3-6.3-2.5-3.1-7.6l9.3-24.5c3.2-5.1,8.4-15.3,12-13L99.9,10.5z"/>
					<path class="st69" d="M99.3,10.6c3.6,2.2,2.2,5.6,0.6,7.5L89.3,35.8c-3.2,5.1-7,11.2-10.6,8.9L67.6,30.1
						c-3.6-2.2-6.3-2.6-3.2-7.7l9.1-23.9c3.2-5.1,8-15.5,11.6-13.3L99.3,10.6z"/>
					<path class="st70" d="M98.7,10.7c3.6,2.2,2.2,5.6,0.6,7.3L88.8,35.6c-3.1,5-6.9,11.2-10.5,8.9L67.9,30
						c-3.6-2.2-6.4-2.8-3.3-7.8l8.8-23.4c3.1-5,7.7-15.7,11.2-13.5L98.7,10.7z"/>
					<path class="st71" d="M98.1,10.9c3.5,2.2,2.1,5.6,0.6,7.2L88.2,35.3c-3.1,5-6.7,11.2-10.3,9l-9.8-14.5
						c-3.5-2.2-6.4-2.9-3.3-7.9l8.6-22.9c3.1-5,7.3-16,10.9-13.8L98.1,10.9z"/>
					<path class="st72" d="M97.4,11c3.5,2.2,2.1,5.5,0.6,7.1L87.7,35c-3.1,4.9-6.6,11.2-10.1,9l-9.2-14.4c-3.5-2.2-6.5-3-3.4-7.9
						l8.4-22.4c3.1-4.9,7-16.2,10.5-14L97.4,11z"/>
					<path class="st73" d="M96.8,11.1c3.5,2.2,2,5.5,0.6,7L87.1,34.8c-3,4.9-6.5,11.2-9.9,9l-8.6-14.3c-3.5-2.2-6.6-3.1-3.5-8
						l8.1-21.9c3-4.9,6.6-16.4,10.1-14.3L96.8,11.1z"/>
					<path class="st74" d="M96.2,11.2c3.4,2.1,2,5.5,0.6,6.8L86.6,34.5c-3,4.8-6.3,11.2-9.7,9.1l-7.9-14.2c-3.4-2.1-6.6-3.3-3.6-8.1
						l7.9-21.3c3-4.8,6.2-16.6,9.7-14.5L96.2,11.2z"/>
				</g>
				<g>
					<polygon class="st75" points="47.3,-15.3 29.3,15.9 47.2,47.1 65.3,16 					"/>
					<polygon class="st74" points="65.3,16 101.2,16 83.3,-15.2 47.3,-15.3 					"/>
					<polygon class="st76" points="47.2,47.1 83.2,47.2 101.2,16 65.3,16 					"/>
				</g>
			</g>
			<g class="st80">
				<g>
					<path class="st6" d="M128.1,8.3c3.5,2.2,3.2,4.1,0.1,9.1l-8.5,20.5c-3.1,5-9.6,6.3-13.1,4.1L76.3,30.3
						c-3.5-2.2-1.8,3.2,1.3-1.8L91.5-5.1c3.1-5,18.1-0.8,21.6,1.4L128.1,8.3z"/>
					<path class="st7" d="M127.8,8.3c3.5,2.2,3.2,4.1,0.1,9.1l-8.4,20.3c-3.1,4.9-9.5,6.3-13,4.1l-30-11.5c-3.5-2.2-1.8,3.2,1.3-1.8
						L91.5-4.9c3.1-4.9,17.9-0.9,21.4,1.3L127.8,8.3z"/>
					<path class="st8" d="M127.4,8.4c3.5,2.2,3.1,4.1,0.1,9l-8.4,20.2c-3.1,4.9-9.4,6.3-12.9,4.1L76.6,30.2
						c-3.5-2.2-1.8,3.1,1.2-1.8l13.6-33c3.1-4.9,17.6-1,21.1,1.1L127.4,8.4z"/>
					<path class="st9" d="M127,8.5c3.5,2.2,3.1,4.1,0.1,8.9l-8.4,20c-3,4.9-9.3,6.3-12.8,4.1L76.8,30.1c-3.5-2.2-1.9,3,1.2-1.9
						L91.4-4.6c3-4.9,17.4-1.2,20.9,1L127,8.5z"/>
					<path class="st10" d="M126.7,8.5c3.4,2.1,3.1,4.1,0.1,8.8l-8.3,19.8c-3,4.9-9.2,6.3-12.7,4.1L76.9,30c-3.4-2.1-1.9,2.9,1.1-1.9
						L91.4-4.4c3-4.9,17.2-1.3,20.7,0.8L126.7,8.5z"/>
					<path class="st11" d="M126.3,8.6c3.4,2.1,3,4.1,0.1,8.8l-8.3,19.7c-3,4.8-9.1,6.3-12.6,4.1L77.1,29.9c-3.4-2.1-1.9,2.8,1.1-2
						L91.4-4.2c3-4.8,17-1.4,20.4,0.7L126.3,8.6z"/>
					<path class="st12" d="M125.9,8.7c3.4,2.1,3,4.1,0.1,8.7l-8.2,19.5c-3,4.8-9.1,6.3-12.5,4.2L77.3,29.8c-3.4-2.1-1.9,2.8,1-2
						L91.4-4c3-4.8,16.8-1.6,20.2,0.5L125.9,8.7z"/>
					<path class="st13" d="M125.5,8.8c3.4,2.1,3,4.1,0.1,8.6l-8.2,19.4c-3,4.8-9,6.3-12.3,4.2L77.4,29.7c-3.4-2.1-2,2.7,1-2.1
						L91.3-3.9c3-4.8,16.6-1.7,20,0.4L125.5,8.8z"/>
					<path class="st14" d="M125.2,8.8c3.4,2.1,3,4,0.1,8.5l-8.2,19.2c-2.9,4.7-8.9,6.3-12.2,4.2L77.6,29.6c-3.4-2.1-2,2.6,0.9-2.1
						L91.3-3.7c2.9-4.7,16.4-1.8,19.7,0.2L125.2,8.8z"/>
					<path class="st15" d="M124.8,8.9c3.3,2.1,2.9,4,0.1,8.5l-8.1,19.1c-2.9,4.7-8.8,6.3-12.1,4.2L77.7,29.5c-3.3-2.1-2,2.5,0.9-2.2
						L91.3-3.5c2.9-4.7,16.2-2,19.5,0.1L124.8,8.9z"/>
					<path class="st16" d="M124.4,9c3.3,2.1,2.9,4,0.1,8.4l-8.1,18.9c-2.9,4.7-8.7,6.3-12,4.2L77.9,29.4c-3.3-2.1-2.1,2.5,0.8-2.2
						L91.2-3.4c2.9-4.7,16-2.1,19.3,0L124.4,9z"/>
					<path class="st17" d="M124.1,9.1c3.3,2,2.9,4,0.1,8.3l-8.1,18.7c-2.9,4.6-8.6,6.3-11.9,4.3L78,29.3c-3.3-2-2.1,2.4,0.8-2.2
						L91.2-3.2c2.9-4.6,15.7-2.2,19-0.2L124.1,9.1z"/>
					<path class="st18" d="M123.7,9.1c3.3,2,2.8,4,0.1,8.2l-8,18.6c-2.9,4.6-8.5,6.3-11.8,4.3l-25.8-11c-3.3-2-2.1,2.3,0.7-2.3
						L91.2-3C94-7.6,106.7-5.4,110-3.4L123.7,9.1z"/>
					<path class="st19" d="M123.3,9.2c3.2,2,2.8,4,0.1,8.2l-8,18.4c-2.8,4.6-8.5,6.3-11.7,4.3l-25.4-11c-3.2-2-2.2,2.2,0.7-2.3
						L91.1-2.9c2.8-4.6,15.3-2.5,18.6-0.5L123.3,9.2z"/>
					<path class="st20" d="M122.9,9.3c3.2,2,2.8,4,0.1,8.1l-8,18.3c-2.8,4.5-8.4,6.3-11.6,4.3L78.5,29c-3.2-2-2.2,2.2,0.6-2.4
						l12-29.3c2.8-4.5,15.1-2.6,18.3-0.6L122.9,9.3z"/>
					<path class="st21" d="M122.6,9.4c3.2,2,2.7,3.9,0.2,8l-7.9,18.1c-2.8,4.5-8.3,6.3-11.5,4.3L78.6,28.9c-3.2-2-2.2,2.1,0.6-2.4
						l11.8-29C93.9-7,106-5.3,109.2-3.3L122.6,9.4z"/>
					<path class="st22" d="M122.2,9.4c3.2,2,2.7,3.9,0.2,7.9l-7.9,17.9c-2.8,4.5-8.2,6.3-11.4,4.4L78.8,28.8c-3.2-2-2.3,2,0.5-2.5
						L91-2.3c2.8-4.5,14.7-2.9,17.9-0.9L122.2,9.4z"/>
					<path class="st23" d="M121.8,9.5c3.2,2,2.7,3.9,0.2,7.9l-7.9,17.8c-2.8,4.4-8.1,6.3-11.3,4.4L78.9,28.7c-3.2-2-2.3,1.9,0.5-2.5
						L91-2.2c2.8-4.4,14.5-3,17.6-1.1L121.8,9.5z"/>
					<path class="st24" d="M121.5,9.6c3.1,2,2.7,3.9,0.2,7.8L113.8,35c-2.8,4.4-8,6.4-11.2,4.4L79.1,28.6c-3.1-2-2.3,1.9,0.4-2.6
						L91-2c2.8-4.4,14.3-3.2,17.4-1.2L121.5,9.6z"/>
					<path class="st25" d="M121.1,9.6c3.1,1.9,2.6,3.9,0.2,7.7l-7.8,17.5c-2.7,4.4-7.9,6.4-11,4.4L79.3,28.5
						c-3.1-1.9-2.4,1.8,0.4-2.6L90.9-1.8c2.7-4.4,14.1-3.3,17.2-1.4L121.1,9.6z"/>
					<path class="st26" d="M120.7,9.7c3.1,1.9,2.6,3.9,0.2,7.6l-7.8,17.3c-2.7,4.4-7.8,6.4-10.9,4.4L79.4,28.5
						c-3.1-1.9-2.4,1.7,0.3-2.6L90.9-1.7c2.7-4.4,13.8-3.4,16.9-1.5L120.7,9.7z"/>
					<path class="st27" d="M120.4,9.8c3.1,1.9,2.6,3.9,0.2,7.6l-7.7,17.2c-2.7,4.3-7.8,6.4-10.8,4.5L79.6,28.4
						c-3.1-1.9-2.4,1.6,0.3-2.7l11-27.2c2.7-4.3,13.6-3.6,16.7-1.7L120.4,9.8z"/>
					<path class="st28" d="M120,9.9c3,1.9,2.5,3.9,0.2,7.5l-7.7,17c-2.7,4.3-7.7,6.4-10.7,4.5l-22-10.5c-3-1.9-2.5,1.6,0.2-2.7
						L90.8-1.3c2.7-4.3,13.4-3.7,16.5-1.8L120,9.9z"/>
					<path class="st29" d="M119.6,9.9c3,1.9,2.5,3.8,0.2,7.4l-7.6,16.8c-2.7,4.3-7.6,6.4-10.6,4.5L79.9,28.2c-3-1.9-2.5,1.5,0.2-2.8
						L90.8-1.2C93.5-5.4,104-5,107-3.1L119.6,9.9z"/>
					<path class="st30" d="M119.2,10c3,1.9,2.5,3.8,0.2,7.3L111.8,34c-2.6,4.2-7.5,6.4-10.5,4.5L80,28.1c-3-1.9-2.5,1.4,0.1-2.8
						L90.8-1c2.6-4.2,13-4,16-2.1L119.2,10z"/>
					<path class="st31" d="M118.9,10.1c3,1.9,2.4,3.8,0.2,7.3l-7.6,16.5c-2.6,4.2-7.4,6.4-10.4,4.5L80.2,28c-3-1.9-2.6,1.3,0.1-2.9
						L90.7-0.8c2.6-4.2,12.8-4.1,15.8-2.3L118.9,10.1z"/>
					<path class="st32" d="M118.5,10.2c3,1.8,2.4,3.8,0.2,7.2l-7.5,16.4c-2.6,4.2-7.3,6.4-10.3,4.6L80.3,27.9c-3-1.8-2.6,1.3,0-2.9
						L90.7-0.6c2.6-4.2,12.6-4.2,15.5-2.4L118.5,10.2z"/>
					<path class="st33" d="M118.1,10.2c2.9,1.8,2.4,3.8,0.2,7.1l-7.5,16.2c-2.6,4.1-7.2,6.4-10.2,4.6L80.5,27.8
						c-2.9-1.8-2.6,1.2,0-3L90.7-0.5C93.3-4.6,103-4.8,106-3L118.1,10.2z"/>
					<path class="st34" d="M117.8,10.3c2.9,1.8,2.4,3.8,0.2,7l-7.5,16c-2.6,4.1-7.2,6.4-10.1,4.6L80.6,27.7c-2.9-1.8-2.6,1.1-0.1-3
						l10.1-25c2.6-4.1,12.2-4.5,15.1-2.7L117.8,10.3z"/>
					<path class="st35" d="M117.4,10.4c2.9,1.8,2.3,3.8,0.2,7l-7.4,15.9c-2.5,4.1-7.1,6.4-10,4.6L80.8,27.6c-2.9-1.8-2.7,1-0.1-3
						l10-24.7c2.5-4.1,11.9-4.6,14.8-2.8L117.4,10.4z"/>
					<path class="st36" d="M117,10.4c2.9,1.8,2.3,3.7,0.2,6.9l-7.4,15.7c-2.5,4-7,6.4-9.9,4.6L81,27.5c-2.9-1.8-2.7,0.9-0.2-3.1
						L90.6,0c2.5-4,11.7-4.8,14.6-3L117,10.4z"/>
					<path class="st37" d="M116.7,10.5c2.8,1.8,2.3,3.7,0.2,6.8l-7.4,15.6c-2.5,4-6.9,6.4-9.8,4.7L81.1,27.4
						c-2.8-1.8-2.7,0.9-0.2-3.1l9.7-24.1c2.5-4,11.5-4.9,14.4-3.1L116.7,10.5z"/>
					<path class="st38" d="M116.3,10.6c2.8,1.8,2.2,3.7,0.2,6.7l-7.3,15.4c-2.5,4-6.8,6.4-9.6,4.7L81.3,27.3
						c-2.8-1.8-2.8,0.8-0.3-3.2l9.5-23.8c2.5-4,11.3-5,14.1-3.3L116.3,10.6z"/>
					<path class="st39" d="M115.9,10.7c2.8,1.7,2.2,3.7,0.2,6.7l-7.3,15.3c-2.5,3.9-6.7,6.4-9.5,4.7l-17.9-10
						c-2.8-1.7-2.8,0.7-0.3-3.2l9.4-23.4c2.5-3.9,11.1-5.2,13.9-3.4L115.9,10.7z"/>
					<path class="st40" d="M115.5,10.7c2.8,1.7,2.2,3.7,0.2,6.6l-7.3,15.1c-2.4,3.9-6.6,6.4-9.4,4.7l-17.5-10
						c-2.8-1.7-2.8,0.6-0.4-3.3l9.3-23.1c2.4-3.9,10.9-5.3,13.7-3.6L115.5,10.7z"/>
					<path class="st41" d="M115.2,10.8c2.8,1.7,2.2,3.7,0.2,6.5l-7.2,14.9c-2.4,3.9-6.6,6.4-9.3,4.7L81.7,27
						c-2.8-1.7-2.9,0.6-0.4-3.3l9.1-22.8c2.4-3.9,10.7-5.4,13.4-3.7L115.2,10.8z"/>
					<path class="st42" d="M114.8,10.9c2.7,1.7,2.1,3.7,0.2,6.4l-7.2,14.8c-2.4,3.9-6.5,6.5-9.2,4.7l-16.8-9.9
						c-2.7-1.7-2.9,0.5-0.5-3.4l9-22.5c2.4-3.9,10.5-5.6,13.2-3.9L114.8,10.9z"/>
					<path class="st43" d="M114.4,11c2.7,1.7,2.1,3.7,0.2,6.4l-7.2,14.6c-2.4,3.8-6.4,6.5-9.1,4.8L82,26.9c-2.7-1.7-2.9,0.4-0.5-3.4
						l8.9-22.2c2.4-3.8,10.2-5.7,13-4L114.4,11z"/>
					<path class="st44" d="M114.1,11c2.7,1.7,2.1,3.6,0.2,6.3l-7.1,14.5c-2.4,3.8-6.3,6.5-9,4.8l-16-9.8c-2.7-1.7-3,0.3-0.6-3.4
						l8.7-21.9c2.4-3.8,10-5.8,12.7-4.2L114.1,11z"/>
					<path class="st45" d="M113.7,11.1c2.7,1.7,2,3.6,0.2,6.2l-7.1,14.3c-2.3,3.8-6.2,6.5-8.9,4.8l-15.6-9.8c-2.7-1.7-3,0.3-0.7-3.5
						l8.6-21.6c2.3-3.8,9.8-6,12.5-4.3L113.7,11.1z"/>
					<path class="st46" d="M113.3,11.2c2.6,1.6,2,3.6,0.2,6.1l-7,14.1c-2.3,3.7-6.1,6.5-8.8,4.8l-15.2-9.7c-2.6-1.6-3,0.2-0.7-3.5
						l8.5-21.3c2.3-3.7,9.6-6.1,12.3-4.5L113.3,11.2z"/>
					<path class="st47" d="M113,11.3c2.6,1.6,2,3.6,0.3,6.1l-7,14c-2.3,3.7-6,6.5-8.7,4.8l-14.9-9.7c-2.6-1.6-3.1,0.1-0.8-3.6
						l8.3-21c2.3-3.7,9.4-6.2,12-4.6L113,11.3z"/>
					<path class="st48" d="M112.6,11.3c2.6,1.6,1.9,3.6,0.3,6l-7,13.8c-2.3,3.7-6,6.5-8.6,4.9l-14.5-9.6c-2.6-1.6-3.1,0-0.8-3.6
						l8.2-20.7c2.3-3.7,9.2-6.4,11.8-4.8L112.6,11.3z"/>
					<path class="st49" d="M112.2,11.4c2.6,1.6,1.9,3.6,0.3,5.9L105.5,31c-2.3,3.6-5.9,6.5-8.5,4.9L83,26.3c-2.6-1.6-3.1,0-0.9-3.7
						l8.1-20.4c2.3-3.6,9-6.5,11.6-4.9L112.2,11.4z"/>
					<path class="st50" d="M111.8,11.5c2.6,1.6,1.9,3.6,0.3,5.8l-6.9,13.5c-2.2,3.6-5.8,6.5-8.3,4.9l-13.7-9.5
						c-2.6-1.6-3.2-0.1-0.9-3.7l7.9-20c2.2-3.6,8.8-6.6,11.3-5.1L111.8,11.5z"/>
					<path class="st51" d="M111.5,11.5c2.5,1.6,1.9,3.5,0.3,5.8l-6.9,13.4c-2.2,3.6-5.7,6.5-8.2,4.9l-13.4-9.5
						c-2.5-1.6-3.2-0.2-1-3.8l7.8-19.7c2.2-3.6,8.6-6.8,11.1-5.2L111.5,11.5z"/>
					<path class="st52" d="M111.1,11.6c2.5,1.6,1.8,3.5,0.3,5.7l-6.8,13.2c-2.2,3.5-5.6,6.5-8.1,4.9l-13-9.4c-2.5-1.6-3.2-0.3-1-3.8
						l7.7-19.4c2.2-3.5,8.3-6.9,10.9-5.3L111.1,11.6z"/>
					<path class="st53" d="M110.7,11.7c2.5,1.6,1.8,3.5,0.3,5.6l-6.8,13c-2.2,3.5-5.5,6.5-8,5l-12.6-9.4c-2.5-1.6-3.2-0.3-1.1-3.9
						L90,2.9c2.2-3.5,8.1-7,10.6-5.5L110.7,11.7z"/>
					<path class="st54" d="M110.4,11.8c2.5,1.5,1.8,3.5,0.3,5.5l-6.8,12.9c-2.2,3.5-5.4,6.5-7.9,5l-12.2-9.3
						c-2.5-1.5-3.3-0.4-1.1-3.9L90,3.1c2.2-3.5,7.9-7.2,10.4-5.6L110.4,11.8z"/>
					<path class="st55" d="M110,11.8c2.4,1.5,1.7,3.5,0.3,5.5L103.5,30c-2.1,3.4-5.4,6.5-7.8,5l-11.9-9.3c-2.4-1.5-3.3-0.5-1.2-3.9
						L90,3.3c2.1-3.4,7.7-7.3,10.2-5.8L110,11.8z"/>
					<path class="st56" d="M109.6,11.9c2.4,1.5,1.7,3.5,0.3,5.4l-6.7,12.6c-2.1,3.4-5.3,6.5-7.7,5L84,25.6c-2.4-1.5-3.3-0.6-1.2-4
						l7.1-18.2C92.1,0,97.4-4,99.9-2.5L109.6,11.9z"/>
					<path class="st57" d="M109.2,12c2.4,1.5,1.7,3.5,0.3,5.3l-6.7,12.4c-2.1,3.4-5.2,6.5-7.6,5l-11.1-9.2c-2.4-1.5-3.4-0.6-1.3-4
						l7-17.9C92,0.2,97.2-4,99.6-2.5L109.2,12z"/>
					<path class="st58" d="M108.9,12.1c2.4,1.5,1.6,3.5,0.3,5.2l-6.6,12.2c-2.1,3.4-5.1,6.5-7.5,5.1l-10.7-9.2
						C82,24,80.9,24.7,83,21.4l6.8-17.6C92,0.4,97-3.9,99.3-2.4L108.9,12.1z"/>
					<path class="st59" d="M108.5,12.1c2.4,1.5,1.6,3.4,0.3,5.2l-6.6,12.1c-2.1,3.3-5,6.5-7.4,5.1l-10.3-9.1
						c-2.4-1.5-3.4-0.8-1.4-4.1L89.8,4c2.1-3.3,6.9-7.8,9.2-6.4L108.5,12.1z"/>
					<path class="st60" d="M108.1,12.2c2.3,1.5,1.6,3.4,0.3,5.1l-6.6,11.9c-2,3.3-4.9,6.6-7.3,5.1l-10-9.1c-2.3-1.5-3.5-0.9-1.4-4.2
						l6.6-17c2-3.3,6.7-8,9-6.5L108.1,12.2z"/>
					<path class="st61" d="M107.8,12.3c2.3,1.4,1.6,3.4,0.3,5l-6.5,11.8c-2,3.3-4.8,6.6-7.2,5.1l-9.6-9c-2.3-1.4-3.5-0.9-1.5-4.2
						l6.4-16.6c2-3.3,6.4-8.1,8.8-6.7L107.8,12.3z"/>
					<path class="st62" d="M107.4,12.3c2.3,1.4,1.5,3.4,0.3,4.9l-6.5,11.6c-2,3.2-4.8,6.6-7.1,5.1l-9.2-9c-2.3-1.4-3.5-1-1.5-4.3
						l6.3-16.3c2-3.2,6.2-8.2,8.5-6.8L107.4,12.3z"/>
					<path class="st63" d="M107,12.4c2.3,1.4,1.5,3.4,0.3,4.9l-6.4,11.5c-2,3.2-4.7,6.6-6.9,5.2L85.1,25c-2.3-1.4-3.6-1.1-1.6-4.3
						l6.2-16c2-3.2,6-8.4,8.3-7L107,12.4z"/>
					<path class="st64" d="M106.7,12.5c2.2,1.4,1.5,3.4,0.3,4.8l-6.4,11.3c-2,3.2-4.6,6.6-6.8,5.2l-8.5-8.9
						c-2.2-1.4-3.6-1.2-1.6-4.3l6-15.7c2-3.2,5.8-8.5,8.1-7.1L106.7,12.5z"/>
					<path class="st65" d="M106.3,12.6c2.2,1.4,1.4,3.4,0.3,4.7l-6.4,11.1c-2,3.1-4.5,6.6-6.7,5.2l-8.1-8.8
						c-2.2-1.4-3.6-1.3-1.7-4.4L89.7,5c2-3.1,5.6-8.6,7.8-7.3L106.3,12.6z"/>
					<path class="st66" d="M105.9,12.6c2.2,1.4,1.4,3.4,0.3,4.6l-6.3,11c-1.9,3.1-4.4,6.6-6.6,5.2l-7.7-8.8
						c-2.2-1.4-3.7-1.3-1.7-4.4l5.8-15.1c1.9-3.1,5.4-8.8,7.6-7.4L105.9,12.6z"/>
					<path class="st67" d="M105.5,12.7c2.2,1.4,1.4,3.3,0.3,4.6l-6.3,10.8c-1.9,3.1-4.3,6.6-6.5,5.2l-7.3-8.7
						c-2.2-1.4-3.7-1.4-1.8-4.5l5.6-14.8c1.9-3.1,5.2-8.9,7.4-7.6L105.5,12.7z"/>
					<path class="st68" d="M105.2,12.8c2.2,1.3,1.3,3.3,0.3,4.5l-6.3,10.7c-1.9,3-4.2,6.6-6.4,5.3l-7-8.7c-2.2-1.3-3.7-1.5-1.8-4.5
						l5.5-14.5c1.9-3,5-9,7.1-7.7L105.2,12.8z"/>
					<path class="st69" d="M104.8,12.9c2.1,1.3,1.3,3.3,0.3,4.4l-6.2,10.5c-1.9,3-4.2,6.6-6.3,5.3L86,24.4c-2.1-1.3-3.8-1.6-1.9-4.6
						l5.4-14.2c1.9-3,4.8-9.2,6.9-7.8L104.8,12.9z"/>
					<path class="st70" d="M104.4,12.9c2.1,1.3,1.3,3.3,0.3,4.3l-6.2,10.3c-1.9,3-4.1,6.6-6.2,5.3l-6.2-8.6
						c-2.1-1.3-3.8-1.6-1.9-4.6l5.2-13.9c1.9-3,4.5-9.3,6.7-8L104.4,12.9z"/>
					<path class="st71" d="M104.1,13c2.1,1.3,1.3,3.3,0.3,4.3l-6.2,10.2c-1.8,2.9-4,6.6-6.1,5.3l-5.8-8.6c-2.1-1.3-3.8-1.7-2-4.7
						L89.5,6c1.8-2.9,4.3-9.4,6.4-8.1L104.1,13z"/>
					<path class="st72" d="M103.7,13.1c2.1,1.3,1.2,3.3,0.4,4.2l-6.1,10c-1.8,2.9-3.9,6.6-6,5.3l-5.4-8.5c-2.1-1.3-3.8-1.8-2-4.7
						l5-13.2c1.8-2.9,4.1-9.6,6.2-8.3L103.7,13.1z"/>
					<path class="st73" d="M103.3,13.1c2,1.3,1.2,3.3,0.4,4.1l-6.1,9.9c-1.8,2.9-3.8,6.6-5.9,5.3L86.7,24c-2-1.3-3.9-1.9-2.1-4.7
						l4.8-12.9c1.8-2.9,3.9-9.7,6-8.4L103.3,13.1z"/>
					<path class="st74" d="M103,13.2c2,1.3,1.2,3.2,0.4,4L97.3,27c-1.8,2.9-3.7,6.6-5.8,5.4l-4.7-8.4c-2-1.3-3.9-1.9-2.1-4.8
						l4.7-12.6c1.8-2.9,3.7-9.8,5.7-8.6L103,13.2z"/>
				</g>
				<g>
					<polygon class="st75" points="74,-2.5 63.3,16 74,34.4 84.6,16 					"/>
					<polygon class="st74" points="84.6,16 106,16.1 95.3,-2.4 74,-2.5 					"/>
					<polygon class="st76" points="74,34.4 95.3,34.5 106,16.1 84.6,16 					"/>
				</g>
			</g>
		</g>
	</g>
</g>
<linearGradient id="SVGID_5_" gradientUnits="userSpaceOnUse" x1="0" y1="9.7578" x2="85.25" y2="9.7578">
	<stop  offset="0" style="stop-color:#6536FF"/>
	<stop  offset="0.1166" style="stop-color:#6235F8"/>
	<stop  offset="0.2923" style="stop-color:#5B31E3"/>
	<stop  offset="0.5053" style="stop-color:#4F2AC1"/>
	<stop  offset="0.7475" style="stop-color:#3E2192"/>
	<stop  offset="1" style="stop-color:#2A1659"/>
</linearGradient>
<rect y="0" class="st81" width="85.3" height="19.5"/>
<g class="st82">
	<g>
		<path class="st1" d="M78.6,25.6h1.1l-7-9.8L72,16.5L78.6,25.6z"/>
		<path class="st1" d="M56.3-6.8h-1.2l12.4,17.2l0.6-0.8L56.3-6.8z"/>
		<path class="st1" d="M58.7-6.8h-1.2L68.7,8.7c0.2-0.3,0.4-0.5,0.6-0.8L58.7-6.8z"/>
		<path class="st1" d="M80.9,25.6H82l-8-11.1l-0.7,0.6L80.9,25.6z"/>
		<path class="st1" d="M83.7,25.6h6.6L79.1,10.1c-1.4,1.1-2.8,2.3-4.1,3.5L83.7,25.6z"/>
		<path class="st1" d="M67-6.8h-6.7l9.8,13.6c1.1-1.5,2.3-2.9,3.6-4.3L67-6.8z"/>
	</g>
	<g>
		<path class="st1" d="M66,18.8c-1.4,2-2.7,4-3.9,6.1c0.4-0.8,0.9-1.7,1.4-2.5l0,0c1.1-1.8,2.2-3.5,3.4-5.2l0,0
			C77.2,2.7,92.4-8.6,107-13.9l-1.2-3.7c0,0-0.1-0.1-0.1,0C85.1-10.2,66,9,59.4,30.4c0.3-0.8,0.7-1.6,1-2.3
			c9.5-15.6,27.9-28.4,44.9-34l-0.5-3.5C89.3-4.3,75.7,5.6,66,18.8z"/>
	</g>
</g>
</svg>
