<?xml version="1.0" encoding="utf-8"?>
<!-- Generator: Adobe Illustrator 23.0.1, SVG Export Plug-In . SVG Version: 6.00 Build 0)  -->
<svg version="1.1" id="Object" xmlns="http://www.w3.org/2000/svg" xmlns:xlink="http://www.w3.org/1999/xlink" x="0px" y="0px"
	 viewBox="0 0 726.7 574.9" style="enable-background:new 0 0 726.7 574.9;" xml:space="preserve">
<style type="text/css">
	.st0{fill:#CCCCCC;}
	.st1{fill:#333333;}
	.st2{fill:#666666;}
	.st3{fill:#F2F2F2;}
	.st4{fill:#C5C5C5;}
	.st5{fill:#2A1659;}
	.st6{opacity:0.76;fill:#CCCCCC;}
</style>
<g>
	<path class="st0" d="M655.1,358.3c0-1.2-0.5-2.4-1.6-3.5c-8.6-8.4-31.5-28-80.5-56.3c-66.4-38.3-103.4-48.4-105.3-49
		c-0.9-1.1-18.4-22.5-84.9-60.8c-49-28.3-83.1-41.5-97.5-46.5c-4.5-1.5-10.2-1.1-13.9,1.1l-240,139.5c-2.3,1.3-3.4,3-3.4,4.7
		c0,0,0,0,0,0l0,8.4c0,1.7,1.1,3.4,3.3,4.6c0.3,0.2,0.5,0.3,0.8,0.4c0.1,0,0.2,0.1,0.3,0.1c0.2,0.1,0.3,0.1,0.5,0.2
		c0.1,0,0.2,0.1,0.3,0.1c0.6,0.2,1.2,0.4,1.8,0.7c0.2,0.1,0.4,0.1,0.6,0.2c0.4,0.2,0.8,0.3,1.3,0.5c0.2,0.1,0.5,0.2,0.8,0.3
		c0.4,0.2,0.8,0.3,1.2,0.5c0.3,0.1,0.5,0.2,0.8,0.3c0.4,0.2,0.8,0.3,1.3,0.5c0.3,0.1,0.6,0.3,1,0.4c0.2,0.1,0.5,0.2,0.7,0.3
		c0.4,0.2,0.8,0.3,1.2,0.5c0.2,0.1,0.5,0.2,0.7,0.3c0.5,0.2,0.9,0.4,1.4,0.6c0.2,0.1,0.4,0.2,0.7,0.3c0.6,0.2,1.2,0.5,1.8,0.8
		c0.1,0,0.2,0.1,0.3,0.1c0.7,0.3,1.4,0.6,2.2,0.9c0.2,0.1,0.4,0.2,0.6,0.3c0.5,0.2,1.1,0.5,1.6,0.7c0.3,0.1,0.6,0.2,0.9,0.4
		c0.5,0.2,1,0.4,1.5,0.6c0.3,0.1,0.6,0.3,0.9,0.4c0.5,0.2,1,0.4,1.5,0.7c0.3,0.1,0.6,0.3,0.9,0.4c0.6,0.2,1.1,0.5,1.7,0.8
		c0.3,0.1,0.5,0.2,0.8,0.4c0.8,0.3,1.6,0.7,2.3,1c0.1,0,0.2,0.1,0.2,0.1c0.9,0.4,1.8,0.8,2.6,1.2c0.3,0.1,0.6,0.3,0.8,0.4
		c0.6,0.3,1.2,0.6,1.9,0.9c0.3,0.2,0.7,0.3,1,0.5c0.6,0.3,1.2,0.6,1.8,0.8c0.4,0.2,0.7,0.3,1.1,0.5c0.6,0.3,1.2,0.6,1.8,0.9
		c0.4,0.2,0.7,0.3,1.1,0.5c0.7,0.3,1.3,0.6,2,1c0.3,0.2,0.7,0.3,1,0.5c0.9,0.4,1.8,0.9,2.7,1.3c0.1,0,0.2,0.1,0.3,0.1
		c1,0.5,2,1,3.1,1.5c0.3,0.2,0.7,0.3,1,0.5c0.7,0.4,1.4,0.7,2.2,1.1c0.4,0.2,0.8,0.4,1.2,0.6c0.7,0.3,1.3,0.7,2,1
		c0.4,0.2,0.9,0.4,1.3,0.7c0.7,0.3,1.4,0.7,2.1,1.1c0.4,0.2,0.8,0.4,1.3,0.7c0.7,0.4,1.5,0.8,2.3,1.2c0.4,0.2,0.7,0.4,1.1,0.6
		c1.1,0.6,2.2,1.1,3.3,1.7c0,0,0.1,0,0.1,0.1c1.1,0.6,2.3,1.2,3.5,1.9c0.4,0.2,0.8,0.4,1.2,0.6c0.8,0.4,1.6,0.9,2.4,1.3
		c0.5,0.3,0.9,0.5,1.4,0.8c0.7,0.4,1.5,0.8,2.2,1.2c0.5,0.3,1,0.5,1.4,0.8c0.8,0.4,1.5,0.9,2.3,1.3c0.5,0.3,0.9,0.5,1.4,0.8
		c0.8,0.5,1.7,0.9,2.5,1.4c0.4,0.2,0.8,0.5,1.2,0.7c1.3,0.7,2.5,1.4,3.8,2.2c64.1,37,83.8,59.6,84.9,60.8c0.1,0,0.1,0,0.3,0.1
		c0,0,0.1,0,0.1,0c0.1,0,0.2,0.1,0.3,0.1c0.1,0,0.1,0,0.2,0.1c0.1,0,0.3,0.1,0.4,0.1c0.1,0,0.2,0.1,0.3,0.1c0.2,0.1,0.4,0.1,0.6,0.2
		c0.1,0,0.2,0.1,0.3,0.1c0.3,0.1,0.7,0.2,1,0.3c0,0,0.1,0,0.1,0c0.4,0.1,0.7,0.2,1.1,0.4c0.1,0,0.3,0.1,0.4,0.1
		c0.3,0.1,0.6,0.2,1,0.3c0.2,0.1,0.4,0.1,0.6,0.2c0.3,0.1,0.7,0.2,1,0.4c0.2,0.1,0.4,0.1,0.7,0.2c0.4,0.1,0.8,0.3,1.2,0.4
		c0.2,0.1,0.4,0.1,0.6,0.2c0.6,0.2,1.3,0.5,2,0.7c0,0,0.1,0,0.1,0c0.7,0.2,1.3,0.5,2,0.8c0.2,0.1,0.5,0.2,0.7,0.3
		c0.5,0.2,1.1,0.4,1.6,0.6c0.3,0.1,0.6,0.2,0.9,0.3c0.5,0.2,1.1,0.4,1.7,0.6c0.3,0.1,0.6,0.2,1,0.4c0.8,0.3,1.6,0.6,2.4,1
		c0.1,0,0.2,0.1,0.4,0.1c0.9,0.3,1.8,0.7,2.7,1.1c0.1,0,0.2,0.1,0.3,0.1c0.9,0.4,1.9,0.8,2.9,1.2c0.2,0.1,0.4,0.2,0.6,0.2
		c1,0.4,2,0.8,3,1.3c0.2,0.1,0.4,0.2,0.5,0.2c1.1,0.5,2.2,0.9,3.3,1.4c0,0,0,0,0.1,0c1.1,0.5,2.3,1,3.4,1.5c0.2,0.1,0.4,0.2,0.6,0.3
		c1.1,0.5,2.3,1,3.5,1.6c0.2,0.1,0.5,0.2,0.7,0.3c1.2,0.5,2.4,1.1,3.7,1.7c0.2,0.1,0.3,0.1,0.5,0.2c1.2,0.6,2.5,1.1,3.7,1.7
		c0.1,0.1,0.3,0.1,0.4,0.2c1.3,0.6,2.6,1.3,4,1.9c0.3,0.1,0.5,0.3,0.8,0.4c1.3,0.6,2.7,1.3,4.1,2c0.2,0.1,0.5,0.2,0.7,0.4
		c1.4,0.7,2.9,1.4,4.4,2.2c0,0,0,0,0.1,0c1.5,0.7,3,1.5,4.5,2.3c0.3,0.1,0.5,0.3,0.8,0.4c1.5,0.8,3,1.5,4.5,2.3
		c0.3,0.2,0.6,0.3,0.9,0.5c1.5,0.8,3.1,1.6,4.7,2.5c0.2,0.1,0.4,0.2,0.5,0.3c1.5,0.8,3.1,1.7,4.7,2.5c0.2,0.1,0.4,0.2,0.6,0.3
		c1.6,0.9,3.3,1.8,5,2.7c0.3,0.2,0.6,0.4,1,0.5c1.7,0.9,3.3,1.9,5,2.8c0.3,0.2,0.6,0.3,0.9,0.5c1.8,1,3.6,2,5.4,3.1
		c43.4,25.1,67,44.1,77.6,53.8c0.5,0.4,1,0.8,1.5,1.1c0.5,0.3,1,0.5,1.5,0.7c0,0,0.1,0,0.1,0.1c0,0,0,0,0.1,0
		c0.4,0.1,0.8,0.3,1.2,0.4c0,0,0.1,0,0.1,0c0.1,0,0.2,0,0.3,0.1c0.2,0.1,0.5,0.1,0.7,0.2c0.1,0,0.1,0,0.2,0c0.1,0,0.2,0,0.3,0.1
		c0.2,0,0.4,0.1,0.6,0.1c0.1,0,0.1,0,0.2,0c0.1,0,0.2,0,0.3,0c0.2,0,0.4,0,0.6,0.1c0.1,0,0.2,0,0.3,0c0.1,0,0.2,0,0.3,0
		c0.2,0,0.4,0,0.6,0c0.1,0,0.2,0,0.3,0c0.1,0,0.2,0,0.2,0c0.2,0,0.4,0,0.6,0c0.1,0,0.2,0,0.3,0c0.1,0,0.1,0,0.2,0
		c0.3,0,0.5,0,0.8-0.1c0.1,0,0.2,0,0.3,0c0,0,0.1,0,0.1,0c0.4,0,0.9-0.1,1.3-0.2c0,0,0,0,0.1,0c0.1,0,0.3-0.1,0.4-0.1
		c0.2,0,0.4-0.1,0.6-0.1c0.2,0,0.3-0.1,0.5-0.1c0.2-0.1,0.4-0.1,0.6-0.2c0,0,0.1,0,0.1,0c0.1,0,0.1-0.1,0.2-0.1
		c0.3-0.1,0.6-0.2,0.9-0.3c0.1,0,0.2-0.1,0.3-0.1c0.4-0.2,0.8-0.4,1.1-0.6l240-139.5c0,0,0.1-0.1,0.1-0.1c0.1-0.1,0.2-0.1,0.3-0.2
		c0.1-0.1,0.3-0.2,0.4-0.3c0.1-0.1,0.2-0.2,0.3-0.3c0.1-0.1,0.2-0.2,0.4-0.3c0,0,0.1,0,0.1-0.1c0,0,0.1-0.1,0.1-0.1
		c0.2-0.2,0.3-0.4,0.5-0.5c0,0,0.1-0.1,0.1-0.1c0,0,0-0.1,0.1-0.1c0.1-0.1,0.2-0.3,0.3-0.4c0-0.1,0.1-0.1,0.1-0.2c0,0,0,0,0-0.1
		c0.1-0.1,0.1-0.2,0.2-0.4c0-0.1,0.1-0.1,0.1-0.2c0,0,0,0,0-0.1c0-0.1,0.1-0.2,0.1-0.3c0-0.1,0.1-0.2,0.1-0.2c0,0,0,0,0-0.1
		c0-0.1,0-0.2,0-0.3c0-0.1,0-0.2,0-0.3c0,0,0-0.1,0-0.1l0-8.4C655.1,358.2,655.1,358.3,655.1,358.3z"/>
	<g>
		<g>
			<path class="st1" d="M566.4,285.9c47.6,27.5,69.9,46.6,78.2,54.7c2.6,2.5,1.9,5.7-1.7,7.8L409.7,484c-4.4,2.6-11.5,2.5-15.6,0.1
				c-0.6-0.3-1.1-0.7-1.5-1.1c-10.4-9.4-33.2-27.9-75.4-52.3c-62.3-35.9-100.3-47-102.3-47.6c-1-1.2-20.2-23.2-82.5-59.1
				c-42.2-24.4-74.2-37.6-90.5-43.5c-0.7-0.3-1.3-0.5-1.9-0.9c-4.2-2.4-4.3-6.5,0.1-9.1l233.2-135.5c3.6-2.1,9.2-2.5,13.5-1
				c14.1,4.8,47.1,17.6,94.8,45.1c64.5,37.3,81.6,58,82.5,59.1C466,238.9,501.9,248.7,566.4,285.9z"/>
		</g>
		<path class="st1" d="M646.2,344.3c0,0.1,0,0.2,0,0.3c0,0.1,0,0.2-0.1,0.3c0,0.1-0.1,0.2-0.1,0.3c0,0.1-0.1,0.2-0.1,0.3
			c-0.1,0.1-0.1,0.2-0.2,0.4c0,0.1-0.1,0.2-0.1,0.2c-0.1,0.1-0.2,0.3-0.3,0.4c-0.1,0.1-0.1,0.1-0.2,0.2c-0.1,0.2-0.3,0.3-0.5,0.5
			c-0.1,0.1-0.1,0.1-0.2,0.2c-0.1,0.1-0.2,0.2-0.4,0.3c-0.1,0.1-0.2,0.2-0.3,0.2c-0.1,0.1-0.3,0.2-0.4,0.3c-0.1,0.1-0.3,0.2-0.4,0.3
			L409.7,484c-0.3,0.2-0.7,0.4-1.1,0.5c-0.1,0-0.2,0.1-0.3,0.1c-0.3,0.1-0.6,0.2-0.9,0.3c-0.1,0-0.2,0.1-0.3,0.1
			c-0.2,0.1-0.4,0.1-0.6,0.2c-0.1,0-0.3,0.1-0.4,0.1c-0.2,0-0.4,0.1-0.6,0.1c-0.1,0-0.3,0.1-0.4,0.1c-0.4,0.1-0.8,0.1-1.3,0.2
			c-0.1,0-0.3,0-0.4,0c-0.2,0-0.5,0-0.7,0c-0.2,0-0.3,0-0.5,0c-0.2,0-0.4,0-0.6,0c-0.2,0-0.3,0-0.5,0c-0.2,0-0.4,0-0.6,0
			c-0.2,0-0.3,0-0.5,0c-0.2,0-0.4,0-0.6-0.1c-0.2,0-0.3,0-0.5-0.1c-0.2,0-0.4-0.1-0.6-0.1c-0.2,0-0.3-0.1-0.5-0.1
			c-0.2-0.1-0.5-0.1-0.7-0.2c-0.1,0-0.2-0.1-0.4-0.1c-0.4-0.1-0.8-0.2-1.2-0.4c-0.1,0-0.1,0-0.2-0.1c-0.5-0.2-1-0.4-1.4-0.7
			c-0.6-0.3-1.1-0.7-1.5-1.1c-10.4-9.4-33.2-27.9-75.4-52.3c-1.8-1-3.5-2-5.2-3c-0.3-0.2-0.6-0.3-0.8-0.5c-1.6-0.9-3.3-1.8-4.9-2.7
			c-0.3-0.2-0.6-0.3-0.9-0.5c-1.6-0.9-3.2-1.8-4.8-2.7c-0.2-0.1-0.3-0.2-0.5-0.3c-1.5-0.8-3.1-1.7-4.6-2.5c-0.2-0.1-0.4-0.2-0.5-0.3
			c-1.5-0.8-3.1-1.6-4.6-2.4c-0.3-0.2-0.6-0.3-0.9-0.5c-1.5-0.8-2.9-1.5-4.4-2.3c-0.2-0.1-0.5-0.3-0.7-0.4c-1.5-0.8-2.9-1.5-4.4-2.2
			c0,0,0,0,0,0c-1.4-0.7-2.9-1.4-4.3-2.1c-0.2-0.1-0.5-0.2-0.7-0.4c-1.3-0.7-2.7-1.3-4-1.9c-0.2-0.1-0.5-0.2-0.7-0.4
			c-1.3-0.6-2.6-1.3-3.9-1.9c-0.1-0.1-0.3-0.1-0.4-0.2c-1.2-0.6-2.4-1.1-3.6-1.7c-0.2-0.1-0.3-0.1-0.5-0.2c-1.2-0.6-2.4-1.1-3.6-1.6
			c-0.2-0.1-0.4-0.2-0.7-0.3c-1.1-0.5-2.3-1-3.4-1.5c-0.2-0.1-0.4-0.2-0.6-0.2c-1.1-0.5-2.2-1-3.3-1.5c0,0,0,0,0,0
			c-1.1-0.5-2.2-0.9-3.2-1.4c-0.2-0.1-0.3-0.1-0.5-0.2c-1-0.4-2-0.8-2.9-1.2c-0.2-0.1-0.4-0.2-0.5-0.2c-1-0.4-1.9-0.8-2.8-1.2
			c-0.1,0-0.2-0.1-0.3-0.1c-0.9-0.4-1.8-0.7-2.6-1c-0.1,0-0.2-0.1-0.3-0.1c-0.6-0.3-1.3-0.5-1.9-0.7c-0.2-0.1-0.3-0.1-0.5-0.2
			c-0.3-0.1-0.6-0.2-0.9-0.4c-0.5-0.2-1.1-0.4-1.6-0.6c-0.3-0.1-0.6-0.2-0.9-0.3c-0.5-0.2-1.1-0.4-1.6-0.6c-0.2-0.1-0.5-0.2-0.7-0.3
			c-0.7-0.3-1.4-0.5-2.1-0.8c0,0,0,0,0,0c-0.7-0.2-1.3-0.5-2-0.7c-0.2-0.1-0.4-0.1-0.6-0.2c-0.4-0.1-0.8-0.3-1.2-0.4
			c-0.2-0.1-0.4-0.1-0.6-0.2c-0.4-0.1-0.7-0.2-1-0.4c-0.2-0.1-0.4-0.1-0.5-0.2c-0.3-0.1-0.7-0.2-1-0.3c-0.1,0-0.3-0.1-0.4-0.1
			c-0.4-0.1-0.8-0.3-1.2-0.4c0,0,0,0,0,0c-0.4-0.1-0.7-0.2-1.1-0.3c-0.1,0-0.2-0.1-0.3-0.1c-0.2-0.1-0.4-0.1-0.6-0.2
			c-0.1,0-0.2-0.1-0.3-0.1c-0.2,0-0.3-0.1-0.4-0.1c-0.1,0-0.1,0-0.2-0.1c-0.1,0-0.2-0.1-0.3-0.1c0,0-0.1,0-0.1,0
			c-0.1,0-0.2-0.1-0.3-0.1c-1-1.2-20.2-23.2-82.5-59.1c-1.2-0.7-2.5-1.4-3.7-2.1c-0.4-0.2-0.8-0.4-1.2-0.7c-0.8-0.5-1.6-0.9-2.4-1.4
			c-0.5-0.3-0.9-0.5-1.4-0.8c-0.7-0.4-1.5-0.8-2.2-1.2c-0.5-0.3-0.9-0.5-1.4-0.8c-0.7-0.4-1.5-0.8-2.2-1.2c-0.4-0.2-0.9-0.5-1.3-0.7
			c-0.8-0.4-1.6-0.9-2.3-1.3c-0.4-0.2-0.7-0.4-1.1-0.6c-1.1-0.6-2.3-1.2-3.4-1.8c0,0,0,0-0.1,0c-1.1-0.6-2.2-1.2-3.2-1.7
			c-0.4-0.2-0.7-0.4-1.1-0.6c-0.7-0.4-1.5-0.8-2.2-1.1c-0.4-0.2-0.8-0.4-1.2-0.6c-0.7-0.3-1.3-0.7-2-1c-0.4-0.2-0.8-0.4-1.3-0.6
			c-0.7-0.3-1.3-0.7-2-1c-0.4-0.2-0.8-0.4-1.2-0.6c-0.7-0.4-1.4-0.7-2.1-1.1c-0.3-0.2-0.6-0.3-0.9-0.5c-1-0.5-2-1-3-1.5
			c-0.1,0-0.2-0.1-0.2-0.1c-0.9-0.4-1.8-0.9-2.7-1.3c-0.3-0.2-0.7-0.3-1-0.5c-0.6-0.3-1.3-0.6-1.9-0.9c-0.4-0.2-0.7-0.3-1.1-0.5
			c-0.6-0.3-1.2-0.6-1.8-0.8c-0.4-0.2-0.7-0.3-1.1-0.5c-0.6-0.3-1.1-0.5-1.7-0.8c-0.3-0.2-0.7-0.3-1-0.5c-0.6-0.3-1.2-0.6-1.8-0.8
			c-0.3-0.1-0.5-0.2-0.8-0.4c-0.9-0.4-1.7-0.8-2.6-1.2c-0.1-0.1-0.2-0.1-0.4-0.2c-0.7-0.3-1.5-0.7-2.2-1c-0.3-0.1-0.6-0.2-0.8-0.4
			c-0.5-0.2-1.1-0.5-1.6-0.7c-0.3-0.1-0.6-0.3-0.9-0.4c-0.5-0.2-1-0.4-1.5-0.6c-0.3-0.1-0.6-0.3-0.9-0.4c-0.5-0.2-1-0.4-1.4-0.6
			c-0.3-0.1-0.6-0.2-0.8-0.4c-0.5-0.2-1-0.4-1.5-0.7c-0.2-0.1-0.4-0.2-0.7-0.3c-0.7-0.3-1.4-0.6-2.1-0.9c-0.1,0-0.2-0.1-0.3-0.1
			c-0.6-0.2-1.2-0.5-1.8-0.7c-0.2-0.1-0.5-0.2-0.7-0.3c-0.4-0.2-0.9-0.4-1.3-0.5c-0.2-0.1-0.5-0.2-0.7-0.3c-0.4-0.2-0.8-0.3-1.2-0.5
			c-0.2-0.1-0.5-0.2-0.7-0.3c-0.1-0.1-0.3-0.1-0.4-0.2c-0.2-0.1-0.3-0.1-0.5-0.2c-0.4-0.2-0.8-0.3-1.2-0.5c-0.3-0.1-0.5-0.2-0.8-0.3
			c-0.4-0.2-0.8-0.3-1.2-0.5c-0.2-0.1-0.5-0.2-0.7-0.3c-0.4-0.2-0.8-0.3-1.2-0.5c-0.2-0.1-0.4-0.1-0.6-0.2c-0.6-0.2-1.2-0.4-1.7-0.6
			c-0.3-0.1-0.5-0.2-0.7-0.3c-0.1,0-0.2-0.1-0.3-0.1c-0.3-0.1-0.6-0.3-0.8-0.4c-2.1-1.2-3.2-2.8-3.2-4.5l0,8.2
			c0,1.6,1.1,3.3,3.2,4.5c0.3,0.1,0.5,0.3,0.8,0.4c0.1,0,0.2,0.1,0.3,0.1c0.2,0.1,0.3,0.1,0.5,0.2c0.1,0,0.2,0.1,0.3,0.1
			c0.5,0.2,1.1,0.4,1.7,0.6c0.2,0.1,0.4,0.1,0.6,0.2c0.4,0.2,0.8,0.3,1.2,0.5c0.2,0.1,0.5,0.2,0.7,0.3c0.4,0.1,0.8,0.3,1.2,0.5
			c0.3,0.1,0.5,0.2,0.8,0.3c0.4,0.2,0.8,0.3,1.2,0.5c0.3,0.1,0.6,0.2,0.9,0.4c0.2,0.1,0.5,0.2,0.7,0.3c0.4,0.2,0.8,0.3,1.2,0.5
			c0.2,0.1,0.5,0.2,0.7,0.3c0.4,0.2,0.9,0.4,1.3,0.5c0.2,0.1,0.4,0.2,0.6,0.3c0.6,0.2,1.2,0.5,1.8,0.7c0.1,0,0.2,0.1,0.3,0.1
			c0.7,0.3,1.4,0.6,2.1,0.9c0.2,0.1,0.4,0.2,0.6,0.3c0.5,0.2,1.1,0.4,1.6,0.7c0.3,0.1,0.6,0.2,0.8,0.4c0.5,0.2,1,0.4,1.5,0.6
			c0.3,0.1,0.6,0.3,0.9,0.4c0.5,0.2,1,0.4,1.5,0.6c0.3,0.1,0.6,0.3,0.9,0.4c0.5,0.2,1.1,0.5,1.7,0.7c0.3,0.1,0.5,0.2,0.8,0.3
			c0.7,0.3,1.5,0.7,2.3,1c0.1,0,0.2,0.1,0.2,0.1c0.8,0.4,1.7,0.8,2.6,1.2c0.3,0.1,0.5,0.3,0.8,0.4c0.6,0.3,1.2,0.6,1.8,0.8
			c0.3,0.2,0.7,0.3,1,0.5c0.6,0.3,1.1,0.5,1.7,0.8c0.4,0.2,0.7,0.3,1.1,0.5c0.6,0.3,1.2,0.6,1.8,0.8c0.4,0.2,0.7,0.3,1.1,0.5
			c0.6,0.3,1.3,0.6,1.9,0.9c0.3,0.2,0.6,0.3,1,0.5c0.9,0.4,1.8,0.9,2.6,1.3c0.1,0,0.2,0.1,0.3,0.1c1,0.5,2,1,3,1.5
			c0.3,0.2,0.6,0.3,1,0.5c0.7,0.3,1.4,0.7,2.1,1.1c0.4,0.2,0.8,0.4,1.2,0.6c0.6,0.3,1.3,0.7,2,1c0.4,0.2,0.8,0.4,1.2,0.6
			c0.7,0.3,1.3,0.7,2,1c0.4,0.2,0.8,0.4,1.2,0.6c0.7,0.4,1.5,0.8,2.2,1.1c0.4,0.2,0.7,0.4,1.1,0.6c1.1,0.6,2.1,1.1,3.2,1.7
			c0,0,0.1,0,0.1,0.1c1.1,0.6,2.2,1.2,3.4,1.8c0.4,0.2,0.7,0.4,1.1,0.6c0.8,0.4,1.5,0.8,2.3,1.3c0.4,0.2,0.9,0.5,1.3,0.7
			c0.7,0.4,1.4,0.8,2.2,1.2c0.5,0.3,0.9,0.5,1.4,0.8c0.7,0.4,1.5,0.8,2.2,1.2c0.5,0.3,0.9,0.5,1.4,0.8c0.8,0.5,1.6,0.9,2.4,1.4
			c0.4,0.2,0.8,0.4,1.2,0.7c1.2,0.7,2.4,1.4,3.7,2.1c62.3,35.9,81.4,58,82.5,59.1c0.1,0,0.1,0,0.2,0.1c0,0,0.1,0,0.1,0
			c0.1,0,0.2,0.1,0.3,0.1c0.1,0,0.1,0,0.2,0.1c0.1,0,0.3,0.1,0.4,0.1c0.1,0,0.2,0.1,0.3,0.1c0.2,0.1,0.4,0.1,0.6,0.2
			c0.1,0,0.2,0.1,0.3,0.1c0.3,0.1,0.6,0.2,1,0.3c0,0,0.1,0,0.1,0c0.3,0.1,0.7,0.2,1.1,0.4c0.1,0,0.3,0.1,0.4,0.1
			c0.3,0.1,0.6,0.2,1,0.3c0.2,0.1,0.4,0.1,0.6,0.2c0.3,0.1,0.7,0.2,1,0.3c0.2,0.1,0.4,0.1,0.6,0.2c0.4,0.1,0.8,0.3,1.2,0.4
			c0.2,0.1,0.4,0.1,0.6,0.2c0.6,0.2,1.3,0.5,1.9,0.7c0,0,0.1,0,0.1,0c0.6,0.2,1.3,0.5,2,0.7c0.2,0.1,0.5,0.2,0.7,0.3
			c0.5,0.2,1,0.4,1.6,0.6c0.3,0.1,0.6,0.2,0.9,0.3c0.5,0.2,1.1,0.4,1.6,0.6c0.3,0.1,0.6,0.2,0.9,0.4c0.8,0.3,1.6,0.6,2.4,0.9
			c0.1,0,0.2,0.1,0.3,0.1c0.8,0.3,1.7,0.7,2.6,1c0.1,0,0.2,0.1,0.3,0.1c0.9,0.4,1.9,0.8,2.8,1.2c0.2,0.1,0.4,0.2,0.6,0.2
			c1,0.4,1.9,0.8,2.9,1.2c0.2,0.1,0.4,0.2,0.5,0.2c1.1,0.4,2.1,0.9,3.2,1.4c0,0,0,0,0.1,0c1.1,0.5,2.2,1,3.3,1.5
			c0.2,0.1,0.4,0.2,0.6,0.2c1.1,0.5,2.2,1,3.4,1.5c0.2,0.1,0.5,0.2,0.7,0.3c1.2,0.5,2.4,1.1,3.6,1.6c0.2,0.1,0.3,0.1,0.5,0.2
			c1.2,0.5,2.4,1.1,3.6,1.7c0.1,0.1,0.3,0.1,0.4,0.2c1.3,0.6,2.6,1.2,3.9,1.8c0.3,0.1,0.5,0.2,0.8,0.4c1.3,0.6,2.6,1.3,3.9,1.9
			c0.2,0.1,0.5,0.2,0.7,0.3c1.4,0.7,2.8,1.4,4.3,2.1c0,0,0,0,0.1,0c1.4,0.7,2.9,1.5,4.4,2.2c0.2,0.1,0.5,0.3,0.7,0.4
			c1.4,0.7,2.9,1.5,4.3,2.3c0.3,0.2,0.6,0.3,0.9,0.5c1.5,0.8,3,1.6,4.6,2.4c0.2,0.1,0.4,0.2,0.5,0.3c1.5,0.8,3,1.6,4.6,2.5
			c0.2,0.1,0.4,0.2,0.6,0.3c1.6,0.9,3.2,1.7,4.8,2.6c0.3,0.2,0.6,0.3,0.9,0.5c1.6,0.9,3.2,1.8,4.9,2.7c0.3,0.2,0.6,0.3,0.8,0.5
			c1.7,1,3.5,2,5.2,3c42.2,24.4,65.1,42.9,75.4,52.3c0.4,0.4,0.9,0.8,1.5,1.1c0.4,0.3,0.9,0.5,1.4,0.7c0,0,0.1,0,0.1,0
			c0,0,0,0,0.1,0c0.4,0.1,0.8,0.3,1.2,0.4c0,0,0.1,0,0.1,0c0.1,0,0.2,0,0.3,0.1c0.2,0.1,0.5,0.1,0.7,0.2c0.1,0,0.1,0,0.2,0
			c0.1,0,0.2,0,0.3,0c0.2,0,0.4,0.1,0.6,0.1c0.1,0,0.1,0,0.2,0c0.1,0,0.2,0,0.3,0c0.2,0,0.4,0,0.6,0.1c0.1,0,0.2,0,0.2,0
			c0.1,0,0.2,0,0.3,0c0.2,0,0.4,0,0.6,0c0.1,0,0.2,0,0.3,0c0.1,0,0.2,0,0.2,0c0.2,0,0.4,0,0.6,0c0.1,0,0.2,0,0.3,0
			c0.1,0,0.1,0,0.2,0c0.2,0,0.5,0,0.7,0c0.1,0,0.2,0,0.3,0c0,0,0.1,0,0.1,0c0.4,0,0.9-0.1,1.3-0.2c0,0,0,0,0.1,0
			c0.1,0,0.2-0.1,0.4-0.1c0.2,0,0.4-0.1,0.6-0.1c0.1,0,0.3-0.1,0.4-0.1c0.2-0.1,0.4-0.1,0.6-0.2c0,0,0.1,0,0.1,0
			c0.1,0,0.1-0.1,0.2-0.1c0.3-0.1,0.6-0.2,0.9-0.3c0.1,0,0.2-0.1,0.3-0.1c0.4-0.2,0.7-0.3,1.1-0.5l233.2-135.5c0,0,0.1-0.1,0.1-0.1
			c0.1-0.1,0.2-0.1,0.3-0.2c0.1-0.1,0.3-0.2,0.4-0.3c0.1-0.1,0.2-0.2,0.3-0.2c0.1-0.1,0.2-0.2,0.4-0.3c0,0,0.1,0,0.1-0.1
			c0,0,0.1-0.1,0.1-0.1c0.2-0.2,0.3-0.3,0.5-0.5c0,0,0.1-0.1,0.1-0.1c0,0,0-0.1,0.1-0.1c0.1-0.1,0.2-0.3,0.3-0.4
			c0-0.1,0.1-0.1,0.1-0.2c0,0,0,0,0-0.1c0.1-0.1,0.1-0.2,0.2-0.4c0-0.1,0.1-0.1,0.1-0.2c0,0,0,0,0-0.1c0-0.1,0.1-0.2,0.1-0.3
			c0-0.1,0.1-0.2,0.1-0.2c0,0,0,0,0-0.1c0-0.1,0-0.2,0-0.3c0-0.1,0-0.2,0-0.2c0,0,0-0.1,0-0.1l0-8.2
			C646.2,344,646.2,344.1,646.2,344.3z"/>
	</g>
	<g>
		<path class="st2" d="M147.3,293.4c-1.2-0.7-2.3-1.3-3.5-2c-0.4-0.2-0.7-0.4-1.1-0.6c-0.8-0.4-1.5-0.9-2.3-1.3
			c-0.4-0.2-0.9-0.5-1.3-0.7c-0.7-0.4-1.4-0.8-2.1-1.2c-0.4-0.2-0.9-0.5-1.3-0.7c-0.7-0.4-1.3-0.7-2-1.1c-0.4-0.2-0.9-0.5-1.3-0.7
			c-0.7-0.4-1.4-0.7-2-1.1c-0.4-0.2-0.8-0.4-1.2-0.7c-0.8-0.4-1.5-0.8-2.3-1.2c-0.3-0.2-0.6-0.3-0.9-0.5c-1-0.6-2.1-1.1-3.1-1.6
			c-0.2-0.1-0.4-0.2-0.6-0.3c-0.8-0.4-1.6-0.9-2.5-1.3c-0.4-0.2-0.7-0.4-1.1-0.6c-0.7-0.3-1.3-0.7-2-1c-0.4-0.2-0.8-0.4-1.2-0.6
			c-0.6-0.3-1.2-0.6-1.8-0.9c-0.4-0.2-0.8-0.4-1.2-0.6c-0.6-0.3-1.2-0.6-1.8-0.9c-0.4-0.2-0.7-0.4-1.1-0.6c-0.6-0.3-1.2-0.6-1.8-0.9
			c-0.3-0.2-0.7-0.3-1-0.5c-0.7-0.3-1.4-0.7-2.1-1c-0.2-0.1-0.4-0.2-0.6-0.3c-0.9-0.4-1.8-0.9-2.7-1.3c-0.2-0.1-0.4-0.2-0.6-0.3
			c-0.7-0.3-1.4-0.6-2-1c-0.3-0.1-0.6-0.3-0.9-0.4c-0.6-0.3-1.1-0.5-1.6-0.8c-0.3-0.2-0.7-0.3-1-0.5c-0.5-0.2-1-0.5-1.5-0.7
			c-0.3-0.1-0.6-0.3-1-0.4c-0.5-0.2-1-0.5-1.5-0.7c-0.3-0.1-0.6-0.3-0.9-0.4c-0.5-0.2-1.1-0.5-1.6-0.7c-0.2-0.1-0.5-0.2-0.7-0.3
			c-0.8-0.3-1.5-0.7-2.2-1c0,0,0,0,0,0c-0.8-0.3-1.5-0.7-2.2-1c-0.2-0.1-0.4-0.2-0.7-0.3c-0.5-0.2-1-0.4-1.5-0.6
			c-0.3-0.1-0.5-0.2-0.8-0.3c-0.4-0.2-0.9-0.4-1.3-0.6c-0.3-0.1-0.5-0.2-0.8-0.3c-0.4-0.2-0.8-0.3-1.2-0.5c-0.3-0.1-0.5-0.2-0.8-0.3
			c-0.4-0.2-0.8-0.3-1.2-0.5c-0.2-0.1-0.5-0.2-0.7-0.3c-0.4-0.2-0.9-0.4-1.3-0.5c-0.2-0.1-0.3-0.1-0.5-0.2c-0.6-0.2-1.2-0.5-1.8-0.7
			c0,0-0.1,0-0.1,0c-0.5-0.2-1-0.4-1.5-0.6c0,0-0.1,0-0.1-0.1c-0.3-0.1-0.7-0.3-1-0.4c-0.3-0.1-0.5-0.2-0.8-0.3
			c-0.3-0.1-0.6-0.2-1-0.4c-0.2-0.1-0.5-0.2-0.7-0.3c-0.4-0.1-0.7-0.3-1-0.4c-0.2-0.1-0.4-0.1-0.5-0.2c-0.5-0.2-1-0.4-1.5-0.6
			c-0.2-0.1-0.5-0.2-0.7-0.3c-0.1,0-0.2-0.1-0.3-0.1c-0.3-0.1-0.5-0.3-0.8-0.4c-2-1.1-3-2.7-3-4.2L57.8,276c0,1.5,1,3.1,3,4.2
			c0.2,0.1,0.5,0.3,0.8,0.4c0.1,0,0.2,0.1,0.3,0.1c0.1,0.1,0.3,0.1,0.4,0.2c0.1,0,0.2,0.1,0.3,0.1c0.5,0.2,1,0.4,1.5,0.6
			c0.2,0.1,0.3,0.1,0.5,0.2c0.4,0.1,0.7,0.3,1.1,0.4c0.2,0.1,0.4,0.2,0.6,0.2c0.3,0.1,0.7,0.3,1,0.4c0.2,0.1,0.5,0.2,0.7,0.3
			c0.3,0.1,0.7,0.3,1,0.4c0.5,0.2,1,0.4,1.5,0.6c0.1,0,0.1,0.1,0.2,0.1c0.6,0.2,1.2,0.5,1.8,0.7c0.2,0.1,0.4,0.2,0.6,0.2
			c0.4,0.2,0.8,0.3,1.3,0.5c0.2,0.1,0.5,0.2,0.7,0.3c0.4,0.2,0.8,0.3,1.2,0.5c0.3,0.1,0.5,0.2,0.8,0.3c0.4,0.2,0.8,0.3,1.2,0.5
			c0.3,0.1,0.5,0.2,0.8,0.3c0.4,0.2,0.8,0.4,1.3,0.5c0.3,0.1,0.6,0.2,0.8,0.4c0.5,0.2,0.9,0.4,1.4,0.6c0.3,0.1,0.5,0.2,0.8,0.3
			c0.7,0.3,1.5,0.6,2.2,1c0.1,0,0.1,0.1,0.2,0.1c0.7,0.3,1.4,0.6,2.1,0.9c0.3,0.1,0.5,0.2,0.8,0.4c0.5,0.2,1,0.5,1.6,0.7
			c0.3,0.1,0.6,0.3,0.9,0.4c0.5,0.2,1,0.4,1.5,0.7c0.3,0.2,0.7,0.3,1,0.5c0.5,0.2,1,0.5,1.5,0.7c0.3,0.2,0.7,0.3,1,0.5
			c0.5,0.2,1,0.5,1.6,0.7c0.3,0.2,0.7,0.3,1,0.5c0.6,0.3,1.3,0.6,1.9,0.9c0.2,0.1,0.5,0.2,0.7,0.3c0.9,0.4,1.8,0.9,2.7,1.3
			c0.2,0.1,0.4,0.2,0.7,0.3c0.7,0.3,1.4,0.7,2.1,1c0.3,0.2,0.7,0.3,1,0.5c0.6,0.3,1.2,0.6,1.8,0.9c0.4,0.2,0.8,0.4,1.1,0.6
			c0.6,0.3,1.2,0.6,1.8,0.9c0.4,0.2,0.8,0.4,1.2,0.6c0.6,0.3,1.2,0.6,1.8,0.9c0.4,0.2,0.8,0.4,1.2,0.6c0.6,0.3,1.3,0.7,1.9,1
			c0.4,0.2,0.7,0.4,1.1,0.6c0.8,0.4,1.6,0.9,2.5,1.3c0.2,0.1,0.4,0.2,0.6,0.3c1,0.5,2.1,1.1,3.1,1.6c0.3,0.2,0.6,0.3,0.9,0.5
			c0.7,0.4,1.5,0.8,2.3,1.2c0.4,0.2,0.8,0.4,1.2,0.7c0.7,0.4,1.4,0.7,2,1.1c0.4,0.2,0.9,0.5,1.3,0.7c0.7,0.4,1.3,0.7,2,1.1
			c0.4,0.2,0.9,0.5,1.4,0.8c0.7,0.4,1.4,0.8,2,1.1c0.4,0.2,0.9,0.5,1.3,0.7c0.8,0.4,1.5,0.9,2.3,1.3c0.4,0.2,0.7,0.4,1.1,0.6
			c1.1,0.7,2.3,1.3,3.5,2c27.3,15.8,45.9,28.7,57.9,38.1c0.8,0.6,1.6,1.2,2.3,1.8c0.7,0.6,1.5,1.2,2.2,1.7c0.7,0.6,1.4,1.1,2,1.6
			c0.6,0.5,1.2,1,1.8,1.5c0.6,0.5,1.1,1,1.7,1.4c0.5,0.5,1,0.9,1.5,1.3c1,0.9,1.8,1.6,2.6,2.4c0.4,0.4,0.8,0.7,1.1,1
			c2.7,2.6,4.1,4.1,4.3,4.4l0.1-28.5C223.7,347.6,205.6,327.1,147.3,293.4z"/>
		<g>
			<path class="st3" d="M377.2,159.8c60.5,34.9,76.6,54.3,77.4,55.3l-230,133.6c-1-1.1-19.1-21.6-77.4-55.3
				c-39.5-22.8-69.5-35.2-84.6-40.8c-0.6-0.2-1.2-0.5-1.8-0.8c-3.9-2.3-4.1-6,0-8.4l215.1-125c3.3-1.9,8.5-2.3,12.6-0.9
				C301.7,121.9,332.6,134,377.2,159.8z"/>
		</g>
	</g>
	<g>
		<polygon class="st4" points="454.6,215.1 454.6,243.6 224.6,377.2 224.7,348.7 		"/>
	</g>
	<g>
		<g>
			<path class="st3" d="M550.4,259.7c44.6,25.8,65.6,43.6,73.4,51.2c2.4,2.3,1.8,5.3-1.5,7.3l-215.1,125c-4.1,2.4-10.6,2.3-14.5,0
				c-0.5-0.3-1-0.6-1.4-1c-9.7-8.8-31.2-26.1-70.8-48.9c-58.3-33.7-93.9-44.1-95.7-44.7l230-133.6
				C456.4,215.6,489.9,224.8,550.4,259.7z"/>
		</g>
		<path class="st2" d="M625.3,314.3c0,0.1,0,0.2,0,0.3c0,0.1,0,0.2-0.1,0.3c0,0.1-0.1,0.2-0.1,0.3c0,0.1-0.1,0.2-0.1,0.3
			c0,0.1-0.1,0.2-0.1,0.3c0,0.1-0.1,0.1-0.1,0.2c-0.1,0.1-0.2,0.2-0.2,0.4c-0.1,0.1-0.1,0.1-0.2,0.2c-0.1,0.2-0.3,0.3-0.4,0.5
			c-0.1,0.1-0.1,0.1-0.2,0.2c-0.1,0.1-0.2,0.2-0.3,0.3c-0.1,0.1-0.2,0.2-0.3,0.2c-0.1,0.1-0.2,0.2-0.4,0.2c-0.1,0.1-0.2,0.2-0.4,0.2
			l-215.1,125c-0.3,0.2-0.6,0.3-1,0.5c-0.1,0-0.2,0.1-0.3,0.1c-0.3,0.1-0.5,0.2-0.8,0.3c-0.1,0-0.2,0.1-0.3,0.1
			c-0.2,0.1-0.3,0.1-0.5,0.1c-0.1,0-0.3,0.1-0.4,0.1c-0.2,0-0.4,0.1-0.5,0.1c-0.1,0-0.3,0.1-0.4,0.1c-0.4,0.1-0.8,0.1-1.2,0.2
			c-0.1,0-0.2,0-0.3,0c-0.2,0-0.5,0-0.7,0c-0.1,0-0.3,0-0.4,0c-0.2,0-0.4,0-0.6,0c-0.2,0-0.3,0-0.5,0c-0.2,0-0.4,0-0.5,0
			c-0.2,0-0.3,0-0.5,0c-0.2,0-0.3,0-0.5-0.1c-0.2,0-0.3,0-0.4-0.1c-0.2,0-0.4-0.1-0.6-0.1c-0.1,0-0.3-0.1-0.4-0.1
			c-0.2,0-0.4-0.1-0.6-0.2c-0.1,0-0.2-0.1-0.3-0.1c-0.4-0.1-0.7-0.2-1.1-0.4c0,0-0.1,0-0.1-0.1c-0.5-0.2-0.9-0.4-1.4-0.7
			c-0.5-0.3-1-0.6-1.4-1c-9.7-8.8-31.2-26.1-70.8-48.9c-1.6-1-3.3-1.9-4.9-2.8c-0.3-0.2-0.6-0.3-0.9-0.5c-1.5-0.9-3.1-1.7-4.6-2.6
			c-0.3-0.2-0.6-0.3-0.9-0.5c-1.5-0.9-3.1-1.7-4.6-2.5c-0.1-0.1-0.2-0.1-0.3-0.2c-1.5-0.8-2.9-1.6-4.3-2.3c-0.2-0.1-0.5-0.3-0.7-0.4
			c-1.4-0.8-2.8-1.5-4.2-2.2c-0.3-0.1-0.6-0.3-0.8-0.4c-1.4-0.7-2.8-1.4-4.1-2.1c-0.2-0.1-0.3-0.2-0.5-0.2c-1.3-0.7-2.6-1.3-3.9-2
			c-0.2-0.1-0.4-0.2-0.6-0.3c-1.3-0.7-2.6-1.3-3.9-1.9c-0.3-0.1-0.5-0.2-0.8-0.4c-1.3-0.6-2.5-1.2-3.7-1.8c-0.2-0.1-0.4-0.2-0.5-0.3
			c-1.2-0.6-2.3-1.1-3.4-1.7c-0.1-0.1-0.3-0.1-0.4-0.2c-1.2-0.6-2.3-1.1-3.5-1.6c-0.2-0.1-0.5-0.2-0.7-0.3c-1.1-0.5-2.2-1-3.3-1.5
			c-0.2-0.1-0.4-0.2-0.5-0.2c-1.1-0.5-2.1-0.9-3.1-1.4c-0.1,0-0.2-0.1-0.2-0.1c-1.1-0.5-2.1-0.9-3.1-1.4c-0.2-0.1-0.4-0.2-0.6-0.2
			c-1-0.4-1.9-0.8-2.9-1.2c-0.2-0.1-0.3-0.1-0.5-0.2c-1-0.4-1.9-0.8-2.8-1.2c0,0,0,0,0,0c-0.9-0.4-1.8-0.8-2.7-1.1
			c-0.2-0.1-0.3-0.1-0.5-0.2c-0.8-0.3-1.6-0.7-2.4-1c-0.2-0.1-0.3-0.1-0.5-0.2c-0.8-0.3-1.6-0.6-2.3-0.9c0,0,0,0,0,0
			c-0.1,0-0.2-0.1-0.3-0.1c-0.7-0.3-1.3-0.5-2-0.8c-0.3-0.1-0.5-0.2-0.7-0.3c-0.5-0.2-1-0.4-1.4-0.5c-0.3-0.1-0.5-0.2-0.8-0.3
			c-0.4-0.2-0.9-0.3-1.3-0.5c-0.2-0.1-0.4-0.2-0.6-0.2c-0.5-0.2-1-0.4-1.5-0.5c-0.1,0-0.2-0.1-0.3-0.1c-0.6-0.2-1.1-0.4-1.6-0.6
			c-0.2-0.1-0.3-0.1-0.4-0.2c-0.4-0.1-0.7-0.2-1.1-0.4c-0.2-0.1-0.3-0.1-0.5-0.2c-0.3-0.1-0.6-0.2-0.9-0.3c-0.1-0.1-0.3-0.1-0.4-0.1
			c-0.3-0.1-0.6-0.2-0.8-0.3c-0.1,0-0.2-0.1-0.3-0.1c-0.3-0.1-0.7-0.2-1-0.3c-0.1,0-0.1,0-0.2-0.1c-0.2-0.1-0.4-0.1-0.6-0.2
			c-0.1,0-0.2,0-0.2-0.1c-0.1,0-0.3-0.1-0.4-0.1c-0.1,0-0.1,0-0.2-0.1c-0.1,0-0.2-0.1-0.3-0.1c0,0-0.1,0-0.1,0
			c-0.1,0-0.2-0.1-0.2-0.1l-0.1,28.5c0.1,0,0.1,0,0.3,0.1c0,0,0,0,0.1,0c0.1,0,0.2,0.1,0.3,0.1c0.1,0,0.1,0,0.2,0.1
			c0.1,0,0.3,0.1,0.4,0.1c0.1,0,0.2,0,0.2,0.1c0.2,0.1,0.4,0.1,0.6,0.2c0.1,0,0.1,0,0.2,0.1c0.3,0.1,0.6,0.2,1,0.3
			c0.1,0,0.2,0.1,0.3,0.1c0.3,0.1,0.5,0.2,0.8,0.3c0.1,0,0.3,0.1,0.4,0.1c0.3,0.1,0.6,0.2,0.9,0.3c0.2,0.1,0.3,0.1,0.5,0.2
			c0.3,0.1,0.7,0.2,1,0.4c0.2,0.1,0.3,0.1,0.5,0.2c0.5,0.2,1.1,0.4,1.6,0.6c0.1,0,0.2,0.1,0.2,0.1c0.5,0.2,1,0.4,1.6,0.6
			c0.2,0.1,0.4,0.2,0.6,0.2c0.4,0.2,0.9,0.3,1.4,0.5c0.2,0.1,0.5,0.2,0.7,0.3c0.5,0.2,1,0.4,1.5,0.6c0.2,0.1,0.5,0.2,0.7,0.3
			c0.7,0.3,1.3,0.5,2,0.8c0.1,0,0.2,0.1,0.2,0.1c0.8,0.3,1.6,0.6,2.4,0.9c0.2,0.1,0.3,0.1,0.5,0.2c0.8,0.3,1.6,0.7,2.5,1
			c0.1,0.1,0.3,0.1,0.4,0.2c0.9,0.4,1.8,0.7,2.7,1.1c0,0,0,0,0,0c0.9,0.4,1.9,0.8,2.8,1.2c0.2,0.1,0.3,0.1,0.5,0.2
			c0.9,0.4,1.9,0.8,2.9,1.3c0.2,0.1,0.4,0.2,0.6,0.2c1,0.4,2.1,0.9,3.1,1.4c0.1,0,0.1,0.1,0.2,0.1c1,0.5,2.1,0.9,3.1,1.4
			c0.2,0.1,0.3,0.2,0.5,0.2c1.1,0.5,2.2,1,3.3,1.5c0.2,0.1,0.4,0.2,0.7,0.3c1.1,0.5,2.3,1.1,3.5,1.6c0.1,0.1,0.3,0.1,0.4,0.2
			c1.1,0.5,2.3,1.1,3.5,1.7c0.2,0.1,0.3,0.2,0.5,0.2c1.2,0.6,2.5,1.2,3.7,1.8c0.2,0.1,0.5,0.2,0.7,0.4c1.3,0.6,2.6,1.3,3.9,1.9
			c0.2,0.1,0.4,0.2,0.5,0.3c1.3,0.6,2.6,1.3,3.9,2c0.1,0.1,0.3,0.1,0.4,0.2c1.4,0.7,2.7,1.4,4.1,2.1c0.3,0.1,0.6,0.3,0.8,0.4
			c1.4,0.7,2.8,1.5,4.2,2.2c0.2,0.1,0.5,0.3,0.7,0.4c1.4,0.8,2.9,1.5,4.3,2.3c0.1,0,0.2,0.1,0.3,0.1c1.5,0.8,3,1.7,4.6,2.5
			c0.3,0.2,0.6,0.3,0.9,0.5c1.5,0.8,3,1.7,4.6,2.6c0.3,0.2,0.6,0.3,0.9,0.5c1.6,0.9,3.2,1.8,4.9,2.8c39.5,22.8,61.1,40.1,70.8,48.9
			c0.4,0.4,0.9,0.7,1.4,1c0.4,0.2,0.9,0.5,1.4,0.7c0,0,0.1,0,0.1,0c0,0,0,0,0.1,0c0.4,0.1,0.7,0.3,1.1,0.4c0,0,0.1,0,0.1,0
			c0.1,0,0.2,0,0.3,0.1c0.2,0.1,0.4,0.1,0.6,0.2c0.1,0,0.1,0,0.2,0c0.1,0,0.2,0,0.2,0c0.2,0,0.4,0.1,0.6,0.1c0.1,0,0.2,0,0.2,0
			c0.1,0,0.1,0,0.2,0c0.2,0,0.3,0,0.5,0.1c0.1,0,0.2,0,0.3,0c0.1,0,0.1,0,0.2,0c0.2,0,0.4,0,0.5,0c0.1,0,0.2,0,0.3,0
			c0.1,0,0.1,0,0.2,0c0.2,0,0.4,0,0.6,0c0.1,0,0.2,0,0.3,0c0,0,0.1,0,0.1,0c0.2,0,0.5,0,0.7,0c0.1,0,0.2,0,0.3,0c0,0,0,0,0.1,0
			c0.4,0,0.8-0.1,1.2-0.2c0,0,0.1,0,0.1,0c0.1,0,0.2,0,0.3-0.1c0.2,0,0.4-0.1,0.5-0.1c0.1,0,0.3-0.1,0.4-0.1c0.2,0,0.3-0.1,0.5-0.1
			c0,0,0.1,0,0.1,0c0.1,0,0.1,0,0.2-0.1c0.3-0.1,0.5-0.2,0.8-0.3c0.1,0,0.2-0.1,0.3-0.1c0.3-0.2,0.7-0.3,1-0.5l215.1-125
			c0,0,0.1-0.1,0.1-0.1c0.1-0.1,0.2-0.1,0.3-0.2c0.1-0.1,0.3-0.2,0.4-0.2c0.1-0.1,0.2-0.1,0.3-0.2c0.1-0.1,0.2-0.2,0.3-0.3
			c0,0,0,0,0.1-0.1c0,0,0.1-0.1,0.1-0.1c0.2-0.2,0.3-0.3,0.4-0.5c0,0,0.1-0.1,0.1-0.1c0,0,0-0.1,0.1-0.1c0.1-0.1,0.2-0.2,0.2-0.4
			c0-0.1,0.1-0.1,0.1-0.2c0,0,0,0,0-0.1c0.1-0.1,0.1-0.2,0.1-0.3c0-0.1,0.1-0.1,0.1-0.2c0,0,0,0,0-0.1c0-0.1,0.1-0.2,0.1-0.3
			c0-0.1,0-0.1,0.1-0.2c0,0,0,0,0-0.1c0-0.1,0-0.2,0-0.3c0-0.1,0-0.1,0-0.2c0,0,0-0.1,0-0.1l0.1-28.5
			C625.3,314.1,625.3,314.2,625.3,314.3z"/>
	</g>
	<g>
		<g>
			<polygon class="st1" points="239.5,351.6 239.5,355.7 212.4,360.5 212.4,356.4 			"/>
		</g>
		<g>
			<path class="st1" d="M479.9,218.7c1.9,1.1,1.9,2.9,0,4L231.3,367.3l8.2-15.7l-27.1,4.8L461,211.7c1.9-1.1,5-1.1,6.9,0
				L479.9,218.7z"/>
		</g>
		<path class="st1" d="M481.3,221.2C481.3,221.2,481.3,221.2,481.3,221.2c-0.1,0.2-0.1,0.4-0.2,0.5c0,0,0,0.1-0.1,0.1
			c-0.1,0.1-0.2,0.3-0.4,0.4c-0.1,0.1-0.2,0.2-0.3,0.3c-0.1,0.1-0.2,0.1-0.3,0.2L231.3,367.3l0,4.1l248.6-144.6c0,0,0,0,0.1,0
			c0.1-0.1,0.2-0.1,0.2-0.2c0.1-0.1,0.2-0.2,0.3-0.3c0,0,0,0,0,0c0.1-0.1,0.2-0.2,0.3-0.3c0,0,0-0.1,0.1-0.1c0,0,0-0.1,0.1-0.1
			c0,0,0.1-0.1,0.1-0.1c0.1-0.1,0.1-0.2,0.1-0.3c0,0,0,0,0,0c0,0,0,0,0-0.1c0-0.1,0-0.1,0.1-0.2c0-0.1,0-0.2,0-0.3c0,0,0,0,0,0
			l0-4.1C481.3,220.9,481.3,221,481.3,221.2z"/>
	</g>
	<g>
		<path class="st5" d="M366.7,206.4c-4.2-4-14.9-13.1-37.5-26.2c-30.6-17.7-48.7-22.7-49.3-22.9c-2.5-0.7-5.5-0.1-6.7,1.4
			c-0.9,1.1-0.5,2.5,1,3.3c0.4,0.2,0.9,0.4,1.4,0.6c0.5,0.2,17.5,5.1,46.5,21.8c22,12.7,32.2,21.5,36,25c0.2,0.2,0.5,0.4,0.8,0.6
			c1.6,0.9,4.1,1.1,6.1,0.4C367.4,209.6,368.2,207.8,366.7,206.4z"/>
		<path class="st5" d="M332,225.8c-4.2-4-14.9-13.1-37.5-26.2c-30.6-17.7-48.7-22.7-49.3-22.9c-2.5-0.7-5.5-0.1-6.7,1.4
			c-0.9,1.1-0.5,2.5,1,3.3c0.4,0.2,0.9,0.4,1.4,0.6c0.5,0.2,17.5,5,46.5,21.8c22.1,12.7,32.2,21.5,36,25.1c0.2,0.2,0.5,0.4,0.8,0.6
			c1.6,0.9,4.1,1.1,6.1,0.4C332.6,229,333.4,227.2,332,225.8z"/>
		<path class="st5" d="M297.2,245.2L297.2,245.2c-4.2-4-14.9-13.1-37.5-26.2c-30.6-17.7-48.7-22.7-49.3-22.9
			c-2.5-0.7-5.5-0.1-6.7,1.4c-0.9,1.1-0.5,2.5,1,3.3c0.4,0.2,0.9,0.4,1.4,0.6c0.5,0.2,17.5,5.1,46.5,21.8c22,12.7,32.2,21.5,36,25
			c0.2,0.2,0.5,0.4,0.8,0.6c1.6,0.9,4.1,1.1,6.1,0.4C297.8,248.4,298.6,246.6,297.2,245.2z"/>
		<path class="st5" d="M262.4,264.7c-4.2-4-14.9-13.1-37.5-26.2c-30.6-17.7-48.7-22.7-49.3-22.9c-2.5-0.7-5.5-0.1-6.7,1.4
			c-0.9,1.1-0.5,2.5,1,3.3c0.4,0.2,0.9,0.4,1.4,0.6l0,0c0.5,0.2,17.5,5,46.5,21.8c22.1,12.7,32.2,21.5,36,25.1
			c0.2,0.2,0.5,0.4,0.8,0.6c1.6,0.9,4.1,1.1,6.1,0.4C263.1,267.8,263.8,266,262.4,264.7z"/>
		<path class="st5" d="M227.6,284.1c-4.2-4-14.9-13.1-37.5-26.2c-30.6-17.7-48.7-22.7-49.3-22.9c-2.5-0.7-5.5-0.1-6.7,1.4
			c-0.9,1.1-0.5,2.5,1,3.3c0.4,0.2,0.9,0.4,1.4,0.6c0.5,0.2,17.5,5.1,46.5,21.8c22.1,12.7,32.2,21.5,36,25.1
			c0.2,0.2,0.5,0.4,0.8,0.6c1.6,0.9,4.1,1.1,6.1,0.4C228.3,287.2,229,285.4,227.6,284.1z"/>
	</g>
	<g>
		<path class="st5" d="M548.8,302.7c-4.2-4-14.9-13.1-37.5-26.2c-30.6-17.7-48.7-22.7-49.3-22.9c-2.5-0.7-5.5-0.1-6.7,1.4
			c-0.9,1.1-0.5,2.5,1,3.3c0.4,0.2,0.9,0.4,1.4,0.6c0.5,0.2,17.5,5.1,46.5,21.8c22,12.7,32.2,21.5,36,25c0.2,0.2,0.5,0.4,0.8,0.6
			c1.6,0.9,4.1,1.1,6.1,0.4C549.5,305.8,550.2,304,548.8,302.7z"/>
		<path class="st5" d="M514,322.1c-4.2-4-14.9-13.1-37.5-26.2c-30.6-17.7-48.7-22.7-49.3-22.9c-2.5-0.7-5.5-0.1-6.7,1.4
			c-0.9,1.1-0.5,2.5,1,3.3c0.4,0.2,0.9,0.4,1.4,0.6c0.5,0.2,17.5,5,46.5,21.8c22.1,12.7,32.2,21.5,36,25.1c0.2,0.2,0.5,0.4,0.8,0.6
			c1.6,0.9,4.1,1.1,6.1,0.4C514.7,325.2,515.5,323.4,514,322.1z"/>
		<path class="st5" d="M479.2,341.5L479.2,341.5c-4.2-4-14.9-13.1-37.5-26.2c-30.6-17.7-48.7-22.7-49.3-22.9
			c-2.5-0.7-5.5-0.1-6.7,1.4c-0.9,1.1-0.5,2.5,1,3.3c0.4,0.2,0.9,0.4,1.4,0.6c0.5,0.2,17.5,5.1,46.5,21.8c22,12.7,32.2,21.5,36,25
			c0.2,0.2,0.5,0.4,0.8,0.6c1.6,0.9,4.1,1.1,6.1,0.4C479.9,344.6,480.7,342.8,479.2,341.5z"/>
		<path class="st5" d="M444.5,360.9c-4.2-4-14.9-13.1-37.5-26.2c-30.6-17.7-48.7-22.7-49.3-22.9c-2.5-0.7-5.5-0.1-6.7,1.4
			c-0.9,1.1-0.5,2.5,1,3.3c0.4,0.2,0.9,0.4,1.4,0.6l0,0c0.5,0.2,17.5,5,46.5,21.8c22.1,12.7,32.2,21.5,36,25.1
			c0.2,0.2,0.5,0.4,0.8,0.6c1.6,0.9,4.1,1.1,6.1,0.4C445.1,364,445.9,362.2,444.5,360.9z"/>
		<path class="st5" d="M409.7,380.3c-4.2-4-14.9-13.1-37.5-26.2c-30.6-17.7-48.7-22.7-49.3-22.9c-2.5-0.7-5.5-0.1-6.7,1.4
			c-0.9,1.1-0.5,2.5,1,3.3c0.4,0.2,0.9,0.4,1.4,0.6c0.5,0.2,17.5,5.1,46.5,21.8c22.1,12.7,32.2,21.5,36,25.1
			c0.2,0.2,0.5,0.4,0.8,0.6c1.6,0.9,4.1,1.1,6.1,0.4C410.4,383.4,411.1,381.6,409.7,380.3z"/>
	</g>
	<path class="st6" d="M687.3,239.6C687.3,239.5,687.3,239.5,687.3,239.6L687.3,239.6l0-0.1l0,0l0,0l0-0.1c0,0,0,0.1,0,0.1l0-0.3
		c0-0.1,0-0.2,0-0.3l0-0.4c0-0.2,0-0.5-0.1-0.8c0-0.1,0-0.1,0-0.2c0-0.1,0-0.1,0-0.2l0-0.1c0,0,0-0.1,0-0.1l0-0.1
		c-0.1-0.9-0.3-1.7-0.5-2.3c0-0.2-0.1-0.3-0.2-0.6c0-0.1-0.1-0.2-0.1-0.3c0-0.1,0-0.1-0.1-0.2l0,0l0,0c0,0,0,0,0-0.1l-0.1-0.3l0-0.1
		c-0.1-0.2-0.2-0.5-0.3-0.7c-0.1-0.2-0.2-0.4-0.2-0.6c-0.1-0.3-0.2-0.5-0.3-0.7l0-0.1c0,0,0-0.1-0.1-0.1c-0.1-0.1-0.1-0.3-0.2-0.4
		c-0.3-0.5-0.5-0.9-0.6-1.1c0,0,0,0,0-0.1c-0.1-0.1-0.1-0.2-0.2-0.3c-0.1-0.1-0.1-0.2-0.2-0.3l-0.2-0.4c0,0-0.1-0.1-0.1-0.1
		c-0.2-0.3-0.4-0.5-0.6-0.8c-0.3-0.3-0.6-0.7-0.9-1.1c0,0,0-0.1-0.1-0.1l0-0.1c-0.3-0.4-0.7-0.8-1-1.1c-0.3-0.2-0.6-0.5-0.9-0.8
		c-0.1-0.1-0.1-0.1-0.2-0.2c-0.1-0.1-0.2-0.2-0.4-0.3c0,0,0,0-0.1,0c-0.2-0.2-0.4-0.3-0.5-0.4c-1.2-1-2.6-2-4.1-2.9
		c-49.7-28.7-99.3-57.3-149-86c-12.5-7.2-32.7-7.2-45.1,0c-94.4,54.9-190.7,109.8-285.2,164.6c-0.9,0.5-1.7,1-2.4,1.6c0,0,0,0-0.1,0
		c-0.3,0.2-0.7,0.5-1,0.7c-0.2,0.2-0.5,0.4-0.8,0.6c-0.2,0.2-0.4,0.3-0.7,0.5l-1.3,1.2c-0.3,0.3-1.1,1.1-1.8,2c0,0,0,0,0,0l0,0
		c-0.4,0.5-0.8,1.1-1.2,1.6c-0.1,0.2-0.3,0.5-0.6,0.9c0,0.1-0.1,0.1-0.1,0.2l-0.1,0.1c-0.2,0.3-0.3,0.6-0.5,0.9l0,0.1c0,0,0,0,0,0.1
		c-0.3,0.7-0.7,1.5-0.9,2.3l0,0.1c0,0,0,0.1,0,0.1c0,0.1,0,0.1-0.1,0.2c0,0.1-0.1,0.3-0.1,0.4c0,0,0,0,0,0c-0.1,0.2-0.1,0.4-0.2,0.5
		c0,0,0,0.1,0,0.1l0,0.1c-0.2,0.6-0.2,1-0.3,1.2c0,0.1,0,0.2,0,0.3c0,0.3-0.1,0.5-0.1,0.8l0,0.2c0,0.3-0.1,0.5-0.1,0.7l0,0.1l0,0.3
		c0,0.3,0,0.8,0,1.1l0,1.4c0,0.7,0,1.4,0.1,2c0,0,0,0,0,0.1c0.1,0.7,0.2,1.4,0.3,1.9c0,0,0,0,0,0c0.1,0.4,0.2,0.7,0.2,1
		c0,0.1,0.1,0.2,0.1,0.3c0.1,0.4,0.2,0.8,0.4,1.2c0,0.1,0.1,0.3,0.2,0.4c0.3,0.9,0.7,1.7,1.1,2.5c0.2,0.3,0.3,0.6,0.4,0.8
		c0.1,0.2,0.3,0.4,0.4,0.7c0.2,0.3,0.3,0.5,0.5,0.8c0,0.1,0.1,0.1,0.1,0.2c0.7,1,1.6,2,2.8,3.2c0.5,0.5,1.3,1.2,1.9,1.6
		c0.5,0.4,1.1,0.8,1.7,1.2c0.6,0.4,1.2,0.8,1.7,1.1c-0.1-0.1-0.2-0.1-0.3-0.2c0.1,0.1,0.2,0.2,0.3,0.2l14.9,8.6l14.9,8.6l14.9,8.6
		l14.9,8.6l14.9,8.6l14.9,8.6l14.9,8.6l14.9,8.6l14.9,8.6l14.9,8.6h0c0.2,0.1,0.4,0.2,0.5,0.3c0.2,0.1,0.3,0.2,0.5,0.3
		c0,0,0.1,0,0.1,0c0.3,0.1,0.6,0.3,0.8,0.4c0.1,0.1,0.2,0.1,0.3,0.2l0.3,0.1c0.5,0.2,0.9,0.4,1.4,0.6l0.4,0.2
		c0.2,0.1,0.5,0.2,0.8,0.3c0.4,0.2,0.8,0.3,1.2,0.5c0.1,0,0.2,0.1,0.3,0.1l0.2,0.1c0.7,0.2,1.4,0.4,2,0.6l0.1,0
		c0.1,0,0.3,0.1,0.4,0.1c0.7,0.2,1.3,0.3,1.7,0.5c0.1,0,0.1,0,0.2,0c0,0,0.1,0,0.1,0c0.1,0,0.1,0,0.2,0c6.7,1.6,14.5,2,22.3,0.5
		c1.1-0.2,2.1-0.4,2.8-0.6c0.8-0.2,1.8-0.4,2.5-0.7c0,0,0.1,0,0.1,0c0.7-0.2,1.5-0.5,2.2-0.7l2.2-0.8c0.3-0.1,0.6-0.3,1-0.4
		c0.3-0.2,0.7-0.3,1-0.5c0.1-0.1,0.3-0.1,0.4-0.2c0.6-0.3,1.4-0.7,2-1.1h0l28.3-16.5l28.3-16.5l28.3-16.5l28.3-16.5l28.3-16.5
		l28.3-16.5l28.3-16.5l28.3-16.5l28.3-16.5l28.3-16.5l0,0c0.8-0.5,1.5-0.9,2.1-1.3c0,0,0.1,0,0.1-0.1l0,0c0.5-0.4,1-0.7,1.5-1.1l0,0
		c0.5-0.4,0.8-0.6,1.2-1c0,0,0.1-0.1,0.1-0.1c0.3-0.3,0.7-0.7,1.1-1.1c0,0,0.1-0.1,0.1-0.1l0.1-0.1c0.3-0.3,0.6-0.7,0.9-1l0.1-0.1
		c0,0,0,0,0,0c0.4-0.5,0.9-1.1,1.2-1.6c0.1-0.2,0.3-0.5,0.5-0.9l0.2-0.3c0.1-0.2,0.2-0.3,0.3-0.5c0,0,0,0,0,0c0-0.1,0.1-0.2,0.1-0.3
		c0,0,0,0.1-0.1,0.1c0.1-0.2,0.2-0.4,0.3-0.6c0,0,0-0.1,0.1-0.1l0-0.1c0.1-0.3,0.3-0.6,0.4-1l0-0.1l0.1-0.1c0.1-0.4,0.3-0.8,0.4-1.2
		c0-0.1,0-0.1,0-0.2l0-0.1c0,0,0,0,0,0.1c0.1-0.3,0.2-0.6,0.2-0.8l0-0.1c0,0,0,0,0-0.1c0.2-0.7,0.2-1.1,0.3-1.2
		c0-0.2,0.1-0.4,0.1-0.5l0.1-0.4c0,0.1,0,0.2-0.1,0.3c0,0,0-0.1,0-0.1l0.1-0.4c0,0,0-0.1,0-0.1c0-0.3,0.1-0.6,0.1-0.9
		c0-0.1,0-0.2,0-0.3c0-0.1,0-0.3,0-0.5c0-0.1,0-0.2,0-0.3v0v0c0-0.1,0-0.2,0-0.3l0-1.4L687.3,239.6z"/>
	<g>
		<g>
			<g>
				<path class="st2" d="M687.3,179.5C687.3,179.5,687.3,179.5,687.3,179.5L687.3,179.5l0-0.1l0,0l0,0l0-0.1c0,0,0,0.1,0,0.1l0-0.3
					c0-0.1,0-0.2,0-0.3l0-0.4c0-0.2,0-0.5-0.1-0.8c0-0.1,0-0.1,0-0.2c0-0.1,0-0.1,0-0.2l0-0.1c0,0,0-0.1,0-0.1l0-0.1
					c-0.1-0.9-0.3-1.7-0.5-2.3c0-0.2-0.1-0.3-0.2-0.6c0-0.1-0.1-0.2-0.1-0.3c0-0.1,0-0.1-0.1-0.2l0,0l0,0c0,0,0,0,0-0.1l-0.1-0.3
					l0-0.1c-0.1-0.2-0.2-0.5-0.3-0.7c-0.1-0.2-0.2-0.4-0.2-0.6c-0.1-0.3-0.2-0.5-0.3-0.7l0-0.1c0,0,0-0.1-0.1-0.1
					c-0.1-0.1-0.1-0.3-0.2-0.4c-0.3-0.5-0.5-0.9-0.6-1.1c0,0,0,0,0-0.1c-0.1-0.1-0.1-0.2-0.2-0.3c-0.1-0.1-0.1-0.2-0.2-0.3l-0.2-0.4
					c0,0-0.1-0.1-0.1-0.1c-0.2-0.3-0.4-0.5-0.6-0.8c-0.3-0.3-0.6-0.7-0.9-1.1c0,0,0-0.1-0.1-0.1l0-0.1c-0.3-0.4-0.7-0.8-1-1.1
					c-0.3-0.2-0.6-0.5-0.9-0.8c-0.1-0.1-0.1-0.1-0.2-0.2c-0.1-0.1-0.2-0.2-0.4-0.3c0,0,0,0-0.1,0c-0.3-0.3-0.6-0.5-0.9-0.7
					c0,0-0.1-0.1-0.2-0.1c-0.3-0.2-0.7-0.5-1-0.7c-0.1-0.1-0.2-0.2-0.4-0.3c0,0,0.1,0,0.1,0.1L677,162c0,0,0,0,0,0c0,0,0,0-0.1,0
					l-0.4-0.3c-0.4-0.2-0.9-0.5-1.2-0.8c0.5,0.3,1.1,0.6,1.6,1c-0.5-0.3-1.1-0.7-1.6-1c0,0,0,0,0,0c0,0,0,0,0,0c0,0,0,0,0,0
					c0,0,0,0,0,0c0,0,0,0,0,0c-0.1,0-0.1-0.1-0.2-0.1c0,0,0,0,0.1,0c-0.1,0-0.1-0.1-0.2-0.1c0,0,0,0,0,0c0,0,0,0,0,0c0,0,0,0,0,0
					c0,0,0,0,0,0c0,0,0,0,0,0c0,0,0,0,0,0c0,0,0,0,0,0c0,0,0,0,0,0c0,0,0,0,0,0c0,0,0,0,0,0c0,0,0,0-0.1,0c0,0,0,0-0.1,0
					c0,0,0,0,0,0c0,0-0.1,0-0.1,0c0,0,0,0-0.1,0c0,0,0,0,0,0c0,0,0,0,0,0c0,0,0,0-0.1,0c0,0,0,0,0,0c0,0,0,0,0,0c0,0,0,0,0,0
					c0,0-0.1,0-0.1,0c0,0,0,0,0,0c0,0,0,0,0,0c0,0-0.1,0-0.1,0c0,0-0.1,0-0.1,0c0,0,0,0,0,0c-0.1,0-0.2,0.1-0.3,0.1
					c0.4,0.2,0.8,0.5,1.1,0.7c0.8,0.5,1.6,1.1,2.2,1.6c0.3,0.2,0.5,0.4,0.8,0.7c1.1,0.9,2,1.9,2.7,3c1.2,2,2.5,4.6,2.5,7.5
					c-0.1,3.1-1.5,6.2-4.3,9c0,0-0.1,0.1-0.1,0.1c-0.1,0.1-0.3,0.3-0.5,0.4c-1,0.9-2.2,1.8-3.6,2.7c-0.2,0.1-0.5,0.3-0.7,0.4
					L390.6,351.7c-0.6,0.3-1.2,0.7-1.9,1c-1.7,0.8-3.9,1.7-6.4,2.5c-5.3,1.5-11.2,2.2-17,1.9c-5-0.3-10.6-1.4-16.6-3.7
					c-1.1-0.5-2.2-1-3.2-1.6l-149-86c-8.9-5.2-11.5-12.6-7.7-19.1c0.1-0.1,0.1-0.2,0.2-0.3c0.1-0.1,0.1-0.2,0.2-0.3
					c1.1-1.7,2.6-3.2,4.4-4.6c0.9-0.7,1.8-1.3,2.8-1.9c0,0,0,0-0.1,0c0,0,0,0,0,0c0,0-0.1,0-0.1,0c0,0,0,0,0,0c0,0-0.1,0-0.1,0
					c0,0,0,0,0,0c0,0-0.1,0-0.1,0c0,0,0,0,0,0c0,0-0.1,0-0.1,0l0,0c0,0,0,0,0,0c0,0,0,0,0,0c0,0,0,0,0,0c0,0,0,0,0,0c0,0,0,0,0,0
					c0,0,0,0,0,0c0,0,0,0,0,0l0,0c0,0,0,0,0,0c0,0,0,0,0,0c0,0,0,0-0.1,0l0,0c0,0,0,0,0,0c0,0,0,0,0,0c0,0,0,0,0,0c0,0,0,0,0,0l0,0
					c0,0,0,0,0,0c0,0,0,0,0,0c0,0,0,0-0.1,0c0,0,0,0,0,0c0,0,0,0,0,0c0,0,0,0,0,0c0,0,0,0,0,0c0,0,0,0,0,0l0,0c0,0,0,0,0,0
					c0,0,0,0,0,0c0,0,0,0,0,0c0,0,0,0,0,0c0,0,0,0,0,0l0,0c0,0,0,0,0,0c0,0,0,0,0,0c0,0,0,0,0,0c0,0,0,0,0,0c0,0,0,0,0,0
					c0,0,0,0,0,0c0,0,0,0,0,0c0,0,0,0,0,0c0,0,0,0,0,0c0,0,0,0,0,0c0,0,0,0,0,0c0,0,0,0,0,0c0,0,0,0,0,0c0,0,0,0,0,0c0,0,0,0,0,0
					c0,0,0,0,0,0c0,0,0,0,0,0c0,0,0,0,0,0c0,0,0,0,0,0c-0.1,0-0.2,0.1-0.2,0.1c-0.2,0.1-0.4,0.3-0.7,0.4c-0.2,0.1-0.4,0.3-0.6,0.4
					c-0.1,0.1-0.3,0.2-0.4,0.3c0,0-0.1,0-0.1,0c-0.3,0.2-0.7,0.5-1,0.7c-0.2,0.2-0.5,0.4-0.8,0.6c-0.2,0.2-0.4,0.3-0.7,0.5l-1.3,1.2
					c-0.3,0.3-1.1,1.1-1.8,2c0,0,0,0,0,0l0,0c-0.4,0.5-0.8,1.1-1.2,1.6c-0.1,0.2-0.3,0.5-0.6,0.9c0,0.1-0.1,0.1-0.1,0.2l-0.1,0.1
					c-0.2,0.3-0.3,0.6-0.5,0.9l0,0.1c0,0,0,0,0,0.1c-0.3,0.7-0.7,1.5-0.9,2.3l0,0.1c0,0,0,0.1,0,0.1c0,0.1,0,0.1-0.1,0.2
					c0,0.2-0.1,0.3-0.1,0.4c0,0,0,0,0,0c-0.1,0.2-0.1,0.4-0.2,0.5c0,0,0,0.1,0,0.1l0,0.1c-0.2,0.6-0.2,1-0.3,1.2c0,0.1,0,0.2,0,0.3
					c0,0.3-0.1,0.5-0.1,0.8l0,0.2c0,0.3-0.1,0.5-0.1,0.7l0,0.1l0,0.3c0,0.3,0,0.8,0,1.1l0,1.4c0,0.7,0,1.4,0.1,2c0,0,0,0,0,0.1
					c0.1,0.7,0.2,1.4,0.3,1.9c0,0,0,0,0,0c0.1,0.4,0.2,0.7,0.2,1c0,0.1,0.1,0.2,0.1,0.3c0.1,0.4,0.2,0.8,0.4,1.2
					c0,0.1,0.1,0.3,0.2,0.4c0.3,0.9,0.7,1.7,1.1,2.5c0.2,0.3,0.3,0.6,0.4,0.8c0.1,0.2,0.3,0.4,0.4,0.7c0.2,0.3,0.3,0.5,0.5,0.8
					c0,0.1,0.1,0.1,0.1,0.2c0.7,1,1.6,2,2.8,3.2c0.5,0.5,1.3,1.2,1.9,1.6c0.5,0.4,1.1,0.8,1.7,1.2c0.6,0.4,1.2,0.8,1.7,1.1
					c-0.1-0.1-0.2-0.1-0.3-0.2c0.1,0.1,0.2,0.2,0.3,0.2l14.9,8.6l14.9,8.6l14.9,8.6l14.9,8.6l14.9,8.6l14.9,8.6l14.9,8.6l14.9,8.6
					l14.9,8.6l14.9,8.6h0c0.2,0.1,0.4,0.2,0.5,0.3c0.2,0.1,0.3,0.2,0.5,0.3c0,0,0.1,0,0.1,0c0.3,0.1,0.6,0.3,0.8,0.4
					c0.1,0.1,0.2,0.1,0.3,0.2l0.3,0.1c0.5,0.2,0.9,0.4,1.4,0.6l0.4,0.2c0.2,0.1,0.5,0.2,0.8,0.3c0.4,0.2,0.8,0.3,1.2,0.5
					c0.1,0,0.2,0.1,0.3,0.1l0.2,0.1c0.7,0.2,1.4,0.4,2,0.6l0.1,0c0.1,0,0.3,0.1,0.4,0.1c0.7,0.2,1.3,0.3,1.7,0.5c0.1,0,0.1,0,0.2,0
					c0,0,0.1,0,0.1,0c0.1,0,0.1,0,0.2,0c6.7,1.6,14.5,2,22.3,0.5c1.1-0.2,2.1-0.4,2.8-0.6c0.8-0.2,1.8-0.4,2.5-0.7c0,0,0.1,0,0.1,0
					c0.7-0.2,1.5-0.5,2.2-0.7l2.2-0.8c0.3-0.1,0.6-0.3,1-0.4c0.3-0.2,0.7-0.3,1-0.5c0.1-0.1,0.3-0.1,0.4-0.2c0.6-0.3,1.4-0.7,2-1.1
					l0,0l28.3-16.5l28.3-16.5l28.3-16.5l28.3-16.5l28.3-16.5l28.3-16.5l28.3-16.5l28.3-16.5l28.3-16.5l28.3-16.5l0,0l0,0
					c0.8-0.5,1.5-0.9,2.1-1.3c0,0,0.1,0,0.1-0.1l0,0c0.5-0.4,1-0.7,1.5-1.1l0,0c0.5-0.4,0.8-0.6,1.2-1c0,0,0.1-0.1,0.1-0.1
					c0.3-0.3,0.7-0.7,1.1-1.1c0,0,0.1-0.1,0.1-0.1l0.1-0.1c0.3-0.3,0.6-0.7,0.9-1l0.1-0.1c0,0,0,0,0,0c0.4-0.5,0.9-1.1,1.2-1.6
					c0.1-0.2,0.3-0.5,0.5-0.9l0.2-0.3c0.1-0.2,0.2-0.3,0.3-0.5c0,0,0,0,0,0c0-0.1,0.1-0.2,0.1-0.3c0,0,0,0.1-0.1,0.1
					c0.1-0.2,0.2-0.4,0.3-0.6c0,0,0-0.1,0.1-0.1l0-0.1c0.1-0.3,0.3-0.6,0.4-1l0-0.1l0.1-0.2c0.1-0.4,0.3-0.8,0.4-1.2
					c0-0.1,0-0.1,0-0.2l0-0.1c0,0,0,0,0,0.1c0.1-0.3,0.2-0.6,0.2-0.8l0-0.1c0,0,0,0,0-0.1c0.2-0.7,0.2-1.1,0.3-1.2
					c0-0.2,0.1-0.4,0.1-0.5l0.1-0.4c0,0.1,0,0.2-0.1,0.3c0,0,0-0.1,0-0.1l0.1-0.4c0,0,0-0.1,0-0.1c0-0.3,0.1-0.6,0.1-0.9
					c0-0.1,0-0.2,0-0.3c0-0.1,0-0.3,0-0.5c0-0.1,0-0.2,0-0.3v0l0,0c0-0.1,0-0.2,0-0.3l0-1.4L687.3,179.5z M393.5,361L393.5,361
					c0,0,0-0.1,0-0.1v0C393.5,361,393.5,361,393.5,361z M393.5,360.8L393.5,360.8C393.5,360.8,393.5,360.8,393.5,360.8L393.5,360.8
					C393.5,360.8,393.5,360.8,393.5,360.8z M393.5,360.4L393.5,360.4C393.5,360.4,393.5,360.4,393.5,360.4
					C393.5,360.4,393.5,360.4,393.5,360.4z M193.7,275.1c0,0.6,0.1,1.1,0.3,1.5C193.9,276.2,193.8,275.7,193.7,275.1z M342.7,360.4
					c0,1.7,0.4,3,1,3.6C343.1,363.3,342.7,362.1,342.7,360.4z M343.8,364.1c0,0,0.1,0.1,0.1,0.1
					C343.9,364.2,343.8,364.1,343.8,364.1z"/>
				<g>
					<path class="st1" d="M674.8,160.5c12.5,7.2,12.5,18.9,0.1,26.1c-94.4,54.9-191.7,111.3-286.2,166.2c-12.4,7.2-31.6,5.7-44-1.5
						c-49.7-28.7-99.3-57.3-149-86c-12.5-7.2-12.6-18.9-0.2-26.1c94.4-54.9,190.7-109.8,285.2-164.6c12.4-7.2,32.6-7.2,45.1,0
						C575.5,103.1,625.1,131.8,674.8,160.5z"/>
				</g>
				<path class="st3" d="M645.1,159L526.9,90.8c-14.1-8.1-36.9-8.1-50.8,0L260.8,215.9c-14,8.1-13.9,21.3,0.2,29.4l118.2,68.2
					c14.1,8.1,36.9,8.1,50.8,0l215.2-125.1C659.2,180.3,659.2,167.1,645.1,159z"/>
			</g>
			<path class="st3" d="M314.3,300.9l-33-19c-2-1.1-5.1-1.1-7.1,0c-1.9,1.1-1.9,3,0,4.1l33,19c2,1.1,5.1,1.1,7.1,0
				C316.2,303.9,316.2,302.1,314.3,300.9z"/>
		</g>
		<polygon class="st5" points="458.3,151.5 376.6,199 488.7,216.4 		"/>
	</g>
</g>
</svg>
