<?xml version="1.0" encoding="utf-8"?>
<!-- Generator: Adobe Illustrator 23.0.1, SVG Export Plug-In . SVG Version: 6.00 Build 0)  -->
<svg version="1.1" xmlns="http://www.w3.org/2000/svg" xmlns:xlink="http://www.w3.org/1999/xlink" x="0px" y="0px"
	 viewBox="0 0 366.7 360" style="enable-background:new 0 0 366.7 360;" xml:space="preserve">
<style type="text/css">
	.st0{display:none;}
	.st1{display:inline;fill:#FFFFFF;}
	.st2{display:inline;fill:#73CFFF;}
	.st3{opacity:0.7;fill:none;stroke:#73CFFF;stroke-width:1.085;stroke-miterlimit:10;}
	.st4{opacity:0.2;fill:#FFFFFF;}
	.st5{fill:#FFFFFF;}
	.st6{fill:#E15F52;}
	.st7{opacity:0.3;fill:#6536FF;}
	.st8{fill:#396BB3;}
	.st9{fill:#D5EBFF;}
	.st10{fill:#0A2982;}
	.st11{fill:#B0D1EA;}
	.st12{fill:#D0DCFE;}
	.st13{fill:#C9CCD3;}
	.st14{fill:#F7F7F7;}
	.st15{fill:#B6D8F2;}
	.st16{fill:#ED8406;}
	.st17{fill:#FBC006;}
	.st18{fill:#205CE1;}
	.st19{fill:#CBCBCB;}
	.st20{fill:none;stroke:#381E1E;stroke-width:0.7591;stroke-miterlimit:10;}
	.st21{fill:none;stroke:#FFFFFF;stroke-width:1.085;stroke-miterlimit:10;}
	.st22{fill:none;stroke:#FFFFFF;stroke-width:1.085;stroke-linecap:round;stroke-linejoin:round;stroke-miterlimit:10;}
</style>
<g id="BACKGROUND" class="st0">
	<rect x="-128.8" y="11.7" class="st1" width="500" height="500"/>
	<rect x="-128.8" y="11.7" class="st2" width="500" height="500"/>
</g>
<g id="OBJECTS">
	<g>
		<g>
			<g>
				<path class="st3" d="M278.7,236.1l31.5,18.6c2,1.2,4.6-0.3,4.6-2.6V235"/>
				<g id="XMLID_52_">
					<polygon id="XMLID_285_" class="st4" points="345.6,252.1 309.3,230 309.3,230 309.3,193.4 309.3,193.4 345.6,215.5 
						345.6,244.7 					"/>
					<polygon id="XMLID_284_" class="st5" points="336.5,253 300.2,230.9 300.2,230.9 300.2,194.3 300.2,194.3 336.5,216.4 
						336.5,245.6 					"/>
					<polygon id="XMLID_277_" class="st6" points="313.4,214.5 323.4,224.6 313.4,228.8 					"/>
				</g>
			</g>
			<g>
				<g>
					<path class="st7" d="M60.6,256.7l-20.1-12.4c-2.1-1.3-2.1-4.4,0-5.7L144,174.9c2-1.2,4.4-1.2,6.4,0l129.9,80
						c2.1,1.3,2.1,4.4,0,5.7l-103.5,63.7c-2,1.2-4.4,1.2-6.4,0l-21.7-13.4L60.6,256.7z"/>
					<path class="st8" d="M139.9,42.9l4.1-2.6l0,0c0.9-0.6,2.1-0.8,3.2-0.1l129.5,79.7c2.4,1.4,3.8,4,3.8,6.8v112.6
						c0,1.1-0.6,2-1.4,2.6l0,0l-0.2,0.2l0,0l-4.5,2.9c0,0-0.6-3.8-0.5-3.9c0,0,0.1,0,0.1-0.1l-128.6-79.2c-1.6-1-2.6-2.8-2.6-4.7
						V43.5L139.9,42.9z"/>
					<path class="st9" d="M271.2,244.8L141,164.6c-1.6-1-2.6-2.8-2.6-4.7V45.4c0-2.3,2.5-3.7,4.5-2.5l129.5,79.7
						c2.4,1.5,3.8,4,3.8,6.8v112.6C276.1,244.6,273.4,246.1,271.2,244.8z"/>
					<path class="st10" d="M268.4,238.2l-124.7-76.8c-1.6-1-2.5-2.7-2.5-4.5V53.8c0-2.2,2.4-3.5,4.3-2.4l123.9,76.3
						c2.3,1.4,3.6,3.8,3.6,6.5v101.5C273.1,238,270.5,239.5,268.4,238.2z"/>
					<path class="st8" d="M39,232L39,232l0-6h7.4l88.9-54.6c2-1.2,4.4-1.2,6.4,0l121.9,75l9.6,1.4v6.2l0,0c0.1,1.2-0.4,2.4-1.6,3
						l-94.7,58.2c-2,1.2-4.4,1.2-6.4,0l-129.9-80C39.3,234.5,38.8,233.2,39,232z"/>
					<path class="st9" d="M170.4,308.8l-129.9-80c-2.1-1.3-2.1-4.4,0-5.7l94.7-58.1c2-1.2,4.4-1.2,6.4,0l129.9,80
						c2.1,1.3,2.1,4.4,0,5.7l-94.7,58.2C174.8,310,172.3,310,170.4,308.8z"/>
					<path class="st11" d="M195.1,280.8l-109-67.2c-1.9-1.2-1.9-3.9,0-5.1l54.2-33.9c1.7-1.1,3.9-1.1,5.7,0l109.1,67.2
						c1.9,1.2,1.9,3.9,0,5l-54.3,33.9C199.1,281.8,196.9,281.8,195.1,280.8z"/>
					<path class="st11" d="M131.4,280.9l-45.4-28c-0.7-0.5-0.7-1.5,0-2l26.3-16.5c0.7-0.4,1.5-0.4,2.2,0l45.5,28
						c0.7,0.5,0.7,1.5,0,2l-26.3,16.5C133,281.3,132.1,281.3,131.4,280.9z"/>
					<g>
						<path class="st8" d="M245.3,238.3c0.2-0.1,0.5-0.1,0.7,0l5.7,3.5l0.6-0.2v0.8h0c0,0.1-0.1,0.2-0.2,0.3l-6.4,4
							c-0.2,0.1-0.5,0.1-0.7,0l-6.1-3.8c-0.1-0.1-0.2-0.2-0.2-0.3l0,0v-0.8L245.3,238.3z"/>
						<path class="st8" d="M236.3,232.7c0.2-0.1,0.5-0.1,0.7,0l5.7,3.5l0.6-0.2v0.8l0,0c0,0.1-0.1,0.2-0.2,0.3l-6.4,4
							c-0.2,0.1-0.5,0.1-0.7,0l-6.1-3.8c-0.1-0.1-0.2-0.2-0.2-0.3l0,0v-0.8L236.3,232.7z"/>
						<path class="st8" d="M227.2,227.1c0.2-0.1,0.5-0.1,0.7,0l5.7,3.5l0.6-0.2v0.8l0,0c0,0.1-0.1,0.2-0.2,0.3l-6.4,4
							c-0.2,0.1-0.5,0.1-0.7,0l-6.1-3.8c-0.1-0.1-0.2-0.2-0.2-0.3l0,0v-0.8L227.2,227.1z"/>
						<path class="st8" d="M218.1,221.5c0.2-0.1,0.5-0.1,0.7,0l5.7,3.5l0.6-0.2v0.8l0,0c0,0.1-0.1,0.2-0.2,0.3l-6.4,4
							c-0.2,0.1-0.5,0.1-0.7,0l-6.1-3.8c-0.1-0.1-0.2-0.2-0.2-0.3l0,0V225L218.1,221.5z"/>
						<path class="st8" d="M209,215.9c0.2-0.1,0.5-0.1,0.7,0l5.7,3.5l0.6-0.2v0.8h0c0,0.1-0.1,0.2-0.2,0.3l-6.4,4
							c-0.2,0.1-0.5,0.1-0.7,0l-6.1-3.8c-0.1-0.1-0.2-0.2-0.2-0.3l0,0v-0.8L209,215.9z"/>
						<path class="st8" d="M199.9,210.3c0.2-0.1,0.5-0.1,0.7,0l5.7,3.5l0.6-0.2v0.8l0,0c0,0.1-0.1,0.2-0.2,0.3l-6.4,4
							c-0.2,0.1-0.5,0.1-0.7,0l-6.1-3.8c-0.1-0.1-0.2-0.2-0.2-0.3l0,0v-0.8L199.9,210.3z"/>
						<path class="st10" d="M190.8,204.7c0.2-0.1,0.5-0.1,0.7,0l5.7,3.5l0.6-0.2v0.8l0,0c0,0.1-0.1,0.2-0.2,0.3l-6.4,4
							c-0.2,0.1-0.5,0.1-0.7,0l-6.1-3.8c-0.1-0.1-0.2-0.2-0.2-0.3l0,0v-0.8L190.8,204.7z"/>
						<path class="st8" d="M190.6,212.3l-6.1-3.8c-0.2-0.1-0.2-0.5,0-0.6l6.4-4c0.2-0.1,0.5-0.1,0.7,0l6.1,3.8
							c0.2,0.1,0.2,0.5,0,0.6l-6.4,4C191,212.4,190.8,212.4,190.6,212.3z"/>
						<path class="st8" d="M181.8,199.1c0.2-0.1,0.5-0.1,0.7,0l5.7,3.5l0.6-0.2v0.8l0,0c0,0.1-0.1,0.2-0.2,0.3l-6.4,4
							c-0.2,0.1-0.5,0.1-0.7,0l-6.1-3.8c-0.1-0.1-0.2-0.2-0.2-0.3l0,0v-0.8L181.8,199.1z"/>
						<path class="st8" d="M172.7,193.5c0.2-0.1,0.5-0.1,0.7,0l5.7,3.5l0.6-0.2v0.8h0c0,0.1-0.1,0.2-0.2,0.3l-6.4,4
							c-0.2,0.1-0.5,0.1-0.7,0l-6.1-3.8c-0.1-0.1-0.2-0.2-0.2-0.3l0,0V197L172.7,193.5z"/>
						<path class="st8" d="M163.6,187.9c0.2-0.1,0.5-0.1,0.7,0l5.7,3.5l0.6-0.2v0.8l0,0c0,0.1-0.1,0.2-0.2,0.3l-6.4,4
							c-0.2,0.1-0.5,0.1-0.7,0l-6.1-3.8c-0.1-0.1-0.2-0.2-0.2-0.3l0,0v-0.8L163.6,187.9z"/>
						<path class="st8" d="M154.5,182.3c0.2-0.1,0.5-0.1,0.7,0l5.7,3.5l0.6-0.2v0.8l0,0c0,0.1-0.1,0.2-0.2,0.3l-6.4,4
							c-0.2,0.1-0.5,0.1-0.7,0l-6.1-3.8c-0.1-0.1-0.2-0.2-0.2-0.3l0,0v-0.8L154.5,182.3z"/>
						<path class="st8" d="M145.4,176.7c0.2-0.1,0.5-0.1,0.7,0l5.7,3.5l0.6-0.2v0.8l0,0c0,0.1-0.1,0.2-0.2,0.3l-6.4,4
							c-0.2,0.1-0.5,0.1-0.7,0l-6.1-3.8c-0.1-0.1-0.2-0.2-0.2-0.3l0,0v-0.8L145.4,176.7z"/>
						<path class="st8" d="M235.2,244.7c0.2-0.1,0.5-0.1,0.7,0l5.7,3.5l0.6-0.2v0.8l0,0c0,0.1-0.1,0.2-0.2,0.3l-6.4,4
							c-0.2,0.1-0.5,0.1-0.7,0l-6.1-3.8c-0.1-0.1-0.2-0.2-0.2-0.3l0,0v-0.8L235.2,244.7z"/>
						<path class="st8" d="M226.1,239.1c0.2-0.1,0.5-0.1,0.7,0l5.7,3.5l0.6-0.2v0.8l0,0c0,0.1-0.1,0.2-0.2,0.3l-6.4,4
							c-0.2,0.1-0.5,0.1-0.7,0l-6.1-3.8c-0.1-0.1-0.2-0.2-0.2-0.3l0,0v-0.8L226.1,239.1z"/>
						<path class="st8" d="M217.1,233.5c0.2-0.1,0.5-0.1,0.7,0l5.7,3.5l0.6-0.2v0.8l0,0c0,0.1-0.1,0.2-0.2,0.3l-6.4,4
							c-0.2,0.1-0.5,0.1-0.7,0l-6.1-3.8c-0.1-0.1-0.2-0.2-0.2-0.3l0,0V237L217.1,233.5z"/>
						<path class="st8" d="M208,227.9c0.2-0.1,0.5-0.1,0.7,0l5.7,3.5l0.6-0.2v0.8h0c0,0.1-0.1,0.2-0.2,0.3l-6.4,4
							c-0.2,0.1-0.5,0.1-0.7,0l-6.1-3.8c-0.1-0.1-0.2-0.2-0.2-0.3l0,0v-0.8L208,227.9z"/>
						<path class="st8" d="M198.9,222.3c0.2-0.1,0.5-0.1,0.7,0l5.7,3.5l0.6-0.2v0.8l0,0c0,0.1-0.1,0.2-0.2,0.3l-6.4,4
							c-0.2,0.1-0.5,0.1-0.7,0l-6.1-3.8c-0.1-0.1-0.2-0.2-0.2-0.3l0,0v-0.8L198.9,222.3z"/>
						<path class="st8" d="M189.8,216.7c0.2-0.1,0.5-0.1,0.7,0l5.7,3.5l0.6-0.2v0.8l0,0c0,0.1-0.1,0.2-0.2,0.3l-6.4,4
							c-0.2,0.1-0.5,0.1-0.7,0l-6.1-3.8c-0.1-0.1-0.2-0.2-0.2-0.3l0,0v-0.8L189.8,216.7z"/>
						<path class="st8" d="M180.7,211.1c0.2-0.1,0.5-0.1,0.7,0l5.7,3.5l0.6-0.2v0.8l0,0c0,0.1-0.1,0.2-0.2,0.3l-6.4,4
							c-0.2,0.1-0.5,0.1-0.7,0l-6.1-3.8c-0.1-0.1-0.2-0.2-0.2-0.3l0,0v-0.8L180.7,211.1z"/>
						<path class="st8" d="M171.6,205.5c0.2-0.1,0.5-0.1,0.7,0l5.7,3.5l0.6-0.2v0.8h0c0,0.1-0.1,0.2-0.2,0.3l-6.4,4
							c-0.2,0.1-0.5,0.1-0.7,0l-6.1-3.8c-0.1-0.1-0.2-0.2-0.2-0.3l0,0V209L171.6,205.5z"/>
						<path class="st8" d="M162.6,199.9c0.2-0.1,0.5-0.1,0.7,0l5.7,3.5l0.6-0.2v0.8l0,0c0,0.1-0.1,0.2-0.2,0.3l-6.4,4
							c-0.2,0.1-0.5,0.1-0.7,0l-6.1-3.8c-0.1-0.1-0.2-0.2-0.2-0.3l0,0v-0.8L162.6,199.9z"/>
						<path class="st8" d="M153.5,194.3c0.2-0.1,0.5-0.1,0.7,0l5.7,3.5l0.6-0.2v0.8h0c0,0.1-0.1,0.2-0.2,0.3l-6.4,4
							c-0.2,0.1-0.5,0.1-0.7,0l-6.1-3.8c-0.1-0.1-0.2-0.2-0.2-0.3l0,0v-0.8L153.5,194.3z"/>
						<path class="st8" d="M144.4,188.7c0.2-0.1,0.5-0.1,0.7,0l5.7,3.5l0.6-0.2v0.8l0,0c0,0.1-0.1,0.2-0.2,0.3l-6.4,4
							c-0.2,0.1-0.5,0.1-0.7,0l-6.1-3.8c-0.1-0.1-0.2-0.2-0.2-0.3l0,0v-0.8L144.4,188.7z"/>
						<path class="st8" d="M135.3,183.1c0.2-0.1,0.5-0.1,0.7,0l5.7,3.5l0.6-0.2v0.8l0,0c0,0.1-0.1,0.2-0.2,0.3l-6.4,4
							c-0.2,0.1-0.5,0.1-0.7,0l-6.1-3.8c-0.1-0.1-0.2-0.2-0.2-0.3l0,0v-0.8L135.3,183.1z"/>
						<path class="st8" d="M225.1,251.1c0.2-0.1,0.5-0.1,0.7,0l5.7,3.5l0.6-0.2v0.8l0,0c0,0.1-0.1,0.2-0.2,0.3l-6.4,4
							c-0.2,0.1-0.5,0.1-0.7,0l-6.1-3.8c-0.1-0.1-0.2-0.2-0.2-0.3l0,0v-0.8L225.1,251.1z"/>
						<path class="st8" d="M216,245.5c0.2-0.1,0.5-0.1,0.7,0l5.7,3.5l0.6-0.2v0.8l0,0c0,0.1-0.1,0.2-0.2,0.3l-6.4,4
							c-0.2,0.1-0.5,0.1-0.7,0l-6.1-3.8c-0.1-0.1-0.2-0.2-0.2-0.3l0,0V249L216,245.5z"/>
						<path class="st8" d="M206.9,239.9c0.2-0.1,0.5-0.1,0.7,0l5.7,3.5l0.6-0.2v0.8l0,0c0,0.1-0.1,0.2-0.2,0.3l-6.4,4
							c-0.2,0.1-0.5,0.1-0.7,0l-6.1-3.8c-0.1-0.1-0.2-0.2-0.2-0.3l0,0v-0.8L206.9,239.9z"/>
						<path class="st8" d="M197.8,234.3c0.2-0.1,0.5-0.1,0.7,0l5.7,3.5l0.6-0.2v0.8l0,0c0,0.1-0.1,0.2-0.2,0.3l-6.4,4
							c-0.2,0.1-0.5,0.1-0.7,0l-6.1-3.8c-0.1-0.1-0.2-0.2-0.2-0.3l0,0v-0.8L197.8,234.3z"/>
						<path class="st8" d="M188.8,228.7c0.2-0.1,0.5-0.1,0.7,0l5.7,3.5l0.6-0.2v0.8h0c0,0.1-0.1,0.2-0.2,0.3l-6.4,4
							c-0.2,0.1-0.5,0.1-0.7,0l-6.1-3.8c-0.1-0.1-0.2-0.2-0.2-0.3l0,0v-0.8L188.8,228.7z"/>
						<path class="st8" d="M179.7,223.1c0.2-0.1,0.5-0.1,0.7,0l5.7,3.5l0.6-0.2v0.8l0,0c0,0.1-0.1,0.2-0.2,0.3l-6.4,4
							c-0.2,0.1-0.5,0.1-0.7,0l-6.1-3.8c-0.1-0.1-0.2-0.2-0.2-0.3l0,0v-0.8L179.7,223.1z"/>
						<path class="st8" d="M170.6,217.5c0.2-0.1,0.5-0.1,0.7,0l5.7,3.5l0.6-0.2v0.8l0,0c0,0.1-0.1,0.2-0.2,0.3l-6.4,4
							c-0.2,0.1-0.5,0.1-0.7,0l-6.1-3.8c-0.1-0.1-0.2-0.2-0.2-0.3l0,0V221L170.6,217.5z"/>
						<path class="st8" d="M161.5,211.9c0.2-0.1,0.5-0.1,0.7,0l5.7,3.5l0.6-0.2v0.8l0,0c0,0.1-0.1,0.2-0.2,0.3l-6.4,4
							c-0.2,0.1-0.5,0.1-0.7,0l-6.1-3.8c-0.1-0.1-0.2-0.2-0.2-0.3l0,0v-0.8L161.5,211.9z"/>
						<path class="st8" d="M152.4,206.3c0.2-0.1,0.5-0.1,0.7,0l5.7,3.5l0.6-0.2v0.8h0c0,0.1-0.1,0.2-0.2,0.3l-6.4,4
							c-0.2,0.1-0.5,0.1-0.7,0l-6.1-3.8c-0.1-0.1-0.2-0.2-0.2-0.3l0,0v-0.8L152.4,206.3z"/>
						<path class="st8" d="M143.3,200.7c0.2-0.1,0.5-0.1,0.7,0l5.7,3.5l0.6-0.2v0.8l0,0c0,0.1-0.1,0.2-0.2,0.3l-6.4,4
							c-0.2,0.1-0.5,0.1-0.7,0l-6.1-3.8c-0.1-0.1-0.2-0.2-0.2-0.3l0,0v-0.8L143.3,200.7z"/>
						<path class="st8" d="M134.3,195.1c0.2-0.1,0.5-0.1,0.7,0l5.7,3.5l0.6-0.2v0.8l0,0c0,0.1-0.1,0.2-0.2,0.3l-6.4,4
							c-0.2,0.1-0.5,0.1-0.7,0l-6.1-3.8c-0.1-0.1-0.2-0.2-0.2-0.3l0,0v-0.8L134.3,195.1z"/>
						<path class="st8" d="M125.2,189.5c0.2-0.1,0.5-0.1,0.7,0l5.7,3.5l0.6-0.2v0.8l0,0c0,0.1-0.1,0.2-0.2,0.3l-6.4,4
							c-0.2,0.1-0.5,0.1-0.7,0l-6.1-3.8c-0.1-0.1-0.2-0.2-0.2-0.3l0,0V193L125.2,189.5z"/>
						<path class="st8" d="M215,257.5c0.2-0.1,0.5-0.1,0.7,0l5.7,3.5l0.6-0.2v0.8l0,0c0,0.1-0.1,0.2-0.2,0.3l-6.4,4
							c-0.2,0.1-0.5,0.1-0.7,0l-6.1-3.8c-0.1-0.1-0.2-0.2-0.2-0.3l0,0V261L215,257.5z"/>
						<path class="st8" d="M205.9,251.9c0.2-0.1,0.5-0.1,0.7,0l5.7,3.5l0.6-0.2v0.8l0,0c0,0.1-0.1,0.2-0.2,0.3l-6.4,4
							c-0.2,0.1-0.5,0.1-0.7,0l-6.1-3.8c-0.1-0.1-0.2-0.2-0.2-0.3l0,0v-0.8L205.9,251.9z"/>
						<path class="st8" d="M196.8,246.3c0.2-0.1,0.5-0.1,0.7,0l5.7,3.5l0.6-0.2v0.8l0,0c0,0.1-0.1,0.2-0.2,0.3l-6.4,4
							c-0.2,0.1-0.5,0.1-0.7,0l-6.1-3.8c-0.1-0.1-0.2-0.2-0.2-0.3l0,0v-0.8L196.8,246.3z"/>
						<path class="st8" d="M187.7,240.7c0.2-0.1,0.5-0.1,0.7,0l5.7,3.5l0.6-0.2v0.8l0,0c0,0.1-0.1,0.2-0.2,0.3l-6.4,4
							c-0.2,0.1-0.5,0.1-0.7,0l-6.1-3.8c-0.1-0.1-0.2-0.2-0.2-0.3l0,0v-0.8L187.7,240.7z"/>
						<path class="st8" d="M178.6,235.1c0.2-0.1,0.5-0.1,0.7,0l5.7,3.5l0.6-0.2v0.8l0,0c0,0.1-0.1,0.2-0.2,0.3l-6.4,4
							c-0.2,0.1-0.5,0.1-0.7,0l-6.1-3.8c-0.1-0.1-0.2-0.2-0.2-0.3l0,0v-0.8L178.6,235.1z"/>
						<path class="st8" d="M169.6,229.5c0.2-0.1,0.5-0.1,0.7,0l5.7,3.5l0.6-0.2v0.8h0c0,0.1-0.1,0.2-0.2,0.3l-6.4,4
							c-0.2,0.1-0.5,0.1-0.7,0l-6.1-3.8c-0.1-0.1-0.2-0.2-0.2-0.3l0,0V233L169.6,229.5z"/>
						<path class="st8" d="M160.5,223.9c0.2-0.1,0.5-0.1,0.7,0l5.7,3.5l0.6-0.2v0.8l0,0c0,0.1-0.1,0.2-0.2,0.3l-6.4,4
							c-0.2,0.1-0.5,0.1-0.7,0l-6.1-3.8c-0.1-0.1-0.2-0.2-0.2-0.3l0,0v-0.8L160.5,223.9z"/>
						<path class="st8" d="M151.4,218.3c0.2-0.1,0.5-0.1,0.7,0l5.7,3.5l0.6-0.2v0.8l0,0c0,0.1-0.1,0.2-0.2,0.3l-6.4,4
							c-0.2,0.1-0.5,0.1-0.7,0l-6.1-3.8c-0.1-0.1-0.2-0.2-0.2-0.3l0,0v-0.8L151.4,218.3z"/>
						<path class="st8" d="M142.3,212.7c0.2-0.1,0.5-0.1,0.7,0l5.7,3.5l0.6-0.2v0.8l0,0c0,0.1-0.1,0.2-0.2,0.3l-6.4,4
							c-0.2,0.1-0.5,0.1-0.7,0l-6.1-3.8c-0.1-0.1-0.2-0.2-0.2-0.3l0,0v-0.8L142.3,212.7z"/>
						<path class="st8" d="M133.2,207.1c0.2-0.1,0.5-0.1,0.7,0l5.7,3.5l0.6-0.2v0.8h0c0,0.1-0.1,0.2-0.2,0.3l-6.4,4
							c-0.2,0.1-0.5,0.1-0.7,0l-6.1-3.8c-0.1-0.1-0.2-0.2-0.2-0.3l0,0v-0.8L133.2,207.1z"/>
						<path class="st8" d="M124.1,201.5c0.2-0.1,0.5-0.1,0.7,0l5.7,3.5l0.6-0.2v0.8l0,0c0,0.1-0.1,0.2-0.2,0.3l-6.4,4
							c-0.2,0.1-0.5,0.1-0.7,0l-6.1-3.8c-0.1-0.1-0.2-0.2-0.2-0.3l0,0V205L124.1,201.5z"/>
						<path class="st8" d="M115,195.9c0.2-0.1,0.5-0.1,0.7,0l5.7,3.5l0.6-0.2v0.8l0,0c0,0.1-0.1,0.2-0.2,0.3l-6.4,4
							c-0.2,0.1-0.5,0.1-0.7,0l-6.1-3.8c-0.1-0.1-0.2-0.2-0.2-0.3l0,0v-0.8L115,195.9z"/>
						<path class="st8" d="M204.8,263.9c0.2-0.1,0.5-0.1,0.7,0l5.7,3.5l0.6-0.2v0.8l0,0c0,0.1-0.1,0.2-0.2,0.3l-6.4,4
							c-0.2,0.1-0.5,0.1-0.7,0l-6.1-3.8c-0.1-0.1-0.2-0.2-0.2-0.3l0,0v-0.8L204.8,263.9z"/>
						<path class="st8" d="M195.8,258.3c0.2-0.1,0.5-0.1,0.7,0l5.7,3.5l0.6-0.2v0.8l0,0c0,0.1-0.1,0.2-0.2,0.3l-6.4,4
							c-0.2,0.1-0.5,0.1-0.7,0l-6.1-3.8c-0.1-0.1-0.2-0.2-0.2-0.3l0,0v-0.8L195.8,258.3z"/>
						<path class="st8" d="M186.7,252.7c0.2-0.1,0.5-0.1,0.7,0l5.7,3.5l0.6-0.2v0.8l0,0c0,0.1-0.1,0.2-0.2,0.3l-6.4,4
							c-0.2,0.1-0.5,0.1-0.7,0l-6.1-3.8c-0.1-0.1-0.2-0.2-0.2-0.3l0,0v-0.8L186.7,252.7z"/>
						<path class="st8" d="M177.6,247.1c0.2-0.1,0.5-0.1,0.7,0l5.7,3.5l0.6-0.2v0.8l0,0c0,0.1-0.1,0.2-0.2,0.3l-6.4,4
							c-0.2,0.1-0.5,0.1-0.7,0l-6.1-3.8c-0.1-0.1-0.2-0.2-0.2-0.3l0,0v-0.8L177.6,247.1z"/>
						<path class="st8" d="M168.5,241.5c0.2-0.1,0.5-0.1,0.7,0l5.7,3.5l0.6-0.2v0.8l0,0c0,0.1-0.1,0.2-0.2,0.3l-6.4,4
							c-0.2,0.1-0.5,0.1-0.7,0l-6.1-3.8c-0.1-0.1-0.2-0.2-0.2-0.3l0,0V245L168.5,241.5z"/>
						<path class="st8" d="M159.4,235.9c0.2-0.1,0.5-0.1,0.7,0l5.7,3.5l0.6-0.2v0.8l0,0c0,0.1-0.1,0.2-0.2,0.3l-6.4,4
							c-0.2,0.1-0.5,0.1-0.7,0l-6.1-3.8c-0.1-0.1-0.2-0.2-0.2-0.3l0,0v-0.8L159.4,235.9z"/>
						<path class="st8" d="M150.3,230.3c0.2-0.1,0.5-0.1,0.7,0l5.7,3.5l0.6-0.2v0.8l0,0c0,0.1-0.1,0.2-0.2,0.3l-6.4,4
							c-0.2,0.1-0.5,0.1-0.7,0l-6.1-3.8c-0.1-0.1-0.2-0.2-0.2-0.3l0,0v-0.8L150.3,230.3z"/>
						<path class="st8" d="M141.3,224.7c0.2-0.1,0.5-0.1,0.7,0l5.7,3.5l0.6-0.2v0.8l0,0c0,0.1-0.1,0.2-0.2,0.3l-6.4,4
							c-0.2,0.1-0.5,0.1-0.7,0l-6.1-3.8c-0.1-0.1-0.2-0.2-0.2-0.3l0,0v-0.8L141.3,224.7z"/>
						<path class="st8" d="M132.2,219.1c0.2-0.1,0.5-0.1,0.7,0l5.7,3.5l0.6-0.2v0.8l0,0c0,0.1-0.1,0.2-0.2,0.3l-6.4,4
							c-0.2,0.1-0.5,0.1-0.7,0l-6.1-3.8c-0.1-0.1-0.2-0.2-0.2-0.3l0,0v-0.8L132.2,219.1z"/>
						<path class="st8" d="M123.1,213.5c0.2-0.1,0.5-0.1,0.7,0l5.7,3.5l0.6-0.2v0.8l0,0c0,0.1-0.1,0.2-0.2,0.3l-6.4,4
							c-0.2,0.1-0.5,0.1-0.7,0l-6.1-3.8c-0.1-0.1-0.2-0.2-0.2-0.3l0,0V217L123.1,213.5z"/>
						<path class="st8" d="M114,207.9c0.2-0.1,0.5-0.1,0.7,0l5.7,3.5l0.6-0.2v0.8l0,0c0,0.1-0.1,0.2-0.2,0.3l-6.4,4
							c-0.2,0.1-0.5,0.1-0.7,0l-6.1-3.8c-0.1-0.1-0.2-0.2-0.2-0.3l0,0v-0.8L114,207.9z"/>
						<path class="st8" d="M104.9,202.3c0.2-0.1,0.5-0.1,0.7,0l5.7,3.5l0.6-0.2v0.8l0,0c0,0.1-0.1,0.2-0.2,0.3l-6.4,4
							c-0.2,0.1-0.5,0.1-0.7,0l-6.1-3.8c-0.1-0.1-0.2-0.2-0.2-0.3l0,0v-0.8L104.9,202.3z"/>
						<path class="st8" d="M194.7,270.3c0.2-0.1,0.5-0.1,0.7,0l5.7,3.5l0.6-0.2v0.8h0c0,0.1-0.1,0.2-0.2,0.3l-6.4,4
							c-0.2,0.1-0.5,0.1-0.7,0l-6.1-3.8c-0.1-0.1-0.2-0.2-0.2-0.3l0,0v-0.8L194.7,270.3z"/>
						<path class="st8" d="M185.6,264.7c0.2-0.1,0.5-0.1,0.7,0l5.7,3.5l0.6-0.2v0.8l0,0c0,0.1-0.1,0.2-0.2,0.3l-6.4,4
							c-0.2,0.1-0.5,0.1-0.7,0l-6.1-3.8c-0.1-0.1-0.2-0.2-0.2-0.3l0,0v-0.8L185.6,264.7z"/>
						<path class="st8" d="M176.6,259.1c0.2-0.1,0.5-0.1,0.7,0l5.7,3.5l0.6-0.2v0.8l0,0c0,0.1-0.1,0.2-0.2,0.3l-6.4,4
							c-0.2,0.1-0.5,0.1-0.7,0l-6.1-3.8c-0.1-0.1-0.2-0.2-0.2-0.3l0,0v-0.8L176.6,259.1z"/>
						<path class="st8" d="M131.1,231.1c0.2-0.1,0.5-0.1,0.7,0l5.7,3.5l0.6-0.2v0.8l0,0c0,0.1-0.1,0.2-0.2,0.3l-6.4,4
							c-0.2,0.1-0.5,0.1-0.7,0l-6.1-3.8c-0.1-0.1-0.2-0.2-0.2-0.3l0,0v-0.8L131.1,231.1z"/>
						<path class="st8" d="M122,225.5c0.2-0.1,0.5-0.1,0.7,0l5.7,3.5l0.6-0.2v0.8l0,0c0,0.1-0.1,0.2-0.2,0.3l-6.4,4
							c-0.2,0.1-0.5,0.1-0.7,0l-6.1-3.8c-0.1-0.1-0.2-0.2-0.2-0.3l0,0V229L122,225.5z"/>
						<path class="st8" d="M113,219.9c0.2-0.1,0.5-0.1,0.7,0l5.7,3.5l0.6-0.2v0.8l0,0c0,0.1-0.1,0.2-0.2,0.3l-6.4,4
							c-0.2,0.1-0.5,0.1-0.7,0l-6.1-3.8c-0.1-0.1-0.2-0.2-0.2-0.3l0,0v-0.8L113,219.9z"/>
						<path class="st8" d="M103.9,214.3c0.2-0.1,0.5-0.1,0.7,0l5.7,3.5l0.6-0.2v0.8l0,0c0,0.1-0.1,0.2-0.2,0.3l-2.6,1.6
							c-0.2,0.1-0.5,0.1-0.7,0l-6.1-3.8c-0.1-0.1-0.2-0.2-0.2-0.3l0,0v-0.8L103.9,214.3z"/>
						<path class="st8" d="M100.1,216.6c0.2-0.1,0.5-0.1,0.7,0l5.7,3.5l0.6-0.2v0.8l0,0c0,0.1-0.1,0.2-0.2,0.3l-2.6,1.6
							c-0.2,0.1-0.5,0.1-0.7,0l-6.1-3.8c-0.1-0.1-0.2-0.2-0.2-0.3l0,0v-0.8L100.1,216.6z"/>
						<path class="st8" d="M94.8,208.7c0.2-0.1,0.5-0.1,0.7,0l5.7,3.5l0.6-0.2v0.8l0,0c0,0.1-0.1,0.2-0.2,0.3l-6.4,4
							c-0.2,0.1-0.5,0.1-0.7,0l-6.1-3.8c-0.1-0.1-0.2-0.2-0.2-0.3l0,0v-0.8L94.8,208.7z"/>
						<path class="st8" d="M140.2,236.7c0.2-0.1,0.5-0.1,0.7,0l5.7,3.5l0.6-0.2v0.8l0,0c0,0.1-0.1,0.2-0.2,0.3l-3.1,1.9l19.5,12.7
							l4.1-2.2c0.2-0.1,0.5-0.1,0.7,0l5.7,3.5l0.6-0.2v0.8l0,0c0,0.1-0.1,0.2-0.2,0.3l-6.4,4c-0.2,0.1-0.5,0.1-0.7,0l-6.1-3.8
							c0,0,0,0,0,0l-24.3-15l0,0l-3-1.8c-0.1-0.1-0.2-0.2-0.2-0.3l0,0v-0.8L140.2,236.7z"/>
					</g>
					<g>
						<path class="st5" d="M245.1,245.9l-6.1-3.8c-0.2-0.1-0.2-0.5,0-0.6l6.4-4c0.2-0.1,0.5-0.1,0.7,0l6.1,3.8
							c0.2,0.1,0.2,0.5,0,0.6l-6.4,4C245.5,246,245.3,246,245.1,245.9z"/>
						<path class="st5" d="M236,240.3l-6.1-3.8c-0.2-0.1-0.2-0.5,0-0.6l6.4-4c0.2-0.1,0.5-0.1,0.7,0l6.1,3.8c0.2,0.1,0.2,0.5,0,0.6
							l-6.4,4C236.4,240.4,236.2,240.4,236,240.3z"/>
						<path class="st5" d="M226.9,234.7l-6.1-3.8c-0.2-0.1-0.2-0.5,0-0.6l6.4-4c0.2-0.1,0.5-0.1,0.7,0l6.1,3.8
							c0.2,0.1,0.2,0.5,0,0.6l-6.4,4C227.4,234.8,227.1,234.8,226.9,234.7z"/>
						<path class="st5" d="M217.8,229.1l-6.1-3.8c-0.2-0.1-0.2-0.5,0-0.6l6.4-4c0.2-0.1,0.5-0.1,0.7,0l6.1,3.8
							c0.2,0.1,0.2,0.5,0,0.6l-6.4,4C218.3,229.2,218,229.2,217.8,229.1z"/>
						<path class="st5" d="M208.7,223.5l-6.1-3.8c-0.2-0.1-0.2-0.5,0-0.6l6.4-4c0.2-0.1,0.5-0.1,0.7,0l6.1,3.8
							c0.2,0.1,0.2,0.5,0,0.6l-6.4,4C209.2,223.6,208.9,223.6,208.7,223.5z"/>
						<path class="st5" d="M199.6,217.9l-6.1-3.8c-0.2-0.1-0.2-0.5,0-0.6l6.4-4c0.2-0.1,0.5-0.1,0.7,0l6.1,3.8
							c0.2,0.1,0.2,0.5,0,0.6l-6.4,4C200.1,218,199.8,218,199.6,217.9z"/>
						<path class="st5" d="M181.5,206.7l-6.1-3.8c-0.2-0.1-0.2-0.5,0-0.6l6.4-4c0.2-0.1,0.5-0.1,0.7,0l6.1,3.8
							c0.2,0.1,0.2,0.5,0,0.6l-6.4,4C181.9,206.8,181.7,206.8,181.5,206.7z"/>
						<path class="st5" d="M172.4,201.1l-6.1-3.8c-0.2-0.1-0.2-0.5,0-0.6l6.4-4c0.2-0.1,0.5-0.1,0.7,0l6.1,3.8
							c0.2,0.1,0.2,0.5,0,0.6l-6.4,4C172.9,201.2,172.6,201.2,172.4,201.1z"/>
						<path class="st5" d="M163.3,195.5l-6.1-3.8c-0.2-0.1-0.2-0.5,0-0.6l6.4-4c0.2-0.1,0.5-0.1,0.7,0l6.1,3.8
							c0.2,0.1,0.2,0.5,0,0.6l-6.4,4C163.8,195.6,163.5,195.6,163.3,195.5z"/>
						<path class="st5" d="M154.2,189.9l-6.1-3.8c-0.2-0.1-0.2-0.5,0-0.6l6.4-4c0.2-0.1,0.5-0.1,0.7,0l6.1,3.8
							c0.2,0.1,0.2,0.5,0,0.6l-6.4,4C154.7,190,154.4,190,154.2,189.9z"/>
						<path class="st5" d="M145.1,184.3l-6.1-3.8c-0.2-0.1-0.2-0.5,0-0.6l6.4-4c0.2-0.1,0.5-0.1,0.7,0l6.1,3.8
							c0.2,0.1,0.2,0.5,0,0.6l-6.4,4C145.6,184.4,145.3,184.4,145.1,184.3z"/>
						<path class="st5" d="M234.9,252.3l-6.1-3.8c-0.2-0.1-0.2-0.5,0-0.6l6.4-4c0.2-0.1,0.5-0.1,0.7,0l6.1,3.8
							c0.2,0.1,0.2,0.5,0,0.6l-6.4,4C235.4,252.4,235.1,252.4,234.9,252.3z"/>
						<path class="st5" d="M225.8,246.7l-6.1-3.8c-0.2-0.1-0.2-0.5,0-0.6l6.4-4c0.2-0.1,0.5-0.1,0.7,0l6.1,3.8
							c0.2,0.1,0.2,0.5,0,0.6l-6.4,4C226.3,246.8,226.1,246.8,225.8,246.7z"/>
						<path class="st5" d="M216.8,241.1l-6.1-3.8c-0.2-0.1-0.2-0.5,0-0.6l6.4-4c0.2-0.1,0.5-0.1,0.7,0l6.1,3.8
							c0.2,0.1,0.2,0.5,0,0.6l-6.4,4C217.2,241.2,217,241.2,216.8,241.1z"/>
						<path class="st5" d="M207.7,235.5l-6.1-3.8c-0.2-0.1-0.2-0.5,0-0.6l6.4-4c0.2-0.1,0.5-0.1,0.7,0l6.1,3.8
							c0.2,0.1,0.2,0.5,0,0.6l-6.4,4C208.1,235.6,207.9,235.6,207.7,235.5z"/>
						<path class="st5" d="M198.6,229.9l-6.1-3.8c-0.2-0.1-0.2-0.5,0-0.6l6.4-4c0.2-0.1,0.5-0.1,0.7,0l6.1,3.8
							c0.2,0.1,0.2,0.5,0,0.6l-6.4,4C199.1,230,198.8,230,198.6,229.9z"/>
						<path class="st5" d="M189.5,224.3l-6.1-3.8c-0.2-0.1-0.2-0.5,0-0.6l6.4-4c0.2-0.1,0.5-0.1,0.7,0l6.1,3.8
							c0.2,0.1,0.2,0.5,0,0.6l-6.4,4C190,224.4,189.7,224.4,189.5,224.3z"/>
						<path class="st5" d="M180.4,218.7l-6.1-3.8c-0.2-0.1-0.2-0.5,0-0.6l6.4-4c0.2-0.1,0.5-0.1,0.7,0l6.1,3.8
							c0.2,0.1,0.2,0.5,0,0.6l-6.4,4C180.9,218.8,180.6,218.8,180.4,218.7z"/>
						<path class="st5" d="M171.3,213.1l-6.1-3.8c-0.2-0.1-0.2-0.5,0-0.6l6.4-4c0.2-0.1,0.5-0.1,0.7,0l6.1,3.8
							c0.2,0.1,0.2,0.5,0,0.6l-6.4,4C171.8,213.2,171.5,213.2,171.3,213.1z"/>
						<path class="st5" d="M162.3,207.5l-6.1-3.8c-0.2-0.1-0.2-0.5,0-0.6l6.4-4c0.2-0.1,0.5-0.1,0.7,0l6.1,3.8
							c0.2,0.1,0.2,0.5,0,0.6l-6.4,4C162.7,207.6,162.5,207.6,162.3,207.5z"/>
						<path class="st5" d="M153.2,201.9l-6.1-3.8c-0.2-0.1-0.2-0.5,0-0.6l6.4-4c0.2-0.1,0.5-0.1,0.7,0l6.1,3.8
							c0.2,0.1,0.2,0.5,0,0.6l-6.4,4C153.6,202,153.4,202,153.2,201.9z"/>
						<path class="st5" d="M144.1,196.3l-6.1-3.8c-0.2-0.1-0.2-0.5,0-0.6l6.4-4c0.2-0.1,0.5-0.1,0.7,0l6.1,3.8
							c0.2,0.1,0.2,0.5,0,0.6l-6.4,4C144.6,196.4,144.3,196.4,144.1,196.3z"/>
						<path class="st5" d="M135,190.7l-6.1-3.8c-0.2-0.1-0.2-0.5,0-0.6l6.4-4c0.2-0.1,0.5-0.1,0.7,0l6.1,3.8c0.2,0.1,0.2,0.5,0,0.6
							l-6.4,4C135.5,190.8,135.2,190.8,135,190.7z"/>
						<path class="st5" d="M224.8,258.7l-6.1-3.8c-0.2-0.1-0.2-0.5,0-0.6l6.4-4c0.2-0.1,0.5-0.1,0.7,0l6.1,3.8
							c0.2,0.1,0.2,0.5,0,0.6l-6.4,4C225.3,258.8,225,258.8,224.8,258.7z"/>
						<path class="st5" d="M215.7,253.1l-6.1-3.8c-0.2-0.1-0.2-0.5,0-0.6l6.4-4c0.2-0.1,0.5-0.1,0.7,0l6.1,3.8
							c0.2,0.1,0.2,0.5,0,0.6l-6.4,4C216.2,253.2,215.9,253.2,215.7,253.1z"/>
						<path class="st5" d="M206.6,247.5l-6.1-3.8c-0.2-0.1-0.2-0.5,0-0.6l6.4-4c0.2-0.1,0.5-0.1,0.7,0l6.1,3.8
							c0.2,0.1,0.2,0.5,0,0.6l-6.4,4C207.1,247.6,206.8,247.6,206.6,247.5z"/>
						<path class="st5" d="M197.6,241.9l-6.1-3.8c-0.2-0.1-0.2-0.5,0-0.6l6.4-4c0.2-0.1,0.5-0.1,0.7,0l6.1,3.8
							c0.2,0.1,0.2,0.5,0,0.6l-6.4,4C198,242,197.8,242,197.6,241.9z"/>
						<path class="st5" d="M188.5,236.3l-6.1-3.8c-0.2-0.1-0.2-0.5,0-0.6l6.4-4c0.2-0.1,0.5-0.1,0.7,0l6.1,3.8
							c0.2,0.1,0.2,0.5,0,0.6l-6.4,4C188.9,236.4,188.7,236.4,188.5,236.3z"/>
						<path class="st5" d="M179.4,230.7l-6.1-3.8c-0.2-0.1-0.2-0.5,0-0.6l6.4-4c0.2-0.1,0.5-0.1,0.7,0l6.1,3.8
							c0.2,0.1,0.2,0.5,0,0.6l-6.4,4C179.9,230.8,179.6,230.8,179.4,230.7z"/>
						<path class="st5" d="M170.3,225.1l-6.1-3.8c-0.2-0.1-0.2-0.5,0-0.6l6.4-4c0.2-0.1,0.5-0.1,0.7,0l6.1,3.8
							c0.2,0.1,0.2,0.5,0,0.6l-6.4,4C170.8,225.2,170.5,225.2,170.3,225.1z"/>
						<path class="st5" d="M161.2,219.5l-6.1-3.8c-0.2-0.1-0.2-0.5,0-0.6l6.4-4c0.2-0.1,0.5-0.1,0.7,0l6.1,3.8
							c0.2,0.1,0.2,0.5,0,0.6l-6.4,4C161.7,219.6,161.4,219.6,161.2,219.5z"/>
						<path class="st5" d="M152.1,213.9l-6.1-3.8c-0.2-0.1-0.2-0.5,0-0.6l6.4-4c0.2-0.1,0.5-0.1,0.7,0l6.1,3.8
							c0.2,0.1,0.2,0.5,0,0.6l-6.4,4C152.6,214,152.3,214,152.1,213.9z"/>
						<path class="st5" d="M143,208.3l-6.1-3.8c-0.2-0.1-0.2-0.5,0-0.6l6.4-4c0.2-0.1,0.5-0.1,0.7,0l6.1,3.8c0.2,0.1,0.2,0.5,0,0.6
							l-6.4,4C143.5,208.4,143.3,208.4,143,208.3z"/>
						<path class="st5" d="M134,202.7l-6.1-3.8c-0.2-0.1-0.2-0.5,0-0.6l6.4-4c0.2-0.1,0.5-0.1,0.7,0l6.1,3.8c0.2,0.1,0.2,0.5,0,0.6
							l-6.4,4C134.4,202.8,134.2,202.8,134,202.7z"/>
						<path class="st5" d="M124.9,197.1l-6.1-3.8c-0.2-0.1-0.2-0.5,0-0.6l6.4-4c0.2-0.1,0.5-0.1,0.7,0l6.1,3.8
							c0.2,0.1,0.2,0.5,0,0.6l-6.4,4C125.3,197.2,125.1,197.2,124.9,197.1z"/>
						<path class="st5" d="M214.7,265.1l-6.1-3.8c-0.2-0.1-0.2-0.5,0-0.6l6.4-4c0.2-0.1,0.5-0.1,0.7,0l6.1,3.8
							c0.2,0.1,0.2,0.5,0,0.6l-6.4,4C215.1,265.2,214.9,265.2,214.7,265.1z"/>
						<path class="st5" d="M205.6,259.5l-6.1-3.8c-0.2-0.1-0.2-0.5,0-0.6l6.4-4c0.2-0.1,0.5-0.1,0.7,0l6.1,3.8
							c0.2,0.1,0.2,0.5,0,0.6l-6.4,4C206.1,259.6,205.8,259.6,205.6,259.5z"/>
						<path class="st5" d="M196.5,253.9l-6.1-3.8c-0.2-0.1-0.2-0.5,0-0.6l6.4-4c0.2-0.1,0.5-0.1,0.7,0l6.1,3.8
							c0.2,0.1,0.2,0.5,0,0.6l-6.4,4C197,254,196.7,254,196.5,253.9z"/>
						<path class="st5" d="M187.4,248.3l-6.1-3.8c-0.2-0.1-0.2-0.5,0-0.6l6.4-4c0.2-0.1,0.5-0.1,0.7,0l6.1,3.8
							c0.2,0.1,0.2,0.5,0,0.6l-6.4,4C187.9,248.4,187.6,248.4,187.4,248.3z"/>
						<path class="st5" d="M178.3,242.7l-6.1-3.8c-0.2-0.1-0.2-0.5,0-0.6l6.4-4c0.2-0.1,0.5-0.1,0.7,0l6.1,3.8
							c0.2,0.1,0.2,0.5,0,0.6l-6.4,4C178.8,242.8,178.6,242.8,178.3,242.7z"/>
						<path class="st5" d="M169.3,237.1l-6.1-3.8c-0.2-0.1-0.2-0.5,0-0.6l6.4-4c0.2-0.1,0.5-0.1,0.7,0l6.1,3.8
							c0.2,0.1,0.2,0.5,0,0.6l-6.4,4C169.7,237.2,169.5,237.2,169.3,237.1z"/>
						<path class="st5" d="M160.2,231.5l-6.1-3.8c-0.2-0.1-0.2-0.5,0-0.6l6.4-4c0.2-0.1,0.5-0.1,0.7,0l6.1,3.8
							c0.2,0.1,0.2,0.5,0,0.6l-6.4,4C160.6,231.6,160.4,231.6,160.2,231.5z"/>
						<path class="st5" d="M151.1,225.9l-6.1-3.8c-0.2-0.1-0.2-0.5,0-0.6l6.4-4c0.2-0.1,0.5-0.1,0.7,0l6.1,3.8
							c0.2,0.1,0.2,0.5,0,0.6l-6.4,4C151.6,226,151.3,226,151.1,225.9z"/>
						<path class="st5" d="M142,220.3l-6.1-3.8c-0.2-0.1-0.2-0.5,0-0.6l6.4-4c0.2-0.1,0.5-0.1,0.7,0l6.1,3.8c0.2,0.1,0.2,0.5,0,0.6
							l-6.4,4C142.5,220.4,142.2,220.4,142,220.3z"/>
						<path class="st5" d="M132.9,214.7l-6.1-3.8c-0.2-0.1-0.2-0.5,0-0.6l6.4-4c0.2-0.1,0.5-0.1,0.7,0l6.1,3.8
							c0.2,0.1,0.2,0.5,0,0.6l-6.4,4C133.4,214.8,133.1,214.8,132.9,214.7z"/>
						<path class="st5" d="M123.8,209.1l-6.1-3.8c-0.2-0.1-0.2-0.5,0-0.6l6.4-4c0.2-0.1,0.5-0.1,0.7,0l6.1,3.8
							c0.2,0.1,0.2,0.5,0,0.6l-6.4,4C124.3,209.2,124,209.2,123.8,209.1z"/>
						<path class="st5" d="M114.8,203.5l-6.1-3.8c-0.2-0.1-0.2-0.5,0-0.6l6.4-4c0.2-0.1,0.5-0.1,0.7,0l6.1,3.8
							c0.2,0.1,0.2,0.5,0,0.6l-6.4,4C115.2,203.6,115,203.6,114.8,203.5z"/>
						<path class="st5" d="M204.6,271.5l-6.1-3.8c-0.2-0.1-0.2-0.5,0-0.6l6.4-4c0.2-0.1,0.5-0.1,0.7,0l6.1,3.8
							c0.2,0.1,0.2,0.5,0,0.6l-6.4,4C205,271.6,204.8,271.6,204.6,271.5z"/>
						<path class="st5" d="M195.5,265.9l-6.1-3.8c-0.2-0.1-0.2-0.5,0-0.6l6.4-4c0.2-0.1,0.5-0.1,0.7,0l6.1,3.8
							c0.2,0.1,0.2,0.5,0,0.6l-6.4,4C195.9,266,195.7,266,195.5,265.9z"/>
						<path class="st5" d="M186.4,260.3l-6.1-3.8c-0.2-0.1-0.2-0.5,0-0.6l6.4-4c0.2-0.1,0.5-0.1,0.7,0l6.1,3.8
							c0.2,0.1,0.2,0.5,0,0.6l-6.4,4C186.9,260.4,186.6,260.4,186.4,260.3z"/>
						<path class="st5" d="M177.3,254.7l-6.1-3.8c-0.2-0.1-0.2-0.5,0-0.6l6.4-4c0.2-0.1,0.5-0.1,0.7,0l6.1,3.8
							c0.2,0.1,0.2,0.5,0,0.6l-6.4,4C177.8,254.8,177.5,254.8,177.3,254.7z"/>
						<path class="st5" d="M168.2,249.1l-6.1-3.8c-0.2-0.1-0.2-0.5,0-0.6l6.4-4c0.2-0.1,0.5-0.1,0.7,0l6.1,3.8
							c0.2,0.1,0.2,0.5,0,0.6l-6.4,4C168.7,249.2,168.4,249.2,168.2,249.1z"/>
						<path class="st5" d="M159.1,243.5l-6.1-3.8c-0.2-0.1-0.2-0.5,0-0.6l6.4-4c0.2-0.1,0.5-0.1,0.7,0l6.1,3.8
							c0.2,0.1,0.2,0.5,0,0.6l-6.4,4C159.6,243.6,159.3,243.6,159.1,243.5z"/>
						<path class="st5" d="M150.1,237.9l-6.1-3.8c-0.2-0.1-0.2-0.5,0-0.6l6.4-4c0.2-0.1,0.5-0.1,0.7,0l6.1,3.8
							c0.2,0.1,0.2,0.5,0,0.6l-6.4,4C150.5,238,150.3,238,150.1,237.9z"/>
						<path class="st5" d="M141,232.3l-6.1-3.8c-0.2-0.1-0.2-0.5,0-0.6l6.4-4c0.2-0.1,0.5-0.1,0.7,0l6.1,3.8c0.2,0.1,0.2,0.5,0,0.6
							l-6.4,4C141.4,232.4,141.2,232.4,141,232.3z"/>
						<path class="st5" d="M131.9,226.7l-6.1-3.8c-0.2-0.1-0.2-0.5,0-0.6l6.4-4c0.2-0.1,0.5-0.1,0.7,0l6.1,3.8
							c0.2,0.1,0.2,0.5,0,0.6l-6.4,4C132.4,226.8,132.1,226.8,131.9,226.7z"/>
						<path class="st5" d="M122.8,221.1l-6.1-3.8c-0.2-0.1-0.2-0.5,0-0.6l6.4-4c0.2-0.1,0.5-0.1,0.7,0l6.1,3.8
							c0.2,0.1,0.2,0.5,0,0.6l-6.4,4C123.3,221.2,123,221.2,122.8,221.1z"/>
						<path class="st5" d="M113.7,215.5l-6.1-3.8c-0.2-0.1-0.2-0.5,0-0.6l6.4-4c0.2-0.1,0.5-0.1,0.7,0l6.1,3.8
							c0.2,0.1,0.2,0.5,0,0.6l-6.4,4C114.2,215.6,113.9,215.6,113.7,215.5z"/>
						<path class="st5" d="M104.6,209.9l-6.1-3.8c-0.2-0.1-0.2-0.5,0-0.6l6.4-4c0.2-0.1,0.5-0.1,0.7,0l6.1,3.8
							c0.2,0.1,0.2,0.5,0,0.6l-6.4,4C105.1,210,104.8,210,104.6,209.9z"/>
						<path class="st5" d="M194.4,277.9l-6.1-3.8c-0.2-0.1-0.2-0.5,0-0.6l6.4-4c0.2-0.1,0.5-0.1,0.7,0l6.1,3.8
							c0.2,0.1,0.2,0.5,0,0.6l-6.4,4C194.9,278,194.6,278,194.4,277.9z"/>
						<path class="st5" d="M185.3,272.3l-6.1-3.8c-0.2-0.1-0.2-0.5,0-0.6l6.4-4c0.2-0.1,0.5-0.1,0.7,0l6.1,3.8
							c0.2,0.1,0.2,0.5,0,0.6l-6.4,4C185.8,272.4,185.6,272.4,185.3,272.3z"/>
						<path class="st5" d="M176.3,266.7l-6.1-3.8c-0.2-0.1-0.2-0.5,0-0.6l6.4-4c0.2-0.1,0.5-0.1,0.7,0l6.1,3.8
							c0.2,0.1,0.2,0.5,0,0.6l-6.4,4C176.7,266.8,176.5,266.8,176.3,266.7z"/>
						<path class="st5" d="M130.8,238.7l-6.1-3.8c-0.2-0.1-0.2-0.5,0-0.6l6.4-4c0.2-0.1,0.5-0.1,0.7,0l6.1,3.8
							c0.2,0.1,0.2,0.5,0,0.6l-6.4,4C131.3,238.8,131,238.8,130.8,238.7z"/>
						<path class="st5" d="M121.8,233l-6.1-3.8c-0.2-0.1-0.2-0.5,0-0.6l6.4-4c0.2-0.1,0.5-0.1,0.7,0l6.1,3.8c0.2,0.1,0.2,0.5,0,0.6
							l-6.4,4C122.2,233.2,122,233.2,121.8,233z"/>
						<path class="st5" d="M112.7,227.4l-6.1-3.8c-0.2-0.1-0.2-0.5,0-0.6l6.4-4c0.2-0.1,0.5-0.1,0.7,0l6.1,3.8
							c0.2,0.1,0.2,0.5,0,0.6l-6.4,4C113.1,227.6,112.9,227.6,112.7,227.4z"/>
						<path class="st5" d="M107.4,219.5l-6.1-3.8c-0.2-0.1-0.2-0.5,0-0.6l2.6-1.6c0.2-0.1,0.5-0.1,0.7,0l6.1,3.8
							c0.2,0.1,0.2,0.5,0,0.6l-2.6,1.6C107.9,219.6,107.6,219.6,107.4,219.5z"/>
						<path class="st5" d="M103.6,221.9l-6.1-3.8c-0.2-0.1-0.2-0.5,0-0.6l2.6-1.6c0.2-0.1,0.5-0.1,0.7,0l6.1,3.8
							c0.2,0.1,0.2,0.5,0,0.6l-2.6,1.6C104.1,222,103.8,222,103.6,221.9z"/>
						<path class="st5" d="M94.5,216.2l-6.1-3.8c-0.2-0.1-0.2-0.5,0-0.6l6.4-4c0.2-0.1,0.5-0.1,0.7,0l6.1,3.8c0.2,0.1,0.2,0.5,0,0.6
							l-6.4,4C95,216.4,94.7,216.4,94.5,216.2z"/>
						<path class="st5" d="M133.8,239.9l6.4-4c0.2-0.1,0.5-0.1,0.7,0l6.1,3.8c0,0,0,0,0,0l22.5,13.9l0,0l4.8,2.9
							c0.2,0.1,0.2,0.5,0,0.6l-6.4,4c-0.2,0.1-0.5,0.1-0.7,0l-6.1-3.8c0,0,0,0,0,0l-23.8-14.7l0,0l-3.4-2.1
							C133.6,240.3,133.6,240,133.8,239.9z"/>
					</g>
				</g>
				<g>
					<g>
						<polygon class="st12" points="263.7,219.1 162.6,156.8 162.6,71.6 263.7,133.8 						"/>
						<polygon class="st13" points="162.6,71.6 159.8,72.3 163.1,76.2 						"/>
						<polygon class="st13" points="263.7,219.1 260.9,219.8 258.2,215.7 261.2,215.7 						"/>
						<polyline class="st14" points="260.9,132.5 260.9,219.8 159.8,157.5 157.9,80.5 162.6,71.6 						"/>
					</g>
					<path class="st14" d="M207.7,186.2l-1,0.4c-5.8,1.6-12,0.7-17.2-2.5l-39.4-24.2l10.7-2.6"/>
					<polygon class="st14" points="150,74.6 150,159.9 162.8,157.9 165.8,151.5 165.4,111.5 161.4,80.6 					"/>
					<path class="st9" d="M209.5,100.5l-2.9,0.8c-5.8,1.6-12,0.7-17.2-2.5L150,74.6l9.4-5"/>
					<path class="st9" d="M263.7,134.1l-8.2,5.6l-41.6-25.7c-4.7-2.9-6.9-8.5-5.5-13.8l0,0l0.6,0.2L263.7,134.1z"/>
					<g>
						<path class="st15" d="M233.1,135.2c-0.1,0-0.3,0-0.4-0.1l-19.1-11.8c-0.4-0.2-0.5-0.7-0.2-1c0.2-0.4,0.7-0.5,1-0.2l19.1,11.8
							c0.4,0.2,0.5,0.7,0.2,1C233.6,135,233.3,135.2,233.1,135.2z"/>
					</g>
					<g>
						<path class="st15" d="M249.9,145.6c-0.1,0-0.3,0-0.4-0.1l-9.2-5.7c-0.4-0.2-0.5-0.7-0.2-1c0.2-0.4,0.7-0.5,1-0.2l9.2,5.7
							c0.4,0.2,0.5,0.7,0.2,1C250.4,145.5,250.1,145.6,249.9,145.6z"/>
					</g>
					<g>
						<path class="st15" d="M249.9,152.3c-0.1,0-0.3,0-0.4-0.1l-36-22.3c-0.4-0.2-0.5-0.7-0.2-1c0.2-0.4,0.7-0.5,1-0.2l36,22.3
							c0.4,0.2,0.5,0.7,0.2,1C250.4,152.2,250.1,152.3,249.9,152.3z"/>
					</g>
					<g>
						<path class="st15" d="M220.6,141c-0.1,0-0.3,0-0.4-0.1l-6.7-4.2c-0.4-0.2-0.5-0.7-0.2-1c0.2-0.4,0.7-0.5,1-0.2l6.7,4.2
							c0.4,0.2,0.5,0.7,0.2,1C221.1,140.9,220.9,141,220.6,141z"/>
					</g>
					<g>
						<path class="st15" d="M237.1,151.2c-0.1,0-0.3,0-0.4-0.1l-11.7-7.2c-0.4-0.2-0.5-0.7-0.2-1c0.2-0.4,0.7-0.5,1-0.2l11.7,7.2
							c0.4,0.2,0.5,0.7,0.2,1C237.6,151,237.3,151.2,237.1,151.2z"/>
					</g>
					<g>
						<path class="st15" d="M249.9,159.1c-0.1,0-0.3,0-0.4-0.1l-8.5-5.2c-0.4-0.2-0.5-0.7-0.2-1c0.2-0.4,0.7-0.5,1-0.2l8.5,5.2
							c0.4,0.2,0.5,0.7,0.2,1C250.4,159,250.1,159.1,249.9,159.1z"/>
					</g>
					<g>
						<path class="st15" d="M229.9,153.5c-0.1,0-0.3,0-0.4-0.1l-16-9.9c-0.4-0.2-0.5-0.7-0.2-1c0.2-0.4,0.7-0.5,1-0.2l16,9.9
							c0.4,0.2,0.5,0.7,0.2,1C230.4,153.4,230.1,153.5,229.9,153.5z"/>
					</g>
					<g>
						<path class="st15" d="M249.9,165.9c-0.1,0-0.3,0-0.4-0.1l-13.2-8.2c-0.4-0.2-0.5-0.7-0.2-1c0.2-0.4,0.7-0.5,1-0.2l13.2,8.2
							c0.4,0.2,0.5,0.7,0.2,1C250.4,165.7,250.1,165.9,249.9,165.9z"/>
					</g>
					<g>
						<path class="st15" d="M223,156c-0.1,0-0.3,0-0.4-0.1l-9.1-5.6c-0.4-0.2-0.5-0.7-0.2-1c0.2-0.4,0.7-0.5,1-0.2l9.1,5.6
							c0.4,0.2,0.5,0.7,0.2,1C223.5,155.9,223.2,156,223,156z"/>
					</g>
					<g>
						<path class="st15" d="M240.6,166.9c-0.1,0-0.3,0-0.4-0.1l-10.7-6.6c-0.4-0.2-0.5-0.7-0.2-1c0.2-0.4,0.7-0.5,1-0.2l10.7,6.6
							c0.4,0.2,0.5,0.7,0.2,1C241.1,166.7,240.8,166.9,240.6,166.9z"/>
					</g>
					<g>
						<path class="st15" d="M249.9,172.6c-0.1,0-0.3,0-0.4-0.1l-6.7-4.2c-0.4-0.2-0.5-0.7-0.2-1c0.2-0.4,0.7-0.5,1-0.2l6.7,4.2
							c0.4,0.2,0.5,0.7,0.2,1C250.4,172.5,250.1,172.6,249.9,172.6z"/>
					</g>
					<g>
						<path class="st15" d="M249.9,179.4c-0.1,0-0.3,0-0.4-0.1l-36-22.3c-0.4-0.2-0.5-0.7-0.2-1c0.2-0.4,0.7-0.5,1-0.2l36,22.3
							c0.4,0.2,0.5,0.7,0.2,1C250.4,179.3,250.1,179.4,249.9,179.4z"/>
					</g>
					<g>
						<path class="st15" d="M236.7,178c-0.1,0-0.3,0-0.4-0.1l-22.7-14.1c-0.4-0.2-0.5-0.7-0.2-1c0.2-0.4,0.7-0.5,1-0.2l22.7,14.1
							c0.4,0.2,0.5,0.7,0.2,1C237.2,177.9,236.9,178,236.7,178z"/>
					</g>
					<g>
						<path class="st15" d="M249.9,186.2c-0.1,0-0.3,0-0.4-0.1l-9.3-5.8c-0.4-0.2-0.5-0.7-0.2-1c0.2-0.4,0.7-0.5,1-0.2l9.3,5.8
							c0.4,0.2,0.5,0.7,0.2,1C250.4,186,250.1,186.2,249.9,186.2z"/>
					</g>
					<g>
						<path class="st15" d="M223.1,176.4c-0.1,0-0.3,0-0.4-0.1l-9.2-5.7c-0.4-0.2-0.5-0.7-0.2-1c0.2-0.4,0.7-0.5,1-0.2l9.2,5.7
							c0.4,0.2,0.5,0.7,0.2,1C223.6,176.2,223.4,176.4,223.1,176.4z"/>
					</g>
					<g>
						<path class="st15" d="M249.9,192.9c-0.1,0-0.3,0-0.4-0.1L227,178.9c-0.4-0.2-0.5-0.7-0.2-1c0.2-0.4,0.7-0.5,1-0.2l22.5,13.9
							c0.4,0.2,0.5,0.7,0.2,1C250.4,192.8,250.1,192.9,249.9,192.9z"/>
					</g>
					<g>
						<path class="st15" d="M233.1,189.3c-0.1,0-0.3,0-0.4-0.1l-19.2-11.9c-0.4-0.2-0.5-0.7-0.2-1c0.2-0.4,0.7-0.5,1-0.2l19.2,11.9
							c0.4,0.2,0.5,0.7,0.2,1C233.7,189.2,233.4,189.3,233.1,189.3z"/>
					</g>
					<g>
						<path class="st15" d="M249.9,199.7c-0.1,0-0.3,0-0.4-0.1l-11.9-7.4c-0.4-0.2-0.5-0.7-0.2-1c0.2-0.4,0.7-0.5,1-0.2l11.9,7.4
							c0.4,0.2,0.5,0.7,0.2,1C250.4,199.6,250.1,199.7,249.9,199.7z"/>
					</g>
					<g>
						<path class="st15" d="M225.1,191.1c-0.1,0-0.3,0-0.4-0.1l-11.1-6.9c-0.4-0.2-0.5-0.7-0.2-1c0.2-0.4,0.7-0.5,1-0.2l11.1,6.9
							c0.4,0.2,0.5,0.7,0.2,1C225.6,191,225.3,191.1,225.1,191.1z"/>
					</g>
					<g>
						<path class="st15" d="M249.9,206.5c-0.1,0-0.3,0-0.4-0.1L230,194.3c-0.4-0.2-0.5-0.7-0.2-1c0.2-0.4,0.7-0.5,1-0.2l19.5,12.1
							c0.4,0.2,0.5,0.7,0.2,1C250.4,206.3,250.1,206.5,249.9,206.5z"/>
					</g>
					<path class="st14" d="M263.7,219.1l-8.2,5.6l-42.8-26.5c-4.7-2.9-6.9-8.5-5.5-13.8L263.7,219.1z"/>
					<polygon class="st15" points="255.5,139.7 255.5,224.7 263.7,219.1 263.7,133.8 					"/>
					<g>
						<polygon class="st15" points="208,102.7 208.1,113.1 208,123.5 207.8,144.4 207.4,165.2 207.2,175.7 206.9,186.1 206.8,175.7 
							206.9,165.2 207.1,144.4 207.4,123.5 207.7,113.1 						"/>
					</g>
					<g>
						<path class="st15" d="M182.2,106.2c-0.1,0-0.3,0-0.4-0.1l-25.4-15.6c-0.4-0.2-0.5-0.7-0.3-1c0.2-0.4,0.7-0.5,1-0.3l25.4,15.6
							c0.4,0.2,0.5,0.7,0.3,1C182.7,106.1,182.5,106.2,182.2,106.2z"/>
					</g>
					<g>
						<path class="st15" d="M199.4,119.5c-4.2,0-8.3-1.2-11.9-3.3l-31.1-19.1c-0.4-0.2-0.5-0.7-0.3-1c0.2-0.4,0.7-0.5,1-0.3
							l31.1,19.1c4.1,2.5,8.9,3.5,13.6,3c0.4-0.1,0.8,0.2,0.8,0.7c0.1,0.4-0.2,0.8-0.7,0.8C201.2,119.5,200.3,119.5,199.4,119.5z"/>
					</g>
					<g>
						<path class="st15" d="M170.1,112.6c-0.1,0-0.3,0-0.4-0.1l-13.3-8.1c-0.4-0.2-0.5-0.7-0.3-1c0.2-0.4,0.7-0.5,1-0.3l13.3,8.1
							c0.4,0.2,0.5,0.7,0.3,1C170.6,112.4,170.3,112.6,170.1,112.6z"/>
					</g>
					<g>
						<path class="st15" d="M199.4,126.8c-4.2,0-8.3-1.2-11.9-3.3l-7.6-4.6c-0.4-0.2-0.5-0.7-0.3-1c0.2-0.4,0.7-0.5,1-0.3l7.6,4.6
							c4.1,2.5,8.9,3.5,13.6,3c0.4-0.1,0.8,0.2,0.8,0.7c0.1,0.4-0.2,0.8-0.7,0.8C201.2,126.7,200.3,126.8,199.4,126.8z"/>
					</g>
					<g>
						<path class="st15" d="M178.9,125.2c-0.1,0-0.3,0-0.4-0.1l-22-13.5c-0.4-0.2-0.5-0.7-0.3-1c0.2-0.4,0.7-0.5,1-0.3l22,13.5
							c0.4,0.2,0.5,0.7,0.3,1C179.4,125.1,179.1,125.2,178.9,125.2z"/>
					</g>
					<g>
						<path class="st15" d="M199.4,134c-4.2,0-8.3-1.2-11.9-3.3c-0.4-0.2-0.5-0.7-0.3-1c0.2-0.4,0.7-0.5,1-0.3
							c4.1,2.5,8.9,3.5,13.6,3c0.4-0.1,0.8,0.2,0.8,0.7c0.1,0.4-0.2,0.8-0.7,0.8C201.2,133.9,200.3,134,199.4,134z"/>
					</g>
					<g>
						<path class="st15" d="M167.9,125.6c-0.1,0-0.3,0-0.4-0.1l-11-6.8c-0.4-0.2-0.5-0.7-0.3-1c0.2-0.4,0.7-0.5,1-0.3l11,6.8
							c0.4,0.2,0.5,0.7,0.3,1C168.4,125.5,168.1,125.6,167.9,125.6z"/>
					</g>
					<g>
						<path class="st15" d="M185.9,136.7c-0.1,0-0.3,0-0.4-0.1l-12.2-7.5c-0.4-0.2-0.5-0.7-0.3-1c0.2-0.4,0.7-0.5,1-0.3l12.2,7.5
							c0.4,0.2,0.5,0.7,0.3,1C186.4,136.6,186.2,136.7,185.9,136.7z"/>
					</g>
					<g>
						<path class="st15" d="M199.4,141.2c-3.2,0-6.4-0.7-9.4-2c-0.4-0.2-0.5-0.6-0.4-1c0.2-0.4,0.6-0.5,1-0.4
							c3.5,1.6,7.5,2.2,11.3,1.7c0.4-0.1,0.8,0.2,0.8,0.7c0.1,0.4-0.2,0.8-0.7,0.8C201.2,141.2,200.3,141.2,199.4,141.2z"/>
					</g>
					<g>
						<path class="st15" d="M184.3,142.9c-0.1,0-0.3,0-0.4-0.1L156.4,126c-0.4-0.2-0.5-0.7-0.3-1c0.2-0.4,0.7-0.5,1-0.3l27.4,16.8
							c0.4,0.2,0.5,0.7,0.3,1C184.8,142.8,184.5,142.9,184.3,142.9z"/>
					</g>
					<g>
						<path class="st15" d="M199.4,148.4c-2.9,0-5.8-0.6-8.4-1.6c-0.4-0.2-0.6-0.6-0.4-1c0.2-0.4,0.6-0.6,1-0.4
							c3.3,1.3,6.9,1.8,10.4,1.4c0.4-0.1,0.8,0.2,0.8,0.7c0.1,0.4-0.2,0.8-0.7,0.8C201.2,148.4,200.3,148.4,199.4,148.4z"/>
					</g>
					<g>
						<path class="st15" d="M199.4,155.7c-4.2,0-8.3-1.2-11.9-3.3l-31.1-19.1c-0.4-0.2-0.5-0.7-0.3-1c0.2-0.4,0.7-0.5,1-0.3
							l31.1,19.1c4.1,2.5,8.9,3.5,13.6,3c0.4-0.1,0.8,0.2,0.8,0.7c0.1,0.4-0.2,0.8-0.7,0.8C201.2,155.6,200.3,155.7,199.4,155.7z"/>
					</g>
					<g>
						<path class="st15" d="M164.3,145.1c-0.1,0-0.3,0-0.4-0.1l-7.5-4.6c-0.4-0.2-0.5-0.7-0.3-1c0.2-0.4,0.7-0.5,1-0.3l7.5,4.6
							c0.4,0.2,0.5,0.7,0.3,1C164.8,145,164.6,145.1,164.3,145.1z"/>
					</g>
					<g>
						<path class="st15" d="M199.4,162.9c-4.2,0-8.3-1.2-11.9-3.3l-13.8-8.5c-0.4-0.2-0.5-0.7-0.3-1c0.2-0.4,0.7-0.5,1-0.3l13.8,8.5
							c4.1,2.5,8.9,3.5,13.6,3c0.4-0.1,0.8,0.2,0.8,0.7c0.1,0.4-0.2,0.8-0.7,0.8C201.2,162.8,200.3,162.9,199.4,162.9z"/>
					</g>
					<g>
						<path class="st15" d="M176.7,160c-0.1,0-0.3,0-0.4-0.1l-19.8-12.2c-0.4-0.2-0.5-0.7-0.3-1c0.2-0.4,0.7-0.5,1-0.3l19.8,12.2
							c0.4,0.2,0.5,0.7,0.3,1C177.2,159.8,176.9,160,176.7,160z"/>
					</g>
					<g>
						<path class="st15" d="M187.9,166.9c-0.1,0-0.3,0-0.4-0.1l-7-4.3c-0.4-0.2-0.5-0.7-0.3-1c0.2-0.4,0.7-0.5,1-0.3l7,4.3
							c0.4,0.2,0.5,0.7,0.3,1C188.4,166.7,188.2,166.9,187.9,166.9z"/>
					</g>
					<g>
						<path class="st15" d="M199.4,170.1c-2.3,0-4.5-0.3-6.7-1c-0.4-0.1-0.6-0.5-0.5-0.9c0.1-0.4,0.5-0.6,0.9-0.5
							c2.9,0.9,5.9,1.2,8.9,0.8c0.4-0.1,0.8,0.2,0.8,0.7c0.1,0.4-0.2,0.8-0.7,0.8C201.2,170.1,200.3,170.1,199.4,170.1z"/>
					</g>
					<g>
						<path class="st15" d="M162.9,158.7c-0.1,0-0.3,0-0.4-0.1l-6-3.7c-0.4-0.2-0.5-0.7-0.3-1c0.2-0.4,0.7-0.5,1-0.3l6,3.7
							c0.4,0.2,0.5,0.7,0.3,1C163.4,158.6,163.1,158.7,162.9,158.7z"/>
					</g>
					<g>
						<path class="st15" d="M199.4,177.3c-4.2,0-8.3-1.2-11.9-3.3l-18.8-11.5c-0.4-0.2-0.5-0.7-0.3-1c0.2-0.4,0.7-0.5,1-0.3
							l18.8,11.5c4.1,2.5,8.9,3.5,13.6,3c0.4-0.1,0.8,0.2,0.8,0.7c0.1,0.4-0.2,0.8-0.7,0.8C201.2,177.3,200.3,177.3,199.4,177.3z"/>
					</g>
					<g>
						<path class="st15" d="M225.1,197.3c-0.1,0-0.3,0-0.4-0.1l-11.1-6.9c-0.4-0.2-0.5-0.7-0.2-1c0.2-0.4,0.7-0.5,1-0.2l11.1,6.9
							c0.4,0.2,0.5,0.7,0.2,1C225.6,197.2,225.3,197.3,225.1,197.3z"/>
					</g>
					<g>
						<path class="st15" d="M249.9,212.7c-0.1,0-0.3,0-0.4-0.1l-25.9-16c-0.4-0.2-0.5-0.7-0.2-1c0.2-0.4,0.7-0.5,1-0.2l25.9,16
							c0.4,0.2,0.5,0.7,0.2,1C250.4,212.6,250.1,212.7,249.9,212.7z"/>
					</g>
				</g>
				<g>
					<g>
						<g>
							<path class="st16" d="M120.4,84.9c0,0.5-0.9,0.9-2,0.9c-1.1,0-2-0.4-2-0.9c0-0.5,0.9-0.9,2-0.9
								C119.5,84,120.4,84.4,120.4,84.9z"/>
							
								<rect x="116.3" y="76.5" transform="matrix(1 -8.855470e-03 8.855470e-03 1 -0.7103 1.0513)" class="st16" width="4.1" height="8.4"/>
						</g>
						<path class="st17" d="M120.4,76.5c0,0.5-0.9,0.9-2,0.9c-1.1,0-2-0.4-2-0.9c0-0.5,0.9-0.9,2-0.9
							C119.4,75.6,120.4,76,120.4,76.5z"/>
					</g>
					<g>
						<path class="st18" d="M128.8,59.8c0,0,4,7.1,5.1,9.1c1.2,2,12.4,6.8,26.5-4c6.4-4.8,8.9-13,7.5-15.5c-1.4-2.5-6-10.7-6-10.7
							L128.8,59.8z"/>
						<polygon class="st10" points="116.9,62 155.1,63.3 173.2,30.8 134.8,29.5 						"/>
						<polygon class="st10" points="172.2,29.2 173.2,30.8 171.1,32 169.7,31.4 						"/>
						<polygon class="st10" points="116,60.3 116.9,62 119.8,59.3 						"/>
						<polygon class="st18" points="116,60.3 154.2,61.7 172.2,29.2 133.9,27.8 						"/>
					</g>
					<g>
						<path class="st17" d="M118.4,76.9c-0.2,0-0.4-0.2-0.4-0.4l0-14.9c0-0.1,0.1-0.2,0.2-0.3l25.3-18c0.2-0.1,0.4-0.1,0.5,0.1
							c0.1,0.2,0.1,0.4-0.1,0.5l-25.2,17.9l0,14.7C118.7,76.7,118.6,76.9,118.4,76.9z"/>
					</g>
					<path class="st10" d="M145.8,43.7c-0.1,1.2-1.2,2.1-2.4,2c-1.2-0.1-2.1-1.2-2-2.4c0.1-1.2,1.2-2.1,2.4-2
						C145.1,41.4,146,42.5,145.8,43.7z"/>
				</g>
			</g>
			<g>
			</g>
		</g>
		<g>
			<path class="st21" d="M243.9,84.9c0.6,1.4,0,2.4-1.4,2.4c-1.4,0-2.9-1.1-3.5-2.4c-0.6-1.4,0-2.4,1.4-2.4
				C241.8,82.4,243.3,83.5,243.9,84.9z"/>
			<path class="st21" d="M120,116.8c0.6,1.4,0,2.4-1.4,2.4c-1.4,0-2.9-1.1-3.5-2.4c-0.6-1.4,0-2.4,1.4-2.4
				C117.8,114.4,119.4,115.5,120,116.8z"/>
			<g>
				<line class="st22" x1="79.8" y1="59.8" x2="79.8" y2="64.2"/>
				<line class="st22" x1="81.9" y1="63.1" x2="77.7" y2="60.7"/>
			</g>
			<g>
				<line class="st22" x1="297.3" y1="69.3" x2="297.3" y2="73.8"/>
				<line class="st22" x1="299.4" y1="72.6" x2="295.2" y2="70.2"/>
			</g>
			<g>
				<line class="st22" x1="370.9" y1="217.4" x2="366.7" y2="215"/>
			</g>
		</g>
	</g>
</g>
<g id="DESIGNED_BY_FREEPIK">
</g>
</svg>
