<?xml version="1.0" encoding="UTF-8"?> <svg xmlns="http://www.w3.org/2000/svg" viewBox="0 0 406.94 72.12"><title>White-Hori</title><g><g><path d="M125.55,21,111,55.6h-5.6L90.75,21h5.17l12.23,29.9L120.39,21Z" style="fill: #fff"></path><path d="M159.1,21v3.86H139.85v7.39h-4.51V21Zm-.38,18.86H135.34V36h23.38ZM139.85,51.74H159.1V55.6H135.34v-12h4.51Z" style="fill: #fff"></path><path d="M202.87,20.8,174.6,55.6h-5.71l28.27-34.8ZM180.14,34.61,168.89,20.8h5.81L183,31.08Zm22.79,21h-5.71l-8.43-10.33,2.88-3.53Z" style="fill: #fff"></path><path d="M246.7,20.8,218.42,55.6h-5.71L241,20.8ZM224,34.61,212.71,20.8h5.82l8.32,10.28Zm22.78,21H241l-8.43-10.33,2.88-3.53Z" style="fill: #fff"></path><path d="M286.77,35.87V55.6h-4.51V39.73H256.54V21h4.51v14.9ZM256.54,55.6V43.48h4.51V55.6Zm25.72-23.49V21h4.51V32.11Z" style="fill: #fff"></path><path d="M332.61,38.26c0,10.22-7.34,17.89-18.06,17.89s-18-7.67-18-17.89,7.28-17.89,18-17.89S332.61,28,332.61,38.26Zm-4.68,0c0-8.1-5.27-14.09-13.38-14.09s-13.32,6-13.32,14.09,5.17,14.08,13.32,14.08S327.93,46.31,327.93,38.26Z" style="fill: #fff"></path><path d="M369.69,46c0,5-3.59,10.17-13.38,10.17-6.25,0-10.93-2.28-13.92-5.49l2.72-3.32a15.22,15.22,0,0,0,11.37,5c6.47,0,8.53-3.31,8.53-6,0-8.92-21.47-3.92-21.47-16.26,0-5.71,5.32-9.68,12.5-9.68,5.49,0,9.79,1.8,12.83,4.84l-2.71,3.16a14.08,14.08,0,0,0-10.5-4.14c-4.29,0-7.45,2.23-7.45,5.49C348.21,37.55,369.69,33.09,369.69,46Z" style="fill: #fff"></path><path d="M379.42,24.83V21h27.52v3.86ZM390.89,55.6v-27h4.52v27Z" style="fill: #fff"></path></g><g><g><path d="M39.49,55.51h1.15L33.08,45l-.7.68Z" style="fill: #fff"></path><path d="M15.57,20.66H14.3L27.63,39.11l.61-.85Z" style="fill: #fff"></path><path d="M18.09,20.66H16.82l12.06,16.7c.2-.28.42-.55.62-.83Z" style="fill: #fff"></path><path d="M42,55.51h1.15L34.57,43.58l-.71.67Z" style="fill: #fff"></path><path d="M45,55.51h7.08l-12-16.66c-1.53,1.2-3,2.44-4.45,3.71Z" style="fill: #fff"></path><path d="M27.09,20.66H19.93L30.46,35.28q1.83-2.36,3.83-4.59Z" style="fill: #fff"></path></g><path d="M68.78,24.22a34.19,34.19,0,0,1,2.4,12.28A35.46,35.46,0,0,1,62.51,60,35.14,35.14,0,0,1,27.12,71.05,35,35,0,0,1,15.28,65.6a36.43,36.43,0,0,1-15-34.31,36.37,36.37,0,0,1,12-22.54,35.4,35.4,0,0,1,11-6.63A34.47,34.47,0,0,1,35.89,0,33.61,33.61,0,0,1,58.78,9.35,34.32,34.32,0,0,0,35.91,1.79,32.58,32.58,0,0,0,24.16,4.33a34,34,0,0,0-10,6.52,34.59,34.59,0,0,0-7.09,9.52A33.63,33.63,0,0,0,9.19,54.23a33.22,33.22,0,0,0,8.15,8.49,32.85,32.85,0,0,0,10.65,5A33.23,33.23,0,0,0,51.17,65.5,34.35,34.35,0,0,0,67.35,48.31a35.7,35.7,0,0,0,2.83-11.84A36.18,36.18,0,0,0,68.78,24.22Z" style="fill: #fff"></path><g><path d="M21.71,54.77c.54-1,1.05-1.86,1.53-2.69C22.71,53,22.19,53.87,21.71,54.77Z" style="fill: #fff"></path><path d="M68.75,9.07l0,0h-.09S68.7,9,68.75,9.07Z" style="fill: #fff"></path><path d="M25.92,48.2a71.61,71.61,0,0,0-4.21,6.57c.48-.9,1-1.8,1.53-2.69h0c1.13-1.91,2.37-3.79,3.68-5.64h0C38,30.91,54.32,18.77,70,13l-1.29-4s-.1-.06-.12,0C46.49,17.05,26,37.68,18.89,60.7c.35-.85.73-1.69,1.12-2.52C30.25,41.39,50,27.65,68.29,21.65l-.55-3.77A84.34,84.34,0,0,0,25.92,48.2Z" style="fill: #fff"></path></g></g></g></svg> 