<?xml version="1.0" encoding="utf-8"?>
<!-- Generator: Adobe Illustrator 23.0.1, SVG Export Plug-In . SVG Version: 6.00 Build 0)  -->
<svg version="1.1" id="Layer_1" xmlns="http://www.w3.org/2000/svg" xmlns:xlink="http://www.w3.org/1999/xlink" x="0px" y="0px"
	 viewBox="0 0 98.8 99.3" style="enable-background:new 0 0 98.8 99.3;" xml:space="preserve">
<style type="text/css">
	.st0{fill:#2A1659;}
	.st1{fill:none;}
	.st2{fill:#9EB3E5;}
	.st3{fill:#6536FF;}
</style>
<g>
	<g>
		<g>
			<path class="st0" d="M54.4,76.4H56L45.5,62l-1,0.9L54.4,76.4z"/>
			<path class="st0" d="M21.5,28.5h-1.8l18.4,25.4c0.3-0.4,0.5-0.8,0.8-1.2L21.5,28.5z"/>
			<path class="st0" d="M24.9,28.5h-1.8l16.6,23l0.8-1.1L24.9,28.5z"/>
			<path class="st0" d="M57.8,76.4h1.6L47.6,60l-1,0.9L57.8,76.4z"/>
			<path class="st0" d="M62,76.4h9.8L55.3,53.5c-2.1,1.7-4.2,3.3-6.1,5.1L62,76.4z"/>
			<path class="st0" d="M37.3,28.5h-9.9L42,48.6c1.7-2.2,3.5-4.3,5.3-6.3L37.3,28.5z"/>
		</g>
		<path class="st0" d="M94.7,33.4c2.1,5.4,3.2,11.1,3.3,16.9c0.1,11.9-4.2,23.3-11.9,32.3c-12,13.9-30.9,19.9-48.7,15.3
			c-5.9-1.5-11.4-4-16.3-7.5C6,79.6-2,61.4,0.4,43.1c1.6-12,7.4-23,16.5-31c4.5-3.9,9.6-7,15.2-9.1c5.6-2.1,11.4-3.1,17.4-3
			C61.2,0.1,72.5,4.7,81,12.9C72.1,5.7,60.9,2,49.5,2.5C43.9,2.6,38.4,3.8,33.3,6c-5.1,2.2-9.8,5.2-13.8,9c-4,3.8-7.3,8.2-9.8,13
			C2.2,43,3.3,60.8,12.7,74.7c3,4.5,6.8,8.5,11.2,11.7c4.4,3.2,9.4,5.5,14.7,6.9c10.7,2.9,22,1.8,31.9-3.1c10-5,17.9-13.4,22.3-23.7
			c2.2-5.2,3.5-10.7,3.9-16.3C97,44.5,96.3,38.8,94.7,33.4z"/>
		<g>
			<path class="st1" d="M29.9,75.4c0.8-1.3,1.5-2.6,2.1-3.7C31.3,73,30.6,74.2,29.9,75.4z"/>
			<path class="st2" d="M94.7,12.5L94.7,12.5l-0.1-0.1C94.6,12.4,94.6,12.4,94.7,12.5z"/>
			<path class="st3" d="M35.7,66.4c-2.1,2.9-4,5.9-5.8,9c0.7-1.3,1.4-2.5,2.1-3.7l0,0c1.6-2.6,3.3-5.2,5.1-7.8l0,0
				c15.2-21.4,37.7-38.1,59.4-46l-1.8-5.4c-0.1-0.1-0.1-0.1-0.2-0.1C64,23.5,35.9,51.9,26,83.6c0.5-1.2,1-2.3,1.5-3.5
				C41.7,57,68.8,38.1,94.1,29.8l-0.8-5.2C71.1,31.6,49.7,47,35.7,66.4z"/>
		</g>
	</g>
</g>
</svg>
