<?xml version="1.0" encoding="utf-8"?>
<!-- Generator: Adobe Illustrator 23.0.1, SVG Export Plug-In . SVG Version: 6.00 Build 0)  -->
<svg version="1.1" id="Layer_1" xmlns="http://www.w3.org/2000/svg" xmlns:xlink="http://www.w3.org/1999/xlink" x="0px" y="0px"
	 viewBox="0 0 400 400" style="enable-background:new 0 0 400 400;" xml:space="preserve">
<style type="text/css">
	.st0{fill-rule:evenodd;clip-rule:evenodd;fill:#2B175C;}
	.st1{fill:#DAD8FF;}
	.st2{fill-rule:evenodd;clip-rule:evenodd;fill:#D1C5FF;}
	.st3{fill-rule:evenodd;clip-rule:evenodd;fill:url(#SVGID_1_);}
</style>
<path class="st0" d="M196,320.8v-90.6H206v90.6H196z"/>
<path class="st0" d="M286.6,287.6h-42.3c-2.8,0-5-2.3-5-5v-52.3h10.1v47.3h37.2V287.6z"/>
<path class="st0" d="M115.4,287.6h42.3c2.8,0,5-2.3,5-5v-52.3h-10.1v47.3h-37.2V287.6z"/>
<path class="st1" d="M220.1,329.9c0,10.6-8.6,19.1-19.1,19.1c-10.6,0-19.1-8.6-19.1-19.1c0-10.6,8.6-19.1,19.1-19.1
	C211.6,310.7,220.1,319.3,220.1,329.9z"/>
<path class="st1" d="M320.8,283.6c0,10.6-8.6,19.1-19.1,19.1c-10.6,0-19.1-8.6-19.1-19.1c0-10.6,8.6-19.1,19.1-19.1
	C312.2,264.4,320.8,273,320.8,283.6z"/>
<path class="st1" d="M81.2,283.6c0,10.6,8.6,19.1,19.1,19.1c10.6,0,19.1-8.6,19.1-19.1c0-10.6-8.6-19.1-19.1-19.1
	C89.8,264.4,81.2,273,81.2,283.6z"/>
<path class="st2" d="M91.9,169.8c-1.7-7.1-2.7-14.5-2.7-22.1c0-53.4,45.1-96.6,100.7-96.6c54.4,0,98.6,41.3,100.6,93.1
	c2.3-0.3,4.7-0.5,7.1-0.5c29.5,0,53.4,23,53.4,51.3c0,28.4-23.9,51.3-53.4,51.3c-0.1,0-0.2,0-0.4,0c-0.1,0-0.1,0-0.2,0
	c-0.2,0-0.3,0-0.5,0H87.3c-21.1,0-38.3-17.1-38.3-38.3c0-21.1,17.1-38.3,38.3-38.3H91.9z"/>
<linearGradient id="SVGID_1_" gradientUnits="userSpaceOnUse" x1="53.8795" y1="268.4515" x2="452.4153" y2="190.9123" gradientTransform="matrix(1 0 0 -1 0 400)">
	<stop  offset="0" style="stop-color:#584DCB"/>
	<stop  offset="1" style="stop-color:#6C8CFE"/>
</linearGradient>
<path class="st3" d="M91.9,169.8c-1.7-7.1-2.7-14.5-2.7-22.1c0-53.4,45.1-96.6,100.7-96.6c54.4,0,98.6,41.3,100.6,93.1
	c2.3-0.3,4.7-0.5,7.1-0.5c29.5,0,53.4,23,53.4,51.3c0,28.4-23.9,51.3-53.4,51.3c-0.1,0-0.2,0-0.4,0c-0.1,0-0.1,0-0.2,0
	c-0.2,0-0.3,0-0.5,0H87.3c-21.1,0-38.3-17.1-38.3-38.3c0-21.1,17.1-38.3,38.3-38.3H91.9z"/>
</svg>
