<?xml version="1.0" encoding="utf-8"?>
<!-- Generator: Adobe Illustrator 23.0.1, SVG Export Plug-In . SVG Version: 6.00 Build 0)  -->
<svg version="1.1" id="Layer_1" xmlns="http://www.w3.org/2000/svg" xmlns:xlink="http://www.w3.org/1999/xlink" x="0px" y="0px"
	 viewBox="0 0 400 400" style="enable-background:new 0 0 400 400;" xml:space="preserve">
<style type="text/css">
	.st0{fill-rule:evenodd;clip-rule:evenodd;fill:#6E62C4;}
	.st1{fill-rule:evenodd;clip-rule:evenodd;fill:url(#SVGID_1_);}
	.st2{fill-rule:evenodd;clip-rule:evenodd;fill:#DAD8FF;}
	.st3{fill-rule:evenodd;clip-rule:evenodd;fill:#2B175C;}
</style>
<path class="st0" d="M75,125.8c-6.2,0-11.2,5-11.2,11.2v22.4c0,1.3,0.2,2.6,0.6,3.7c-0.4,1.2-0.6,2.4-0.6,3.7v132.5
	c0,6.2,5,11.2,11.2,11.2h205.3c6.2,0,11.2-5,11.2-11.2V166.9c0-6.2-5-11.2-11.2-11.2H145.2c-0.2-0.5-0.4-1.1-0.7-1.6l-12.1-22.4
	c-2-3.6-5.7-5.9-9.8-5.9H75z"/>
<linearGradient id="SVGID_1_" gradientUnits="userSpaceOnUse" x1="65.7996" y1="186.912" x2="370.3796" y2="139.688" gradientTransform="matrix(1 0 0 -1 0 400)">
	<stop  offset="0" style="stop-color:#584DCB"/>
	<stop  offset="1" style="stop-color:#6C8CFE"/>
</linearGradient>
<path class="st1" d="M75,125.8c-6.2,0-11.2,5-11.2,11.2v22.4c0,1.3,0.2,2.6,0.6,3.7c-0.4,1.2-0.6,2.4-0.6,3.7v132.5
	c0,6.2,5,11.2,11.2,11.2h205.3c6.2,0,11.2-5,11.2-11.2V166.9c0-6.2-5-11.2-11.2-11.2H145.2c-0.2-0.5-0.4-1.1-0.7-1.6l-12.1-22.4
	c-2-3.6-5.7-5.9-9.8-5.9H75z"/>
<path class="st2" d="M129.6,242.1c-0.8-3.2-1.2-6.5-1.2-9.9c0-23.8,20.1-43,44.8-43c24.2,0,43.9,18.4,44.8,41.4
	c1-0.1,2.1-0.2,3.2-0.2c13.1,0,23.7,10.2,23.7,22.8c0,12.6-10.6,22.8-23.7,22.8c-0.1,0-0.2,0-0.2,0c-0.1,0-0.1,0-0.2,0h-93.2
	c-9.4,0-17-7.6-17-17c0-9.4,7.6-17,17-17H129.6z"/>
<path class="st3" d="M311.8,139c-4.5-4.6-11.9-7.1-20.8-4.4c-2.5,0.7-5.1-0.7-5.8-3.2c-0.7-2.5,0.7-5.1,3.2-5.8
	c12-3.5,23-0.4,30.1,6.9c7.1,7.3,9.8,18.3,6.4,29.7c-0.8,2.5-3.4,3.8-5.8,3.1c-2.5-0.8-3.8-3.4-3.1-5.8
	C318.5,151.1,316.4,143.7,311.8,139z"/>
<path class="st3" d="M348.1,161.8c10.3-36.8-20.4-69.8-59.5-59.4c-2.5,0.7-5-0.8-5.7-3.3c-0.7-2.5,0.8-5,3.3-5.7
	c46.3-12.3,83.1,27.3,70.9,71c-0.7,2.5-3.3,3.9-5.8,3.2S347.4,164.3,348.1,161.8z"/>
</svg>
