<?xml version="1.0" encoding="utf-8"?>
<!-- Generator: Adobe Illustrator 23.0.1, SVG Export Plug-In . SVG Version: 6.00 Build 0)  -->
<svg version="1.1" id="Layer_1" xmlns="http://www.w3.org/2000/svg" xmlns:xlink="http://www.w3.org/1999/xlink" x="0px" y="0px"
	 viewBox="0 0 400 400" style="enable-background:new 0 0 400 400;" xml:space="preserve">
<style type="text/css">
	.st0{fill:#DAD8FF;}
	.st1{fill-rule:evenodd;clip-rule:evenodd;fill:#6E62C4;}
	.st2{fill-rule:evenodd;clip-rule:evenodd;fill:url(#SVGID_1_);}
	.st3{fill-rule:evenodd;clip-rule:evenodd;fill:url(#SVGID_2_);}
	.st4{fill-rule:evenodd;clip-rule:evenodd;fill:#2B175C;}
</style>
<path class="st0" d="M191.9,235c3.4-5.8,11.8-5.8,15.1,0l33.4,57.8c3.4,5.8-0.8,13.1-7.6,13.1h-66.7c-6.7,0-10.9-7.3-7.6-13.1
	L191.9,235z"/>
<path class="st0" d="M50.8,236.9c-0.7-4.4,2.3-8.5,6.7-9.1l281.7-43.6c4.4-0.7,8.5,2.3,9.1,6.7l0,0c0.7,4.4-2.3,8.5-6.7,9.1
	L59.9,243.6C55.5,244.2,51.4,241.3,50.8,236.9L50.8,236.9z"/>
<path class="st1" d="M57.7,128.8c-4.8,0-8.7,3.9-8.7,8.7v10.2c0,0.1,0,0.3,0,0.4c0,0.1,0,0.3,0,0.4v39.9c0,4.8,3.9,8.7,8.7,8.7h66.9
	c4.8,0,8.7-3.9,8.7-8.7v-39.9c0-4.8-3.9-8.7-8.7-8.7H77l-1.7-5.1c-1.2-3.6-4.5-6-8.3-6H57.7z"/>
<linearGradient id="SVGID_1_" gradientUnits="userSpaceOnUse" x1="49.737" y1="238.9368" x2="162.536" y2="221.4478" gradientTransform="matrix(1 0 0 -1 0 400)">
	<stop  offset="0" style="stop-color:#584DCB"/>
	<stop  offset="1" style="stop-color:#6C8CFE"/>
</linearGradient>
<path class="st2" d="M57.7,128.8c-4.8,0-8.7,3.9-8.7,8.7v10.2c0,0.1,0,0.3,0,0.4c0,0.1,0,0.3,0,0.4v39.9c0,4.8,3.9,8.7,8.7,8.7h66.9
	c4.8,0,8.7-3.9,8.7-8.7v-39.9c0-4.8-3.9-8.7-8.7-8.7H77l-1.7-5.1c-1.2-3.6-4.5-6-8.3-6H57.7z"/>
<path class="st1" d="M274.4,93.9c-4.8,0-8.7,3.9-8.7,8.7v10.2c0,0.1,0,0.3,0,0.4c0,0.1,0,0.3,0,0.4v39.9c0,4.8,3.9,8.7,8.7,8.7h66.9
	c4.8,0,8.7-3.9,8.7-8.7v-39.9c0-4.8-3.9-8.7-8.7-8.7h-47.6l-1.7-5.1c-1.2-3.6-4.5-6-8.3-6H274.4z"/>
<linearGradient id="SVGID_2_" gradientUnits="userSpaceOnUse" x1="266.3993" y1="273.8357" x2="379.1983" y2="256.3472" gradientTransform="matrix(1 0 0 -1 0 400)">
	<stop  offset="0" style="stop-color:#584DCB"/>
	<stop  offset="1" style="stop-color:#6C8CFE"/>
</linearGradient>
<path class="st3" d="M274.4,93.9c-4.8,0-8.7,3.9-8.7,8.7v10.2c0,0.1,0,0.3,0,0.4c0,0.1,0,0.3,0,0.4v39.9c0,4.8,3.9,8.7,8.7,8.7h66.9
	c4.8,0,8.7-3.9,8.7-8.7v-39.9c0-4.8-3.9-8.7-8.7-8.7h-47.6l-1.7-5.1c-1.2-3.6-4.5-6-8.3-6H274.4z"/>
<path class="st4" d="M200,155.5c-5-0.1-10.4,2.7-13.9,9c-1,1.8-3.2,2.4-4.9,1.4c-1.8-1-2.4-3.2-1.4-4.9c4.7-8.5,12.4-12.9,20.4-12.8
	c7.9,0.1,15.5,4.7,19.8,12.8c0.9,1.8,0.3,4-1.5,4.9c-1.8,0.9-4,0.3-4.9-1.5C210.3,158.4,205.1,155.5,200,155.5z"/>
<path class="st4" d="M232.5,148c-14.6-26-49.7-27.2-65.5,0c-1,1.7-3.2,2.3-5,1.3c-1.7-1-2.3-3.2-1.3-5c18.7-32.2,60.8-30.7,78.1,0
	c1,1.8,0.4,4-1.4,5C235.7,150.4,233.5,149.8,232.5,148z"/>
</svg>
