<svg width="400" height="400" viewBox="0 0 400 400" fill="none" xmlns="http://www.w3.org/2000/svg">
<rect width="400" height="400" fill="white"/>
<path fill-rule="evenodd" clip-rule="evenodd" d="M195.973 320.8L195.973 230.2L206.04 230.2L206.04 320.8L195.973 320.8Z" fill="#2B175C"/>
<path fill-rule="evenodd" clip-rule="evenodd" d="M286.573 287.58L244.293 287.58C241.514 287.58 239.26 285.326 239.26 282.547L239.26 230.2L249.327 230.2L249.327 277.513L286.573 277.513L286.573 287.58Z" fill="#2B175C"/>
<path fill-rule="evenodd" clip-rule="evenodd" d="M115.44 287.58L157.72 287.58C160.5 287.58 162.753 285.326 162.753 282.547L162.753 230.2L152.687 230.2L152.687 277.513L115.44 277.513L115.44 287.58Z" fill="#2B175C"/>
<path d="M220.133 329.86C220.133 340.423 211.57 348.987 201.007 348.987C190.443 348.987 181.88 340.423 181.88 329.86C181.88 319.297 190.443 310.733 201.007 310.733C211.57 310.733 220.133 319.297 220.133 329.86Z" fill="#DAD8FF"/>
<path d="M320.8 283.553C320.8 294.117 312.237 302.68 301.673 302.68C291.11 302.68 282.547 294.117 282.547 283.553C282.547 272.99 291.11 264.427 301.673 264.427C312.237 264.427 320.8 272.99 320.8 283.553Z" fill="#DAD8FF"/>
<path d="M81.2133 283.553C81.2133 294.117 89.7766 302.68 100.34 302.68C110.903 302.68 119.467 294.117 119.467 283.553C119.467 272.99 110.903 264.427 100.34 264.427C89.7766 264.427 81.2133 272.99 81.2133 283.553Z" fill="#DAD8FF"/>
<path fill-rule="evenodd" clip-rule="evenodd" d="M91.9224 169.8C90.1854 162.688 89.2667 155.274 89.2667 147.653C89.2667 94.2805 134.337 51.0133 189.933 51.0133C244.284 51.0133 288.574 92.3622 290.532 144.079C292.86 143.781 295.235 143.627 297.647 143.627C327.113 143.627 351 166.612 351 194.967C351 223.321 327.113 246.307 297.647 246.307C297.529 246.307 297.411 246.306 297.293 246.306C297.228 246.305 297.162 246.305 297.097 246.304C296.945 246.306 296.792 246.307 296.64 246.307H87.2533C66.1266 246.307 49 229.18 49 208.053C49 186.927 66.1266 169.8 87.2533 169.8H91.9224Z" fill="#D1C5FF"/>
<path fill-rule="evenodd" clip-rule="evenodd" d="M91.9224 169.8C90.1854 162.688 89.2667 155.274 89.2667 147.653C89.2667 94.2805 134.337 51.0133 189.933 51.0133C244.284 51.0133 288.574 92.3622 290.532 144.079C292.86 143.781 295.235 143.627 297.647 143.627C327.113 143.627 351 166.612 351 194.967C351 223.321 327.113 246.307 297.647 246.307C297.529 246.307 297.411 246.306 297.293 246.306C297.228 246.305 297.162 246.305 297.097 246.304C296.945 246.306 296.792 246.307 296.64 246.307H87.2533C66.1266 246.307 49 229.18 49 208.053C49 186.927 66.1266 169.8 87.2533 169.8H91.9224Z" fill="url(#paint0_linear)"/>
<defs>
<linearGradient id="paint0_linear" x1="73.3962" y1="31.2368" x2="471.932" y2="108.776" gradientUnits="userSpaceOnUse">
<stop stop-color="#584DCB"/>
<stop offset="1" stop-color="#6C8CFE"/>
</linearGradient>
</defs>
</svg>
