<svg width="400" height="400" viewBox="0 0 400 400" fill="none" xmlns="http://www.w3.org/2000/svg">
<rect width="400" height="400" fill="white"/>
<path fill-rule="evenodd" clip-rule="evenodd" d="M305.222 204.829L111.251 106.273C110.068 105.672 108.633 106.312 108.29 107.593L58.3201 294.082C58.0218 295.195 58.6825 296.34 59.7958 296.638L265.412 351.733C266.525 352.031 267.67 351.37 267.968 350.257L306.292 207.23C306.547 206.277 306.101 205.276 305.222 204.829ZM115.978 96.9698C108.883 93.3651 100.27 97.2058 98.2104 104.892L48.2409 291.381C46.451 298.061 50.4152 304.927 57.0951 306.717L262.711 361.812C269.391 363.602 276.257 359.638 278.047 352.958L316.371 209.93C317.903 204.214 315.224 198.207 309.948 195.526L115.978 96.9698Z" fill="#D1C5FF"/>
<path fill-rule="evenodd" clip-rule="evenodd" d="M305.222 204.829L111.251 106.273C110.068 105.672 108.633 106.312 108.29 107.593L58.3201 294.082C58.0218 295.195 58.6825 296.34 59.7958 296.638L265.412 351.733C266.525 352.031 267.67 351.37 267.968 350.257L306.292 207.23C306.547 206.277 306.101 205.276 305.222 204.829ZM115.978 96.9698C108.883 93.3651 100.27 97.2058 98.2104 104.892L48.2409 291.381C46.451 298.061 50.4152 304.927 57.0951 306.717L262.711 361.812C269.391 363.602 276.257 359.638 278.047 352.958L316.371 209.93C317.903 204.214 315.224 198.207 309.948 195.526L115.978 96.9698Z" fill="url(#paint0_linear)"/>
<path d="M95.0869 73.2778C95.0869 66.3623 100.693 60.7561 107.609 60.7561H320.478C327.394 60.7561 333 66.3623 333 73.2778V286.148C333 293.063 327.394 298.669 320.478 298.669H107.609C100.693 298.669 95.0869 293.063 95.0869 286.148V73.2778Z" fill="#6E62C4"/>
<path d="M95.0869 73.2778C95.0869 66.3623 100.693 60.7561 107.609 60.7561H320.478C327.394 60.7561 333 66.3623 333 73.2778V286.148C333 293.063 327.394 298.669 320.478 298.669H107.609C100.693 298.669 95.0869 293.063 95.0869 286.148V73.2778Z" fill="url(#paint1_linear)"/>
<mask id="mask0" mask-type="alpha" maskUnits="userSpaceOnUse" x="95" y="60" width="238" height="239">
<path d="M95.0869 73.2778C95.0869 66.3623 100.693 60.7561 107.609 60.7561H320.478C327.394 60.7561 333 66.3623 333 73.2778V286.148C333 293.063 327.394 298.669 320.478 298.669H107.609C100.693 298.669 95.0869 293.063 95.0869 286.148V73.2778Z" fill="#6E62C4"/>
</mask>
<g mask="url(#mask0)">
<path d="M5.85409 329.666C0.964048 324.776 0.964043 316.848 5.85409 311.958L156.376 161.436C161.266 156.546 169.194 156.546 174.084 161.436L316.273 303.625C321.163 308.515 321.163 316.444 316.273 321.334L165.751 471.855C160.861 476.745 152.933 476.745 148.043 471.855L5.85409 329.666Z" fill="#DAD8FF"/>
<path d="M124.811 356.797C119.921 351.907 119.921 343.978 124.811 339.088L275.332 188.567C280.222 183.677 288.151 183.677 293.041 188.567L435.229 330.756C440.12 335.646 440.12 343.574 435.229 348.464L284.708 498.986C279.818 503.876 271.89 503.876 266.999 498.986L124.811 356.797Z" fill="#DAD8FF"/>
</g>
<path d="M294.266 128.04C294.266 142.147 282.381 153.584 267.72 153.584C253.059 153.584 241.174 142.147 241.174 128.04C241.174 113.932 253.059 102.495 267.72 102.495C282.381 102.495 294.266 113.932 294.266 128.04Z" fill="white"/>
<defs>
<linearGradient id="paint0_linear" x1="125.733" y1="76.432" x2="423.3" y2="201.604" gradientUnits="userSpaceOnUse">
<stop stop-color="#584DCB"/>
<stop offset="1" stop-color="#6C8CFE"/>
</linearGradient>
<linearGradient id="paint1_linear" x1="114.306" y1="36.6637" x2="435.076" y2="77.0216" gradientUnits="userSpaceOnUse">
<stop stop-color="#584DCB"/>
<stop offset="1" stop-color="#6C8CFE"/>
</linearGradient>
</defs>
</svg>
