<svg width="400" height="400" viewBox="0 0 400 400" fill="none" xmlns="http://www.w3.org/2000/svg">
<rect width="400" height="400" fill="white"/>
<path d="M334.788 200C334.788 275.604 273.498 336.894 197.894 336.894C122.289 336.894 61 275.604 61 200C61 124.396 122.289 63.1061 197.894 63.1061C273.498 63.1061 334.788 124.396 334.788 200Z" fill="#D1C5FF"/>
<path d="M334.788 200C334.788 275.604 273.498 336.894 197.894 336.894C122.289 336.894 61 275.604 61 200C61 124.396 122.289 63.1061 197.894 63.1061C273.498 63.1061 334.788 124.396 334.788 200Z" fill="url(#paint0_linear)"/>
<mask id="mask0" mask-type="alpha" maskUnits="userSpaceOnUse" x="61" y="63" width="274" height="274">
<path d="M334.788 200C334.788 275.604 273.498 336.894 197.894 336.894C122.289 336.894 61 275.604 61 200C61 124.396 122.289 63.1061 197.894 63.1061C273.498 63.1061 334.788 124.396 334.788 200Z" fill="#E5E5E5"/>
</mask>
<g mask="url(#mask0)">
<path fill-rule="evenodd" clip-rule="evenodd" d="M197.894 336.894L197.894 63.1061L208.424 63.1061L208.424 336.894L197.894 336.894Z" fill="white"/>
<path fill-rule="evenodd" clip-rule="evenodd" d="M103.143 197.236C104.102 135.271 137.385 73.3515 202.835 50.7013L205.59 58.6623C144.214 79.9026 112.483 138.109 111.566 197.366C110.649 256.621 140.56 315.91 201.417 339.28L198.397 347.144C133.533 322.235 102.183 259.203 103.143 197.236Z" fill="white"/>
<path fill-rule="evenodd" clip-rule="evenodd" d="M294.721 200.918C296.153 137.337 267.755 72.3363 203.45 50.6898L200.762 58.6738C260.3 78.7154 287.682 139.286 286.299 200.728C284.913 262.272 254.71 322.416 201.712 341.352L204.546 349.285C262.086 328.726 293.292 264.396 294.721 200.918Z" fill="white"/>
</g>
<path fill-rule="evenodd" clip-rule="evenodd" d="M61 200L334.788 200L334.788 210.53L61 210.53L61 200Z" fill="white"/>
<path d="M225.273 205.265C225.273 217.478 215.372 227.379 203.159 227.379C190.946 227.379 181.045 217.478 181.045 205.265C181.045 193.052 190.946 183.151 203.159 183.151C215.372 183.151 225.273 193.052 225.273 205.265Z" fill="#DAD8FF"/>
<path d="M136.818 137.871C136.818 147.758 128.803 155.773 118.917 155.773C109.03 155.773 101.015 147.758 101.015 137.871C101.015 127.985 109.03 119.97 118.917 119.97C128.803 119.97 136.818 127.985 136.818 137.871Z" fill="#DAD8FF"/>
<path d="M306.803 164.902C306.803 174.788 298.788 182.803 288.902 182.803C279.015 182.803 271 174.788 271 164.902C271 155.015 279.015 147 288.902 147C298.788 147 306.803 155.015 306.803 164.902Z" fill="#DAD8FF"/>
<path d="M141.803 272.902C141.803 282.788 133.788 290.803 123.902 290.803C114.015 290.803 106 282.788 106 272.902C106 263.015 114.015 255 123.902 255C133.788 255 141.803 263.015 141.803 272.902Z" fill="#DAD8FF"/>
<defs>
<linearGradient id="paint0_linear" x1="83.1172" y1="35.3808" x2="452.256" y2="81.8243" gradientUnits="userSpaceOnUse">
<stop stop-color="#584DCB"/>
<stop offset="1" stop-color="#6C8CFE"/>
</linearGradient>
</defs>
</svg>
