<?xml version="1.0" encoding="utf-8"?>
<!-- Generator: Adobe Illustrator 23.0.1, SVG Export Plug-In . SVG Version: 6.00 Build 0)  -->
<svg version="1.1" id="Layer_1" xmlns="http://www.w3.org/2000/svg" xmlns:xlink="http://www.w3.org/1999/xlink" x="0px" y="0px"
	 viewBox="0 0 400 400" style="enable-background:new 0 0 400 400;" xml:space="preserve">
<style type="text/css">
	.st0{fill-rule:evenodd;clip-rule:evenodd;fill:#D1C5FF;}
	.st1{fill-rule:evenodd;clip-rule:evenodd;fill:url(#SVGID_1_);}
	.st2{fill-rule:evenodd;clip-rule:evenodd;fill:#DAD8FF;}
</style>
<path class="st0" d="M86.2,222.1c-1.8-7.5-2.8-15.3-2.8-23.3c0-56.2,47.5-101.8,106-101.8c57.2,0,103.9,43.5,105.9,98
	c2.4-0.3,5-0.5,7.5-0.5c31,0,56.2,24.2,56.2,54.1s-25.2,54.1-56.2,54.1c-0.1,0-0.2,0-0.4,0c-0.1,0-0.1,0-0.2,0c-0.2,0-0.3,0-0.5,0
	H81.3c-22.2,0-40.3-18-40.3-40.3s18-40.3,40.3-40.3H86.2z"/>
<linearGradient id="SVGID_1_" gradientUnits="userSpaceOnUse" x1="46.1382" y1="218.1982" x2="465.7884" y2="136.551" gradientTransform="matrix(1 0 0 -1 0 400)">
	<stop  offset="0" style="stop-color:#584DCB"/>
	<stop  offset="1" style="stop-color:#6C8CFE"/>
</linearGradient>
<path class="st1" d="M86.2,222.1c-1.8-7.5-2.8-15.3-2.8-23.3c0-56.2,47.5-101.8,106-101.8c57.2,0,103.9,43.5,105.9,98
	c2.4-0.3,5-0.5,7.5-0.5c31,0,56.2,24.2,56.2,54.1s-25.2,54.1-56.2,54.1c-0.1,0-0.2,0-0.4,0c-0.1,0-0.1,0-0.2,0c-0.2,0-0.3,0-0.5,0
	H81.3c-22.2,0-40.3-18-40.3-40.3s18-40.3,40.3-40.3H86.2z"/>
<path class="st2" d="M239.2,310.9c25.8,0,46.6-20.9,46.6-46.6s-20.9-46.6-46.6-46.6s-46.6,20.9-46.6,46.6S213.5,310.9,239.2,310.9z
	 M239.2,321.5c31.6,0,57.2-25.6,57.2-57.2S270.9,207,239.2,207S182,232.6,182,264.2S207.6,321.5,239.2,321.5z"/>
<path class="st2" d="M199.5,296.5l72.1-72.1l7.5,7.5L206.9,304L199.5,296.5z"/>
<path class="st2" d="M279,296.5l-72.1-72.1l-7.5,7.5l72.1,72.1L279,296.5z"/>
</svg>
