<?xml version="1.0" encoding="utf-8"?>
<!-- Generator: Adobe Illustrator 23.0.1, SVG Export Plug-In . SVG Version: 6.00 Build 0)  -->
<svg version="1.1" id="Layer_1" xmlns="http://www.w3.org/2000/svg" xmlns:xlink="http://www.w3.org/1999/xlink" x="0px" y="0px"
	 viewBox="0 0 400 400" style="enable-background:new 0 0 400 400;" xml:space="preserve">
<style type="text/css">
	.st0{fill-rule:evenodd;clip-rule:evenodd;fill:#D1C5FF;}
	.st1{fill-rule:evenodd;clip-rule:evenodd;fill:url(#SVGID_1_);}
	.st2{fill:#6E62C4;}
	.st3{fill:url(#SVGID_2_);}
	.st4{fill:#6E62C4;filter:url(#Adobe_OpacityMaskFilter);}
	.st5{mask:url(#mask0_1_);}
	.st6{fill:#DAD8FF;}
	.st7{fill:#FFFFFF;}
</style>
<path class="st0" d="M305.2,204.8l-194-98.6c-1.2-0.6-2.6,0-3,1.3l-50,186.5c-0.3,1.1,0.4,2.3,1.5,2.6l205.6,55.1
	c1.1,0.3,2.3-0.4,2.6-1.5l38.3-143C306.5,206.3,306.1,205.3,305.2,204.8z M116,97c-7.1-3.6-15.7,0.2-17.8,7.9l-50,186.5
	c-1.8,6.7,2.2,13.5,8.9,15.3l205.6,55.1c6.7,1.8,13.5-2.2,15.3-8.9l38.3-143c1.5-5.7-1.1-11.7-6.4-14.4L116,97z"/>
<linearGradient id="SVGID_1_" gradientUnits="userSpaceOnUse" x1="75.0005" y1="202.9634" x2="372.5675" y2="77.7914" gradientTransform="matrix(1 0 0 -1 0 400)">
	<stop  offset="0" style="stop-color:#584DCB"/>
	<stop  offset="1" style="stop-color:#6C8CFE"/>
</linearGradient>
<path class="st1" d="M305.2,204.8l-194-98.6c-1.2-0.6-2.6,0-3,1.3l-50,186.5c-0.3,1.1,0.4,2.3,1.5,2.6l205.6,55.1
	c1.1,0.3,2.3-0.4,2.6-1.5l38.3-143C306.5,206.3,306.1,205.3,305.2,204.8z M116,97c-7.1-3.6-15.7,0.2-17.8,7.9l-50,186.5
	c-1.8,6.7,2.2,13.5,8.9,15.3l205.6,55.1c6.7,1.8,13.5-2.2,15.3-8.9l38.3-143c1.5-5.7-1.1-11.7-6.4-14.4L116,97z"/>
<path class="st2" d="M95.1,73.3c0-6.9,5.6-12.5,12.5-12.5h212.9c6.9,0,12.5,5.6,12.5,12.5v212.9c0,6.9-5.6,12.5-12.5,12.5H107.6
	c-6.9,0-12.5-5.6-12.5-12.5V73.3z"/>
<linearGradient id="SVGID_2_" gradientUnits="userSpaceOnUse" x1="98.1429" y1="234.8696" x2="418.9128" y2="194.5117" gradientTransform="matrix(1 0 0 -1 0 400)">
	<stop  offset="0" style="stop-color:#584DCB"/>
	<stop  offset="1" style="stop-color:#6C8CFE"/>
</linearGradient>
<path class="st3" d="M95.1,73.3c0-6.9,5.6-12.5,12.5-12.5h212.9c6.9,0,12.5,5.6,12.5,12.5v212.9c0,6.9-5.6,12.5-12.5,12.5H107.6
	c-6.9,0-12.5-5.6-12.5-12.5V73.3z"/>
<defs>
	<filter id="Adobe_OpacityMaskFilter" filterUnits="userSpaceOnUse" x="2.2" y="157.8" width="436.7" height="344.9">
		<feColorMatrix  type="matrix" values="1 0 0 0 0  0 1 0 0 0  0 0 1 0 0  0 0 0 1 0"/>
	</filter>
</defs>
<mask maskUnits="userSpaceOnUse" x="2.2" y="157.8" width="436.7" height="344.9" id="mask0_1_">
	<path class="st4" d="M95.1,73.3c0-6.9,5.6-12.5,12.5-12.5h212.9c6.9,0,12.5,5.6,12.5,12.5v212.9c0,6.9-5.6,12.5-12.5,12.5H107.6
		c-6.9,0-12.5-5.6-12.5-12.5V73.3z"/>
</mask>
<g class="st5">
	<path class="st6" d="M5.9,329.7C1,324.8,1,316.8,5.9,312l150.5-150.5c4.9-4.9,12.8-4.9,17.7,0l142.2,142.2c4.9,4.9,4.9,12.8,0,17.7
		L165.8,471.9c-4.9,4.9-12.8,4.9-17.7,0L5.9,329.7z"/>
	<path class="st6" d="M124.8,356.8c-4.9-4.9-4.9-12.8,0-17.7l150.5-150.5c4.9-4.9,12.8-4.9,17.7,0l142.2,142.2
		c4.9,4.9,4.9,12.8,0,17.7L284.7,499c-4.9,4.9-12.8,4.9-17.7,0L124.8,356.8z"/>
</g>
<path class="st7" d="M294.3,128c0,14.1-11.9,25.5-26.5,25.5c-14.7,0-26.5-11.4-26.5-25.5c0-14.1,11.9-25.5,26.5-25.5
	C282.4,102.5,294.3,113.9,294.3,128z"/>
</svg>
