<?xml version="1.0" encoding="utf-8"?>
<!-- Generator: Adobe Illustrator 23.0.1, SVG Export Plug-In . SVG Version: 6.00 Build 0)  -->
<svg version="1.1" id="Layer_1" xmlns="http://www.w3.org/2000/svg" xmlns:xlink="http://www.w3.org/1999/xlink" x="0px" y="0px"
	 viewBox="0 0 400 400" style="enable-background:new 0 0 400 400;" xml:space="preserve">
<style type="text/css">
	.st0{display:none;fill:#D1C5FF;}
	.st1{fill:url(#SVGID_1_);}
	.st2{fill:url(#SVGID_2_);}
	.st3{fill:url(#SVGID_3_);}
	.st4{fill:url(#SVGID_4_);}
	.st5{fill:url(#SVGID_5_);}
	.st6{fill:url(#SVGID_6_);}
	.st7{fill:url(#SVGID_7_);}
	.st8{fill:url(#SVGID_8_);}
	.st9{fill:#DAD8FF;}
</style>
<path class="st0" d="M334.8,200c0,75.6-61.3,136.9-136.9,136.9C122.3,336.9,61,275.6,61,200S122.3,63.1,197.9,63.1
	C273.5,63.1,334.8,124.4,334.8,200z"/>
<g>
	<linearGradient id="SVGID_1_" gradientUnits="userSpaceOnUse" x1="105.3336" y1="142.9937" x2="243.8388" y2="125.5676">
		<stop  offset="0" style="stop-color:#584DCB"/>
		<stop  offset="1" style="stop-color:#6C8CFE"/>
	</linearGradient>
	<path class="st1" d="M197.9,63.1c-1.2,0-2.4,0-3.6,0c-53.9,24.2-81.8,78.7-82.7,134.2c0,0.9,0,1.8,0,2.6h86.3V63.1z"/>
	<linearGradient id="SVGID_2_" gradientUnits="userSpaceOnUse" x1="120.8199" y1="277.9989" x2="236.3126" y2="263.4681">
		<stop  offset="0" style="stop-color:#584DCB"/>
		<stop  offset="1" style="stop-color:#6C8CFE"/>
	</linearGradient>
	<path class="st2" d="M111.9,210.5c3.3,52.7,31.1,103.4,83.6,126.3c0.8,0,1.6,0,2.4,0V210.5H111.9z"/>
	<linearGradient id="SVGID_3_" gradientUnits="userSpaceOnUse" x1="248.4136" y1="139.504" x2="356.2046" y2="125.9422">
		<stop  offset="0" style="stop-color:#584DCB"/>
		<stop  offset="1" style="stop-color:#6C8CFE"/>
	</linearGradient>
	<path class="st3" d="M294.7,200h40.1c0-61.3-40.3-113.2-95.9-130.7C278,99,295.6,149.9,294.7,200z"/>
	<linearGradient id="SVGID_4_" gradientUnits="userSpaceOnUse" x1="201.4643" y1="274.4656" x2="326.1981" y2="258.7721">
		<stop  offset="0" style="stop-color:#584DCB"/>
		<stop  offset="1" style="stop-color:#6C8CFE"/>
	</linearGradient>
	<path class="st4" d="M285.8,210.5h-77.4v126c1.9-0.1,3.9-0.3,5.8-0.6C256.8,314,282,263.6,285.8,210.5z"/>
	<linearGradient id="SVGID_5_" gradientUnits="userSpaceOnUse" x1="70.6583" y1="278.5066" x2="199.8609" y2="262.2509">
		<stop  offset="0" style="stop-color:#584DCB"/>
		<stop  offset="1" style="stop-color:#6C8CFE"/>
	</linearGradient>
	<path class="st5" d="M103.5,210.5H61.4c4.8,62.5,51.5,113.3,112.1,124.2C129.5,307.3,106.4,259.5,103.5,210.5z"/>
	<linearGradient id="SVGID_6_" gradientUnits="userSpaceOnUse" x1="230.8834" y1="275.2534" x2="381.5872" y2="256.2925">
		<stop  offset="0" style="stop-color:#584DCB"/>
		<stop  offset="1" style="stop-color:#6C8CFE"/>
	</linearGradient>
	<path class="st6" d="M294.3,210.5c-3.3,47.1-22.9,93.4-57.4,120.7c53.4-15.8,93.1-63.3,97.5-120.7H294.3z"/>
	<linearGradient id="SVGID_7_" gradientUnits="userSpaceOnUse" x1="201.2904" y1="137.5497" x2="308.1695" y2="124.1026">
		<stop  offset="0" style="stop-color:#584DCB"/>
		<stop  offset="1" style="stop-color:#6C8CFE"/>
	</linearGradient>
	<path class="st7" d="M214.1,64.1c-1.9-0.2-3.7-0.4-5.6-0.6V200h77.9C287.4,143.6,264.2,88,214.1,64.1z"/>
	<linearGradient id="SVGID_8_" gradientUnits="userSpaceOnUse" x1="55.0089" y1="143.1645" x2="226.2939" y2="121.6142">
		<stop  offset="0" style="stop-color:#584DCB"/>
		<stop  offset="1" style="stop-color:#6C8CFE"/>
	</linearGradient>
	<path class="st8" d="M103.1,197.2c0.8-51.4,23.8-102.7,69-131.7C108.8,77.6,61,133.2,61,200h42.1
		C103.1,199.1,103.1,198.2,103.1,197.2z"/>
</g>
<path class="st9" d="M225.3,205.3c0,12.2-9.9,22.1-22.1,22.1s-22.1-9.9-22.1-22.1s9.9-22.1,22.1-22.1S225.3,193.1,225.3,205.3z"/>
<path class="st9" d="M136.8,137.9c0,9.9-8,17.9-17.9,17.9c-9.9,0-17.9-8-17.9-17.9c0-9.9,8-17.9,17.9-17.9
	C128.8,120,136.8,128,136.8,137.9z"/>
<path class="st9" d="M306.8,164.9c0,9.9-8,17.9-17.9,17.9c-9.9,0-17.9-8-17.9-17.9c0-9.9,8-17.9,17.9-17.9
	C298.8,147,306.8,155,306.8,164.9z"/>
<path class="st9" d="M141.8,272.9c0,9.9-8,17.9-17.9,17.9c-9.9,0-17.9-8-17.9-17.9c0-9.9,8-17.9,17.9-17.9
	C133.8,255,141.8,263,141.8,272.9z"/>
</svg>
