<?xml version="1.0" encoding="utf-8"?>
<!-- Generator: Adobe Illustrator 23.0.1, SVG Export Plug-In . SVG Version: 6.00 Build 0)  -->
<svg version="1.1" id="Layer_1" xmlns="http://www.w3.org/2000/svg" xmlns:xlink="http://www.w3.org/1999/xlink" x="0px" y="0px"
	 viewBox="0 0 400 400" style="enable-background:new 0 0 400 400;" xml:space="preserve">
<style type="text/css">
	.st0{fill-rule:evenodd;clip-rule:evenodd;fill:#D1C5FF;}
	.st1{fill-rule:evenodd;clip-rule:evenodd;fill:url(#SVGID_1_);}
	.st2{fill:#DAD8FF;}
	.st3{fill-rule:evenodd;clip-rule:evenodd;fill:#FFFFFF;}
	.st4{fill-rule:evenodd;clip-rule:evenodd;fill:#2B175C;}
	.st5{fill:#FFFFFF;}
	.st6{fill:#6E62C4;}
</style>
<path class="st0" d="M107.7,145c-1.5-6.1-2.3-12.4-2.3-18.9c0-45.6,38.5-82.6,86-82.6c46.4,0,84.3,35.3,85.9,79.5
	c2-0.3,4-0.4,6.1-0.4c25.2,0,45.6,19.6,45.6,43.9s-20.4,43.9-45.6,43.9c-0.1,0-0.2,0-0.3,0c-0.1,0-0.1,0-0.2,0c-0.1,0-0.3,0-0.4,0
	H103.7c-18,0-32.7-14.6-32.7-32.7S85.6,145,103.7,145H107.7z"/>
<linearGradient id="SVGID_1_" gradientUnits="userSpaceOnUse" x1="75.1686" y1="287.7185" x2="415.6399" y2="221.4764" gradientTransform="matrix(1 0 0 -1 0 400)">
	<stop  offset="0" style="stop-color:#584DCB"/>
	<stop  offset="1" style="stop-color:#6C8CFE"/>
</linearGradient>
<path class="st1" d="M107.7,145c-1.5-6.1-2.3-12.4-2.3-18.9c0-45.6,38.5-82.6,86-82.6c46.4,0,84.3,35.3,85.9,79.5
	c2-0.3,4-0.4,6.1-0.4c25.2,0,45.6,19.6,45.6,43.9s-20.4,43.9-45.6,43.9c-0.1,0-0.2,0-0.3,0c-0.1,0-0.1,0-0.2,0c-0.1,0-0.3,0-0.4,0
	H103.7c-18,0-32.7-14.6-32.7-32.7S85.6,145,103.7,145H107.7z"/>
<path class="st2" d="M105.4,203.4c0-5.7,4.6-10.3,10.3-10.3h166.8c5.7,0,10.3,4.6,10.3,10.3v29.2c0,5.7-4.6,10.3-10.3,10.3H115.7
	c-5.7,0-10.3-4.6-10.3-10.3V203.4z"/>
<path class="st2" d="M105.4,260.2c0-5.7,4.6-10.3,10.3-10.3h166.8c5.7,0,10.3,4.6,10.3,10.3v29.2c0,5.7-4.6,10.3-10.3,10.3H115.7
	c-5.7,0-10.3-4.6-10.3-10.3V260.2z"/>
<path class="st2" d="M105.4,317c0-5.7,4.6-10.3,10.3-10.3h166.8c5.7,0,10.3,4.6,10.3,10.3v29.2c0,5.7-4.6,10.3-10.3,10.3H115.7
	c-5.7,0-10.3-4.6-10.3-10.3V317z"/>
<path class="st3" d="M267.1,221.5c0,2.4-1.9,4.3-4.3,4.3H194c-2.4,0-4.3-1.9-4.3-4.3s1.9-4.3,4.3-4.3h68.8
	C265.2,217.2,267.1,219.1,267.1,221.5z"/>
<path class="st3" d="M267.1,278.3c0,2.4-1.9,4.3-4.3,4.3H194c-2.4,0-4.3-1.9-4.3-4.3s1.9-4.3,4.3-4.3h68.8
	C265.2,274,267.1,275.9,267.1,278.3z"/>
<path class="st3" d="M267.1,335c0,2.4-1.9,4.3-4.3,4.3H194c-2.4,0-4.3-1.9-4.3-4.3s1.9-4.3,4.3-4.3h68.8
	C265.2,330.7,267.1,332.6,267.1,335z"/>
<path class="st4" d="M203.4,136.4v56.8h-6.9v-56.8H203.4z"/>
<path class="st4" d="M146.7,157h26.1c1.7,0,3.1,1.4,3.1,3.2v33h-6.2v-29.8h-23V157z"/>
<path class="st4" d="M253.3,157h-26.1c-1.7,0-3.1,1.4-3.1,3.2v33h6.2v-29.8h23V157z"/>
<path class="st5" d="M188,131.2c0-6.6,5.4-12,12-12c6.6,0,12,5.4,12,12c0,6.6-5.4,12-12,12C193.4,143.2,188,137.9,188,131.2z"/>
<path class="st5" d="M127.8,159.6c0-6.2,5-11.2,11.2-11.2s11.2,5,11.2,11.2s-5,11.2-11.2,11.2S127.8,165.8,127.8,159.6z"/>
<path class="st5" d="M272.2,159.6c0-6.2-5-11.2-11.2-11.2c-6.2,0-11.2,5-11.2,11.2s5,11.2,11.2,11.2
	C267.2,170.8,272.2,165.8,272.2,159.6z"/>
<path class="st6" d="M148.4,220.6c0,3.8-3.1,6.9-6.9,6.9s-6.9-3.1-6.9-6.9s3.1-6.9,6.9-6.9S148.4,216.8,148.4,220.6z"/>
<path class="st6" d="M148.4,277.4c0,3.8-3.1,6.9-6.9,6.9s-6.9-3.1-6.9-6.9c0-3.8,3.1-6.9,6.9-6.9S148.4,273.6,148.4,277.4z"/>
<path class="st6" d="M148.4,334.2c0,3.8-3.1,6.9-6.9,6.9s-6.9-3.1-6.9-6.9c0-3.8,3.1-6.9,6.9-6.9S148.4,330.4,148.4,334.2z"/>
<path class="st6" d="M174.2,220.6c0,3.8-3.1,6.9-6.9,6.9c-3.8,0-6.9-3.1-6.9-6.9s3.1-6.9,6.9-6.9
	C171.1,213.8,174.2,216.8,174.2,220.6z"/>
<path class="st6" d="M174.2,277.4c0,3.8-3.1,6.9-6.9,6.9c-3.8,0-6.9-3.1-6.9-6.9c0-3.8,3.1-6.9,6.9-6.9
	C171.1,270.5,174.2,273.6,174.2,277.4z"/>
<path class="st6" d="M174.2,334.2c0,3.8-3.1,6.9-6.9,6.9c-3.8,0-6.9-3.1-6.9-6.9c0-3.8,3.1-6.9,6.9-6.9
	C171.1,327.3,174.2,330.4,174.2,334.2z"/>
</svg>
