<svg width="400" height="400" viewBox="0 0 400 400" fill="none" xmlns="http://www.w3.org/2000/svg">
<rect width="400" height="400" fill="white"/>
<path fill-rule="evenodd" clip-rule="evenodd" d="M75.0383 125.799C68.8527 125.799 63.8384 130.813 63.8384 136.999V159.398C63.8384 160.707 64.063 161.964 64.4757 163.132C64.063 164.299 63.8384 165.556 63.8384 166.865V299.397C63.8384 305.582 68.8527 310.597 75.0383 310.597H280.369C286.555 310.597 291.569 305.582 291.569 299.397V166.865C291.569 160.68 286.555 155.665 280.369 155.665H145.192C144.998 155.125 144.759 154.589 144.473 154.061L132.331 131.661C130.373 128.049 126.594 125.799 122.485 125.799H75.0383Z" fill="#6E62C4"/>
<path fill-rule="evenodd" clip-rule="evenodd" d="M75.0383 125.799C68.8527 125.799 63.8384 130.813 63.8384 136.999V159.398C63.8384 160.707 64.063 161.964 64.4757 163.132C64.063 164.299 63.8384 165.556 63.8384 166.865V299.397C63.8384 305.582 68.8527 310.597 75.0383 310.597H280.369C286.555 310.597 291.569 305.582 291.569 299.397V166.865C291.569 160.68 286.555 155.665 280.369 155.665H145.192C144.998 155.125 144.759 154.589 144.473 154.061L132.331 131.661C130.373 128.049 126.594 125.799 122.485 125.799H75.0383Z" fill="url(#paint0_linear)"/>
<path fill-rule="evenodd" clip-rule="evenodd" d="M129.606 242.128C128.833 238.963 128.424 235.664 128.424 232.272C128.424 208.52 148.482 189.265 173.224 189.265C197.411 189.265 217.122 207.666 217.993 230.682C219.029 230.549 220.086 230.48 221.159 230.48C234.272 230.48 244.903 240.71 244.903 253.328C244.903 265.946 234.272 276.176 221.159 276.176C221.078 276.176 220.996 276.175 220.915 276.175C220.847 276.175 220.779 276.176 220.711 276.176H127.528C118.126 276.176 110.505 268.554 110.505 259.152C110.505 249.75 118.126 242.128 127.528 242.128H129.606Z" fill="#DAD8FF"/>
<path fill-rule="evenodd" clip-rule="evenodd" d="M311.817 139.016C307.298 134.374 299.94 131.961 291.015 134.576C288.541 135.301 285.949 133.884 285.224 131.41C284.499 128.937 285.917 126.345 288.39 125.62C300.368 122.11 311.387 125.194 318.504 132.505C325.592 139.786 328.353 150.795 324.857 162.164C324.099 164.627 321.488 166.01 319.025 165.253C316.561 164.495 315.178 161.884 315.936 159.42C318.498 151.088 316.365 143.688 311.817 139.016Z" fill="#2B175C"/>
<path fill-rule="evenodd" clip-rule="evenodd" d="M348.124 161.82C358.42 125 327.756 92.021 288.613 102.387C286.122 103.047 283.567 101.562 282.907 99.0711C282.247 96.5797 283.732 94.0251 286.224 93.3653C332.484 81.114 369.313 120.701 357.113 164.333C356.419 166.815 353.844 168.265 351.362 167.571C348.88 166.877 347.43 164.302 348.124 161.82Z" fill="#2B175C"/>
<defs>
<linearGradient id="paint0_linear" x1="82.235" y1="107.085" x2="386.815" y2="154.309" gradientUnits="userSpaceOnUse">
<stop stop-color="#584DCB"/>
<stop offset="1" stop-color="#6C8CFE"/>
</linearGradient>
</defs>
</svg>
