<svg width="100" height="40" viewBox="0 0 100 40" fill="none" xmlns="http://www.w3.org/2000/svg">
<path fill-rule="evenodd" clip-rule="evenodd" d="M42.9297 1.01947C39.6119 1.25087 36.8038 4.03701 36.8038 7.96168V26.6409C36.8038 27.3166 36.3033 27.8997 35.5712 27.8997L29.7326 27.8997C17.0915 27.9182 18.2129 11.7753 28.9726 11.7568H35.4414V7.06382H28.7502C24.4593 7.06382 21.2805 8.66516 19.1397 11.044C16.9896 13.4321 15.9145 16.6348 15.9145 19.8375C15.9053 23.0402 16.9711 26.2243 19.1675 28.6124C21.3639 30.9913 24.6817 32.5927 29.2321 32.5927H40.2513C40.9742 32.5927 41.5766 31.9632 41.5766 31.2412V8.46152C41.5673 7.28597 42.2346 6.37885 43.0965 6.11042C43.9584 5.84199 44.9686 6.18447 45.5617 7.03605L45.5895 7.06382C48.7219 12.1825 61.1591 32.1113 61.1776 32.1484C61.5205 32.6297 61.9283 32.7222 62.2249 32.6204C62.5214 32.5186 62.818 32.2039 62.818 31.4078L62.818 8.46152C62.8087 7.28597 63.476 6.37885 64.3379 6.11042C65.1998 5.84199 66.1914 6.18447 66.7845 7.03605V7.06382H66.8309C69.9633 12.1825 82.4005 32.1113 82.419 32.1484C82.7527 32.6297 83.1512 32.7222 83.4663 32.6204C83.7814 32.5186 84.0872 32.2224 84.0872 31.4356V1.1398H79.3607V18.8193C79.3607 18.8193 76.5433 14.0153 71.7242 5.73092C66.9977 -2.37759 58.073 0.982441 58.073 7.96168L58.073 18.8193C58.073 18.8193 55.302 14.0153 50.4735 5.73092C48.3976 2.18576 45.5153 0.825085 42.9297 1.01947ZM29.575 1.1398C3.29205 1.1398 3.54227 38.5537 29.9272 38.5722L40.2513 38.5722C44.6905 38.5722 47.5171 35.9527 47.5171 31.1024V21.6147C47.5171 21.6147 53.3094 31.1857 55.5892 34.9345C59.4538 41.3121 68.7863 40.0532 68.7585 32.0928V21.6147C68.7585 21.6147 74.5323 31.1857 76.8028 34.9345C80.6674 41.3121 90.0277 40.0532 89.9999 32.0928V1.13054H85.2735V31.4264C85.2827 32.5927 84.6711 33.4535 83.8277 33.7219C82.9843 33.9996 82.0205 33.6479 81.4274 32.8241H81.4089V32.7778C81.4089 32.7778 68.9624 12.9045 65.7929 7.72101C65.7836 7.71176 65.7744 7.73027 65.7651 7.72101C65.7558 7.72101 65.7744 7.69325 65.7651 7.69325C65.4407 7.2582 65.0144 7.16564 64.6715 7.26746C64.3194 7.37853 63.9764 7.68399 63.9857 8.45226L63.9857 31.3986C63.995 32.5556 63.3926 33.4627 62.5585 33.7497C61.7244 34.0274 60.7698 33.6571 60.186 32.8241V32.7963H60.1582C60.1582 32.7963 47.7025 12.886 44.5422 7.71176C44.2086 7.23969 43.7823 7.12861 43.4301 7.23969C43.078 7.35077 42.7351 7.65622 42.7443 8.42449V8.45226L42.7443 31.232C42.7443 32.6112 41.6044 33.7682 40.2235 33.7682H29.2136C24.3759 33.7682 20.7152 32.028 18.2963 29.4085C15.8775 26.789 14.682 23.3086 14.682 19.8282C14.6912 16.3571 15.8775 12.849 18.2407 10.2295C20.604 7.60994 24.1442 5.86976 28.7317 5.86976H35.4229V1.13054L29.575 1.1398Z" fill="#B9B9B9"/>
</svg>
