<?xml version="1.0" encoding="utf-8"?>
<!-- Generator: Adobe Illustrator 23.0.1, SVG Export Plug-In . SVG Version: 6.00 Build 0)  -->
<svg version="1.1" id="Layer_1" xmlns="http://www.w3.org/2000/svg" xmlns:xlink="http://www.w3.org/1999/xlink" x="0px" y="0px"
	 viewBox="0 0 400 400" style="enable-background:new 0 0 400 400;" xml:space="preserve">
<style type="text/css">
	.st0{fill-rule:evenodd;clip-rule:evenodd;fill:#FFFFFF;}
</style>
<path class="st0" d="M205.5,140.3c0-2.2,1.8-4,4-4h52.2c2.2,0,4,1.8,4,4v52.2c0,2.2-1.8,4-4,4h-52.2c-2.2,0-4-1.8-4-4L205.5,140.3
	L205.5,140.3z M141.3,136.3c-2.2,0-4,1.8-4,4v52.2c0,2.2,1.8,4,4,4h52.2c2.2,0,4-1.8,4-4v-52.2c0-2.2-1.8-4-4-4H141.3z M141.3,204.5
	c-2.2,0-4,1.8-4,4v52.2c0,2.2,1.8,4,4,4h52.2c2.2,0,4-1.8,4-4v-52.2c0-2.2-1.8-4-4-4L141.3,204.5L141.3,204.5z M209.5,204.5
	c-2.2,0-4,1.8-4,4v52.2c0,2.2,1.8,4,4,4h52.2c2.2,0,4-1.8,4-4v-52.2c0-2.2-1.8-4-4-4L209.5,204.5L209.5,204.5z"/>
<path class="st0" d="M335,188.4c2.8,0,5-2.3,5-5s-2.3-5-5-5h-41.1v-28.1H335c2.8,0,5-2.3,5-5s-2.3-5-5-5h-41.1v-20.1
	c0-6.6-5.4-12-12.1-12h-18.1V63c0-2.8-2.3-5-5-5c-2.8,0-5,2.3-5,5v45.2h-28.1V63c0-2.8-2.3-5-5-5c-2.8,0-5,2.3-5,5v45.2h-28.1V63
	c0-2.8-2.3-5-5-5s-5,2.3-5,5v45.2h-28.1V63c0-2.8-2.3-5-5-5s-5,2.3-5,5v45.2h-18.1c-6.6,0-12,5.4-12,12v20.1H62c-2.8,0-5,2.3-5,5
	s2.3,5,5,5h47.2v28.1H62c-2.8,0-5,2.2-5,5s2.3,5,5,5h47.2v28.1H62c-2.8,0-5,2.3-5,5c0,2.8,2.3,5,5,5h47.2v28.1H62c-2.8,0-5,2.2-5,5
	c0,2.8,2.3,5,5,5h47.2v16.1c0,6.7,5.4,12,12,12h18.1v43.1c0,2.8,2.3,5,5,5s5-2.3,5-5v-43.1h28.1v43.1c0,2.8,2.2,5,5,5s5-2.3,5-5
	v-43.1h28.1v43.1c0,2.8,2.3,5,5,5c2.8,0,5-2.3,5-5v-43.1h28.1v43.1c0,2.8,2.2,5,5,5c2.8,0,5-2.3,5-5v-43.1h18.1
	c6.7,0,12.1-5.4,12.1-12v-16.1H335c2.8,0,5-2.3,5-5c0-2.8-2.3-5-5-5h-41.1v-28.1H335c2.8,0,5-2.3,5-5c0-2.8-2.3-5-5-5h-41.1v-28.1
	L335,188.4L335,188.4z M283.8,280.8c0,1.1-0.9,2-2,2H121.2c-1.1,0-2-0.9-2-2V120.2c0-1.1,0.9-2,2-2h160.6c1.1,0,2,0.9,2,2V280.8z"/>
</svg>
