<svg width="100" height="40" viewBox="0 0 100 40" fill="none" xmlns="http://www.w3.org/2000/svg">
<path fill-rule="evenodd" clip-rule="evenodd" d="M25.8805 19.2492L25.8805 0H30.9069V12.5402C30.9069 12.5402 33.0527 8.79571 39.935 8.79571C47.3005 8.79571 51.6503 14.0419 51.6503 20.5558C51.6503 21.3351 51.5916 22.0883 51.4777 22.8116C52.6766 19.4596 56.7821 17.8059 63.5395 17.8059H69.6678V16.7138C69.6678 13.6519 67 12.0527 63.5395 12.0527C58.2232 12.0527 57.9525 15.4461 57.9525 15.4461H52.7329C52.7329 14.51 53.4095 8.7177 63.9069 8.7177C67.4941 8.7177 71.4305 9.48076 73.4152 12.4757L71.9104 9.63433H77.7873L86.2355 26.6992L94.6643 9.63433H100L84.6696 40H79.0826L83.5097 31.5358L74.0515 13.6772C74.4782 14.7092 74.7175 15.9435 74.7135 17.4159V28.3764C74.7135 29.6441 74.8875 31.6334 74.8875 31.6334H70.2478C70.2478 31.6334 70.1318 30.0341 70.1318 28.4154C70.1318 28.4154 67.7733 32.4915 60.4464 32.4915C55.0914 32.4915 51.109 29.8781 51.109 25.0804C51.109 24.8256 51.1207 24.5774 51.1441 24.3361C49.7488 29.2566 45.5739 32.4525 39.935 32.4525C33.304 32.4525 30.8682 28.6104 30.8682 28.6104C30.8682 30.0536 30.6942 31.6529 30.6942 31.6529H25.7645C25.7645 31.6529 25.8805 29.4295 25.8805 27.8498L25.8805 21.882H6.10369C6.10369 26.0946 9.27417 29.0785 13.6626 29.0785C19.0562 29.0785 20.1582 25.256 20.1582 25.256H25.3199C25.3199 25.256 24.6432 32.355 13.9719 32.355C4.9051 32.355 1 27.8498 1 20.7119C1 11.7016 6.81898 8.71771 13.7979 8.71771C23.2706 8.71771 25.8805 15.1146 25.8805 19.2492ZM20.6608 18.5471C20.6608 14.666 17.7996 12.0917 13.6239 12.0917C9.95079 12.0917 6.21968 14.432 6.23902 18.5471H20.6608ZM38.6784 12.2282C43.4148 12.2282 46.4306 15.7777 46.4306 20.5363C46.4306 25.646 42.9508 28.981 38.717 28.981C33.652 28.981 30.9262 25.0024 30.9262 20.5753C30.9262 16.4798 33.362 12.2282 38.6784 12.2282ZM69.6872 21.0824V22.5451C69.6872 24.4369 68.5272 29.1565 61.703 29.1565C57.9525 29.1565 56.348 27.2647 56.348 25.0804C56.348 21.1214 61.7417 21.0824 69.6872 21.0824Z" fill="#B9B9B9"/>
</svg>
