<svg width="100" height="40" viewBox="0 0 100 40" fill="none" xmlns="http://www.w3.org/2000/svg">
<g clip-path="url(#clip0)">
<path fill-rule="evenodd" clip-rule="evenodd" d="M12.84 28.6829C16.6055 28.6829 19.4429 27.4814 21.6641 25.2237C23.9506 22.9911 24.6605 19.8655 24.6605 17.3369C24.6605 16.5517 24.5988 15.8318 24.4753 15.2272H12.84V18.5987H21.1111C20.8642 20.4951 20.2135 21.8798 19.2299 22.8431C18.0242 24.0146 16.1435 25.3115 12.84 25.3115C7.7482 25.3115 3.76595 21.3079 3.76595 16.341C3.76595 11.3741 7.7482 7.36798 12.84 7.36798C15.5849 7.36798 17.5944 8.42407 19.0733 9.77867L21.5123 7.40059C19.4429 5.47655 16.698 3.99902 12.84 3.99902C5.86343 3.99902 0 9.53535 0 16.341C0 23.1441 5.86343 28.6829 12.84 28.6829ZM34.0773 28.6821C38.5809 28.6821 42.2537 25.3107 42.2537 20.7326C42.2537 16.1294 38.5809 12.7881 34.0773 12.7881C29.566 12.7881 25.8931 16.1294 25.8931 20.7326C25.8931 25.3107 29.566 28.6821 34.0773 28.6821ZM34.0766 25.5522C31.6049 25.5522 29.4727 23.5655 29.4727 20.7333C29.4727 17.8761 31.6049 15.922 34.0766 15.922C36.5431 15.922 38.6728 17.8761 38.6728 20.7333C38.6728 23.5655 36.5431 25.5522 34.0766 25.5522ZM51.9138 28.6821C56.42 28.6821 60.0928 25.3107 60.0928 20.7326C60.0928 16.1294 56.42 12.7881 51.9138 12.7881C47.4051 12.7881 43.7322 16.1294 43.7322 20.7326C43.7322 25.3107 47.4051 28.6821 51.9138 28.6821ZM51.9131 25.5522C49.444 25.5522 47.3118 23.5655 47.3118 20.7333C47.3118 17.8761 49.444 15.922 51.9131 15.922C54.3823 15.922 56.5119 17.8761 56.5119 20.7333C56.5119 23.5655 54.3823 25.5522 51.9131 25.5522ZM69.4445 35.8164C73.6395 35.8164 77.194 33.4107 77.194 27.5382V13.2697H73.7964V14.5641H73.6729C72.8679 13.631 71.3246 12.7881 69.3853 12.7881C65.3087 12.7881 61.5767 16.28 61.5767 20.7652C61.5767 25.2229 65.3087 28.6821 69.3853 28.6821C71.3246 28.6821 72.8679 27.8393 73.6729 26.876H73.7964V28.0199C73.7964 31.0627 72.1297 32.6857 69.4445 32.6857C67.2557 32.6857 65.8951 31.153 65.337 29.8536L62.2223 31.1204C63.1199 33.2301 65.4939 35.8164 69.4445 35.8164ZM69.688 25.5522C67.2214 25.5522 65.1509 23.5379 65.1509 20.7659C65.1509 17.9664 67.2214 15.922 69.688 15.922C72.1288 15.922 74.0424 17.9664 74.0424 20.7659C74.0424 23.5379 72.1288 25.5522 69.688 25.5522ZM83.2411 4.84242H79.6609V28.2018H83.2411V4.84242ZM93.0562 28.6821C96.7882 28.6821 98.9513 26.4571 99.8464 25.1602L97.066 23.3565C96.1427 24.676 94.8772 25.5515 93.0562 25.5515C91.2353 25.5515 89.9364 24.7387 89.1056 23.1433L100.001 18.7458L99.6303 17.8453C98.9513 16.0692 96.8808 12.7881 92.655 12.7881C88.4575 12.7881 84.9698 16.0115 84.9698 20.7326C84.9698 25.1903 88.4266 28.6821 93.0562 28.6821ZM88.5181 20.4956C88.4255 17.4276 90.9564 15.8598 92.7774 15.8598C94.1971 15.8598 95.4008 16.5522 95.8046 17.5456L88.5181 20.4956Z" fill="#B9B9B9"/>
</g>
<defs>
<clipPath id="clip0">
<rect width="100" height="40" fill="white"/>
</clipPath>
</defs>
</svg>
