<?xml version="1.0" encoding="utf-8"?>
<!-- Generator: Adobe Illustrator 23.0.1, SVG Export Plug-In . SVG Version: 6.00 Build 0)  -->
<svg version="1.1" id="Layer_1" xmlns="http://www.w3.org/2000/svg" xmlns:xlink="http://www.w3.org/1999/xlink" x="0px" y="0px"
	 viewBox="0 0 400 400" style="enable-background:new 0 0 400 400;" xml:space="preserve">
<style type="text/css">
	.st0{fill-rule:evenodd;clip-rule:evenodd;fill:url(#SVGID_1_);}
	.st1{fill-rule:evenodd;clip-rule:evenodd;fill:#2B175C;}
</style>
<linearGradient id="SVGID_1_" gradientUnits="userSpaceOnUse" x1="153.3568" y1="197.2942" x2="271.7458" y2="200.3132" gradientTransform="matrix(1 0 0 -1 0 400)">
	<stop  offset="0" style="stop-color:#584DCB"/>
	<stop  offset="1" style="stop-color:#6C8CFE"/>
</linearGradient>
<path class="st0" d="M144.3,141.3c-2.2,0-4,1.8-4,4v16.1c0,2.2,1.8,4,4,4h16.1c2.2,0,4-1.8,4-4v-16.1c0-2.2-1.8-4-4-4H144.3z
	 M144.3,173.4c-2.2,0-4,1.8-4,4v16.1c0,2.2,1.8,4,4,4h16.1c2.2,0,4-1.8,4-4v-16.1c0-2.2-1.8-4-4-4H144.3z M140.3,209.5
	c0-2.2,1.8-4,4-4h16.1c2.2,0,4,1.8,4,4v16.1c0,2.2-1.8,4-4,4h-16.1c-2.2,0-4-1.8-4-4V209.5z M144.3,237.6c-2.2,0-4,1.8-4,4v16.1
	c0,2.2,1.8,4,4,4h16.1c2.2,0,4-1.8,4-4v-16.1c0-2.2-1.8-4-4-4H144.3z M172.4,145.3c0-2.2,1.8-4,4-4h16.1c2.2,0,4,1.8,4,4v16.1
	c0,2.2-1.8,4-4,4h-16.1c-2.2,0-4-1.8-4-4V145.3z M176.4,173.4c-2.2,0-4,1.8-4,4v16.1c0,2.2,1.8,4,4,4h16.1c2.2,0,4-1.8,4-4v-16.1
	c0-2.2-1.8-4-4-4H176.4z M172.4,209.5c0-2.2,1.8-4,4-4h16.1c2.2,0,4,1.8,4,4v16.1c0,2.2-1.8,4-4,4h-16.1c-2.2,0-4-1.8-4-4V209.5z
	 M176.4,237.6c-2.2,0-4,1.8-4,4v16.1c0,2.2,1.8,4,4,4h16.1c2.2,0,4-1.8,4-4v-16.1c0-2.2-1.8-4-4-4H176.4z M204.5,145.3
	c0-2.2,1.8-4,4-4h16.1c2.2,0,4,1.8,4,4v16.1c0,2.2-1.8,4-4,4h-16.1c-2.2,0-4-1.8-4-4V145.3z M208.5,173.4c-2.2,0-4,1.8-4,4v16.1
	c0,2.2,1.8,4,4,4h16.1c2.2,0,4-1.8,4-4v-16.1c0-2.2-1.8-4-4-4H208.5z M204.5,209.5c0-2.2,1.8-4,4-4h16.1c2.2,0,4,1.8,4,4v16.1
	c0,2.2-1.8,4-4,4h-16.1c-2.2,0-4-1.8-4-4V209.5z M208.5,237.6c-2.2,0-4,1.8-4,4v16.1c0,2.2,1.8,4,4,4h16.1c2.2,0,4-1.8,4-4v-16.1
	c0-2.2-1.8-4-4-4H208.5z M236.6,145.3c0-2.2,1.8-4,4-4h16.1c2.2,0,4,1.8,4,4v16.1c0,2.2-1.8,4-4,4h-16.1c-2.2,0-4-1.8-4-4V145.3z
	 M240.6,173.4c-2.2,0-4,1.8-4,4v16.1c0,2.2,1.8,4,4,4h16.1c2.2,0,4-1.8,4-4v-16.1c0-2.2-1.8-4-4-4H240.6z M236.6,209.5
	c0-2.2,1.8-4,4-4h16.1c2.2,0,4,1.8,4,4v16.1c0,2.2-1.8,4-4,4h-16.1c-2.2,0-4-1.8-4-4V209.5z M240.6,237.6c-2.2,0-4,1.8-4,4v16.1
	c0,2.2,1.8,4,4,4h16.1c2.2,0,4-1.8,4-4v-16.1c0-2.2-1.8-4-4-4H240.6z"/>
<path class="st1" d="M336,189.5c2.8,0,5-2.3,5-5s-2.3-5-5-5h-41.1v-28.1H336c2.8,0,5-2.3,5-5s-2.3-5-5-5h-41.1v-20.1
	c0-6.6-5.4-12-12.1-12h-18.1V64c0-2.8-2.3-5-5-5c-2.8,0-5,2.3-5,5v45.2h-28.1V64c0-2.8-2.3-5-5-5c-2.8,0-5,2.3-5,5v45.2h-28.1V64
	c0-2.8-2.3-5-5-5s-5,2.3-5,5v45.2h-28.1V64c0-2.8-2.3-5-5-5s-5,2.3-5,5v45.2h-18.1c-6.6,0-12,5.4-12,12v20.1H63c-2.8,0-5,2.3-5,5
	s2.3,5,5,5h47.2v28.1H63c-2.8,0-5,2.2-5,5s2.3,5,5,5h47.2v28.1H63c-2.8,0-5,2.3-5,5c0,2.8,2.3,5,5,5h47.2v28.1H63c-2.8,0-5,2.2-5,5
	c0,2.8,2.3,5,5,5h47.2v16.1c0,6.7,5.4,12,12,12h18.1V337c0,2.8,2.3,5,5,5s5-2.3,5-5v-43.1h28.1V337c0,2.8,2.2,5,5,5s5-2.3,5-5v-43.1
	h28.1V337c0,2.8,2.3,5,5,5c2.8,0,5-2.3,5-5v-43.1h28.1V337c0,2.8,2.2,5,5,5c2.8,0,5-2.3,5-5v-43.1h18.1c6.7,0,12.1-5.4,12.1-12
	v-16.1H336c2.8,0,5-2.3,5-5c0-2.8-2.3-5-5-5h-41.1v-28.1H336c2.8,0,5-2.3,5-5c0-2.8-2.3-5-5-5h-41.1v-28.1H336z M284.8,281.8
	c0,1.1-0.9,2-2,2H122.2c-1.1,0-2-0.9-2-2V121.2c0-1.1,0.9-2,2-2h160.6c1.1,0,2,0.9,2,2V281.8z"/>
</svg>
