<?xml version="1.0" encoding="utf-8"?>
<!-- Generator: Adobe Illustrator 23.0.1, SVG Export Plug-In . SVG Version: 6.00 Build 0)  -->
<svg version="1.1" id="Layer_1" xmlns="http://www.w3.org/2000/svg" xmlns:xlink="http://www.w3.org/1999/xlink" x="0px" y="0px"
	 viewBox="0 0 400 400" style="enable-background:new 0 0 400 400;" xml:space="preserve">
<style type="text/css">
	.st0{fill-rule:evenodd;clip-rule:evenodd;fill:#FFFFFF;}
	.st1{fill:#FFFFFF;}
</style>
<path class="st0" d="M330.7,263.6v-66.2c0-1.1-0.9-2.1-2.1-2.1H70.4c-1.1,0-2.1,0.9-2.1,2.1v66.2c0,1.1,0.9,2.1,2.1,2.1h258.2
	C329.7,265.7,330.7,264.7,330.7,263.6z M341,197.4c0-6.9-5.5-12.4-12.4-12.4H70.4c-6.8,0-12.4,5.6-12.4,12.4v66.2
	c0,6.9,5.5,12.4,12.4,12.4h258.2c6.8,0,12.4-5.6,12.4-12.4V197.4z"/>
<path class="st1" d="M101.6,127.2c1.5-2.6,4.2-4.2,7.2-4.2h186.5c2.9,0,5.6,1.5,7.1,4l20.9,35.1c3.3,5.5-0.7,12.5-7.1,12.5H88.8
	c-6.3,0-10.3-6.9-7.2-12.4L101.6,127.2z"/>
<path class="st1" d="M113.8,229.5c0,6.3-5.1,11.4-11.4,11.4S91,235.8,91,229.5c0-6.3,5.1-11.4,11.4-11.4
	C108.7,218.1,113.8,223.2,113.8,229.5z"/>
<path class="st0" d="M142.7,229.5c0-2.9,2.3-5.2,5.2-5.2h154.9c2.9,0,5.2,2.3,5.2,5.2s-2.3,5.2-5.2,5.2H147.9
	C145,234.6,142.7,232.3,142.7,229.5z"/>
</svg>
