<svg width="20" height="22" viewBox="0 0 20 22" fill="none" xmlns="http://www.w3.org/2000/svg">
<path fill-rule="evenodd" clip-rule="evenodd" d="M6 1C6 0.447715 6.44772 0 7 0H13C13.5523 0 14 0.447715 14 1V7C14 7.55228 13.5523 8 13 8H10.75V10.25H16C16.1989 10.25 16.3897 10.329 16.5303 10.4697C16.671 10.6103 16.75 10.8011 16.75 11V14H19C19.5523 14 20 14.4477 20 15V21C20 21.5523 19.5523 22 19 22H13C12.4477 22 12 21.5523 12 21V15C12 14.4477 12.4477 14 13 14H15.25V11.75H4.75V14H7C7.55228 14 8 14.4477 8 15V21C8 21.5523 7.55228 22 7 22H1C0.447715 22 0 21.5523 0 21V15C0 14.4477 0.447715 14 1 14H3.25V11C3.25 10.5858 3.58579 10.25 4 10.25H9.25V8H7C6.44772 8 6 7.55228 6 7V1Z" fill="#584DCB"/>
</svg>
