<svg width="64" height="64" viewBox="0 0 64 64" fill="none" xmlns="http://www.w3.org/2000/svg">
<path d="M57.7042 15.2393C57.347 14.0965 56.4899 13.168 55.4185 12.5965L33.6333 2.16822C33.0619 1.88251 32.4191 1.81108 31.8476 1.81108C31.2762 1.81108 30.6334 1.81108 30.062 1.95393L8.27677 12.4537C7.20537 12.9537 6.41967 13.8822 6.13396 15.0965L0.776947 38.5959C0.562666 39.8102 0.848374 41.0244 1.56264 42.0244L16.6337 60.6668C17.4908 61.524 18.7051 62.0954 19.9194 62.1668H43.9188C45.2045 62.3097 46.4187 61.7382 47.2044 60.6668L62.2755 42.0244C62.9898 41.0244 63.2755 39.8102 63.1326 38.5959L57.7042 15.2393Z" fill="#326DE6"/>
<path d="M54.2986 37.6671C54.2272 37.6671 54.1557 37.6671 54.1557 37.5957C54.1557 37.5243 54.0129 37.5243 53.87 37.5243C53.5843 37.4528 53.2986 37.4528 53.0129 37.4528C52.87 37.4528 52.7272 37.4528 52.5843 37.3814H52.5129C51.7272 37.31 50.8701 37.1671 50.0844 36.9529C49.8701 36.8814 49.6558 36.6671 49.5844 36.4529C49.6558 36.4529 49.5844 36.4529 49.5844 36.4529L49.013 36.31C49.2987 34.2386 49.1558 32.0958 48.7273 30.0244C48.2273 27.9531 47.3702 25.9531 46.2273 24.1674L46.6559 23.7389V23.6675C46.6559 23.4532 46.7273 23.1675 46.8702 23.0246C47.513 22.4532 48.1559 22.0246 48.8701 21.5961C49.013 21.5246 49.1558 21.4532 49.2987 21.3818C49.5844 21.2389 49.7987 21.0961 50.0844 20.9532C50.1558 20.8818 50.2273 20.8818 50.2987 20.8104C50.3701 20.739 50.2987 20.739 50.2987 20.6675C50.9415 20.1675 51.0844 19.3104 50.5844 18.6676C50.3701 18.3819 49.9415 18.1676 49.5844 18.1676C49.2273 18.1676 48.8701 18.3104 48.5844 18.5247L48.513 18.5961C48.4416 18.6676 48.3702 18.739 48.2987 18.739C48.0844 18.9533 47.8702 19.1676 47.7273 19.3818C47.6559 19.5247 47.513 19.5961 47.4416 19.6676C46.9416 20.239 46.2988 20.8104 45.6559 21.2389C45.5131 21.3104 45.3702 21.3818 45.2274 21.3818C45.1559 21.3818 45.0131 21.3818 44.9417 21.3104H44.8702L44.2988 21.6675C43.7274 21.0961 43.0846 20.5247 42.5131 19.9533C39.8704 17.8819 36.5847 16.5962 33.2277 16.2391L33.1562 15.6676V15.7391C32.9419 15.5962 32.8705 15.3819 32.7991 15.1677C32.7991 14.382 32.7991 13.5963 32.9419 12.7391V12.6677C32.9419 12.5249 33.0134 12.382 33.0134 12.2392C33.0848 11.9534 33.0848 11.6677 33.1562 11.382V10.9535C33.2277 10.2392 32.6562 9.52493 31.942 9.4535C31.5134 9.38208 31.0848 9.59636 30.7277 9.95349C30.442 10.2392 30.2992 10.5963 30.2992 10.9535V11.3106C30.2992 11.5963 30.3706 11.882 30.442 12.1677C30.5134 12.3106 30.5134 12.4534 30.5134 12.5963V12.6677C30.6563 13.4534 30.6563 14.2391 30.6563 15.0962C30.5849 15.3105 30.5134 15.5248 30.2992 15.6676V15.8105L30.2277 16.3819C29.442 16.4533 28.6563 16.5962 27.7992 16.739C24.4421 17.4533 21.3708 19.239 19.0137 21.7389L18.5851 21.4532H18.5137C18.4423 21.4532 18.3709 21.5246 18.228 21.5246C18.0852 21.5246 17.9423 21.4532 17.7994 21.3818C17.1566 20.8818 16.5138 20.3104 16.0138 19.739C15.9423 19.5961 15.7995 19.5247 15.7281 19.4533C15.5138 19.239 15.3709 19.0247 15.1567 18.8104C15.0852 18.739 15.0138 18.739 14.9424 18.6676C14.8709 18.5961 14.8709 18.5961 14.8709 18.5961C14.5852 18.3819 14.2281 18.239 13.871 18.239C13.4424 18.239 13.0853 18.3819 12.871 18.739C12.4424 19.3818 12.5853 20.239 13.1567 20.739C13.2281 20.739 13.2281 20.8104 13.2281 20.8104C13.2281 20.8104 13.371 20.9532 13.4424 20.9532C13.6567 21.0961 13.9424 21.2389 14.2281 21.3818C14.371 21.4532 14.5138 21.5246 14.6567 21.5961C15.3709 22.0246 16.0852 22.4532 16.6566 23.0246C16.7995 23.1675 16.9423 23.4532 16.8709 23.6675V23.596L17.2995 24.0246C17.228 24.1674 17.1566 24.2389 17.0852 24.3817C14.8709 27.8816 13.9424 32.0244 14.5852 36.0957L14.0138 36.2386C14.0138 36.31 13.9424 36.31 13.9424 36.31C13.871 36.5243 13.6567 36.6671 13.4424 36.81C12.6567 37.0243 11.871 37.1671 11.0139 37.2386C10.871 37.2386 10.7282 37.2386 10.5853 37.31C10.2996 37.31 10.0139 37.3814 9.72821 37.3814C9.65678 37.3814 9.58535 37.4528 9.4425 37.4528C9.37107 37.4528 9.37107 37.4528 9.29965 37.5243C8.51395 37.6671 8.01396 38.3814 8.15682 39.1671C8.29967 39.8099 8.94251 40.2385 9.58535 40.1671C9.72821 40.1671 9.79963 40.1671 9.94249 40.0956C10.0139 40.0956 10.0139 40.0956 10.0139 40.0242C10.0139 39.9528 10.2282 40.0242 10.2996 40.0242C10.5853 39.9528 10.871 39.8099 11.0853 39.7385C11.2282 39.6671 11.371 39.5957 11.5139 39.5957H11.5853C12.371 39.3099 13.0853 39.0957 13.9424 38.9528H14.0138C14.2281 38.9528 14.4424 39.0242 14.5852 39.1671C14.6567 39.1671 14.6567 39.2385 14.6567 39.2385L15.2995 39.1671C16.3709 42.4527 18.3709 45.3812 21.1565 47.524C21.7993 48.024 22.3708 48.4526 23.085 48.8097L22.7279 49.3097C22.7279 49.3811 22.7993 49.3811 22.7993 49.3811C22.9422 49.5954 22.9422 49.8811 22.8708 50.0954C22.585 50.8097 22.1565 51.5239 21.7279 52.1668V52.2382C21.6565 52.3811 21.5851 52.4525 21.4422 52.5953C21.2994 52.7382 21.1565 53.0239 20.9422 53.3096C20.8708 53.381 20.8708 53.4525 20.7994 53.5239C20.7994 53.5239 20.7994 53.5953 20.7279 53.5953C20.3708 54.3096 20.6565 55.1667 21.2994 55.5238C21.4422 55.5953 21.6565 55.6667 21.7994 55.6667C22.3708 55.6667 22.8708 55.3096 23.1565 54.8096C23.1565 54.8096 23.1565 54.7382 23.2279 54.7382C23.2279 54.6667 23.2993 54.5953 23.3707 54.5239C23.4422 54.2382 23.585 54.0239 23.6565 53.7382L23.7993 53.3096C24.0136 52.5239 24.3707 51.8097 24.7279 51.0954C24.8707 50.8811 25.085 50.7382 25.2993 50.6668C25.3707 50.6668 25.3707 50.6668 25.3707 50.5954L25.6564 50.024C27.6564 50.8097 29.7277 51.1668 31.8705 51.1668C33.1562 51.1668 34.4419 51.024 35.7276 50.6668C36.5133 50.524 37.299 50.2383 38.0133 50.024L38.299 50.524C38.3704 50.524 38.3704 50.524 38.3704 50.5954C38.5847 50.6668 38.7989 50.8097 38.9418 51.024C39.2989 51.7382 39.6561 52.4525 39.8704 53.2382V53.3096L40.0132 53.7382C40.0846 54.0239 40.1561 54.3096 40.2989 54.5239C40.3703 54.5953 40.3703 54.6667 40.4418 54.7382C40.4418 54.7382 40.4418 54.8096 40.5132 54.8096C40.7989 55.3096 41.2989 55.6667 41.8703 55.6667C42.0846 55.6667 42.2274 55.5953 42.4417 55.5238C42.7274 55.381 43.0131 55.0953 43.0846 54.7382C43.156 54.381 43.156 54.0239 43.0131 53.6667C43.0131 53.5953 42.9417 53.5953 42.9417 53.5953C42.9417 53.5239 42.8703 53.4525 42.7989 53.381C42.656 53.0953 42.5131 52.8811 42.2989 52.6668C42.2274 52.5239 42.156 52.4525 42.0132 52.3096V52.1668C41.5132 51.5239 41.156 50.8097 40.8703 50.0954C40.7989 49.8811 40.7989 49.5954 40.9418 49.3811C40.9418 49.3097 41.0132 49.3097 41.0132 49.3097L40.7989 48.7383C44.4417 46.5241 47.2273 43.0956 48.513 39.0242L49.0844 39.0957C49.1558 39.0957 49.1558 39.0242 49.1558 39.0242C49.2987 38.8814 49.513 38.81 49.7273 38.81H49.7987C50.5844 38.9528 51.3701 39.1671 52.0844 39.4528H52.1558C52.2986 39.5242 52.4415 39.5957 52.5843 39.5957C52.87 39.7385 53.0843 39.8814 53.37 39.9528C53.4415 39.9528 53.5129 40.0242 53.6557 40.0242C53.7272 40.0242 53.7272 40.0242 53.7986 40.0956C53.9415 40.1671 54.0129 40.1671 54.1557 40.1671C54.7986 40.1671 55.37 39.7385 55.5843 39.1671C55.5128 38.3814 54.9414 37.81 54.2986 37.6671ZM33.6562 35.4529L31.7277 36.3814L29.7992 35.4529L29.2992 33.3815L30.6563 31.6673H32.7991L34.1562 33.3815L33.6562 35.4529ZM45.2988 30.8101C45.6559 32.3101 45.7274 33.8101 45.5845 35.31L38.7989 33.3815C38.1561 33.2387 37.799 32.5958 37.9418 31.953C38.0133 31.7387 38.0847 31.5958 38.2275 31.453L43.5845 26.596C44.3702 27.8816 44.9417 29.3102 45.2988 30.8101ZM41.4417 23.9532L35.5847 28.0959C35.0847 28.3816 34.3705 28.3102 34.0133 27.8102C33.8705 27.6674 33.7991 27.5245 33.7991 27.3102L33.3705 20.0961C36.5133 20.4532 39.2989 21.8104 41.4417 23.9532ZM28.5135 20.3104L29.942 20.0247L29.5849 27.1674C29.5849 27.8102 29.0135 28.3102 28.3706 28.3102C28.1563 28.3102 28.0135 28.2388 27.7992 28.1674L21.8708 23.9532C23.7279 22.1675 26.0135 20.8818 28.5135 20.3104ZM19.7994 26.596L25.085 31.3101C25.585 31.7387 25.6564 32.453 25.2278 32.9529C25.085 33.1672 24.9421 33.2387 24.6564 33.3101L17.728 35.31C17.5137 32.3101 18.228 29.2388 19.7994 26.596ZM18.5851 38.6671L25.6564 37.4528C26.2278 37.4528 26.7992 37.81 26.8707 38.3814C26.9421 38.5957 26.9421 38.8814 26.7992 39.0957L24.085 45.6669C21.5851 44.0241 19.5851 41.5242 18.5851 38.6671ZM34.799 47.524C33.7991 47.7383 32.7991 47.8812 31.7277 47.8812C30.2277 47.8812 28.6563 47.5955 27.2278 47.1669L30.7277 40.8099C31.0848 40.3813 31.6563 40.2385 32.1562 40.5242C32.3705 40.6671 32.5134 40.8099 32.7277 41.0242L36.1562 47.2383C35.7276 47.3098 35.299 47.3812 34.799 47.524ZM43.5131 41.3099C42.4417 43.0241 40.9418 44.5241 39.2275 45.5955L36.4419 38.8814C36.299 38.31 36.5847 37.7386 37.0847 37.5243C37.299 37.4528 37.5133 37.3814 37.7275 37.3814L44.8702 38.5957C44.5131 39.5957 44.0845 40.5242 43.5131 41.3099Z" fill="white"/>
</svg>
