<svg width="57" height="55" viewBox="0 0 57 55" fill="none" xmlns="http://www.w3.org/2000/svg">
<g opacity="0.98">
<path opacity="0.98" d="M51.0226 0H5.23631C3.8516 0.00402284 2.52475 0.555377 1.5456 1.53363C0.56646 2.51188 0.0146009 3.83751 0.0105743 5.22096V17.5262H12.7117V15.5165C12.7117 14.7675 13.0095 14.0493 13.5395 13.5197C14.0696 12.9901 14.7886 12.6925 15.5382 12.6925H40.7298C41.4795 12.6925 42.1984 12.9901 42.7285 13.5197C43.2585 14.0493 43.5563 14.7675 43.5563 15.5165V17.5262H56.2666V5.22096C56.2618 3.83459 55.7071 2.50666 54.7242 1.52807C53.7413 0.549468 52.4102 -8.45478e-06 51.0226 0Z" fill="#ED1944"/>
<path opacity="0.98" d="M43.5458 39.4863C43.545 40.235 43.2469 40.9528 42.717 41.4822C42.1871 42.0117 41.4686 42.3094 40.7192 42.3103H15.5277C14.7783 42.3094 14.0598 42.0117 13.5299 41.4822C13 40.9528 12.7019 40.235 12.7011 39.4863V37.4766H1.52588e-05V49.7788C0.00323653 51.1628 0.554733 52.4892 1.53396 53.4681C2.5132 54.447 3.84051 54.9988 5.22575 55.0028H51.012C52.4017 55.0052 53.7356 54.4564 54.7206 53.4769C55.7056 52.4974 56.2612 51.1673 56.2652 49.7788V37.4766H43.5458V39.4863Z" fill="#ED1944"/>
<path opacity="0.98" d="M12.7042 21.1557H0V33.8482H12.7042V21.1557Z" fill="#ED1944"/>
<path opacity="0.98" d="M56.2499 21.1557H43.5458V33.8482H56.2499V21.1557Z" fill="#ED1944"/>
</g>
</svg>
