<?xml version="1.0" encoding="utf-8"?>
<!-- Generator: Adobe Illustrator 23.0.1, SVG Export Plug-In . SVG Version: 6.00 Build 0)  -->
<svg version="1.1" id="Layer_1" xmlns="http://www.w3.org/2000/svg" xmlns:xlink="http://www.w3.org/1999/xlink" x="0px" y="0px"
	 viewBox="0 0 140 140" style="enable-background:new 0 0 140 140;" xml:space="preserve">
<style type="text/css">
	.st0{fill-rule:evenodd;clip-rule:evenodd;fill:url(#SVGID_1_);}
	.st1{fill-rule:evenodd;clip-rule:evenodd;fill:#2B175C;}
	.st2{fill:#DAD8FF;}
	.st3{fill:#6E62C4;}
</style>
<g>
	<g>
		<linearGradient id="SVGID_1_" gradientUnits="userSpaceOnUse" x1="8.8187" y1="51.3264" x2="159.7918" y2="21.9531">
			<stop  offset="0" style="stop-color:#584DCB"/>
			<stop  offset="1" style="stop-color:#6C8CFE"/>
		</linearGradient>
		<path class="st0" d="M106.6,34.5c-0.9,0-1.8,0.1-2.7,0.2C103.2,15.4,86.7,0,66.5,0C45.8,0,29,16.1,29,36c0,2.8,0.3,5.6,1,8.3h-1.7
			c-7.9,0-14.3,6.4-14.3,14.3s6.4,14.3,14.3,14.3h78.4c11,0,19.9-8.6,19.9-19.1C126.5,43.1,117.6,34.5,106.6,34.5z M43.6,55.5
			c-2.7,0-4.9-2.2-4.9-4.9c0-2.7,2.2-4.9,4.9-4.9c2.3,0,4.3,1.6,4.8,3.8c0.1,0.3,0.1,0.7,0.1,1.1c0,0.6-0.1,1.1-0.3,1.6v0
			C47.5,54.2,45.8,55.5,43.6,55.5z M71.8,43.3c-0.5,0.1-1,0.2-1.5,0.2s-1-0.1-1.5-0.2c-2.2-0.6-3.8-2.7-3.8-5c0-2.9,2.3-5.3,5.3-5.3
			s5.3,2.3,5.3,5.3C75.5,40.6,73.9,42.6,71.8,43.3z M96.9,55.5c-2.1,0-3.9-1.3-4.6-3.2c-0.2-0.5-0.3-1.1-0.3-1.6
			c0-0.4,0-0.8,0.1-1.1c0.5-2.2,2.4-3.8,4.7-3.8c2.7,0,4.9,2.2,4.9,4.9S99.6,55.5,96.9,55.5z"/>
		<path class="st1" d="M71.8,43.3v37.8h-3V43.3c0.5,0.1,1,0.2,1.5,0.2S71.3,43.4,71.8,43.3z"/>
		<path class="st1" d="M59.8,50.9v34.6H57V52.3h-8.8v0c0.2-0.5,0.3-1,0.3-1.6c0-0.4,0-0.8-0.1-1.1v0h10
			C59.1,49.5,59.8,50.1,59.8,50.9z"/>
		<path class="st1" d="M92.3,52.3h-8.8v33h-2.7V50.9c0-0.8,0.6-1.4,1.4-1.4h10C92,49.9,92,50.2,92,50.6C92,51.2,92.1,51.8,92.3,52.3
			z"/>
		<path class="st2" d="M98.4,84.8C98,84.8,84.8,85.5,70,78.7c-9.3,4.3-18.7,6.1-28.6,6.1v19.7c0,17,11.9,31.7,28.6,35.2
			c16.6-3.6,28.6-18.2,28.6-35.2L98.4,84.8z M72,114.2c0,1.1-0.9,2-2,2s-2-0.9-2-2v-2c0-1.1,0.9-2,2-2s2,0.9,2,2V114.2z"/>
		<path class="st3" d="M79.6,103.6H60.1c-1.1,0-2,0.7-2.3,1.8c-0.1,0.5-0.1-0.6-0.1,15.4c0,1.4,1.1,2.5,2.4,2.5h19.5
			c1.3,0,2.4-1.1,2.4-2.5V106C82,104.7,80.9,103.6,79.6,103.6z M72,114.2c0,1.1-0.9,2-2,2s-2-0.9-2-2v-2c0-1.1,0.9-2,2-2s2,0.9,2,2
			V114.2z"/>
		<path class="st3" d="M76,107.1c-1.1,0-2.1-0.9-2.1-2v-5.1c0-2.2-1.9-4.1-4.1-4.1c-2.3,0-4.1,1.8-4.1,4.1v5.1c0,1.1-0.9,2-2.1,2
			s-2.1-0.9-2.1-2v-5.1c0-4.5,3.7-8.1,8.3-8.1s8.3,3.7,8.3,8.1v5.1C78.1,106.1,77.2,107.1,76,107.1z"/>
	</g>
</g>
</svg>
