<?xml version="1.0" encoding="utf-8"?>
<!-- Generator: Adobe Illustrator 23.0.1, SVG Export Plug-In . SVG Version: 6.00 Build 0)  -->
<svg version="1.1" id="Layer_1" xmlns="http://www.w3.org/2000/svg" xmlns:xlink="http://www.w3.org/1999/xlink" x="0px" y="0px"
	 viewBox="0 0 400 400" style="enable-background:new 0 0 400 400;" xml:space="preserve">
<style type="text/css">
	.st0{fill-rule:evenodd;clip-rule:evenodd;fill:#FFFFFF;}
	.st1{fill:#FFFFFF;}
</style>
<path class="st0" d="M326,110.2h-27.2V64c0-2.8-2.2-5-5-5s-5,2.2-5,5v46.2h-28.1V64c0-2.8-2.2-5-5-5s-5,2.2-5,5v46.2h-28.1V64
	c0-2.8-2.2-5-5-5c-2.8,0-5,2.2-5,5v46.2h-28.2V64c0-2.8-2.2-5-5-5c-2.8,0-5,2.2-5,5v46.2h-28.1V64c0-2.8-2.2-5-5-5s-5,2.2-5,5v46.2
	h-28.2V64c0-2.8-2.2-5-5-5c-2.8,0-5,2.2-5,5v46.2H75c-6.7,0-12,5.4-12,12v160.6c0,6.7,5.4,12,12,12h23.1V337c0,2.8,2.2,5,5,5
	c2.8,0,5.1-2.2,5-5v-42.2h28.2V337c0,2.8,2.2,5,5,5s5-2.2,5-5v-42.2h28.1V337c0,2.8,2.2,5,5,5c2.8,0,5-2.2,5-5v-42.2h28.2V337
	c0,2.8,2.2,5,5,5c2.7,0,5-2.2,5-5v-42.2h28.1V337c0,2.8,2.2,5,5,5s5-2.2,5-5v-42.2h28.1V337c0,2.8,2.2,5,5,5s5.1-2.2,5-5v-42.2H326
	c6.7,0,12-5.4,12-12V122.2C338,115.5,332.6,110.2,326,110.2z M328,282.8c0,1.1-0.9,2-2,2H75c-1.1,0-2-0.9-2-2V122.2c0-1.1,0.9-2,2-2
	h251c1.1,0,2,0.9,2,2V282.8z"/>
<path class="st1" d="M99.1,158.4c0-2.2,1.8-4,4-4h192.7c2.2,0,4,1.8,4,4v94.3c0,2.2-1.8,4-4,4H103.1c-2.2,0-4-1.8-4-4V158.4z"/>
</svg>
