<?xml version="1.0" encoding="utf-8"?>
<!-- Generator: Adobe Illustrator 23.0.1, SVG Export Plug-In . SVG Version: 6.00 Build 0)  -->
<svg version="1.1" id="Layer_1" xmlns="http://www.w3.org/2000/svg" xmlns:xlink="http://www.w3.org/1999/xlink" x="0px" y="0px"
	 viewBox="0 0 400 400" style="enable-background:new 0 0 400 400;" xml:space="preserve">
<style type="text/css">
	.st0{fill-rule:evenodd;clip-rule:evenodd;fill:#2B175C;}
	.st1{fill:#FFFFFF;}
	.st2{fill:url(#SVGID_1_);}
</style>
<path class="st0" d="M255.7,342c-2.8,0-5-2.2-5-5l0-273c0-2.8,2.2-5,5-5c2.8,0,5,2.2,5,5v273C260.7,339.8,258.5,342,255.7,342z"/>
<path class="st0" d="M217.6,342c-2.8,0-5-2.2-5-5V64c0-2.8,2.2-5,5-5c2.8,0,5,2.2,5,5v273C222.6,339.8,220.3,342,217.6,342z"/>
<path class="st0" d="M293.8,342c-2.8,0-5-2.2-5-5V64c0-2.8,2.2-5,5-5c2.8,0,5,2.2,5,5v273C298.9,339.8,296.6,342,293.8,342z"/>
<path class="st0" d="M179.4,342c-2.8,0-5-2.2-5-5V64c0-2.8,2.2-5,5-5c2.8,0,5,2.2,5,5v273C184.4,339.8,182.2,342,179.4,342z"/>
<path class="st0" d="M103.1,342c-2.8,0-5-2.2-5-5V64c0-2.8,2.2-5,5-5c2.8,0,5,2.2,5,5v273C108.2,339.8,105.9,342,103.1,342z"/>
<path class="st0" d="M141.3,342c-2.8,0-5-2.2-5-5V64c0-2.8,2.2-5,5-5c2.8,0,5,2.2,5,5v273C146.3,339.8,144.1,342,141.3,342z"/>
<path class="st1" d="M326,110.2c6.7,0,12,5.4,12,12v160.6c0,6.7-5.4,12-12,12H75c-6.7,0-12-5.4-12-12V122.2c0-6.7,5.4-12,12-12H326z
	"/>
<path class="st0" d="M328,282.8l0-160.6c0-1.1-0.9-2-2-2H75c-1.1,0-2,0.9-2,2v160.6c0,1.1,0.9,2,2,2H326
	C327.1,284.8,328,283.9,328,282.8z M338,122.2c0-6.7-5.4-12-12-12H75c-6.7,0-12,5.4-12,12v160.6c0,6.7,5.4,12,12,12H326
	c6.7,0,12-5.4,12-12V122.2z"/>
<linearGradient id="SVGID_1_" gradientUnits="userSpaceOnUse" x1="148.6489" y1="180.7327" x2="325.8839" y2="228.6577" gradientTransform="matrix(1 0 0 -1 0 400)">
	<stop  offset="0" style="stop-color:#584DCB"/>
	<stop  offset="1" style="stop-color:#6C8CFE"/>
</linearGradient>
<path class="st2" d="M99.1,158.4c0-2.2,1.8-4,4-4h192.7c2.2,0,4,1.8,4,4v94.3c0,2.2-1.8,4-4,4H103.1c-2.2,0-4-1.8-4-4V158.4z"/>
</svg>
