<?xml version="1.0" encoding="utf-8"?>
<!-- Generator: Adobe Illustrator 23.0.1, SVG Export Plug-In . SVG Version: 6.00 Build 0)  -->
<svg version="1.1" id="Layer_1" xmlns="http://www.w3.org/2000/svg" xmlns:xlink="http://www.w3.org/1999/xlink" x="0px" y="0px"
	 viewBox="0 0 400 400" style="enable-background:new 0 0 400 400;" xml:space="preserve">
<style type="text/css">
	.st0{fill-rule:evenodd;clip-rule:evenodd;fill:#DAD8FF;}
	.st1{fill:url(#SVGID_1_);}
	.st2{fill:#5E60DA;filter:url(#Adobe_OpacityMaskFilter);}
	.st3{mask:url(#mask0_1_);}
	.st4{fill-rule:evenodd;clip-rule:evenodd;fill:#FFFFFF;}
	.st5{fill:#FFFFFF;}
</style>
<path class="st0" d="M100.5,162.3c-1.6-6.5-2.4-13.4-2.4-20.4c0-49.1,41.5-89,92.7-89c50,0,90.8,38.1,92.6,85.7
	c2.1-0.3,4.3-0.4,6.5-0.4c27.1,0,49.1,21.2,49.1,47.3s-22,47.3-49.1,47.3c-0.1,0-0.2,0-0.2,0c-0.1,0-0.2,0-0.3,0c-0.1,0-0.3,0-0.4,0
	H96.2C76.8,232.8,61,217,61,197.6s15.8-35.2,35.2-35.2H100.5z"/>
<linearGradient id="SVGID_1_" gradientUnits="userSpaceOnUse" x1="139.6502" y1="141.4979" x2="304.7962" y2="128.7549" gradientTransform="matrix(1 0 0 -1 0 400)">
	<stop  offset="0" style="stop-color:#584DCB"/>
	<stop  offset="1" style="stop-color:#6C8CFE"/>
</linearGradient>
<path class="st1" d="M138.7,184.1c17.8-28.9,108.3-24.2,121.3,0c0,0-0.3,94.7,0,142c1.8,45.7-121.3,49.8-121.3,0
	S138.7,184.1,138.7,184.1z"/>
<defs>
	<filter id="Adobe_OpacityMaskFilter" filterUnits="userSpaceOnUse" x="133.9" y="228" width="130.8" height="86.6">
		<feColorMatrix  type="matrix" values="1 0 0 0 0  0 1 0 0 0  0 0 1 0 0  0 0 0 1 0"/>
	</filter>
</defs>
<mask maskUnits="userSpaceOnUse" x="133.9" y="228" width="130.8" height="86.6" id="mask0_1_">
	<path class="st2" d="M138.7,184.1c17.8-28.9,108.3-24.2,121.3,0c0,0-0.3,94.7,0,142c1.8,45.7-121.3,49.8-121.3,0
		S138.7,184.1,138.7,184.1z"/>
</mask>
<g class="st3">
	<path class="st4" d="M242.7,301.3c11.5-5.8,18.3-14,17.9-24.1l4.1-0.2c0.5,12.5-8,21.8-20.1,27.9c-12.1,6.1-28.4,9.4-44.5,9.6
		c-16.2,0.3-32.5-2.5-44.9-8.5c-12.4-6-21.2-15.6-21.2-29h4.1c0,11.2,7.3,19.6,18.9,25.3c11.6,5.7,27.3,8.3,43.1,8.1
		C215.7,310.2,231.3,307.1,242.7,301.3z"/>
	<path class="st4" d="M242.7,252.2c11.5-5.8,18.3-14,17.9-24.1l4.1-0.2c0.5,12.5-8,21.8-20.1,27.9c-12.1,6.1-28.4,9.4-44.5,9.6
		c-16.2,0.3-32.5-2.5-44.9-8.5c-12.4-6-21.2-15.6-21.2-29h4.1c0,11.2,7.3,19.6,18.9,25.3c11.6,5.7,27.3,8.3,43.1,8.1
		C215.7,261.2,231.3,258,242.7,252.2z"/>
</g>
<path class="st5" d="M260,187.2c0,12.8-27.2,23.2-60.6,23.2c-33.5,0-60.6-10.4-60.6-23.2s27.2-23.2,60.6-23.2
	C232.8,164,260,174.4,260,187.2z"/>
</svg>
